<?xml version="1.0" encoding="UTF-8" standalone="no"?>
<svg
   xml:space="preserve"
   overflow="hidden"
   viewBox="0 0 1000 250"
   version="1.1"
   id="svg1032"
   sodipodi:docname="builtin.svg"
   inkscape:version="1.2.1 (9c6d41e, 2022-07-14)"
   xmlns:inkscape="http://www.inkscape.org/namespaces/inkscape"
   xmlns:sodipodi="http://sodipodi.sourceforge.net/DTD/sodipodi-0.dtd"
   xmlns="http://www.w3.org/2000/svg"
   xmlns:svg="http://www.w3.org/2000/svg"><defs
     id="defs1036" /><sodipodi:namedview
     id="namedview1034"
     pagecolor="#ffffff"
     bordercolor="#000000"
     borderopacity="0.25"
     inkscape:showpageshadow="2"
     inkscape:pageopacity="0.0"
     inkscape:pagecheckerboard="0"
     inkscape:deskcolor="#d1d1d1"
     showgrid="false"
     inkscape:zoom="0.944"
     inkscape:cx="474.57627"
     inkscape:cy="125"
     inkscape:window-width="1309"
     inkscape:window-height="456"
     inkscape:window-x="0"
     inkscape:window-y="44"
     inkscape:window-maximized="0"
     inkscape:current-layer="svg1032" /><path
     fill="#8be9fd"
     d="M37.3 30.5h17.4V34h-6.5v24.2h6.5V62H37.3v-3.6h6.6V34h-6.6zm44 30.2q-1.6.9-3.2 1.3-1.7.5-3.4.5-5.5 0-8.6-3.3-3-3.3-3-9 0-5.9 3-9.2 3.1-3.3 8.6-3.3 1.7 0 3.3.5 1.6.4 3.3 1.3v4.1q-1.6-1.4-3.1-2-1.6-.6-3.5-.6-3.7 0-5.6 2.4-2 2.3-2 6.7 0 4.3 2 6.8 2 2.3 5.6 2.3 2 0 3.6-.6 1.6-.7 3-2zM97.9 41q-3 0-4.6 2.4-1.5 2.2-1.5 6.7t1.5 6.8q1.6 2.3 4.5 2.3 3 0 4.5-2.3t1.5-6.8q0-4.5-1.5-6.8T97.8 41zm0-3.3q4.8 0 7.4 3.2Q108 44 108 50t-2.6 9.3q-2.6 3-7.5 3-4.8 0-7.4-3-2.7-3.3-2.7-9.3 0-6 2.6-9.1 2.6-3.3 7.4-3.3zm35 9.6v14.6h-4V47.3q0-3.1-1-4.7-1.1-1.6-3.5-1.6-2.7 0-4.2 2t-1.5 5.6v13.3H115V38.4h3.9v3.4q1-2 2.7-3 1.8-1 4.3-1 3.5 0 5.3 2.3 1.8 2.3 1.8 7.2zm11.6-1.3v12.3h5q3.7 0 5.2-1.2 1.6-1.3 1.6-4.2 0-4-1.6-5.4-1.7-1.5-5.2-1.5zm0-12v8.6h5q3 0 4.3-1.2 1.4-1.1 1.4-3 0-2.3-1.3-3.4-1.4-1-4.5-1zm-4.3-3.5h9.4q4.7 0 7.3 2 2.7 2.1 2.7 6 0 2-1.4 3.6-1.3 1.7-4.2 2.1 3.2.5 4.9 2.7 1.8 2.1 1.8 6.3 0 4.3-2.8 6.5t-8.3 2.2h-9.4zm26.5 22.4V38.4h4v14.5q0 3.2 1 4.7 1.1 1.5 3.5 1.5 2.7 0 4.1-2 1.5-1.8 1.5-5.4V38.4h4v23.5h-4v-3.6q-1 2-2.8 3.2-1.8 1-4.2 1-3.6 0-5.4-2.4-1.7-2.3-1.7-7.2zm34.7-21.3v6.7h8.8v3h-8.8V54q0 2.6 1 3.6 1 1.1 3.5 1.1h4.3V62h-4.7q-4.4 0-6.1-1.8-1.8-1.8-1.8-6V41.3h-6.3v-3h6.3v-6.7zm26 0v6.7h8.7v3h-8.8V54q0 2.6 1 3.6 1 1.1 3.5 1.1h4.3V62h-4.7q-4.4 0-6.2-1.8-1.7-1.8-1.7-6V41.3h-6.3v-3h6.3v-6.7zm25.8 9.4q-2.8 0-4.4 2.4-1.5 2.2-1.5 6.7t1.6 6.8q1.5 2.3 4.3 2.3 3 0 4.6-2.3 1.5-2.3 1.5-6.8t-1.6-6.8q-1.5-2.3-4.5-2.3zm0-3.3q5 0 7.6 3.2 2.6 3.2 2.6 9.2 0 6-2.6 9.3-2.6 3-7.6 3-4.8 0-7.4-3-2.6-3.3-2.6-9.3 0-6 2.6-9.1 2.6-3.3 7.4-3.3zm35.1 9.6v14.6h-3.9V47.3q0-3.1-1-4.7-1.2-1.6-3.5-1.6-2.8 0-4.3 2-1.4 2-1.4 5.6v13.3h-3.9V38.4h4v3.4q1-2 2.7-3 1.8-1 4.2-1 3.6 0 5.3 2.3 1.8 2.3 1.8 7.2z"
     aria-label="IconButton"
     font-family="Menlo, Menlo_MSFontService, sans-serif"
     font-size="55"
     id="path1002" /><path
     fill="#f8f8f2"
     d="M311 27q-2.8 4.9-4.1 9.6-1.4 4.7-1.4 9.6 0 4.9 1.4 9.6 1.3 4.7 4.1 9.7h-3.3q-3.2-5-4.7-9.8-1.6-4.7-1.6-9.4t1.6-9.5q1.5-4.7 4.7-9.7z"
     aria-label="("
     font-family="Menlo, Menlo_MSFontService, sans-serif"
     font-size="55"
     id="path1004" /><path
     fill="#ffb86c"
     d="M92.6 90h10l-4 20.6h7.7l-.7 3H86.5l.5-3h7.7L98 93h-6zm7.8-9.2h4l-1.1 5h-4zm30.4 31.7q-1.6.7-3.4 1.2-1.7.5-3.6.5-4.7 0-7.1-2.4-2.4-2.3-2.4-7 0-3.2 1-6.1 1.2-3 3.1-5.1 2-2.1 4.3-3.2 2.4-1 5.2-1 1.8 0 3.6.5 1.7.5 3.3 1.3l-.7 3.9q-1.4-1.3-2.9-1.8-1.5-.6-3.2-.6-2.4 0-4.1 1-1.8.9-3.1 2.8-1.1 1.7-1.8 3.9t-.7 4.4q0 3 1.4 4.6 1.5 1.5 4.3 1.5 2 0 4-.6 1.8-.7 3.6-2zm20.7-19.8q-3.4 0-5.8 3.6-2.3 3.6-2.3 9.2 0 2.6 1.2 4t3.6 1.4q3.4 0 5.7-3.6 2.3-3.6 2.3-9.2 0-2.6-1.1-4-1.2-1.4-3.6-1.4zm.3-3.3q4.2 0 6.3 2.3 2.2 2.2 2.2 6.6 0 2.9-.9 5.8-.8 2.8-2.4 5-1.6 2.6-4 3.8-2.4 1.3-5.5 1.3-4 0-6-2.4-2.2-2.2-2.2-6.6 0-2.8.9-5.6.8-2.8 2.4-5.2 1.7-2.4 4-3.7 2.3-1.3 5.2-1.3zm33.6 9.6-2.9 14.5h-3.9l3-14.6v-.2l.3-2.4q0-1.7-1-2.6-1-.9-2.8-.9-2.7 0-4.6 2-1.8 2-2.5 5.4l-2.6 13.3h-3.9l4.7-23.4h3.8l-.6 3.4q1.5-2 3.3-3 1.9-1 4-1 3 0 4.5 1.5t1.5 4.2V97z"
     aria-label="icon"
     font-family="Menlo, Menlo_MSFontService, sans-serif"
     font-size="55"
     font-style="italic"
     id="path1006" /><path
     fill="#ff79c6"
     d="M198.1 90h6.5v7.6h-6.5zm0 15.9h6.5v7.6h-6.5z"
     aria-label=":"
     font-family="Menlo, Menlo_MSFontService, sans-serif"
     font-size="55"
     id="path1008" /><path
     fill="#ff79c6"
     d="M263.4 112.4q-1.6.8-3.3 1.3-1.5.5-3.3.5-5.5 0-8.6-3.3-3-3.3-3-9.1t3-9q3.2-3.4 8.7-3.4 1.5 0 3.2.5 1.6.4 3.3 1.3v4.1q-1.6-1.4-3.2-2-1.5-.6-3.4-.6-3.6 0-5.6 2.4-2 2.3-2 6.7 0 4.3 2 6.7 2 2.4 5.6 2.4 2 0 3.6-.6 1.5-.7 3-2zM280 92.7q-3 0-4.5 2.4-1.6 2.2-1.6 6.7t1.6 6.8q1.5 2.3 4.5 2.3 2.9 0 4.4-2.4 1.5-2.2 1.5-6.7t-1.6-6.8q-1.4-2.4-4.3-2.4zm0-3.3q4.8 0 7.4 3.2 2.6 3.2 2.6 9.2 0 6-2.6 9.2-2.6 3.2-7.4 3.2-5 0-7.6-3.2-2.5-3.2-2.5-9.2 0-6 2.5-9.2 2.6-3.2 7.6-3.2zm35 9.6v14.5h-4V99q0-3.2-1-4.7-1.2-1.6-3.5-1.6-2.7 0-4.2 2-1.4 2-1.4 5.5v13.3h-4V90.1h4v3.4q1-2 2.8-3 1.7-1 4.1-1 3.6 0 5.4 2.3Q315 94 315 99zm24.2-8.2v3.8q-1.6-1-3.3-1.4-1.7-.6-3.4-.6-2.7 0-4 .9-1.2.9-1.2 2.6 0 1.6.9 2.3 1 .8 4.8 1.6l1.6.3q3 .6 4.3 2.1 1.6 1.7 1.6 4.3 0 3.6-2.5 5.5-2.5 2-7 2-1.7 0-3.6-.4-1.9-.4-4.1-1.1v-4q2.2 1 4.1 1.6 2 .6 3.8.6 2.6 0 3.9-1 1.4-1 1.4-3 0-2.6-5.1-3.7h-.2l-1.4-.3q-3.4-.6-4.9-2.2-1.6-1.6-1.6-4.2 0-3.4 2.4-5.2 2.3-1.9 6.5-1.9 1.9 0 3.6.4 1.8.3 3.4 1zm18.4-7.5V90h8.8v3h-8.8v12.7q0 2.6 1 3.6 1 1.1 3.4 1.1h4.4v3h-4.7q-4.4 0-6.2-1.7-1.8-1.8-1.8-6V93h-6.2v-3.1h6.2v-6.7z"
     aria-label="const"
     font-family="Menlo, Menlo_MSFontService, sans-serif"
     font-size="55"
     id="path1010" /><path
     fill="#8be9fd"
     d="M401.3 82.1h17.4v3.6h-6.6V110h6.6v3.5h-17.4V110h6.5V85.7h-6.5zm44 30.3q-1.6.8-3.2 1.3-1.7.5-3.4.5-5.5 0-8.6-3.3-3-3.3-3-9.1t3-9q3.2-3.4 8.7-3.4 1.5 0 3.3.5 1.5.4 3.2 1.3v4.1q-1.6-1.4-3.2-2-1.5-.6-3.4-.6-3.6 0-5.6 2.4-2 2.3-2 6.7 0 4.3 2 6.7 2 2.4 5.6 2.4 2 0 3.6-.6 1.6-.7 3-2zm16.6-19.7q-3 0-4.5 2.4-1.6 2.2-1.6 6.7t1.6 6.8q1.5 2.3 4.5 2.3 2.9 0 4.4-2.4 1.5-2.2 1.5-6.7t-1.6-6.8q-1.4-2.4-4.3-2.4zm0-3.3q4.8 0 7.4 3.2 2.6 3.2 2.6 9.2 0 6-2.6 9.2-2.6 3.2-7.4 3.2-5 0-7.6-3.2-2.5-3.2-2.5-9.2 0-6 2.5-9.2 2.6-3.2 7.6-3.2zm35 9.6v14.5h-4V99q0-3.2-1-4.7-1.1-1.6-3.5-1.6-2.7 0-4.2 2-1.4 2-1.4 5.5v13.3h-4V90.1h4v3.4q1-2 2.8-3 1.7-1 4.1-1 3.6 0 5.4 2.3 1.8 2.3 1.8 7.2z"
     aria-label="Icon"
     font-family="Menlo, Menlo_MSFontService, sans-serif"
     font-size="55"
     id="path1012" /><path
     fill="#f8f8f2"
     d="M519 78.8q-2.8 4.8-4.1 9.5-1.4 4.7-1.4 9.6 0 4.8 1.4 9.6 1.3 4.7 4.1 9.6h-3.3q-3.2-5-4.7-9.7-1.6-4.7-1.6-9.4t1.6-9.5q1.5-4.7 4.7-9.7z"
     aria-label="("
     font-family="Menlo, Menlo_MSFontService, sans-serif"
     font-size="55"
     id="path1014" /><path
     fill="#8be9fd"
     d="M543.1 98.7q1.6.3 2.5 1.5 1 1 2 4.7l2.6 8.6H546l-2.2-7.9q-1-3.3-2.1-4.3-1.2-1-3.5-1h-4l-2.6 13.2h-4.3l6.1-31.4h8.7q4.4 0 6.8 2 2.3 1.8 2.3 5.3 0 3.8-2.1 6.3-2.2 2.5-6 3zm-6-13-2.3 11h4.7q3.4 0 5.4-1.7 2-1.8 2-4.8 0-2.3-1.2-3.4-1.4-1.1-4.2-1.1zm42-4.9-.6 3.2h-4.3q-2 0-3.1.9-1 1-1.4 3l-.5 2h8.2l-.6 3.1h-8.1l-4 20.5h-3.9l4-20.5h-6.3l.6-3h6.3l.3-1.6q.8-4.1 2.8-5.9 2-1.7 6-1.7zm12.4 24.1-.2 1.4v.9q0 1.6.9 2.4 1 .7 2.8.7h4.5l-.8 3.2h-4.3q-3.6 0-5.4-1.3-1.8-1.3-1.8-4l.1-1.5.3-1.8 4.5-21.3h-6.7l.7-3h10.5zM630 90.1l-10.7 11.3 6.7 12h-4l-5.2-9.3-8.7 9.4h-4.7l11.7-12.6-6-11h4l4.6 8.3 7.8-8.3zm7.9-8h17.4l-.7 3.6h-6.5l-4.7 24.3h6.5l-.7 3.5H632l.7-3.6h6.6l4.7-24.2h-6.6zm38.4 30.4q-1.6.7-3.3 1.2-1.8.5-3.6.5-4.7 0-7.2-2.4-2.4-2.3-2.4-7 0-3.2 1.1-6.1 1.2-3 3.1-5.1 2-2.1 4.3-3.2 2.3-1 5.1-1 1.8 0 3.6.5t3.4 1.3l-.8 3.9q-1.3-1.3-2.8-1.8-1.5-.6-3.3-.6-2.3 0-4 1-1.9.9-3.2 2.8-1 1.7-1.8 3.9-.6 2.2-.6 4.4 0 3 1.4 4.6 1.5 1.5 4.3 1.5 2 0 4-.6 1.8-.7 3.5-2zm20.8-19.8q-3.5 0-5.8 3.6-2.4 3.6-2.4 9.2 0 2.6 1.3 4 1.2 1.4 3.5 1.4 3.5 0 5.7-3.6 2.4-3.6 2.4-9.2 0-2.6-1.2-4t-3.5-1.4zm.3-3.3q4.1 0 6.3 2.3 2.2 2.2 2.2 6.6 0 2.9-1 5.8-.8 2.8-2.3 5-1.7 2.6-4.1 3.8-2.4 1.3-5.5 1.3-4 0-6-2.4-2.1-2.2-2.1-6.6 0-2.8.8-5.6.9-2.8 2.5-5.2 1.7-2.4 4-3.7 2.3-1.3 5.2-1.3zM731 99l-2.7 14.5h-4l3-14.6v-.2l.3-2.4q0-1.7-1-2.6-1-.9-2.8-.9-2.7 0-4.5 2-1.8 2-2.5 5.4l-2.6 13.3h-4l4.8-23.4h3.7l-.6 3.4q1.6-2 3.4-3 1.8-1 3.9-1 3 0 4.5 1.5 1.6 1.5 1.6 4.2V97l-.4 2zm26-8.2-.8 3.8q-1.5-1-3.1-1.4-1.6-.6-3.3-.6-2.8 0-4.5 1.1-1.5 1.1-1.5 3 0 2.1 4.7 3.3h.4l1.5.5q2.5.7 3.7 2 1.2 1.3 1.2 3.1 0 3.9-3 6.2-3.1 2.4-8 2.4-1.8 0-3.6-.4-1.9-.4-3.9-1.1l.8-4q2 1 3.7 1.6 2 .6 3.6.6 2.9 0 4.7-1.2 1.7-1.3 1.7-3.2 0-2.1-4-3.1l-.7-.3-1.4-.3q-2.7-.8-4-2.1-1.3-1.3-1.3-3.4 0-3.6 2.8-5.8 2.8-2 7.5-2 1.9 0 3.5.3 1.7.3 3.3 1z"
     aria-label="RflxIcons"
     font-family="Menlo, Menlo_MSFontService, sans-serif"
     font-size="55"
     font-style="italic"
     id="path1016" /><path
     fill="#f8f8f2"
     d="M769.2 105h7.5v8.5h-7.5zm41.3-5.2v2h-16.7q-.2 4.9 1.8 7 2 2 5.7 2 1.8 0 3.9-.5 2-.6 4.3-1.8v3.9q-2.2.8-4.3 1.3-2 .5-4 .5-5.4 0-8.6-3.3-3-3.3-3-9.1 0-5.6 3-9 3-3.4 8.1-3.4 4.5 0 7 3 2.6 3.1 2.8 7.4zm-3.8-1.1q-.3-2.4-1.8-4.2-1.6-1.8-4.4-1.8-2.8 0-4.6 1.8-1.8 1.9-2 4.2zm24.2-5.7V80.8h4v32.7h-4v-3q-1 1.8-2.6 2.7-1.5 1-3.6 1-4.3 0-6.8-3.3-2.4-3.4-2.4-9.2 0-5.8 2.4-9 2.5-3.3 6.8-3.3 2 0 3.6 1 1.7.8 2.6 2.6zm-11.3 8.8q0 4.5 1.4 6.8t4.2 2.3q2.8 0 4.2-2.4 1.5-2.3 1.5-6.7 0-4.5-1.5-6.8-1.4-2.4-4.2-2.4-2.8 0-4.2 2.4-1.4 2.3-1.4 6.8zm25.8-11.7h10v20.5h7.6v3h-19.2v-3h7.6V93h-6zm6-9.2h4v5h-4zm26.2 2.4V90h8.8v3h-8.8v12.7q0 2.6 1 3.6 1 1.1 3.5 1.1h4.3v3h-4.7q-4.4 0-6.1-1.7-1.8-1.8-1.8-6V93h-6.3v-3.1h6.3v-6.7zm20.4-4.5h3.3q3.2 5 4.7 9.7 1.6 4.7 1.6 9.4t-1.6 9.5q-1.5 4.7-4.7 9.7H898q2.7-4.9 4.1-9.7 1.4-4.7 1.4-9.5 0-4.7-1.4-9.6-1.4-4.7-4.1-9.5zm27.8 27.2h6.6v5.5l-4.7 9.1h-4.2l2.3-9z"
     aria-label=".edit),"
     font-family="Menlo, Menlo_MSFontService, sans-serif"
     font-size="55"
     id="path1018" /><path
     fill="#ffb86c"
     d="m101.2 135-1.3 6.7h8.8l-.6 3h-8.8l-2.5 12.8-.2 1.2v1q0 1.3.7 2 .8.5 3 .5h4.4l-.6 3h-4.7q-3.6 0-5.2-1.1-1.6-1.2-1.6-3.6v-1.3l.4-1.7 2.5-12.8h-6.3l.5-3H96l1.3-6.7zm24.4 9.4q-3.4 0-5.8 3.6-2.3 3.6-2.3 9.2 0 2.6 1.2 4t3.5 1.4q3.5 0 5.8-3.6t2.3-9.2q0-2.7-1.2-4-1.1-1.4-3.5-1.4zm.3-3.3q4.2 0 6.3 2.3 2.2 2.2 2.2 6.6 0 2.9-.9 5.8-.8 2.8-2.3 5-1.8 2.6-4.1 3.8-2.4 1.3-5.5 1.3-3.9 0-6-2.4-2.2-2.3-2.2-6.6 0-2.8.9-5.6.8-2.8 2.5-5.3 1.5-2.3 3.9-3.6 2.3-1.3 5.2-1.3zm25.6 3.3q-3.4 0-5.8 3.6-2.3 3.6-2.3 9.2 0 2.6 1.2 4t3.6 1.4q3.4 0 5.7-3.6 2.3-3.6 2.3-9.2 0-2.7-1.1-4-1.2-1.4-3.6-1.4zm.3-3.3q4.2 0 6.3 2.3 2.2 2.2 2.2 6.6 0 2.9-.9 5.8-.8 2.8-2.4 5-1.6 2.6-4 3.8-2.4 1.3-5.5 1.3-4 0-6-2.4-2.2-2.3-2.2-6.6 0-2.8.9-5.6.8-2.8 2.4-5.3 1.7-2.3 4-3.6 2.3-1.3 5.2-1.3zm23.6 15.5-.2 1.3-.1 1q0 1.6 1 2.3.9.8 2.8.8h4.4l-.6 3.2h-4.4q-3.6 0-5.5-1.3-1.7-1.3-1.7-4l.2-1.6.2-1.8 4.5-21.2h-6.7l.6-3h10.5zM205 135l-1.4 6.7h8.8l-.6 3H203l-2.5 12.7-.3 1.2v1q0 1.3.8 2 .8.5 3 .5h4.3l-.6 3H203q-3.5 0-5.1-1.1-1.7-1.2-1.7-3.6V159l.4-1.7 2.5-12.8h-6.3l.5-3h6.3l1.3-6.7zm17.3 6.7h9.8l-4 20.6h7.7l-.6 3H216l.6-3h7.7l3.4-17.6h-6zm7.8-9.2h3.8l-1 5H229zm16.7 29.8-2.4 11.9h-3.9l6.4-32.5h3.9l-.7 3q1.4-1.7 3.2-2.6 1.8-1 3.9-1 3.4 0 5.2 2.2 2 2.2 2 6.1 0 3-.9 6-.8 3.1-2.3 5.4-1.6 2.5-3.7 3.7-2.2 1.4-4.7 1.4-2.1 0-3.6-.9-1.6-1-2.4-2.7zm5.8.3q1.7 0 3.1-1 1.4-1 2.3-2.7 1-2 1.6-4.3.6-2.5.6-4.9 0-2.6-1-4-1.2-1.3-3.3-1.3-1.8 0-3.2 1-1.5.9-2.4 2.8-1.1 1.8-1.6 4.2-.7 2.3-.7 4.8t1.2 4q1.2 1.4 3.4 1.4z"
     aria-label="tooltip"
     font-family="Menlo, Menlo_MSFontService, sans-serif"
     font-size="55"
     font-style="italic"
     id="path1020" /><path
     fill="#ff79c6"
     d="M276.1 141.7h6.5v7.6h-6.5zm0 15.9h6.5v7.6h-6.5z"
     aria-label=":"
     font-family="Menlo, Menlo_MSFontService, sans-serif"
     font-size="55"
     id="path1022" /><path
     fill="#f8f8f2"
     d="M334 144.9h-5v-4.3l4-8.1h3.4l-2.2 8z"
     aria-label="‘"
     font-family="Menlo, Menlo_MSFontService, sans-serif"
     font-size="55"
     id="path1024" /><path
     fill="#fff"
     d="M352.3 133.8H371l-.7 3.6h-14.4l-1.8 9.3h13.7l-.7 3.6h-13.7l-2.2 11.3H366l-.7 3.6h-19zm33 10.6q-1.7 0-3.2 1-1.4.8-2.3 2.7-1.1 1.9-1.6 4.3-.6 2.3-.6 4.8 0 2.7 1.1 4 1 1.4 3.1 1.4 1.8 0 3.2-1 1.5-1 2.5-2.8 1-1.8 1.6-4.2.6-2.4.6-4.9 0-2.5-1.1-3.9t-3.2-1.4zm5.7.3 2.4-12.2h4l-6.5 32.7H387l.6-3q-1.3 1.9-3.1 2.7-1.7 1-3.8 1-3.4 0-5.4-2.2-1.8-2.3-1.8-6.3 0-2.9.8-6 .8-3 2.4-5.3 1.5-2.5 3.6-3.7 2.2-1.3 4.7-1.3 2 0 3.6 1 1.6.8 2.4 2.6zm13.4-3h10l-4 20.6h7.6l-.6 3h-19.2l.5-3h7.7l3.4-17.6h-6zm7.8-9.2h4l-1 5h-4zM439 135l-1.2 6.7h8.7l-.7 3H437l-2.5 12.8-.2 1.2v1q0 1.3.7 2 .8.5 3 .5h4.4l-.7 3H437q-3.5 0-5.1-1.1-1.6-1.2-1.6-3.6v-1.3l.3-1.7 2.5-12.8H427l.5-3h6.3l1.3-6.7z"
     aria-label="Edit"
     font-family="Menlo, Menlo_MSFontService, sans-serif"
     font-size="55"
     font-style="italic"
     id="path1026" /><path
     fill="#f8f8f2"
     d="M498.6 151.5v2h-16.8q-.1 4.8 2 7 1.9 2 5.6 2 1.8 0 3.9-.6 2-.5 4.3-1.7v3.9q-2.3.8-4.3 1.3t-4 .5q-5.4 0-8.6-3.3-3.1-3.3-3.1-9.1 0-5.7 3.1-9 3-3.4 8-3.4 4.6 0 7 3 2.7 3.1 2.9 7.4zm-4-1.1q0-2.4-1.6-4.2-1.6-1.8-4.4-1.8-2.8 0-4.7 1.8-1.8 1.9-2 4.2zm28.5.3v14.5h-4v-14.5q0-3.2-1-4.7-1.2-1.6-3.5-1.6-2.7 0-4.2 2T509 152v13.3h-4v-23.5h4v3.5q1-2 2.7-3 1.8-1 4.2-1 3.6 0 5.4 2.3 1.8 2.3 1.8 7.2zm16.7-15.7v6.7h8.8v3h-8.8v12.7q0 2.6 1 3.6 1 1.1 3.4 1.1h4.4v3h-4.7q-4.4 0-6.2-1.7-1.8-1.8-1.8-6v-12.8h-6.2v-3h6.2v-6.7zm37.3 11.5q-1.3-1-2.6-1.4-1.2-.4-2.8-.4-3.6 0-5.5 2.3-2 2.3-2 6.5v11.7h-3.8v-23.5h3.9v4.6q1-2.5 3-3.9 2-1.3 4.7-1.3 1.5 0 2.7.4 1.3.3 2.4 1.1zm8.3-4.8h9.7v20.6h7.7v3h-19.2v-3h7.7v-17.5h-6zm6-9.1h3.9v5h-4zm36.8 19v1.8h-16.8v.2q-.1 4.7 1.8 6.9 2 2 5.7 2 1.9 0 3.9-.6 2-.5 4.3-1.7v3.9q-2.2.8-4.3 1.3-2 .5-4 .5-5.4 0-8.5-3.3-3.1-3.3-3.1-9.1 0-5.7 3-9 3-3.4 8.1-3.4 4.5 0 7 3 2.7 3.1 2.9 7.4zm-4-1.2q-.2-2.4-1.7-4.2-1.5-1.8-4.3-1.8-2.9 0-4.7 1.8-1.8 1.9-2 4.2zm26.8-7.9v3.8q-1.7-1-3.4-1.4-1.6-.6-3.4-.6-2.6 0-3.9.9-1.3.8-1.3 2.6 0 1.5 1 2.3 1 .8 4.8 1.6l1.6.3q2.8.5 4.3 2.1 1.5 1.7 1.5 4.3 0 3.5-2.5 5.5t-6.9 2q-1.8 0-3.6-.4-2-.4-4.2-1.1v-4q2.2 1 4.2 1.6 2 .6 3.7.6 2.5 0 4-1 1.3-1 1.3-3 0-2.6-5-3.7h-.3l-1.4-.3q-3.4-.6-4.9-2.2-1.5-1.6-1.5-4.2 0-3.4 2.3-5.2 2.3-1.9 6.5-1.9 2 0 3.6.4 1.8.3 3.5 1zm17.2-10h5.3v4.3l-4.1 8h-3.2l2-8z"
     aria-label="entries’"
     font-family="Menlo, Menlo_MSFontService, sans-serif"
     font-size="55"
     id="path1028" /><path
     fill="#f8f8f2"
     d="M40.3 182.1h3.4q3.1 5 4.7 9.8 1.6 4.7 1.6 9.4t-1.6 9.5q-1.6 4.7-4.7 9.7h-3.4q2.8-5 4.3-9.7 1.3-4.7 1.3-9.5 0-4.7-1.3-9.6-1.5-4.7-4.3-9.6z"
     aria-label=")"
     font-family="Menlo, Menlo_MSFontService, sans-serif"
     font-size="55"
     id="path1030" /></svg>
