<svg xmlns="http://www.w3.org/2000/svg" xmlns:xlink="http://www.w3.org/1999/xlink" xml:space="preserve" overflow="hidden" viewBox="0 0 192 73"><defs><path id="a" d="M1040 48h192v73h-192z"/></defs><defs><clipPath id="b"><use xlink:href="#a"/></clipPath><clipPath id="c"><use xlink:href="#a"/></clipPath><clipPath id="d"><path d="M1041 48h191v73h-191z"/></clipPath></defs><g clip-path="url(#b)" transform="translate(-1040 -48)"><g clip-path="url(#c)"><g clip-path="url(#d)"><path fill="#FFCB0F" d="M1166.24 67.74a95.56 95.56 0 0 0-13.31-5.22c-6.36-1.98-14.76-3.41-19.75 2a9.74 9.74 0 0 0-2.21 6.21c-.23 6.98 4.66 13.25 10.63 16.52 7.57 4.12 12.36 1.9 19.42-1.76 8.35-4.51 16.33-9.9 24.5-14.78 6.72-3.88 19.04-12.44 26.73-11.7 7.66.83 14.45 6.05 17.75 12.86a16.53 16.53 0 0 1 1.2 11.25c-1.93 7.49-10.97 9.4-17.67 7.92-11.22-2.5-21.58-7.93-31.15-14.1a.26.26 0 0 1-.07-.37.27.27 0 0 1 .35-.08c9.83 5.56 20.14 10.51 31.23 12.66 20.54 3.06 18.99-18.2 4.46-25.6-4.24-2.18-8.34-2.56-12.76-.71-6.6 2.56-12.63 6.41-18.73 10.04-8.26 4.91-16.3 10.04-24.84 14.51-4.37 2.1-9.19 4.63-14.22 3.86-7.4-1.22-13.88-6.53-16.81-13.32-3.09-7.45-.97-15.91 7.8-17.7 4.85-1.1 9.77.12 14.37 1.55a96.13 96.13 0 0 1 13.34 5.45c.34.17.08.68-.26.52Z"/><path fill="#75B953" d="M1188.71 72.74c7.59 3.88 15.6 7.57 24.14 8.59 10.39.71 15.2-6.53 10.74-15.8-2.82-5.35-8.5-9.54-14.61-10.02-6.86-.49-21.68 10.06-28.19 13.86-5.54 3.36-11.02 6.9-16.78 9.95-3.98 1.98-8.38 4.37-13.03 3.78-9.1-1.28-17.31-9.4-17.28-18.75.03-8.31 7.56-11.72 15.01-10.68 4.36.66 8.55 2.18 12.59 3.86a97.23 97.23 0 0 1 11.6 5.88c.3.17.04.61-.25.46-6.73-3.35-13.68-6.31-21.04-7.91-5.44-1.37-13.45-.68-15.2 5.55-1.8 6.97 3.18 13.92 9.23 17.14 3.6 1.97 7.55 2.57 11.39.93 7.87-3.06 15.1-8.07 22.42-12.37 7.56-4.34 14.7-9.26 22.9-12.5 4.62-1.92 8.94-1.59 13.33.72 5.95 3.1 10.77 9.07 10.97 15.91.32 8.13-6.44 11.74-13.88 11.02-8.66-1.2-16.71-5.05-24.34-9.1-.33-.2-.05-.69.28-.51Z"/><path fill="#727BBB" d="M1194.8 69c6.39 2.57 15.43 6.5 22.05 3.29 3.52-1.6 4.78-5.58 4.12-9.16-.57-3.63-2.8-6.89-5.64-9.24-2.77-2.28-6.35-3.94-9.98-3.8a17.3 17.3 0 0 0-5.24 1.49c-8.78 4-16.66 9.7-25 14.61-5.06 3.03-10.07 6.28-15.72 8.3-6.11 2.32-12.94-.9-17.09-5.45-4.2-4.5-6.5-12.17-2.25-17.4 2.92-3.33 7.6-3.97 11.73-3.44 1.95.28 3.95.86 5.82 1.43a73.16 73.16 0 0 1 10.86 4.54 98.04 98.04 0 0 1 10.13 5.88.27.27 0 0 1-.28.45c-6.76-3.8-13.81-7.16-21.2-9.24a38.93 38.93 0 0 0-5.57-1.16c-3.43-.34-7.53.24-9.77 2.97-3.27 4.32-1.08 10.66 2.42 14.27 3.62 3.8 9.17 6.62 14.35 4.62 5.38-1.9 10.27-5.03 15.2-7.95 2.94-1.8 7.1-4.26 10-6 3.34-2 6.68-4 10.15-5.86 3.61-1.82 7.13-3.77 11.34-4.14 8.14 0 16 7 17.13 14.93.63 4.1-.98 8.62-5.03 10.34-7.21 3.2-16.08-.91-22.78-3.74-.35-.17-.1-.67.23-.53Z"/><path d="M1041.29 120.64v-19.93h7.93c6.3 0 10.68 3.98 10.68 9.98s-4.37 9.95-10.68 9.95h-7.93Zm14.24-9.95c0-3.53-2.17-6.24-6.3-6.24h-3.66v12.46h3.65a6 6 0 0 0 6.3-6.21Zm6.39 2.72c0-4.18 3.1-7.56 7.53-7.56s7.3 3.23 7.3 7.95v.84h-10.83c.24 1.82 1.72 3.34 4.2 3.34a6.3 6.3 0 0 0 3.89-1.43l1.69 2.45c-1.45 1.31-3.74 2-6 2-4.44 0-7.78-2.96-7.78-7.59Zm7.53-4.54c-2.38 0-3.4 1.76-3.59 3.2h7.18a3.36 3.36 0 0 0-3.59-3.2Zm13.85 11.77-5.85-14.43h4.1l3.8 10.04 3.8-10.04h4.13l-5.85 14.43h-4.13Zm10.83-9.94c0-6.13 4.67-10.32 10.7-10.32 4.44 0 7 2.4 8.41 4.87l-3.67 1.8a5.45 5.45 0 0 0-4.74-2.9c-3.65 0-6.3 2.78-6.3 6.54 0 3.77 2.65 6.54 6.3 6.54a5.4 5.4 0 0 0 4.74-2.9l3.67 1.77c-1.44 2.48-3.98 4.9-8.4 4.9-6.04 0-10.71-4.19-10.71-10.31Zm20.65 2.71c0-4.1 2.9-7.56 7.7-7.56 4.79 0 7.71 3.47 7.71 7.56 0 4.1-2.9 7.59-7.72 7.59s-7.69-3.46-7.69-7.59Zm11.43 0c0-2.24-1.36-4.18-3.74-4.18-2.39 0-3.71 1.94-3.71 4.18 0 2.24 1.33 4.21 3.7 4.21 2.39 0 3.75-1.94 3.75-4.2Zm16.65 7.23v-8.72c0-2-1.05-2.7-2.68-2.7-1.51 0-2.7.84-3.32 1.71v9.71h-3.83v-14.43h3.83v1.88a6.7 6.7 0 0 1 5.1-2.24c3.19 0 4.73 1.8 4.73 4.6v10.19h-3.83Zm13.87 0v-1.97c7.24-5.65 11.16-8.96 11.16-12.4 0-2.54-2.11-3.64-4.2-3.64a6.74 6.74 0 0 0-5.45 2.5l-1.54-1.58c1.54-2 4.16-3.14 7-3.14 3.35 0 6.76 1.89 6.76 5.86 0 3.97-4.16 7.77-9.78 12.16h9.86v2.2h-13.81Zm16.44-9.94c0-4.88 2.17-10.28 7.69-10.28 5.52 0 7.69 5.4 7.69 10.27 0 4.87-2.2 10.31-7.7 10.31-5.48 0-7.68-5.47-7.68-10.3Zm12.81 0c0-3.98-1.3-8.07-5.12-8.07-3.83 0-5.13 4.09-5.13 8.06 0 3.98 1.3 8.1 5.13 8.1s5.12-4.13 5.12-8.1Zm4.52 9.94v-1.97c7.25-5.65 11.16-8.96 11.16-12.4 0-2.54-2.1-3.64-4.19-3.64a6.75 6.75 0 0 0-5.46 2.5l-1.53-1.58c1.53-2 4.16-3.14 7-3.14 3.34 0 6.75 1.89 6.75 5.86 0 3.97-4.16 7.77-9.77 12.16h9.86v2.2h-13.81Zm15.78-2.93 1.48-1.55a7.02 7.02 0 0 0 5.6 2.63c2.93 0 4.71-1.43 4.71-3.73 0-2.49-2.05-3.53-5-3.53-.85 0-1.78 0-2.09.03v-2.27c.34.03 1.27.03 2.09.03 2.53 0 4.67-1 4.67-3.3s-2.05-3.4-4.5-3.4c-2.2 0-3.82.84-5.3 2.42l-1.39-1.55a8.76 8.76 0 0 1 6.88-3.08c3.86 0 6.81 1.94 6.81 5.32 0 2.87-2.44 4.3-4.34 4.63 1.84.15 4.65 1.7 4.65 4.9s-2.69 5.74-7.12 5.74c-3.4 0-5.91-1.5-7.15-3.3Zm-164.99-23.63v-2.06l11.31-15.66h-11.31v-2.2h14.5v2.05l-11.3 15.66h11.52v2.21h-14.72Zm17.61-7.23c0-4.18 3.02-7.56 7.18-7.56 4.4 0 7 3.4 7 7.74v.57h-11.79c.18 2.72 2.11 5 5.25 5a6.4 6.4 0 0 0 4.5-1.83l1.08 1.46a7.95 7.95 0 0 1-5.8 2.21c-4.3 0-7.41-3.08-7.41-7.59Zm7.15-5.7c-3.1 0-4.65 2.6-4.76 4.8h9.56c-.03-2.14-1.48-4.8-4.8-4.8Zm10.68 12.93V74.16h2.26v7.67a6.06 6.06 0 0 1 4.92-2.54c3.8 0 6.48 3 6.48 7.6s-2.69 7.55-6.48 7.55a6.15 6.15 0 0 1-4.92-2.5v2.14h-2.26Zm6.6-1.64c2.96 0 4.7-2.36 4.7-5.56 0-3.2-1.74-5.58-4.7-5.58a5.42 5.42 0 0 0-4.34 2.33v6.54a5.38 5.38 0 0 0 4.34 2.27Zm10.74 1.64V79.65h2.26v2.33a6.2 6.2 0 0 1 4.86-2.62v2.3a4.1 4.1 0 0 0-.9-.1 5.34 5.34 0 0 0-3.96 2.31v10.22h-2.26Zm19.06 0v-1.64a6.33 6.33 0 0 1-4.83 2c-2.48 0-5.1-1.65-5.1-4.78 0-3.14 2.62-4.75 5.1-4.75 1.99 0 3.65.63 4.83 1.97v-2.6c0-1.94-1.57-3.05-3.68-3.05a5.8 5.8 0 0 0-4.47 2l-1.05-1.54a7.65 7.65 0 0 1 5.82-2.4c3.07 0 5.64 1.38 5.64 4.88v9.92h-2.27Zm0-3.04v-2.72a4.89 4.89 0 0 0-4.02-1.8c-2.1 0-3.59 1.32-3.59 3.17 0 1.86 1.48 3.14 3.6 3.14 1.6 0 3.13-.6 4-1.8Z"/></g></g></g></svg>