<svg xmlns="http://www.w3.org/2000/svg" viewBox="0 0 240 385">
  <defs>
    <clipPath id="a" clipPathUnits="userSpaceOnUse">
      <path d="M0 792h1224V0H0Z"/>
    </clipPath>
  </defs>
  <path d="m177.836 137.885-18.86-18.863v53.37h18.86Z"/>
  <g clip-path="url(#a)" transform="matrix(1.33333 0 0 -1.33333 -696.36 719.654)">
    <path d="M599.065 478.947h34.448l-14.082 14.084-.062.067h-18.116c11.84 1.105 21.104 11.063 21.104 23.192 0 12.857-10.421 23.291-23.292 23.291v-46.55h-.011l-38.697 38.587a69.054 69.054 0 0 1-5.96-3.477 70.763 70.763 0 0 1-6.105-4.47l36.635-36.495V407.05l28.285-28.283v19.992l-14.147 14.147Z"/>
    <path d="m613.212 478.86-.071-68.313h14.135l.075 54.097zm48.529-28.372-14.14 14.138h-20.25l14.126-14.138Zm-90.961-30.136v60.851l-32.492 32.486a70.503 70.503 0 0 1-7.965-12.04l26.311-26.31v-20.005l-31.927 31.939a70.463 70.463 0 0 1-2.402-17.606s46.89-47.671 48.474-49.315m-48.229 29.074V429.43l90.662-90.654v19.996zm161.385-21.103h-14.147v-17.876h-14.141c0-12.867 10.426-23.3 23.29-23.3 12.863 0 23.297 10.433 23.297 23.3zm-128.87-168.568-4.524-8.604h-28.186l18.326 35.207h-16.224l4.524 8.605h28.187l-18.327-35.208Zm16.366 17.67h14.451v-8.604h-14.45v-9.066h14.45v-8.604H560.79v43.812h25.092v-8.604h-14.45Zm30.311-18.655h3.875c4.467 0 6.372 1.512 6.372 5.059 0 2.1-.79 3.612-2.365 4.466-1.183.657-2.234.789-5.452.789h-2.43Zm0 18.064h2.627c4.86 0 6.897 1.51 6.897 5.123 0 3.547-2.037 5.058-7.03 5.058h-2.494Zm4.335 18.129c5.583 0 8.8-.591 11.166-2.102 3.022-1.84 4.86-5.582 4.86-9.786 0-3.088-.985-5.65-2.955-7.62-1.248-1.314-2.233-1.906-4.598-2.562 2.693-.592 3.875-1.183 5.254-2.496 1.97-1.84 2.957-4.401 2.957-7.62 0-4.072-1.643-7.685-4.467-9.59-2.168-1.444-4.795-2.036-9.261-2.036H591.1v43.812zm34.871-20.888c4.336 0 6.963 2.232 6.963 6.043 0 3.612-2.563 6.108-6.307 6.108h-4.072v-12.15Zm-3.416-22.925h-10.64v43.813h14.187c5.781 0 9.984-1.05 12.875-3.284 3.021-2.366 4.728-6.306 4.728-11.102 0-6.699-2.824-11.1-8.472-13.333l9.654-16.094h-12.742l-9.59 16.946zm38.963 17.235 4.4 14.028 4.395-14.028Zm14.193-17.234h11.545l-14.384 43.81h-13.534l-14.447-43.81h11.22l2.702 8.617h14.2z"/>
  </g>
</svg>
