<svg xmlns="http://www.w3.org/2000/svg" xml:space="preserve" overflow="hidden" viewBox="0 0 1277 318"><path fill="#262626" fill-rule="evenodd" d="M0 31A31 31 0 0 1 30.9 0h1215.2a31 31 0 0 1 30.9 31v256a31 31 0 0 1-31 31H31a31 31 0 0 1-31-31Z"/><path fill="#8be9fd" d="M47.6 38.9h22.3v4.6h-8.4v31h8.4V79H47.6v-4.6H56v-31h-8.4Zm56.2 38.6q-2 1.1-4.1 1.7-2.1.6-4.3.6-7 0-11-4.2-3.9-4.2-3.9-11.6 0-7.4 4-11.6 3.9-4.2 10.9-4.2 2.1 0 4.2.6 2 .5 4.2 1.7v5.2q-2-1.8-4-2.5-2-.8-4.4-.8-4.7 0-7.2 3T85.7 64q0 5.5 2.5 8.6 2.6 3 7.2 3 2.5 0 4.6-.8 2-.8 3.8-2.5zM125 52.4q-3.8 0-5.8 3-2 2.8-2 8.6 0 5.7 2 8.7 2 2.9 5.7 2.9 3.8 0 5.7-3 2-2.9 2-8.6 0-5.8-2-8.7-1.9-3-5.7-3zm0-4.2q6.2 0 9.5 4 3.3 4.1 3.3 11.8 0 7.7-3.3 11.8-3.3 4-9.6 4-6.2 0-9.5-4Q112 71.7 112 64q0-7.7 3.3-11.7 3.3-4.1 9.5-4.1zm44.7 12.2V79h-5V60.4q0-4-1.4-6t-4.5-2q-3.4 0-5.3 2.6-1.9 2.4-1.9 7v17h-4.9V49h5v4.4q1.3-2.5 3.5-3.9 2.3-1.3 5.4-1.3 4.5 0 6.8 3t2.3 9.2zm14.8-1.6v15.7h6.4q4.7 0 6.7-1.6 2-1.7 2-5.4 0-5-2.1-6.9-2.1-1.8-6.6-1.8zm0-15.4v11h6.3q3.9 0 5.6-1.5 1.8-1.5 1.8-3.8 0-3-1.7-4.4-1.8-1.3-5.7-1.3zm-5.5-4.5h12q6.1 0 9.4 2.7 3.4 2.6 3.4 7.5 0 2.6-1.8 4.7-1.7 2.1-5.3 2.7 4 .6 6.2 3.4 2.3 2.7 2.3 8 0 5.5-3.6 8.3Q198 79 191 79h-12zm33.9 28.7V49h5v18.6q0 4 1.3 6 1.5 1.9 4.5 1.9 3.5 0 5.3-2.5 1.9-2.4 1.9-7V49h5v30h-5v-4.5q-1.3 2.6-3.6 4-2.3 1.3-5.3 1.3-4.6 0-6.9-3-2.2-3-2.2-9.2zm44.3-27.2v8.5h11.2v3.9h-11.2V69q0 3.3 1.3 4.6 1.2 1.4 4.4 1.4h5.5v4h-6q-5.6 0-7.8-2.2-2.3-2.3-2.3-7.7V52.8h-8v-3.9h8v-8.5zm33.1 0v8.5h11.2v3.9h-11.2V69q0 3.3 1.3 4.6 1.2 1.4 4.4 1.4h5.5v4h-6q-5.6 0-7.9-2.2-2.2-2.3-2.2-7.7V52.8h-8v-3.9h8v-8.5zm33.1 12q-3.7 0-5.7 3-1.9 2.8-1.9 8.6 0 5.7 2 8.7 1.9 2.9 5.6 2.9 3.8 0 5.8-3 1.9-2.9 1.9-8.6 0-5.8-2-8.7-1.9-3-5.7-3zm0-4.2q6.3 0 9.6 4 3.3 4.1 3.3 11.8 0 7.7-3.3 11.8-3.3 4-9.6 4-6.2 0-9.5-4-3.3-4.1-3.3-11.8 0-7.7 3.3-11.7 3.3-4.1 9.5-4.1zm44.8 12.2V79h-5V60.4q0-4-1.4-6t-4.4-2q-3.5 0-5.4 2.6-1.8 2.4-1.8 7v17h-5V49h5v4.4q1.3-2.5 3.5-3.9 2.3-1.3 5.4-1.3 4.6 0 6.8 3 2.3 3 2.3 9.2z" aria-label="IconButton" font-family="Menlo,Menlo_MSFontService,sans-serif" font-size="55"/><path fill="#f8f8f2" d="M397.2 34.6q-3.6 6.1-5.3 12.2-1.8 6-1.8 12.2 0 6.2 1.8 12.3 1.7 6 5.3 12.3h-4.3q-4-6.4-6-12.5-2-6-2-12t2-12.1q2-6 6-12.4z" aria-label="(" font-family="Menlo,Menlo_MSFontService,sans-serif" font-size="55"/><path fill="#ffb86c" d="M118.2 115H131l-5.1 26.2h9.8l-.8 3.8h-24.5l.7-3.8h9.8l4.3-22.4h-7.6Zm10-11.8h5l-1.3 6.3h-5zm38.8 40.4q-2 1-4.3 1.6-2.2.6-4.6.6-6 0-9.1-3-3.1-3-3.1-9 0-4 1.4-7.8 1.5-3.9 3.9-6.5 2.5-2.7 5.5-4 3-1.3 6.6-1.3 2.3 0 4.6.6 2.2.6 4.3 1.7l-1 4.9q-1.7-1.6-3.6-2.3-2-.7-4.2-.7-3 0-5.2 1.2-2.3 1.2-4 3.6-1.4 2.2-2.3 5-.8 2.8-.8 5.6 0 3.9 1.8 5.9 1.9 1.9 5.5 1.9 2.6 0 5-.8 2.3-.9 4.6-2.6zm26.5-25.2q-4.4 0-7.4 4.6t-3 11.7q0 3.4 1.6 5.2 1.5 1.7 4.5 1.7 4.4 0 7.3-4.6 3-4.6 3-11.7 0-3.4-1.5-5.2-1.5-1.7-4.5-1.7zm.4-4.2q5.3 0 8 2.9 2.8 2.8 2.8 8.4 0 3.7-1.1 7.4-1.1 3.6-3.1 6.5-2.1 3.2-5.2 4.8-3 1.6-7 1.6-5 0-7.7-3-2.7-2.9-2.7-8.4 0-3.6 1.1-7.2t3.1-6.7q2.2-3 5.1-4.7 3-1.6 6.7-1.6zm42.8 12.2-3.6 18.6h-5l3.7-18.7v-.3q.5-2 .5-3 0-2.2-1.3-3.3-1.2-1.2-3.6-1.2-3.4 0-5.8 2.5-2.3 2.5-3.2 7l-3.3 17h-5l6-30h4.8l-.8 4.4q2-2.6 4.3-3.9 2.4-1.3 5-1.3 3.8 0 5.8 2 2 1.9 2 5.4v2.1l-.5 2.7z" aria-label="icon" font-family="Menlo,Menlo_MSFontService,sans-serif" font-size="55" font-style="italic"/><path fill="#ff79c6" d="M253 115h8.3v9.6H253zm0 20.2h8.3v9.8H253z" aria-label=":" font-family="Menlo,Menlo_MSFontService,sans-serif" font-size="55"/><path fill="#ff79c6" d="M336.3 143.5q-2 1.1-4.1 1.7-2 .6-4.3.6-7 0-11-4.2-3.8-4.2-3.8-11.6 0-7.4 3.9-11.6 4-4.2 11-4.2 2 0 4.2.6 2 .5 4.1 1.7v5.2q-2-1.8-4-2.5-1.9-.8-4.4-.8-4.6 0-7.1 3t-2.5 8.6q0 5.5 2.5 8.6 2.5 3 7.1 3 2.6 0 4.6-.8 2-.8 3.8-2.5zm21.2-25.1q-3.8 0-5.7 3-2 2.8-2 8.6 0 5.7 2 8.7 1.9 2.9 5.7 2.9 3.7 0 5.7-3 1.9-2.9 1.9-8.6 0-5.8-2-8.7-1.9-3-5.6-3zm0-4.2q6.2 0 9.5 4 3.3 4.1 3.3 11.8 0 7.7-3.3 11.8-3.3 4-9.5 4-6.3 0-9.6-4-3.3-4.1-3.3-11.8 0-7.7 3.3-11.7 3.3-4.1 9.6-4.1zm44.7 12.2V145h-5v-18.6q0-4-1.4-6t-4.4-2q-3.5 0-5.4 2.6-1.8 2.4-1.8 7v17h-5v-30h5v4.4q1.3-2.5 3.6-3.9 2.2-1.3 5.3-1.3 4.6 0 6.8 3 2.3 3 2.3 9.2zm31-10.4v4.8q-2.1-1.2-4.3-1.8-2.1-.7-4.3-.7-3.4 0-5 1.1-1.7 1.1-1.7 3.3 0 2 1.2 3 1.3 1 6.2 2l2 .4q3.7.7 5.5 2.7 2 2.1 2 5.5 0 4.5-3.2 7t-8.8 2.5q-2.3 0-4.7-.5-2.4-.5-5.3-1.4v-5.1q2.8 1.4 5.3 2.1 2.5.7 4.8.7 3.3 0 5-1.3 1.8-1.3 1.8-3.7 0-3.4-6.5-4.8h-.2l-1.9-.4q-4.3-.8-6.2-2.8-2-2-2-5.4 0-4.3 3-6.6 2.9-2.4 8.3-2.4 2.4 0 4.6.5 2.3.4 4.4 1.3zm23.5-9.6v8.5h11.2v3.9h-11.2V135q0 3.3 1.2 4.6 1.3 1.4 4.4 1.4h5.6v3.9h-6q-5.6 0-7.9-2.2-2.3-2.3-2.3-7.7v-16.3h-8v-3.9h8v-8.5z" aria-label="const" font-family="Menlo,Menlo_MSFontService,sans-serif" font-size="55"/><path fill="#8be9fd" d="M512.4 104.9h22.3v4.6h-8.4v31h8.4v4.5h-22.3v-4.6h8.4v-31h-8.4Zm56.2 38.6q-2 1.1-4 1.7-2.2.6-4.4.6-7 0-11-4.2-3.8-4.2-3.8-11.6 0-7.4 3.9-11.6 4-4.2 11-4.2 2 0 4.2.6 2 .5 4.1 1.7v5.2q-2-1.8-4-2.5-1.9-.8-4.4-.8-4.6 0-7.1 3t-2.5 8.6q0 5.5 2.5 8.6 2.5 3 7.1 3 2.6 0 4.6-.8 2-.8 3.8-2.5zm21.2-25.1q-3.8 0-5.7 3-2 2.8-2 8.6 0 5.7 2 8.7 1.9 2.9 5.7 2.9 3.7 0 5.7-3 1.9-2.9 1.9-8.6 0-5.8-2-8.7-1.9-3-5.6-3zm0-4.2q6.2 0 9.5 4 3.3 4.1 3.3 11.8 0 7.7-3.3 11.8-3.3 4-9.5 4-6.3 0-9.6-4-3.3-4.1-3.3-11.8 0-7.7 3.3-11.7 3.3-4.1 9.6-4.1zm44.7 12.2V145h-5v-18.6q0-4-1.4-6t-4.4-2q-3.5 0-5.4 2.6-1.8 2.4-1.8 7v17h-5v-30h5v4.4q1.3-2.5 3.6-3.9 2.2-1.3 5.3-1.3 4.6 0 6.8 3 2.3 3 2.3 9.2z" aria-label="Icon" font-family="Menlo,Menlo_MSFontService,sans-serif" font-size="55"/><path fill="#f8f8f2" d="M662.8 100.6q-3.6 6.1-5.3 12.2-1.8 6-1.8 12.2 0 6.2 1.8 12.3 1.7 6 5.3 12.3h-4.3q-4-6.4-6-12.5-2-6-2-12t2-12.1q2-6 6-12.4z" aria-label="(" font-family="Menlo,Menlo_MSFontService,sans-serif" font-size="55"/><path fill="#8be9fd" d="M693.6 126q2 .4 3.1 1.9 1.2 1.4 2.6 6.1l3.3 11h-5.4l-2.8-10.1q-1.2-4.2-2.7-5.5-1.5-1.3-4.4-1.3h-5.2l-3.3 16.9h-5.4l7.8-40.1h11.1q5.6 0 8.6 2.4t3 6.8q0 4.9-2.7 8.1-2.8 3.2-7.6 3.9zm-7.8-16.6-2.8 14.2h6q4.3 0 6.9-2.3 2.6-2.3 2.6-6.1 0-3-1.7-4.4-1.7-1.4-5.3-1.4zm53.8-6.2-.9 4.1h-5.5q-2.6 0-3.9 1.1-1.3 1.2-1.8 3.9l-.6 2.6h10.4l-.7 3.9h-10.4l-5 26.2h-5l5-26.2h-8l.8-3.9h8l.4-2q1-5.3 3.6-7.5t7.6-2.2zm15.7 30.8-.2 1.7-.1 1.2q0 2 1.2 3t3.6 1h5.7l-.9 4.1h-5.5q-4.7 0-7-1.7-2.2-1.7-2.2-5.2l.1-1.9.4-2.3 5.7-27.1h-8.5l.8-3.9h13.4Zm49.4-19L791 129.5l8.5 15.4h-5.2l-6.6-12-11.2 12h-6l15-16-7.8-14h5.3l5.8 10.5 10-10.6zm10-10.1H837l-1 4.6h-8.3l-6 31h8.4l-.9 4.5H807l.8-4.6h8.4l6-31h-8.4zm49 38.7q-2 1-4.2 1.6-2.2.6-4.6.6-6 0-9.1-3-3.1-3-3.1-9 0-4 1.4-7.8 1.5-3.9 4-6.5 2.4-2.7 5.4-4 3-1.3 6.6-1.3 2.3 0 4.6.6 2.2.6 4.3 1.7l-1 4.9q-1.7-1.6-3.6-2.3-1.9-.7-4.2-.7-3 0-5.2 1.2-2.3 1.2-4 3.6-1.4 2.2-2.3 5-.8 2.8-.8 5.6 0 3.9 1.8 5.9 1.9 1.9 5.5 1.9 2.6 0 5-.8 2.4-.9 4.6-2.6zm26.6-25.2q-4.4 0-7.4 4.6t-3 11.7q0 3.4 1.6 5.2 1.5 1.7 4.5 1.7 4.4 0 7.3-4.6 3-4.6 3-11.7 0-3.4-1.5-5.2-1.5-1.7-4.5-1.7zm.4-4.2q5.3 0 8 2.9 2.8 2.8 2.8 8.4 0 3.7-1.1 7.4-1.1 3.6-3.1 6.5-2.1 3.2-5.2 4.8-3 1.6-7 1.6-5 0-7.7-3-2.7-2.9-2.7-8.4 0-3.6 1.1-7.2t3.1-6.7q2.2-3 5.1-4.7 3-1.6 6.7-1.6zm42.8 12.2L930 145h-5l3.7-18.7v-.3q.5-2 .5-3 0-2.2-1.3-3.3-1.2-1.2-3.6-1.2-3.4 0-5.8 2.5-2.3 2.5-3.2 7l-3.3 17h-5l6-30h4.8l-.8 4.4q2-2.6 4.3-3.9 2.4-1.3 5-1.3 3.8 0 5.8 2 2 1.9 2 5.4v2.1l-.5 2.7zm33.2-10.4-1 4.8q-1.9-1.2-4-1.8-2-.7-4.2-.7-3.6 0-5.7 1.4-2 1.4-2 3.8 0 2.7 6 4.2l.5.1 2 .5q3.1.9 4.7 2.5 1.5 1.7 1.5 4.1 0 4.9-3.8 7.9-4 3-10.3 3-2.2 0-4.5-.5-2.4-.5-5-1.4l1-5.1q2.5 1.4 4.8 2.1 2.4.7 4.6.7 3.6 0 5.9-1.5 2.2-1.7 2.2-4.1 0-2.7-5.2-4l-.8-.3-1.8-.4q-3.4-1-5-2.7-1.7-1.7-1.7-4.4 0-4.6 3.5-7.3 3.6-2.7 9.6-2.7 2.4 0 4.5.5 2.2.4 4.2 1.3z" aria-label="RflxIcons" font-family="Menlo,Menlo_MSFontService,sans-serif" font-size="55" font-style="italic"/><path fill="#f8f8f2" d="M982.3 134.2h9.5V145h-9.5zm52.7-6.7v2.4h-21.3v.2q-.3 6.1 2.3 8.8 2.6 2.7 7.2 2.7 2.4 0 5-.8 2.5-.7 5.5-2.2v4.9q-2.8 1.1-5.5 1.7-2.6.6-5 .6-7 0-11-4.2t-4-11.6q0-7.2 4-11.5 3.8-4.3 10.3-4.3 5.7 0 9 3.9t3.5 9.4zm-4.9-1.5q-.3-3-2.3-5.3-2-2.3-5.6-2.3-3.5 0-5.8 2.3-2.3 2.4-2.6 5.4zm31-7.2v-15.6h5V145h-5v-3.8q-1.2 2.2-3.3 3.4-2 1.2-4.7 1.2-5.5 0-8.6-4.2-3.1-4.3-3.1-11.7 0-7.4 3.1-11.5 3.2-4.2 8.6-4.2 2.7 0 4.7 1.2 2.1 1.1 3.3 3.4zm-14.5 11.2q0 5.7 1.8 8.7 1.8 2.9 5.4 2.9 3.6 0 5.4-3 1.9-3 1.9-8.6 0-5.7-1.9-8.7-1.8-3-5.4-3-3.6 0-5.4 3-1.8 3-1.8 8.7zm33-15h12.7v26.2h9.8v3.8h-24.6v-3.8h9.8v-22.3h-7.7zm7.7-11.7h5v6.3h-5zm33.4 3.1v8.5h11.2v3.9h-11.2V135q0 3.3 1.3 4.6 1.2 1.4 4.4 1.4h5.5v3.9h-6q-5.6 0-7.8-2.2-2.3-2.3-2.3-7.7v-16.3h-8v-3.9h8v-8.5zm26-5.8h4.3q4 6.3 6 12.4 2 6 2 12t-2 12.2q-2 6-6 12.4h-4.3q3.5-6.3 5.3-12.4 1.8-6 1.8-12.2 0-6-1.8-12.2-1.8-6-5.3-12.2zm35.6 34.7h8.4v7.1l-6 11.6h-5.4l3-11.6z" aria-label=".edit)," font-family="Menlo,Menlo_MSFontService,sans-serif" font-size="55"/><path fill="#ffb86c" d="m129.2 172.4-1.6 8.5h11.2l-.8 3.9h-11.2l-3.2 16.3-.2 1.5-.1 1.3q0 1.7 1 2.5 1 .7 3.8.7h5.6l-.8 3.9h-6q-4.5 0-6.6-1.5-2-1.5-2-4.6v-1.6l.4-2.2 3.2-16.3h-8l.7-3.9h8l1.7-8.5zm31.2 12q-4.4 0-7.4 4.6-2.9 4.6-2.9 11.7 0 3.4 1.5 5.2 1.5 1.7 4.5 1.7 4.4 0 7.3-4.6 3-4.6 3-11.7 0-3.4-1.5-5.2-1.5-1.7-4.5-1.7zm.4-4.2q5.3 0 8 2.9 2.8 2.8 2.8 8.4 0 3.7-1.1 7.4-1.1 3.6-3 6.5-2.2 3.2-5.2 4.8-3 1.6-7 1.6-5 0-7.7-3-2.8-2.9-2.8-8.4 0-3.6 1.1-7.2t3.2-6.7q2-3 5-4.7 3-1.6 6.7-1.6zm32.7 4.2q-4.4 0-7.4 4.6t-3 11.7q0 3.4 1.6 5.2 1.5 1.7 4.5 1.7 4.4 0 7.3-4.6 3-4.6 3-11.7 0-3.4-1.5-5.2-1.5-1.7-4.5-1.7zm.4-4.2q5.3 0 8 2.9 2.8 2.8 2.8 8.4 0 3.7-1.1 7.4-1.1 3.6-3.1 6.5-2.1 3.2-5.2 4.8-3 1.6-7 1.6-5 0-7.7-3-2.7-2.9-2.7-8.4 0-3.6 1.1-7.2t3.1-6.7q2.2-3 5.1-4.7 3-1.6 6.7-1.6zM224 200l-.3 1.7-.1 1.2q0 2 1.2 3t3.6 1h5.7l-.8 4.1h-5.6q-4.6 0-7-1.7-2.2-1.7-2.2-5.2l.2-1.9.3-2.3 5.7-27.1h-8.5l.8-3.9h13.4zm37.6-27.6-1.7 8.5h11.2l-.7 3.9h-11.2L256 201l-.3 1.5v1.3q0 1.7 1 2.5 1 .7 3.8.7h5.5l-.8 3.9h-6q-4.4 0-6.5-1.5-2.1-1.5-2.1-4.6v-1.6l.4-2.2 3.2-16.3h-8l.7-3.9h8l1.7-8.5zm22.1 8.6h12.6l-5.1 26.2h9.8l-.8 3.8h-24.5l.8-3.8h9.8l4.3-22.4h-7.7zm10-11.8h4.9l-1.3 6.3h-4.9zm21.3 38-3 15.2h-5l8.2-41.5h4.9l-.8 3.9q1.7-2.2 4-3.4 2.3-1.2 5-1.2 4.3 0 6.7 2.8 2.4 2.8 2.4 7.8 0 3.8-1 7.7-1.1 3.9-3 6.8-2 3.2-4.7 4.8-2.8 1.7-6 1.7-2.7 0-4.6-1.1-2-1.2-3.1-3.5zm7.4.4q2.2 0 4-1.2 1.8-1.2 3-3.5 1.3-2.5 2-5.5.8-3.2.8-6.2 0-3.4-1.4-5.1-1.4-1.7-4.1-1.7-2.3 0-4.1 1.2-1.9 1.2-3.1 3.6-1.4 2.3-2.1 5.4-.8 3-.8 6.1 0 3.3 1.5 5.1 1.5 1.8 4.3 1.8z" aria-label="tooltip" font-family="Menlo,Menlo_MSFontService,sans-serif" font-size="55" font-style="italic"/><path fill="#ff79c6" d="M352.6 181h8.3v9.6h-8.3zm0 20.2h8.3v9.8h-8.3z" aria-label=":" font-family="Menlo,Menlo_MSFontService,sans-serif" font-size="55"/><path fill="#f8f8f2" d="M426.6 185H420v-5.5l5.2-10.3h4.2l-2.7 10.3Z" aria-label="‘" font-family="Menlo,Menlo_MSFontService,sans-serif" font-size="55"/><path fill="#fff" d="M449.9 170.9h23.7l-.9 4.6h-18.3l-2.3 11.8h17.5l-.9 4.6h-17.5l-2.8 14.5h18.8l-.8 4.6H442Zm42.2 13.5q-2.3 0-4.1 1.2-1.8 1.1-3 3.5-1.4 2.4-2 5.5-.8 3-.8 6.1 0 3.5 1.4 5.2 1.3 1.7 4 1.7 2.3 0 4.1-1.2 1.9-1.2 3.2-3.6 1.3-2.3 2-5.4.8-3.1.8-6.2 0-3.2-1.5-5-1.4-1.8-4-1.8zm7.2.4 3.1-15.6h5l-8.2 41.8h-5l.8-3.8q-1.7 2.3-4 3.4-2.2 1.2-4.8 1.2-4.4 0-6.9-2.8-2.4-2.9-2.4-8 0-3.7 1.1-7.6 1-4 3-6.8 2-3.2 4.6-4.8 2.8-1.6 6.1-1.6 2.6 0 4.6 1.2 2 1.1 3 3.4zm17.1-3.8h12.7l-5.1 26.2h9.8l-.8 3.8h-24.5l.7-3.8h9.8l4.3-22.4h-7.6zm10-11.8h5l-1.3 6.3h-5zm34.1 3.2-1.6 8.5H570l-.8 3.9H558l-3.2 16.3-.2 1.5-.1 1.3q0 1.7 1 2.5 1 .7 3.8.7h5.6l-.8 3.9h-6q-4.5 0-6.6-1.5-2-1.5-2-4.6v-1.6l.4-2.2 3.2-16.3h-8l.7-3.9h8l1.7-8.5z" aria-label="Edit" font-family="Menlo,Menlo_MSFontService,sans-serif" font-size="55" font-style="italic"/><path fill="#f8f8f2" d="M636.7 193.5v2.4h-21.4v.2q-.2 6.1 2.4 8.8 2.5 2.7 7.2 2.7 2.4 0 5-.8 2.5-.7 5.5-2.2v4.9q-2.9 1.1-5.5 1.7-2.6.6-5 .6-7 0-11-4.2t-4-11.6q0-7.2 4-11.5 3.8-4.3 10.2-4.3 5.8 0 9 3.9 3.4 3.9 3.6 9.4zm-5-1.5q-.2-3-2.2-5.3t-5.6-2.3q-3.5 0-5.9 2.3-2.3 2.4-2.5 5.4zm36.3.4V211h-5v-18.6q0-4-1.4-6-1.5-2-4.5-2-3.4 0-5.3 2.6-1.9 2.4-1.9 7v17h-5v-30h5v4.4q1.3-2.5 3.6-3.9 2.2-1.3 5.3-1.3 4.6 0 6.9 3 2.3 3 2.3 9.2zm21.3-20v8.5h11.2v3.9h-11.2V201q0 3.3 1.3 4.6 1.2 1.4 4.4 1.4h5.5v3.9h-6q-5.6 0-7.8-2.2-2.3-2.3-2.3-7.7v-16.3h-8v-3.9h8v-8.5zm47.7 14.7q-1.7-1.2-3.3-1.8-1.6-.5-3.6-.5-4.6 0-7 2.9-2.5 2.9-2.5 8.3v15h-5v-30h5v5.8q1.2-3.2 3.8-4.9 2.6-1.7 6-1.7 1.9 0 3.5.5 1.6.4 3 1.4zm10.5-6.1H760v26.2h9.8v3.8h-24.5v-3.8h9.8v-22.3h-7.7zm7.7-11.7h5v6.3h-5zm47 24.2v2.4h-21.4v.2q-.2 6.1 2.3 8.8 2.6 2.7 7.2 2.7 2.4 0 5-.8 2.6-.7 5.5-2.2v4.9q-2.8 1.1-5.5 1.7-2.6.6-5 .6-7 0-11-4.2-3.9-4.2-3.9-11.6 0-7.2 3.9-11.5 3.8-4.3 10.3-4.3 5.7 0 9 3.9t3.6 9.4zm-5-1.5q-.3-3-2.3-5.3-1.9-2.3-5.5-2.3t-6 2.3q-2.2 2.4-2.4 5.4zm34.1-10v4.8q-2.1-1.2-4.3-1.8-2.1-.7-4.3-.7-3.4 0-5 1.1-1.7 1.1-1.7 3.3 0 2 1.2 3 1.3 1 6.2 2l2 .4q3.6.7 5.5 2.7 2 2.1 2 5.5 0 4.5-3.2 7t-8.8 2.5q-2.3 0-4.7-.5-2.5-.5-5.3-1.4v-5.1q2.8 1.4 5.3 2.1 2.5.7 4.8.7 3.2 0 5-1.3 1.8-1.3 1.8-3.7 0-3.4-6.5-4.8h-.3l-1.8-.4q-4.3-.8-6.2-2.8-2-2-2-5.4 0-4.3 3-6.6 2.9-2.4 8.3-2.4 2.4 0 4.6.5 2.2.4 4.4 1.3zm22-12.8h6.8v5.5l-5.3 10.3h-4.1l2.6-10.3z" aria-label="entries’" font-family="Menlo,Menlo_MSFontService,sans-serif" font-size="55"/><path fill="#f8f8f2" d="M51.5 232.6h4.3q4 6.3 6 12.4 2 6 2 12t-2 12.2q-2 6-6 12.4h-4.3q3.6-6.3 5.4-12.4 1.7-6 1.7-12.2 0-6-1.7-12.2-1.8-6-5.4-12.2z" aria-label=")" font-family="Menlo,Menlo_MSFontService,sans-serif" font-size="55"/></svg>