<svg xmlns="http://www.w3.org/2000/svg" xml:space="preserve" overflow="hidden" viewBox="0 0 2232 1605"><g font-family="IBM Plex Mono,IBM Plex Mono_MSFontService,sans-serif" font-size="64" font-weight="400"><path fill="#ff79c6" d="m63 86-6-1-5-4-3-5-1-8 1-7 3-5 5-4 6-1q5 0 8 2t5 6l-5 2q0-3-3-4l-5-1h-4l-3 2-2 4v13l2 4 3 2h4l6-1 3-4 4 2q-1 3-5 6-3 2-8 2zm24-5h11V42H87v-4h16v43h12v4H87zm64 4q-3 0-4-2l-1-3h-1l-3 4q-3 2-7 2-5 0-8-3t-3-7q0-5 3-7 4-3 11-3h7v-3q0-4-2-6l-6-1-5 1-3 3-4-2 2-3 3-2 3-1 5-1q6 0 9 3t3 8v19h5v4Zm-15-4h4l3-1 2-2v-8h-7l-6 1q-3 2-3 4v1q0 3 2 4l5 1zm42 5q-5 0-9-2l-7-5 4-3q2 3 5 4l7 1 6-1q3-1 3-4l-1-2-1-2-2-1h-2l-5-1h-4l-4-2-3-3-1-4 1-4 3-3 4-2 6-1q4 0 7 2 4 1 6 4l-3 3-2-2-2-1-3-1-4-1-6 2q-2 1-2 4l1 2 1 1 2 1 2 1h5l4 1 4 1 3 3 1 4q0 5-4 8t-10 3zm38 0q-5 0-9-2l-6-5 3-3 6 4 6 1 7-1q2-1 2-4v-2l-2-2-2-1h-2l-5-1h-4l-3-2-3-3-1-4 1-4 3-3q1-2 4-2l5-1q5 0 8 2 3 1 5 4l-3 3-1-2-2-1-3-1-4-1q-4 0-6 2-2 1-2 4v2l2 1 1 1 3 1h5l4 1 3 1 3 3 1 4q0 5-4 8-3 3-10 3z" aria-label="class"/><path fill="#8be9fd" d="M277 96v-5h31v5z" aria-label="_"/><path fill="#8be9fd" d="M317 85V40h27v5h-22v15h22v5h-22v15h22v5Zm36 0 13-17-12-16h6l5 7 4 5 4-5 5-7h6l-12 16 12 17h-6l-6-8-4-5-3 5-6 8zm66 0q-3 0-4-2l-1-3h-1l-3 4q-3 2-7 2-5 0-8-3t-3-7q0-5 3-7 4-3 11-3h7v-3q0-4-2-6l-6-1-5 1-3 3-4-2 2-3 3-2 3-1 5-1q6 0 9 3t3 8v19h5v4Zm-15-4h4l3-1 2-2v-8h-7l-6 1q-3 2-3 4v1q0 3 2 4l5 1zm26 4V52h4v4h1q0-2 2-3 1-2 4-2t4 2q2 1 2 3l3-3q1-2 4-2 4 0 6 3l1 8v23h-5V57q-1-2-4-2-2 0-3 2l-1 4v24h-5V63l-1-6q-1-2-3-2t-3 2q-2 1-2 4v24Zm41-33h5v5q3-6 10-6 6 0 10 5 3 4 3 12 0 9-3 13-4 5-10 5-7 0-10-6v18h-5zm13 29q5 0 7-2 3-3 3-8v-5q0-5-3-7-2-3-7-3h-3l-3 2-2 2v17l2 2 3 2h3zm24 0h12V42h-12v-4h17v43h11v4h-28zm53 5-6-1-5-4-3-5-1-7 1-8 3-5 5-4 6-1 6 1 5 4 2 5 2 6v3h-25v1l1 4 2 4 3 2h4l6-1 4-4 3 2q-1 3-5 6-3 2-8 2zm0-31-4 1-3 2-2 4-1 3v1h19v-1l-1-4q0-2-2-3l-2-2-4-1zm38 31q-6 0-10-2l-6-6 4-3 5 5 7 1q5 0 7-2 3-2 3-6t-2-5l-6-3-5-1q-4 0-6-2l-3-2-2-4-1-4q0-6 4-9t11-3l9 1q4 2 6 5l-4 4-4-4q-3-2-7-2t-7 2q-2 2-2 6l1 5q2 2 7 2l5 1 5 2 4 3 2 3v5q0 6-4 9-4 4-11 4zm40-1q-4 0-6-2l-1-6V56h-11v-4h8l2-1 1-2v-9h5v12h15v4h-15v25h15v4Zm49 0q-3 0-4-2l-2-3-3 4q-3 2-7 2-5 0-8-3t-3-7q0-5 3-7 4-3 11-3h7v-3q0-4-2-6l-6-1-5 1-4 3-3-2 2-3 2-2 4-1 5-1q5 0 9 3 3 3 3 8v19h5v4Zm-15-4h4l3-1 1-2 1-3v-5h-7l-7 1-2 4v1q0 3 2 4l5 1zm43 4q-4 0-6-2l-1-6V56h-12v-4h9l2-1 1-2v-9h5v12h15v4h-15v25h15v4Zm37 1-6-1-5-4-3-5-1-7 1-8 3-5 5-4 6-1 6 1 5 4 2 5 2 6v3h-25v1l1 4 2 4 3 2h4l6-1 4-4 3 2q-1 3-5 6-3 2-8 2zm0-31-4 1-3 2-2 4-1 3v1h19v-1l-1-4q0-2-2-3l-2-2-4-1z" aria-label="ExampleState"/><path fill="#ff79c6" d="m830 86-7-1-5-4-3-5-1-7 1-8 4-5 4-4 6-1 6 1 5 4 3 5 1 6v3h-24v5l2 4 4 2h4l6-1 3-4 4 2q-1 3-5 6-3 2-8 2zm-1-31-3 1-4 2-2 4v4h19v-1l-1-4-2-3-3-2-4-1zm23 30 13-17-12-16h6l5 7 4 5 4-5 5-7h6l-12 16 12 17h-6l-6-8-4-5-3 5-6 8zm56 0q-4 0-6-2t-2-6V56h-11v-4h8l3-1V40h5v12h15v4h-15v25h15v4Zm37 1-6-1-5-4-3-5-2-7 2-8 3-5 4-4 7-1 6 1 4 4 3 5 1 6v3h-24v1l1 4 2 4 3 2h4l6-1 3-4 4 2q-1 3-5 6-3 2-8 2zm0-31-4 1-3 2-2 4-1 3v1h19v-1l-1-4-2-3-3-2-3-1zm25 30V52h5v5l2-2 1-2 3-1 4-1q5 0 8 4 3 3 3 9v21h-5V65q0-5-2-7t-6-2h-3l-2 1-2 2-1 3v23Zm59-5q-3 6-10 6-6 0-10-5-3-4-3-13 0-8 3-12 4-5 10-5 7 0 10 6V38h5v47h-5zm-8 1h3l3-2 1-2 1-3V63l-1-3-1-2-3-2h-3q-5 0-7 3-3 2-3 7v5q0 5 3 8 2 2 7 2zm39 5q-5 0-9-2t-6-5l3-3 5 4 7 1 6-1q3-1 3-4l-1-2-1-2-2-1h-2l-5-1h-4l-4-2-2-3-1-4 1-4 2-3q2-2 5-2l5-1 8 2q3 1 5 4l-3 3-2-2-2-1-2-1-4-1q-4 0-6 2-2 1-2 4v2l1 1 2 1 2 1h6l3 1 4 1 3 3 1 4q0 5-4 8t-10 3z" aria-label="extends"/><path fill="#8be9fd" d="M1137 86q-6 0-10-2l-6-6 4-3 5 5 7 1q5 0 8-2 2-2 2-6t-2-5q-1-2-6-3l-5-1-6-2-3-2-2-4-1-4q0-6 4-9t11-3l9 1q4 2 6 5l-3 4q-2-3-5-4-3-2-7-2t-7 2q-2 2-2 6 0 3 2 5t6 2l5 1 6 2 3 3q2 1 2 3l1 5q0 6-4 9-4 4-12 4zm40-1q-4 0-5-2-2-2-2-6V56h-11v-4h8l2-1 1-2v-9h5v12h15v4h-15v25h15v4Zm49 0q-3 0-4-2l-1-3h-1l-3 4q-3 2-7 2-5 0-8-3t-3-7q0-5 3-7 4-3 11-3h7v-3q0-4-2-6l-6-1-5 1-3 3-4-2 2-3 3-2 3-1 5-1q6 0 9 3t3 8v19h5v4Zm-15-4h4l3-1 2-2v-8h-7l-6 1q-3 2-3 4v1q0 3 2 4l5 1zm43 4q-4 0-6-2l-1-6V56h-11v-4h8l2-1 1-2v-9h5v12h15v4h-15v25h15v4Zm37 1-6-1-5-4-3-5-1-7 1-8 3-5 5-4 6-1 6 1 5 4 3 5 1 6v3h-25v1l1 4 2 4 3 2h4l6-1 4-4 4 2-5 6q-4 2-9 2zm0-31-4 1-3 2-2 4-1 3v1h19v-5l-2-3-3-2-4-1z" aria-label="State"/><path fill="#f8f8f2" d="M1314 68v-5l28-16v5l-23 13v1l23 13v5z" aria-label="&lt;"/><path fill="#8be9fd" d="M1354 85V40h27v5h-22v15h22v5h-22v15h22v5Zm36 0 13-17-12-16h6l5 7 4 5 4-5 5-7h6l-12 16 12 17h-6l-6-8-4-5-3 5-6 8zm66 0q-3 0-4-2l-1-3h-1l-3 4q-3 2-7 2-5 0-8-3t-3-7q0-5 3-7 4-3 11-3h7v-3q0-4-2-6l-6-1-5 1-3 3-4-2 2-3 3-2 3-1 5-1q6 0 9 3t3 8v19h5v4Zm-15-4h4l3-1 2-2v-8h-7l-6 1q-3 2-3 4v1q0 3 2 4l5 1zm26 4V52h4v4h1q0-2 2-3 1-2 4-2t4 2q2 1 2 3l3-3q1-2 4-2 4 0 6 3l1 8v23h-5V57q-1-2-4-2-2 0-3 2l-1 4v24h-5V63l-1-6q-1-2-3-2t-3 2q-2 1-2 4v24Zm41-33h5v5q3-6 10-6 6 0 10 5 3 4 3 12 0 9-3 13-4 5-10 5-7 0-10-6v18h-5zm13 29q5 0 7-2 3-3 3-8v-5q0-5-3-7-2-3-7-3h-3l-3 2-2 2v17l2 2 3 2h3zm24 0h12V42h-12v-4h17v43h11v4h-28zm53 5-6-1-5-4-3-5-1-7 1-8 3-5 5-4 6-1 6 1 5 4 2 5 2 6v3h-25v1l1 4 2 4 3 2h4l6-1 4-4 3 2q-1 3-5 6-3 2-8 2zm0-31-4 1-3 2-2 4-1 3v1h19v-1l-1-4q0-2-2-3l-2-2-4-1z" aria-label="Example"/><path fill="#f8f8f2" d="m1622 79 23-13v-1l-23-13v-5l28 16v5l-28 16Z" aria-label="&gt;"/><path fill="#f8f8f2" d="M72 246h-8l-8-1-5-5-3-9-1-11 1-13 3-8q2-3 5-4l6-1 7 1 4 3 3 5 1 6v24h-5v-3l-2 3-5 1q-4 0-6-3-2-4-2-11t2-10q2-4 6-4l3 1 2 1 1 1 1 2v-2q0-5-2-8t-8-3q-5 0-8 4-2 4-2 14v15l2 6 4 4 6 1h8zm-5-16 4-1 1-4v-10l-1-3-4-2q-3 0-4 2l-1 6v4l1 6q1 2 4 2zm34 10-7-1-4-4-3-5-1-8 1-7 3-5 4-4 7-1 6 1 5 4 3 5 1 7-1 8-3 5-5 4-6 1zm0-5q4 0 7-2 2-3 2-8v-5q0-5-2-8-3-2-7-2-5 0-7 2-3 3-3 8v5q0 5 3 8 2 2 7 2zm35 4-12-33h5l5 14 5 15 5-15 5-14h5l-12 33Zm42 1-6-1-5-4-3-5-2-7 2-8 3-5 4-4 7-1 6 1 4 4 3 5 1 6v3h-24v1l1 4 2 4 3 2h4l6-1 3-4 4 2q-1 3-5 6-3 2-8 2zm0-31-4 1-3 2-2 4-1 3v1h19v-1l-1-4-2-3-3-2-3-1zm24 26h9v-25h-9v-4h14v8h1l3-6q3-2 8-2h4v5h-6q-4 0-7 3-3 2-3 6v15h13v4h-27zm38 0h10v-25h-10v-4h15v8q1-4 4-6t7-2h5v5h-6q-5 0-8 3-2 2-2 6v15h13v4h-28zm55-36-3-1-1-3v-1l1-2 3-1 3 1 1 2v1l-1 3-3 1zm-15 36h12v-25h-12v-4h17v29h11v4h-28zm59-1q-3 6-10 6t-10-5q-3-4-3-13 0-8 3-12 3-5 10-5t10 6v-19h5v47h-5zm-8 1h3l3-2 1-2 1-3v-11l-1-3-1-2-3-2h-3q-5 0-7 3-3 2-3 7v5q0 5 3 8 2 2 7 2zm39 5-6-1-5-4-3-5-2-7 2-8 3-5 4-4 7-1 6 1 4 4 3 5 1 6v3h-24v1l1 4 2 4 3 2h4l6-1 3-4 4 2q-1 3-5 6-3 2-8 2zm0-31-4 1-3 2-2 4-1 3v1h19v-1l-1-4-2-3-3-2-3-1z" aria-label="@override"/><path fill="#8be9fd" d="m49 316-4-45h5l2 26 1 13 6-27h6l6 27h1l1-13 1-26h5l-3 45h-8l-6-27-5 27Zm54-40-3-1-1-3v-1l1-2 3-1 3 1 1 2v1l-1 3-3 1zm-15 36h12v-25H88v-4h17v29h11v4H88zm59-1q-3 6-10 6t-10-5q-3-4-3-13 0-8 3-12 3-5 10-5t10 6v-19h5v47h-5zm-8 1h3l3-2 1-2 1-3v-11l-1-3-1-2-3-2h-3q-5 0-7 3-3 2-3 7v5q0 5 3 8 2 2 7 2zm55 8q0 5-4 7-4 3-13 3-8 0-11-3-4-2-4-6l2-4 4-2v-1q-2 0-2-2l-1-2q0-3 2-4l4-2-5-4-2-6 1-5 3-4 4-2 5-1q4 0 7 2v-1l1-3q1-2 3-2h6v5h-8v2l3 4 1 5-1 4-2 4-5 2-5 1h-5l-1 1-1 1-1 2 2 1 4 1h7q6 0 9 2 3 3 3 7zm-5 0-1-3-6-1h-11q-4 1-4 4l2 4 6 1h5l7-1q2-1 2-4zm-12-19q4 0 6-2t2-5v-1q0-3-2-5t-6-2q-4 0-5 2-2 2-2 5v1q0 3 2 5 1 2 5 2zm39 16-6-1-5-4-3-5-1-7 1-8 3-5 5-4 6-1 6 1 5 4 3 5 1 6v3h-25v1l1 4 2 4 3 2h4l6-1 4-4 4 2-5 6q-4 2-9 2zm0-31-4 1-3 2-2 4-1 3v1h19v-5l-2-3-3-2-4-1zm40 30q-4 0-6-2l-1-6v-21h-12v-4h9l2-1 1-2v-9h5v12h15v4h-15v25h15v4Z" aria-label="Widget"/><path fill="#50fa7b" d="M317 269h5v19q4-6 11-6 6 0 9 5 4 4 4 12 0 9-4 13-3 5-9 5-7 0-11-6v5h-5Zm14 43q4 0 7-2 2-3 2-8v-5q0-5-2-7-3-3-7-3h-4l-2 2-2 2-1 3v11l1 3 2 2 2 2h4zm45-1-1 2-2 2-3 1-3 1q-5 0-9-3-3-4-3-10v-21h5v20q0 5 2 7t6 2h3l3-1 2-2v-26h6v33h-6zm33-35-3-1-1-3v-1l1-2 3-1 3 1 1 2v1l-1 3-3 1zm-14 36h11v-25h-11v-4h17v29h11v4h-28Zm36 0h12v-39h-12v-4h17v43h11v4h-28zm61-1q-4 6-11 6-6 0-9-5-4-4-4-13 0-8 4-12 3-5 9-5 7 0 11 6v-19h5v47h-5zm-9 1h4l2-2 2-2 1-3v-11l-1-3-2-2-2-2h-4q-4 0-7 3-2 2-2 7v5q0 5 2 8 3 2 7 2z" aria-label="build"/><path fill="#f8f8f2" d="m516 296 1-9 3-8 4-7 5-5h6l-6 5-4 6-3 7-1 8v6l1 8 3 7 4 6 6 5h-6l-5-5-4-7-3-8-1-9z" aria-label="("/><path fill="#8be9fd" d="M548 271h15q6 0 9 3 3 4 3 9 0 4-2 6l-5 3v1l6 3q3 2 3 7l-1 5-3 4-4 3-4 1h-17Zm15 40 6-1q2-2 2-5v-3q0-3-2-5t-6-2h-10v16Zm-1-20q4 0 6-2l1-4v-3l-1-4q-2-2-6-2h-9v15zm45 20-1 2-2 2-3 1-3 1q-5 0-9-3-3-4-3-10v-21h5v20q0 5 2 7t6 2h3l3-1 2-2v-26h6v33h-6zm33-35-3-1-1-3v-1l1-2 3-1 3 1 1 2v1l-1 3-3 1zm-14 36h11v-25h-11v-4h17v29h11v4h-28Zm36 0h12v-39h-12v-4h17v43h11v4h-28zm61-1q-4 6-11 6-6 0-9-5-4-4-4-13 0-8 4-12 3-5 9-5 7 0 11 6v-19h5v47h-5zm-9 1h4l2-2 2-2 1-3v-11l-1-3-2-2-2-2h-4q-4 0-7 3-2 2-2 7v5q0 5 2 8 3 2 7 2zm41 5q-9 0-13-6t-4-17q0-12 4-17 4-6 13-6h5l4 3 3 3 1 3-4 2-2-2-1-3-3-1-3-1q-6 0-8 4-3 4-3 11v7q0 7 3 11 2 4 8 4h3l3-2 1-2 2-3 4 2-1 4-3 3-4 2-5 1zm37 0-7-1-4-4-3-5-1-8 1-7 3-5 4-4 7-1 6 1 5 4 3 5 1 7-1 8-3 5-5 4-6 1zm0-5q4 0 7-2 2-3 2-8v-5q0-5-2-8-3-2-7-2-5 0-7 2-3 3-3 8v5q0 5 3 8 2 2 7 2zm25 4v-33h5v5l2-2 2-2 2-1 4-1q5 0 8 4 3 3 3 9v21h-5v-20q0-5-2-7t-6-2h-3l-2 1-2 2-1 3v23Zm53 0q-4 0-6-2l-1-6v-21h-11v-4h8l2-1 1-2v-9h5v12h15v4h-15v25h15v4Zm37 1-6-1-5-4-3-5-1-7 1-8 3-5 5-4 6-1 6 1 5 4 3 5 1 6v3h-25v1l1 4 2 4 3 2h4l6-1 4-4 4 2-5 6q-4 2-9 2zm0-31-4 1-3 2-2 4-1 3v1h19v-5l-2-3-3-2-4-1zm23 30 12-17-12-16h6l5 7 4 5h1l3-5 5-7h6l-12 16 13 17h-7l-5-8-4-5-4 5-5 8zm55 0q-4 0-5-2-2-2-2-6v-21h-11v-4h8l2-1 1-2v-9h5v12h15v4h-15v25h15v4Z" aria-label="BuildContext"/><path fill="#ffb86c" d="m1058 317-5-1-4-3-2-4-1-6 1-9q1-4 4-6 2-3 5-4 3-2 7-2l4 1 4 2 2 2 1 3-4 2-3-4-5-1q-4 0-7 2l-3 8-1 4v3q0 4 2 6t6 2h2l3-1 2-2 4-5 4 2-4 5-3 3-4 2-5 1zm38 0-5-1-4-3-3-4-1-6q0-5 2-9l3-6 6-4q3-2 7-2l5 1 4 3 3 5 1 5q0 5-2 9l-3 6-6 4q-3 2-7 2zm1-5q4 0 7-2 3-3 4-8v-4l1-2v-1q0-5-3-6-2-2-5-2-5 0-8 2-3 3-3 8l-1 4v3q0 5 2 6 2 2 6 2zm25 4 5-33h5l-1 8 4-6q3-3 7-3t7 3q2 2 2 7v4l-4 20h-5l4-20v-3l-1-5-5-1-4 1-3 2v1l-2 2-1 2v3l-3 18Zm49 1-3-1-1-4v-2l4-23h-10l1-4h7l2-1 1-2 2-9h4l-2 12h14l-1 4h-13l-4 25h1l14-9 3 3-7 5-4 3-3 2h-3l-2 1zm41 0q-6 0-9-4-4-3-4-10 0-5 2-9l3-6 6-4q3-2 7-2l5 1q2 0 3 2l3 2 1 4-1 4-4 3q-2 2-7 3l-12 1v5l1 3 3 2h7l3-1 2-2 3-4 3 2q-2 5-6 7-3 3-9 3zm5-31q-5 0-8 3t-4 9v1l10-1 5-2 3-2 1-3-1-2-1-1-2-1-3-1zm23 31q-7 0-7-8v-1l1-3 4-1v4l1 4 2 1 4-2 3-5 1-6 1-6v-3l-1-3v-1l-1-1-10 6-2-3 4-3 5-3 4-1 3 1 1 3 1 4v4l4-9q3-3 7-3 6 0 6 8v4h-5v-7l-3-1-4 2-2 5-2 6v12l1 1 1 1 9-7 2 3-3 3-6 4-3 1-3-1-2-3v-8h-1q-1 6-4 9-2 3-6 3zm47 0-4-1-1-4v-2l4-23h-10l1-4h7l2-1 1-2 2-9h5l-2 12h13v4h-14l-4 25h1l15-9 2 3-7 5-4 3-3 2h-2l-2 1z" aria-label="context" font-style="italic"/><path fill="#f8f8f2" d="m1334 296-1 9-3 8q-1 4-4 7l-5 5h-5l5-5 4-6 3-7 1-8v-6l-1-8-3-7-4-6-5-5h5l5 5q3 3 4 7l3 8 1 9zm72 29-4-2-1-3v-7l1-3 1-2 1-1 2-2v-2q0-3-2-4l-6-1h-5v-4h5l6-1q2-1 2-4v-1l-2-3-1-1-1-2-1-2v-7l1-4 4-2h11v4h-12v5l1 4 2 3 2 3 1 4-2 4q-2 2-5 2l5 2q2 2 2 5l-1 3-2 3-2 3-1 4v5h12v4z" aria-label=") {"/><path fill="#ff79c6" d="M86 389h10v-25H86v-4h15v8q1-4 4-6t7-2h5v5h-6q-5 0-8 3-2 2-2 6v15h13v4H86Zm53 5-6-1-5-4-3-5-1-7 1-8 3-5 5-4 6-1 6 1 5 4 2 5 2 6v3h-25v1l1 4 2 4 3 2h4l6-1 4-4 3 2q-1 3-5 6-3 2-8 2zm0-31-4 1-3 2-2 4-1 3v1h19v-1l-1-4q0-2-2-3l-2-2-4-1zm40 30q-4 0-6-2t-2-6v-21h-11v-4h8l3-1v-11h5v12h15v4h-15v25h15v4Zm44-5-1 2-2 2-3 1-3 1q-6 0-9-3-3-4-3-10v-21h5v20q0 5 2 7t6 2h3l3-1 2-2v-26h5v33h-5zm17 1h9v-25h-9v-4h14v8h1l3-6q3-2 8-2h4v5h-6q-4 0-7 3-3 2-3 6v15h13v4h-27zm39 4v-33h5v5h1l1-2 2-2 2-1 4-1q5 0 8 4 4 3 4 9v21h-6v-20q0-5-2-7t-5-2h-3l-3 1-2 2-1 3v23Z" aria-label="return"/><path fill="#8be9fd" d="M379 371v-15l-10 23-9-23h-1v37h-5v-45h7l8 20h1l7-20h7v45h-5Zm41 22q-3 0-4-2l-2-3q-1 3-4 4-2 2-6 2-5 0-8-3t-3-7q0-5 3-7 3-3 11-3h7v-3q0-4-2-6l-6-1-5 1-4 3-3-2 1-3 3-2 4-1 4-1q6 0 10 3 3 3 3 8v19h5v4Zm-15-4h3l3-1 2-2 1-3v-5h-7l-7 1-2 4v1q0 3 2 4l5 1zm43 4q-4 0-6-2t-2-6v-21h-11v-4h8l3-1v-11h5v12h15v4h-15v25h15v4Zm37 1-6-1-5-4-3-5-2-7 2-8 3-5 4-4 7-1 6 1 4 4 3 5 1 6v3h-24v1l1 4 2 4 3 2h4l6-1 3-4 4 2q-1 3-5 6-3 2-8 2zm0-31-4 1-3 2-2 4-1 3v1h19v-1l-1-4-2-3-3-2-3-1zm24 26h9v-25h-9v-4h14v8h1l3-6q3-2 8-2h4v5h-6q-4 0-7 3-3 2-3 6v15h13v4h-27zm54-36-3-1-1-3v-1l1-2 3-1 3 1 1 2v1l-1 3-3 1zm-14 36h12v-25h-12v-4h17v29h11v4h-28zm63 4q-3 0-4-2l-2-3q-1 3-4 4-2 2-6 2-5 0-8-3t-3-7q0-5 3-7 3-3 11-3h7v-3q0-4-2-6l-6-1-5 1-4 3-3-2 1-3 3-2 4-1 4-1q6 0 10 3 3 3 3 8v19h5v4Zm-15-4h3l3-1 2-2 1-3v-5h-7l-7 1-2 4v1q0 3 2 4l5 1zm27 0h11v-39h-11v-4h17v43h11v4h-28zm64 4-4-13h-15l-4 13h-6l14-45h7l14 45Zm-11-39h-1l-6 22h13zm25 6h5v5q3-6 10-6 6 0 10 5 3 4 3 12 0 9-3 13-4 5-10 5-7 0-10-6v18h-5zm13 29q5 0 7-2 3-3 3-8v-5q0-5-3-7-2-3-7-3h-3l-3 2-2 2v17l2 2 3 2h3zm25-29h5v5q4-6 11-6 6 0 9 5 4 4 4 12 0 9-4 13-3 5-9 5-7 0-11-6v18h-5zm14 29q4 0 7-2 2-3 2-8v-5q0-5-2-7-3-3-7-3h-4l-2 2-2 2-1 3v11l1 3 2 2 2 2h4z" aria-label="MaterialApp"/><path fill="#f8f8f2" d="m785 373 1-9 3-8 4-7 5-5h6l-6 5-4 6-3 7-1 8v6l1 8 3 7 4 6 6 5h-6l-5-5-4-7-3-8-1-9z" aria-label="("/><path fill="#ffb86c" d="m135 471-3-1-1-4v-2l4-23h-10l1-4h6l3-1 1-2 2-9h4l-2 12h14l-1 4h-13l-5 25h2l14-9 3 3-8 5-3 3-3 2h-3l-2 1zm35-48h5l-4 22h1l4-6q3-3 7-3t6 3q3 2 3 7l-1 2v2l-3 20h-5l3-20v-3l-1-5-4-1-4 1-3 2-1 1-1 2-1 2-1 3-3 18h-5zm45 48q-7 0-10-4-4-3-4-10 0-5 2-9l4-6q2-3 5-4l8-2 4 1 4 2 2 2 1 4-1 4-3 3-8 3-12 1v5l1 3 3 2h7l3-1 2-2 3-4 4 2q-3 5-7 7-3 3-8 3zm4-31q-5 0-8 3t-4 9v1l10-1 5-2 3-2 1-3-1-2-1-1-2-1-3-1zm17 30 5-33h5l-1 5h1l2-4q2-2 5-2l4 2 1 4 3-4q2-2 5-2t4 2q2 1 2 5l-1 2v2l-4 23h-4l3-22 1-2v-2q0-4-3-4l-2 1-2 2-2 3v3l-4 21h-5l4-22v-7l-2-1-3 1-2 2-1 3-1 3-3 21Zm55 1q-6 0-9-4-4-3-4-10 0-5 2-9l3-6 6-4q3-2 7-2l5 1q2 0 3 2l3 2 1 4-1 4-4 3q-2 2-7 3l-12 1v5l1 3 3 2h7l3-1 2-2 3-4 3 2q-2 5-6 7-3 3-9 3zm5-31q-5 0-8 3t-4 9v1l10-1 5-2 3-2 1-3-1-2-1-1-2-1-3-1z" aria-label="theme" font-style="italic"/><path fill="#ff79c6" d="m330 471-4-2-1-2v-1l1-3 4-1 4 1 1 3v1l-1 2q-1 2-4 2zm0-26-4-1-1-3v-1l1-3 4-1 4 1 1 3v1l-1 3-4 1z" aria-label=":"/><path fill="#f8f8f2" d="M409 470q-4 0-6-2l-1-6v-21h-12v-4h9l2-1 1-2v-9h5v12h15v4h-15v25h15v4Zm24-47h5v19l1-2 2-2 3-1 3-1q6 0 9 4 3 3 3 9v21h-5v-20q0-5-2-7t-6-2h-3l-3 1-2 2v26h-5zm52 48-7-1-5-4-3-5-1-7 1-8 3-5 5-4 6-1 6 1 5 4 3 5 1 6v3h-25v1l1 4 2 4 3 2h5l5-1 4-4 4 2-5 6q-3 2-8 2zm-1-31-4 1-3 2-2 4-1 3v1h19v-5l-2-3-3-2-4-1zm23 30v-33h4v4h1q0-2 2-3 1-2 4-2t4 2q2 1 2 3l3-3q1-2 4-2 4 0 6 3l1 8v23h-5v-28q-1-2-4-2-2 0-3 2l-1 4v24h-5v-22l-1-6q-1-2-3-2t-3 2q-2 1-2 4v24Zm54 1-6-1-5-4-3-5-1-7 1-8 3-5 5-4 6-1 6 1 5 4 3 5 1 6v3h-25v1l1 4 2 4 3 2h4l6-1 4-4 4 2-5 6q-4 2-9 2zm0-31-4 1-3 2-2 4-1 3v1h19v-5l-2-3-3-2-4-1zm35 21h9l-8 18h-4z" aria-label="theme,"/><path fill="#ffb86c" d="M132 500h5l-4 22q2-4 5-6 2-3 6-3t7 3q2 2 2 7v4l-3 20h-5l3-20v-3l-1-5-4-1-4 1-3 2-1 1-1 2-1 2-1 3-3 18h-5Zm43 48-5-1-4-3-3-4-1-6q0-5 2-9l3-6 6-4q3-2 7-2l5 1 4 3 3 5 1 5q0 5-2 9l-3 6-6 4q-3 2-7 2zm1-5q4 0 7-2 3-3 4-8v-4l1-2v-1q0-5-3-6-2-2-5-2-5 0-8 2-3 3-3 8l-1 4v3q0 5 2 6 2 2 6 2zm22 4 5-33h5l-1 5 3-4 4-2q3 0 4 2 2 2 1 4h1l3-4q2-2 5-2l4 2 1 5v4l-4 23h-5l4-22v-4q0-4-2-4l-3 1-2 2-1 3-1 3-3 21h-5l4-22v-4l-1-3-2-1-2 1-2 2-1 3-1 3-4 21Zm55 1q-6 0-10-4-3-3-3-10l1-9 4-6q2-3 6-4 3-2 7-2l5 1q2 0 3 2l2 2 1 4-1 4q0 2-3 3-2 2-7 3l-13 1v5l2 3 2 2h8l2-1 3-2 3-4 3 2-6 7q-4 3-9 3zm5-31q-5 0-9 3-3 3-3 9v1l9-1 6-2 2-2 1-3v-2l-1-1-2-1-3-1z" aria-label="home" font-style="italic"/><path fill="#ff79c6" d="m292 548-4-2-1-2v-1l1-3 4-1 4 1 1 3v1l-1 2q-1 2-4 2zm0-26-4-1-1-3v-1l1-3 4-1 4 1 1 3v1l-1 3-4 1z" aria-label=":"/><path fill="#8be9fd" d="M369 548q-6 0-10-2l-6-6 4-3 5 5 7 1q5 0 8-2 2-2 2-6t-2-5q-1-2-6-3l-5-1-6-2-3-2-2-4-1-4q0-6 4-9t11-3l9 1q4 2 6 5l-3 4q-2-3-5-4-3-2-7-2t-7 2q-2 2-2 6 0 3 2 5t6 2l5 1 6 2 3 3q2 1 2 3l1 5q0 6-4 9-4 4-12 4zm40 0-7-1-4-4-3-5-1-8 1-7 3-5 4-4 7-1q4 0 7 2 4 2 5 6l-4 2-3-4-5-1h-4l-3 2-2 4-1 4v5l1 4 2 4 3 2h4l5-1 4-4 3 2-4 6q-3 2-8 2zm49-1q-3 0-4-2l-1-3h-1l-3 4q-3 2-7 2-5 0-8-3t-3-7q0-5 3-7 4-3 11-3h7v-3q0-4-2-6l-6-1-5 1-3 3-4-2 2-3 3-2 3-1 5-1q6 0 9 3t3 8v19h5v4Zm-15-4h4l3-1 2-2v-8h-7l-6 1q-3 2-3 4v1q0 3 2 4l5 1zm28 0h11v-25h-12v-4h12v-7l1-5q2-2 6-2h11v4h-13v10h13v4h-13v25h12v4h-28zm38 0h11v-25h-12v-4h12v-7q0-3 2-5t5-2h11v4h-13v10h13v4h-13v25h12v4h-28zm52 5-6-1-5-4-3-5-1-8 1-7 3-5 5-4 6-1 6 1 5 4 3 5 1 7-1 8-3 5-5 4-6 1zm0-5q4 0 7-2 3-3 3-8v-5q0-5-3-8-3-2-7-2t-7 2q-2 3-2 8v5q0 5 2 8 3 2 7 2zm25 0h11v-39h-11v-4h16v43h12v4h-28zm60-1q-3 6-10 6t-10-5q-3-4-3-13 0-8 3-12 3-5 10-5t10 6v-19h5v47h-5zm-8 1h3l3-2 1-2 1-3v-11l-1-3-1-2-3-2h-3q-5 0-7 3-3 2-3 7v5q0 5 3 8 2 2 7 2z" aria-label="Scaffold"/><path fill="#f8f8f2" d="m670 527 1-9 3-8 4-7 5-5h6l-6 5-4 6-3 7-1 8v6l1 8 3 7 4 6 6 5h-6l-5-5-4-7-3-8-1-9z" aria-label="("/><path fill="#ffb86c" d="M172 625q-5 0-8-3-2-4-2-10v-7l3-7q2-4 5-6t7-2q4 0 6 2 2 1 3 5h1l1-6h4l-4 29h4v4h-4q-3 0-4-2l-1-3v-3l-4 6q-3 3-7 3zm1-5h4l4-3 2-4 1-4 2-7q0-4-2-5-2-2-6-2t-7 3q-3 2-3 7l-1 5v2l1 6q2 2 5 2zm32-29h5l-1 8q2-4 5-6 3-3 7-3 5 0 8 3 2 4 2 10l-1 7q0 4-2 7l-5 6q-3 2-7 2t-7-2q-2-1-3-5l-3 19h-5zm9 29q5 0 8-3 2-2 3-7l1-5v-3q0-3-2-5-1-2-5-2l-4 1-4 2-2 4-1 4-1 7q-1 4 1 5 2 2 6 2zm30-29h5l-2 8h1l4-6q3-3 7-3 5 0 8 3 3 4 3 10l-1 7-3 7-5 6q-3 2-7 2t-6-2q-3-1-4-5l-3 19h-5zm9 29q4 0 7-3 3-2 4-7v-6l1-2q0-3-2-5t-5-2l-4 1-4 2-2 4-2 4-1 7q-1 4 2 5 2 2 6 2zm31-41h14q5 0 8 3t3 8q0 4-3 7-2 3-6 4l3 1 2 2 2 2v4l-1 5-3 5-4 3-6 1h-17zm8 40 6-1q3-2 3-5l1-2v-3l-2-4-5-1h-10l-3 16zm3-20q3 0 5-2l3-4v-4l-1-4-5-1h-9l-2 15zm30 26q-5 0-7-3-3-4-3-10l1-7 3-7q1-4 4-6t8-2q3 0 5 2 3 1 4 5l1-6h5l-5 29h5l-1 4h-4q-3 0-4-2l-1-3 1-3q-2 4-5 6-2 3-7 3zm2-5h4l4-3 2-4 1-4 1-7q1-4-1-5-2-2-6-2-5 0-7 3-3 2-4 7l-1 5v2q0 4 2 6t5 2zm34 4 5-29h-9l1-4h14l-2 9h1l2-4 2-3 3-1 5-1h5l-1 5h-6l-5 1-3 2-1 1-1 2-1 2-1 3-3 17Z" aria-label="appBar" font-style="italic"/><path fill="#ff79c6" d="m407 625-4-2-1-2v-1l1-3 4-1 4 1 1 3v1l-1 2q-1 2-4 2zm0-26-4-1-1-3v-1l1-3 4-1 4 1 1 3v1l-1 3-4 1z" aria-label=":"/><path fill="#8be9fd" d="m496 624-4-13h-16l-3 13h-6l14-45h7l13 45Zm-12-39-6 22h13zm25 6h6v5q3-6 10-6 6 0 10 5 3 4 3 12 0 9-3 13-4 5-10 5-7 0-10-6v18h-6zm14 29q5 0 7-2 2-3 2-8v-5q0-5-2-7-2-3-7-3h-3l-3 2-2 2v17l2 2 3 2h3zm25-29h5v5q3-6 10-6t10 5q3 4 3 12 0 9-3 13-3 5-10 5t-10-6v18h-5zm13 29q5 0 7-2 3-3 3-8v-5q0-5-3-7-2-3-7-3h-3l-3 2-1 2-1 3v11l1 3 1 2 3 2h3zm25-41h15q6 0 9 3 3 4 3 9 0 4-2 6l-5 3v1l7 3q2 2 2 7l-1 5-3 4-3 3-5 1h-17zm15 40 6-1q2-2 2-5v-3q0-3-2-5t-6-2h-10v16zm-1-20q4 0 6-2 2-1 2-4v-3q0-3-2-4-2-2-6-2h-9v15zm50 25q-3 0-4-2l-2-3-3 4q-3 2-7 2-5 0-8-3t-3-7q0-5 3-7 4-3 11-3h7v-3q0-4-2-6l-6-1-5 1-4 3-3-2 2-3 2-2 4-1 5-1q5 0 9 3 3 3 3 8v19h5v4Zm-15-4h4l3-1 1-2 1-3v-5h-7l-7 1-2 4v1q0 3 2 4l5 1zm27 0h10v-25h-10v-4h15v8q1-4 4-6t7-2h5v5h-6q-5 0-8 3-2 2-2 6v15h13v4h-28z" aria-label="AppBar"/><path fill="#f8f8f2" d="m708 604 1-9 3-8 4-7 5-5h6l-6 5-4 6-3 7-1 8v6l1 8 3 7 4 6 6 5h-6l-5-5-4-7-3-8-1-9z" aria-label="("/><path fill="#ffb86c" d="m211 702-3-1-1-4v-2l4-23h-10l1-4h6l3-1 1-2 2-9h4l-2 12h14l-1 4h-13l-5 25h2l14-9 3 3-8 5-3 3-3 2h-3l-2 1zm45-41-3-1-1-2 1-1v-1l1-2 3-1 3 1 1 2v1l-1 1-1 2-3 1zm-4 41-4-1-1-4v-2l5-23h-12v-4h17l-5 29h1l13-11 3 3-6 6-4 3-3 2-2 1-2 1zm36 0-3-1-2-4v-1l1-1 3-23h-9l1-4h6l3-1 1-2 1-9h5l-2 12h14l-1 4h-14l-4 25h2l14-9 2 3-7 5-4 3-3 2h-2l-2 1zm39 0-4-2-1-3v-1l1-1 7-37h-12l1-4h17l-9 43h2l13-11 3 3-7 6-4 4-3 2-2 1h-2zm40 0q-6 0-9-4-4-3-4-10 0-5 2-9l3-6 6-4q3-2 7-2l5 1q2 0 3 2l3 2 1 4-1 4-4 3q-2 2-7 3l-12 1v5l1 3 3 2h7l3-1 2-2 3-4 3 2q-2 5-6 7-3 3-9 3zm5-31q-5 0-8 3t-4 9v1l10-1 5-2 3-2 1-3-1-2-1-1-2-1-3-1z" aria-label="title" font-style="italic"/><path fill="#ff79c6" d="m407 702-4-2-1-2v-1l1-3 4-1 4 1 1 3v1l-1 2q-1 2-4 2zm0-26-4-1-1-3v-1l1-3 4-1 4 1 1 3v1l-1 3-4 1z" aria-label=":"/><path fill="#ff79c6" d="m485 702-6-1-5-4-3-5-1-8 1-7 3-5 5-4 6-1q5 0 8 2t5 6l-5 2q0-3-3-4l-5-1h-4l-3 2-2 4v13l2 4 3 2h4l6-1 3-4 4 2q-1 3-5 6-3 2-8 2zm38 0-7-1-4-4-3-5-1-8 1-7 3-5 4-4 7-1 6 1 5 4 3 5 1 7-1 8-3 5-5 4-6 1zm0-5q4 0 7-2 2-3 2-8v-5q0-5-2-8-3-2-7-2-5 0-7 2-3 3-3 8v5q0 5 3 8 2 2 7 2zm25 4v-33h5v5l2-2 2-2 2-1 4-1q5 0 8 4 3 3 3 9v21h-5v-20q0-5-2-7t-6-2h-3l-2 1-2 2-1 3v23Zm52 1q-5 0-9-2l-7-5 4-3q2 3 5 4l7 1 6-1q3-1 3-4l-1-2-1-2-2-1h-2l-5-1h-4l-4-2-3-3-1-4 1-4 3-3 4-2 6-1q4 0 7 2 4 1 6 4l-3 3-2-2-2-1-3-1-4-1-6 2q-2 1-2 4l1 2 1 1 2 1 2 1h5l4 1 4 1 3 3 1 4q0 5-4 8t-10 3zm39-1q-3 0-5-2t-2-6v-21h-11v-4h8l3-1v-11h5v12h15v4h-15v25h15v4Z" aria-label="const"/><path fill="#8be9fd" d="M717 661v40h-5v-40h-15v-5h35v5Zm36 41-6-1-5-4-3-5-1-7 1-8 3-5 5-4 6-1 6 1 5 4 2 5 2 6v3h-25v1l1 4 2 4 3 2h4l6-1 4-4 3 2q-1 3-5 6-3 2-8 2zm0-31-4 1-3 2-2 4-1 3v1h19v-1l-1-4q0-2-2-3l-2-2-4-1zm23 30 12-17-12-16h6l5 7 4 5 4-5 5-7h6l-12 16 12 17h-6l-5-8-4-5-4 5-5 8zm55 0q-4 0-6-2l-1-6v-21h-11v-4h8l2-1 1-2v-9h5v12h15v4h-15v25h15v4Z" aria-label="Text"/><path fill="#f8f8f2" d="m862 681 1-9 3-8 4-7 5-5h6l-6 5-4 6-3 7-1 8v6l1 8 3 7 4 6 6 5h-6l-5-5-4-7-3-8-1-9z" aria-label="("/><path fill="#f1fa8c" d="M904 671v-17h5v17zm51 8v-15h-1l-9 23-10-23v37h-5v-45h7l8 20 8-20h6v45h-4zm39-11h5l-17 40-1 3-2 1-2 1-3 1h-5v-5h8l4-9-14-32h5l6 14 5 12 5-12Zm77 33-3-13h-16l-4 13h-5l13-45h7l14 45Zm-11-39h-1l-6 22h13zm25 6h5v5q4-6 11-6 6 0 9 5 4 4 4 12 0 9-4 13-3 5-9 5-7 0-11-6v18h-5zm14 29q4 0 7-2 2-3 2-8v-5q0-5-2-7-3-3-7-3h-4l-2 2-2 2-1 3v11l1 3 2 2 2 2h4zm24-29h6v5q3-6 10-6 6 0 10 5 3 4 3 12 0 9-3 13-4 5-10 5-7 0-10-6v18h-6zm14 29q5 0 7-2 2-3 2-8v-5q0-5-2-7-2-3-7-3h-3l-3 2-2 2v17l2 2 3 2h3zm36-43h9l-8 17h-4z" aria-label="'My App’"/><path fill="#f8f8f2" d="m1219 681-1 9-3 8q-1 4-4 7l-5 5h-5l5-5 4-6 3-7 1-8v-6l-1-8-3-7-4-6-5-5h5l5 5q3 3 4 7l3 8 1 9zm30 11h8l-7 18h-5z" aria-label="),"/><path fill="#ffb86c" d="M210 779q-5 0-8-3-2-4-2-10v-7l3-7q2-4 5-6t7-2q4 0 6 2 2 1 3 5h1l1-6h4l-4 29h4v4h-4q-3 0-4-2l-1-3v-3l-4 6q-3 3-7 3zm1-5h4l4-3 2-4 1-4 2-7q0-4-2-5-2-2-6-2t-7 3q-3 2-3 7l-1 5v2l1 6q2 2 5 2zm41 5-6-1-4-3-2-4-1-6q0-5 2-9l3-6q2-3 6-4l6-2 5 1q2 0 3 2l2 2 2 3-5 2-2-4-5-1q-5 0-7 2-3 3-4 8v4l-1 2v1q0 4 2 6l6 2h2l3-1 3-2 3-5 4 2-3 5-4 3-4 2-4 1zm36 0-3-1-2-4v-1l1-1 3-23h-9l1-4h6l3-1 1-2 1-9h5l-2 12h14l-1 4h-14l-4 25h2l14-9 2 3-7 5-4 3-3 2h-2l-2 1zm45-41-3-1-1-2v-1l1-1 1-2 3-1 3 1v4l-1 2-3 1zm-4 41-4-1-1-4v-2l4-23h-12l1-4h17l-5 29h1l13-11 3 3-6 6-4 3-3 2-2 1-2 1zm38 0-6-1-4-3-2-4-1-6 1-9q1-4 4-6 2-3 5-4 3-2 7-2l6 1 4 3 2 5 1 5-1 9-4 6q-2 3-6 4l-6 2zm0-5q4 0 7-2 3-3 4-8l1-4v-3q0-5-2-6l-6-2q-5 0-8 2l-3 8-1 4v3q0 5 2 6 2 2 6 2zm25 4 5-33h5l-1 8q2-4 5-6 2-3 6-3t7 3q2 2 2 7v4l-3 20h-5l3-20v-3l-1-5-4-1-4 1-3 2-1 1-1 2-1 2-1 3-3 18Zm52 1q-5 0-9-2l-6-4 4-3 5 3q2 2 6 2t7-2q2-2 2-5l-1-3-3-1-5-1-4-1-3-1-2-2-1-4 1-5 3-3 5-2 5-1q5 0 8 2l5 3-4 3-1-1-2-1-3-1-3-1q-5 0-7 2l-2 4v2l1 2h2l2 1h5l3 1 3 1 2 3 1 4-1 4-3 4-4 2-6 1z" aria-label="actions" font-style="italic"/><path fill="#ff79c6" d="m484 779-4-2-1-2v-1l1-3 4-1 4 1 1 3v1l-1 2q-1 2-4 2zm0-26-4-1-1-3v-1l1-3 4-1 4 1 1 3v1l-1 3-4 1z" aria-label=":"/><path fill="#ff79c6" d="m562 779-6-1-5-4-3-5-1-8 1-7 3-5 5-4 6-1q5 0 8 2t5 6l-5 2q0-3-3-4l-5-1h-4l-3 2-2 4v13l2 4 3 2h4l6-1 3-4 4 2q-1 3-5 6-3 2-8 2zm38 0-7-1-4-4-3-5-1-8 1-7 3-5 4-4 7-1 6 1 5 4 3 5 1 7-1 8-3 5-5 4-6 1zm0-5q4 0 7-2 2-3 2-8v-5q0-5-2-8-3-2-7-2-5 0-7 2-3 3-3 8v5q0 5 3 8 2 2 7 2zm25 4v-33h5v5l2-2 2-2 2-1 4-1q5 0 8 4 3 3 3 9v21h-5v-20q0-5-2-7t-6-2h-3l-2 1-2 2-1 3v23Zm52 1q-5 0-9-2l-7-5 4-3q2 3 5 4l7 1 6-1q3-1 3-4l-1-2-1-2-2-1h-2l-5-1h-4l-4-2-3-3-1-4 1-4 3-3 4-2 6-1q4 0 7 2 4 1 6 4l-3 3-2-2-2-1-3-1-4-1-6 2q-2 1-2 4l1 2 1 1 2 1 2 1h5l4 1 4 1 3 3 1 4q0 5-4 8t-10 3zm39-1q-3 0-5-2t-2-6v-21h-11v-4h8l3-1v-11h5v12h15v4h-15v25h15v4Z" aria-label="const"/><path fill="#f8f8f2" d="M786 787v-58h18v4h-13v50h13v4z" aria-label="["/><path fill="#8be9fd" d="M814 789v-5h31v5zm40-56h13q8 0 12 6t4 17q0 11-4 16-4 6-12 6h-13zm13 40q5 0 8-3 3-4 3-11v-7q0-7-3-10-3-4-8-4h-7v35zm25 1h9v-25h-9v-4h15v8q1-4 4-6t7-2h5v5h-7q-4 0-7 3-2 2-2 6v15h12v4h-27Zm52 5-6-1-5-4-3-5-1-8 1-7 3-5 5-4 6-1 7 1 4 4 3 5 1 7-1 8-3 5-4 4-7 1zm0-5q5 0 7-2 3-3 3-8v-5q0-5-3-8-2-2-7-2-4 0-7 2-2 3-2 8v5q0 5 2 8 3 2 7 2zm26-29h5v5q3-6 10-6 6 0 10 5 3 4 3 12 0 9-3 13-4 5-10 5-7 0-10-6v18h-5zm13 29q5 0 7-2 3-3 3-8v-5q0-5-3-7-2-3-7-3h-3l-3 2-2 2v17l2 2 3 2h3zm46-1q-3 6-10 6-6 0-10-5-3-4-3-13 0-8 3-12 4-5 10-5 7 0 10 6v-19h5v47h-5zm-8 1h3l3-2 1-2 1-3v-11l-1-3-1-2-3-2h-3q-5 0-7 3-3 2-3 7v5q0 5 3 8 2 2 7 2zm39 5-7-1-4-4-3-5-1-8 1-7 3-5 4-4 7-1 6 1 5 4 3 5 1 7-1 8-3 5-5 4-6 1zm0-5q4 0 7-2 2-3 2-8v-5q0-5-2-8-3-2-7-2-5 0-7 2-3 3-3 8v5q0 5 3 8 2 2 7 2zm21-29h4l4 29h1l5-29h6l6 29 4-29h4l-5 33h-6l-6-28-6 28h-6zm42 33v-33h6v5l1-2 2-2 3-1 3-1q5 0 9 4 3 3 3 9v21h-5v-20q0-5-2-7t-6-2h-3l-3 1-2 2v26Z" aria-label="_Dropdown"/><path fill="#f8f8f2" d="m1169 758 1-9 3-8 4-7 5-5h6l-6 5-4 6-3 7-1 8v6l1 8 3 7 4 6 6 5h-6l-5-5-4-7-3-8-1-9zm51 0-1 9-3 8-5 7-5 5h-5l5-5 5-6 3-7 1-8v-6l-1-8-3-7-5-6-5-5h5l5 5 5 7 3 8 1 9zm37-29v58h-18v-4h13v-50h-13v-4zm31 40h8l-7 18h-5z" aria-label="()],"/><path fill="#f8f8f2" d="m183 835-1 9-3 8q-1 4-4 7l-5 5h-5l5-5 4-6 3-7 1-8v-6l-1-8-3-7-4-6-5-5h5l5 5q3 3 4 7l3 8 1 9zm30 11h8l-7 18h-5z" aria-label="),"/><path fill="#ffb86c" d="M184 924q-2 4-5 6-3 3-7 3-5 0-8-3-2-4-2-10v-7l3-7q2-4 5-6t7-2q4 0 6 2 3 1 4 5l3-20h5l-7 47h-5zm-10 4h4l3-3 3-4 1-4 1-7q1-4-1-5l-6-2q-5 0-8 3-3 2-3 7l-1 5v2l1 6q2 2 6 2zm34 4 5-29h-10l1-4h14l-1 9 2-4 3-3 3-1 4-1h5l-1 5h-5l-5 1-4 2v1l-2 2-1 2v3l-3 17Zm40 1q-4 0-7-3-3-4-3-10l1-7 3-7q2-4 5-6 2-2 7-2l6 2q2 1 3 5l1-6h5l-4 29h4l-1 4h-3q-3 0-5-2v-6q-2 4-5 6-2 3-7 3zm2-5h4l4-3 2-4 1-4 2-7q0-4-2-5-2-2-6-2t-7 3q-3 2-4 7v6l-1 1q0 4 2 6t5 2zm32 5q-3 0-5-2l-1-5v-4l4-23h5l-4 22v7l3 1 2-1 2-2 1-3 1-3 3-21h5l-4 22v7l3 1 3-2 3-5 1-6 1-7v-5l-1-4 4-1 1 4v5l-1 11q-1 5-4 9-3 5-8 5l-3-1-2-1-1-2v-3l-3 5q-2 2-5 2zm47 0q-6 0-9-4-4-3-4-10 0-5 2-9l3-6 6-4q3-2 7-2l5 1q2 0 3 2l3 2 1 4-1 4-4 3q-2 2-7 3l-12 1v5l1 3 3 2h7l3-1 2-2 3-4 3 2q-2 5-6 7-3 3-9 3zm5-31q-5 0-8 3t-4 9v1l10-1 5-2 3-2 1-3-1-2-1-1-2-1-3-1zm27 30 5-29h-9l1-4h14l-2 9h1l2-4 2-3 3-1 5-1h5l-1 5h-6l-5 1-3 2-1 1-1 2-1 2-1 3-3 17Z" aria-label="drawer" font-style="italic"/><path fill="#ff79c6" d="m407 933-4-2-1-2v-1l1-3 4-1 4 1 1 3v1l-1 2q-1 2-4 2zm0-26-4-1-1-3v-1l1-3 4-1 4 1 1 3v1l-1 3-4 1z" aria-label=":"/><path fill="#ff79c6" d="m485 933-6-1-5-4-3-5-1-8 1-7 3-5 5-4 6-1q5 0 8 2t5 6l-5 2q0-3-3-4l-5-1h-4l-3 2-2 4v13l2 4 3 2h4l6-1 3-4 4 2q-1 3-5 6-3 2-8 2zm38 0-7-1-4-4-3-5-1-8 1-7 3-5 4-4 7-1 6 1 5 4 3 5 1 7-1 8-3 5-5 4-6 1zm0-5q4 0 7-2 2-3 2-8v-5q0-5-2-8-3-2-7-2-5 0-7 2-3 3-3 8v5q0 5 3 8 2 2 7 2zm25 4v-33h5v5l2-2 2-2 2-1 4-1q5 0 8 4 3 3 3 9v21h-5v-20q0-5-2-7t-6-2h-3l-2 1-2 2-1 3v23Zm52 1q-5 0-9-2l-7-5 4-3q2 3 5 4l7 1 6-1q3-1 3-4l-1-2-1-2-2-1h-2l-5-1h-4l-4-2-3-3-1-4 1-4 3-3 4-2 6-1q4 0 7 2 4 1 6 4l-3 3-2-2-2-1-3-1-4-1-6 2q-2 1-2 4l1 2 1 1 2 1 2 1h5l4 1 4 1 3 3 1 4q0 5-4 8t-10 3zm39-1q-3 0-5-2t-2-6v-21h-11v-4h8l3-1v-11h5v12h15v4h-15v25h15v4Z" aria-label="const"/><path fill="#8be9fd" d="M699 943v-5h31v5zm40-56h13q8 0 12 6t4 17q0 11-4 16-4 6-12 6h-13zm13 40q5 0 8-3 3-4 3-11v-7q0-7-3-10-3-4-8-4h-7v35zm25 1h9v-25h-9v-4h15v8q1-4 4-6t7-2h5v5h-7q-4 0-7 3-2 2-2 6v15h12v4h-27Zm65 4q-3 0-4-2-2-1-2-3-1 3-4 4-2 2-6 2-5 0-9-3-3-3-3-7 0-5 4-7 3-3 11-3h7v-3q0-4-2-6l-6-1-6 1-3 3-3-2 1-3 3-2 4-1 4-1q6 0 9 3 4 3 4 8v19h4v4Zm-15-4h3l3-1 2-2 1-3v-5h-7l-7 1-2 4v1q0 3 2 4l5 1zm24-29h4l4 29 6-29h6l5 29h1l4-29h4l-5 33h-7l-5-28-6 28h-6zm56 34-7-1-5-4-3-5-1-7 1-8 4-5 4-4 6-1 6 1 5 4 3 5 1 6v3h-24v5l2 4 4 2h4l6-1 3-4 4 2q-1 3-5 6-3 2-8 2zm-1-31-3 1-4 2-2 4v4h19v-1l-1-4-2-3-3-2-4-1zm24 26h10v-25h-10v-4h15v8q1-4 4-6t8-2h4v5h-6q-4 0-7 3-3 2-3 6v15h13v4h-28z" aria-label="_Drawer"/><path fill="#f8f8f2" d="m977 912 1-9 3-8 4-7 5-5h6l-6 5-4 6-3 7-1 8v6l1 8 3 7 4 6 6 5h-6l-5-5-4-7-3-8-1-9zm51 0-1 9-3 8-5 7-5 5h-5l5-5 5-6 3-7 1-8v-6l-1-8-3-7-5-6-5-5h5l5 5 5 7 3 8 1 9zm29 11h9l-8 18h-4z" aria-label="(),"/><path fill="#ffb86c" d="m171 1023-2-1-2-1-3-3-3-3-4-4 3-3 10 10h1l7-38h-12l1-4h11l2-7q0-3 2-5t6-2h11l-1 4h-13l-2 10h14l-1 4h-13l-6 36-1 2-1 3-2 1-2 1zm41-13q-2 0-3-2l-1-3v-2l7-37h-12l1-4h17l-9 43h2l13-11 3 3-7 6-4 4-3 2-2 1h-2zm40 0-6-1-4-3-2-4-1-6 1-9 4-6q2-3 5-4l7-2 6 1 4 3q2 2 2 5l1 5-1 9-4 6q-2 3-5 4l-7 2zm0-5q5 0 7-2 3-3 4-8l1-4v-3q0-5-2-6-2-2-6-2-5 0-8 2l-3 8-1 4v3q0 5 2 6 2 2 6 2zm35 5q-5 0-8-3-2-4-2-10l1-7q0-4 2-7 2-4 5-6t7-2q4 0 6 2l4 5 1-6h5l-5 29h5l-1 4h-4q-3 0-4-2l-1-3v-3l-4 6q-3 3-7 3zm2-5h4l3-3 2-4 2-4 1-7q0-4-2-5-2-2-5-2-5 0-8 3-2 2-3 7l-1 5v2q0 4 2 6 1 2 5 2zm38 5-4-1-1-4v-2l4-23h-9v-4h7l3-1 1-2 1-9h5l-2 12h14l-1 4h-14l-4 25h1l15-9 2 3-7 5-4 3-3 2h-2l-2 1zm45-41-3-1-1-2v-2l2-2 3-1 2 1 1 2v2l-1 2-3 1zm-5 41-3-1-2-4 1-1v-1l4-23h-12l1-4h17l-6 29h2l12-11 3 3-5 6-4 3-3 2-2 1-3 1zm25-1 6-33h5l-2 8h1l4-6q3-3 7-3t6 3q3 2 3 7l-1 2v2l-3 20h-5l3-20v-3l-1-5-4-1-4 1-3 2-1 1-1 2-1 2-1 3-3 18Zm48 14q-8 0-11-5l3-3 4 2 5 1q4 0 7-2t4-8l1-8q-2 4-5 6-3 3-7 3-5 0-8-4-3-3-3-9l1-7 3-6q2-4 5-6t7-2q4 0 6 2 3 1 4 5l1-6h5l-6 33q-1 7-5 10-4 4-11 4zm3-19 4-1q2 0 3-2l2-3q2-2 2-5l1-6q1-4-2-5-2-2-6-2t-7 2q-3 3-4 8v6l1 6q2 2 6 2zm50 5-1-13h-16l-6 13h-5l21-45h7l6 45Zm-4-39h-1l-10 22h13zm32 40-6-1-3-3-3-4-1-6q0-5 2-9l3-6 6-4 6-2 5 1q2 0 3 2l3 2 1 3-4 2-3-4-5-1q-4 0-7 2-3 3-4 8v6l-1 1q0 4 3 6 2 2 6 2h2l2-1 3-2 4-5 3 2-3 5-3 3-4 2-5 1zm36 0-3-1-1-4v-2l4-23h-10l1-4h6l3-1 1-2 2-9h4l-2 12h14l-1 4h-13l-5 25h2l14-9 3 3-8 5-3 3-3 2h-3l-2 1zm45-41-3-1-1-2 1-1v-1l1-2 3-1 3 1 1 2v1l-1 1-1 2-3 1zm-4 41-4-1-1-4v-2l5-23h-12v-4h17l-5 29h1l13-11 3 3-6 6-4 3-3 2-2 1-2 1zm38 0-6-1-4-3-2-4-1-6 1-9 4-6q2-3 5-4l7-2 6 1 4 3q2 2 2 5l1 5-1 9-4 6q-2 3-5 4l-7 2zm0-5q5 0 7-2 3-3 4-8l1-4v-3q0-5-2-6-2-2-6-2-5 0-8 2l-3 8-1 4v3q0 5 2 6 2 2 6 2zm25 4 5-33h5l-1 8q2-4 5-6 2-3 6-3 5 0 7 3 2 2 2 7v4l-3 20h-5l3-20v-3l-1-5-4-1-4 1-3 2-1 1-1 2-1 2-1 3-3 18Zm45-45h14q6 0 8 3 3 3 3 8 0 4-2 7l-6 4 2 1 3 2 1 2 1 4-1 5-3 5-5 3-5 1h-17zm9 40 6-1 3-5v-5l-2-4-5-1h-10l-3 16zm2-20q4 0 6-2 2-1 2-4l1-2v-2q0-3-2-4l-4-1h-10l-2 15zm43 17h-1l-4 6q-3 3-7 3t-6-3q-3-2-3-7l1-4 3-20h5l-3 19-1 3v1q0 3 2 5l4 1 4-1 3-2 1-1 1-2 1-2 1-3 3-18h5l-6 33h-5zm28 9-4-1-1-4v-2l4-23h-10l1-4h7l2-1 1-2 2-9h5l-2 12h13v4h-14l-4 25h1l15-9 2 3-7 5-4 3-3 2h-2l-2 1zm38 0-3-1-2-4v-1l1-1 3-23h-9l1-4h6l3-1 1-2 1-9h5l-2 12h14l-1 4h-14l-4 25h2l14-9 2 3-7 5-4 3-3 2h-2l-2 1zm40 0-5-1-4-3-3-4-1-6q0-5 2-9l3-6 6-4q3-2 7-2l5 1 4 3 3 5 1 5q0 5-2 9-1 4-4 6-2 3-5 4-3 2-7 2zm0-5q5 0 8-2 3-3 3-8l1-4v-3q0-5-2-6-2-2-6-2t-7 2q-3 3-4 8v4l-1 2v1q0 5 3 6 2 2 5 2zm25 4 6-33h5l-1 8 4-6q3-3 7-3t6 3q3 2 3 7v2l-1 2-3 20h-5l3-20 1-2v-1q0-3-2-5l-4-1-4 1-3 2-1 1-1 2-1 2-1 3-3 18Z" aria-label="floatingActionButton" font-style="italic"/><path fill="#ff79c6" d="m945 1010-4-2-1-2v-1l1-3 4-1 4 1 1 3v1l-1 2q-1 2-4 2zm0-26-4-1-1-3v-1l1-3 4-1 4 1 1 3v1l-1 3-4 1z" aria-label=":"/><path fill="#8be9fd" d="M1008 1009v-45h28v5h-23v15h21v5h-21v20Zm38-4h11v-39h-11v-4h16v43h12v4h-28zm52 5-6-1-5-4-3-5-1-8 1-7 3-5 5-4 6-1 6 1 5 4 3 5 1 7-1 8-3 5-5 4-6 1zm0-5q4 0 7-2 3-3 3-8v-5q0-5-3-8-3-2-7-2t-7 2q-3 3-3 8v5q0 5 3 8 3 2 7 2zm51 4q-3 0-4-2-2-1-2-3-1 3-4 4-2 2-6 2-5 0-9-3-3-3-3-7 0-5 4-7 3-3 11-3h7v-3q0-4-2-6l-6-1-6 1-3 3-3-2 1-3 3-2 4-1 4-1q6 0 9 3 4 3 4 8v19h4v4Zm-15-4h3l3-1 2-2 1-3v-5h-7l-7 1-2 4v1q0 3 2 4l5 1zm42 4q-3 0-5-2t-2-6v-21h-11v-4h8l3-1v-11h5v12h15v4h-15v25h15v4Zm39-40-3-1-1-3v-1l1-2 3-1 3 1 1 2v1l-1 3-3 1zm-14 36h12v-25h-12v-4h17v29h11v4h-28zm38 4v-33h5v5l1-2 2-2 3-1 3-1q6 0 9 4 3 3 3 9v21h-5v-20q0-5-2-7t-6-2h-3l-3 1-2 2v26Zm68 4q0 5-4 7-5 3-13 3t-11-3q-4-2-4-6l1-4 4-2v-1l-2-2v-2l1-4 4-2-4-4-2-6 1-5 2-4 5-2 5-1q4 0 6 2v-1l1-3q1-2 3-2h6v5h-7v2l3 4 1 5-1 4-3 4-4 2-5 1h-5l-1 1-2 1v2l1 1 4 1h8q6 0 9 2 3 3 3 7zm-5 0q0-2-2-3l-5-1h-12q-3 1-3 4l2 4 5 1h5l7-1q3-1 3-4zm-12-19q4 0 5-2 2-2 2-5v-1q0-3-2-5-1-2-5-2t-6 2q-2 2-2 5v1q0 3 2 5t6 2zm50 15-4-13h-15l-4 13h-6l14-45h7l14 45Zm-11-39h-1l-6 22h13zm39 40-6-1-5-4-3-5-1-8 1-7 3-5 5-4 6-1q5 0 8 2t4 6l-4 2-3-4-5-1h-4l-3 2-2 4-1 4v5l1 4 2 4 3 2h4l6-1 3-4 4 2-5 6q-3 2-8 2zm39-1q-4 0-6-2l-1-6v-21h-12v-4h9l2-1 1-2v-9h5v12h15v4h-15v25h15v4Zm39-40-3-1-1-3v-1l1-2 3-1 3 1 1 2v1l-1 3-3 1zm-15 36h12v-25h-12v-4h17v29h11v4h-28zm51 5-6-1-5-4-3-5-1-8 1-7 3-5 5-4 6-1 6 1 5 4 3 5 1 7-1 8-3 5-5 4-6 1zm0-5q4 0 7-2 3-3 3-8v-5q0-5-3-8-3-2-7-2t-7 2q-3 3-3 8v5q0 5 3 8 3 2 7 2zm25 4v-33h6v5l1-2 2-2 3-1 3-1q5 0 9 4 3 3 3 9v21h-5v-20q0-5-2-7t-6-2h-3l-3 1-2 2v26Zm38-45h15q6 0 9 3 4 4 4 9 0 4-2 6l-5 3v1l6 3q2 2 2 7l-1 5q0 3-2 4l-4 3-5 1h-17zm16 40 6-1q2-2 2-5v-3q0-3-2-5l-6-2h-10v16zm-1-20q3 0 5-2 2-1 2-4v-3q0-3-2-4-2-2-5-2h-9v15zm45 20-2 2-1 2-3 1-4 1q-5 0-8-3-3-4-3-10v-21h5v20q0 5 2 7t6 2h3l2-1 2-2 1-3v-23h5v33h-5zm32 5q-4 0-5-2-2-2-2-6v-21h-11v-4h8l2-1 1-2v-9h5v12h15v4h-15v25h15v4Zm39 0q-4 0-6-2t-2-6v-21h-11v-4h8l3-1v-11h5v12h15v4h-15v25h15v4Zm36 1-6-1-5-4-3-5-1-8 1-7 3-5 5-4 6-1 7 1 4 4 3 5 1 7-1 8-3 5-4 4-7 1zm0-5q5 0 7-2 3-3 3-8v-5q0-5-3-8-2-2-7-2-4 0-7 2-2 3-2 8v5q0 5 2 8 3 2 7 2zm26 4v-33h5v5l2-2 1-2 3-1 4-1q5 0 8 4 3 3 3 9v21h-5v-20q0-5-2-7t-6-2h-3l-2 1-2 2-1 3v23Z" aria-label="FloatingActionButton"/><path fill="#f8f8f2" d="m1783 989 1-9 3-8 4-7 5-5h6l-6 5-4 6-3 7-1 8v6l1 8 3 7 4 6 6 5h-6l-5-5-4-7-3-8-1-9z" aria-label="("/><path fill="#ffb86c" d="m213 1087-5-1-4-3-2-4-1-6 1-9q1-4 4-6 2-3 5-4 3-2 7-2l4 1 4 2 2 2 1 3-4 2-3-4-5-1q-4 0-7 2l-3 8-1 4v3q0 4 2 6t6 2h2l3-1 2-2 4-5 4 2-4 5-3 3-4 2-5 1zm33-48h5l-4 22h1l4-6q3-3 7-3t6 3q3 2 3 7l-1 2v2l-3 20h-5l3-20v-3l-1-5-4-1-4 1-3 2-1 1-1 2-1 2-1 3-3 18h-5zm49 7-3-1-1-2v-2l1-2 3-1 3 1 1 2v2l-1 2-3 1zm-5 41-4-1-1-4v-1l1-1 4-23h-12l1-4h17l-6 29h2l12-11 3 3-6 6-3 3-3 2-3 1-2 1zm37 0-4-2-1-3v-1l1-1 7-37h-12l1-4h17l-9 43h2l13-11 3 3-7 6-4 4-3 2-2 1h-2zm48-9-4 6q-3 3-8 3t-7-3q-3-4-3-10l1-7 3-7q1-4 4-6t8-2l6 2q2 1 3 5h1l3-20h5l-8 47h-5zm-10 4h4l4-3 2-4 2-4 1-7q0-4-2-5-2-2-6-2-5 0-7 3-3 2-4 7l-1 5v2q0 4 2 6t5 2z" aria-label="child" font-style="italic"/><path fill="#ff79c6" d="m407 1087-4-2-1-2v-1l1-3 4-1 4 1 1 3v1l-1 2q-1 2-4 2zm0-26-4-1-1-3v-1l1-3 4-1 4 1 1 3v1l-1 3-4 1z" aria-label=":"/><path fill="#ff79c6" d="m485 1087-6-1-5-4-3-5-1-8 1-7 3-5 5-4 6-1q5 0 8 2t5 6l-5 2q0-3-3-4l-5-1h-4l-3 2-2 4v13l2 4 3 2h4l6-1 3-4 4 2q-1 3-5 6-3 2-8 2zm38 0-7-1-4-4-3-5-1-8 1-7 3-5 4-4 7-1 6 1 5 4 3 5 1 7-1 8-3 5-5 4-6 1zm0-5q4 0 7-2 2-3 2-8v-5q0-5-2-8-3-2-7-2-5 0-7 2-3 3-3 8v5q0 5 3 8 2 2 7 2zm25 4v-33h5v5l2-2 2-2 2-1 4-1q5 0 8 4 3 3 3 9v21h-5v-20q0-5-2-7t-6-2h-3l-2 1-2 2-1 3v23Zm52 1q-5 0-9-2l-7-5 4-3q2 3 5 4l7 1 6-1q3-1 3-4l-1-2-1-2-2-1h-2l-5-1h-4l-4-2-3-3-1-4 1-4 3-3 4-2 6-1q4 0 7 2 4 1 6 4l-3 3-2-2-2-1-3-1-4-1-6 2q-2 1-2 4l1 2 1 1 2 1 2 1h5l4 1 4 1 3 3 1 4q0 5-4 8t-10 3zm39-1q-3 0-5-2t-2-6v-21h-11v-4h8l3-1v-11h5v12h15v4h-15v25h15v4Z" aria-label="const"/><path fill="#8be9fd" d="M700 1086v-4h12v-36h-12v-5h28v5h-11v36h11v4Zm54 1-7-1-4-4-3-5-1-8 1-7 3-5 4-4 7-1q4 0 7 2 4 2 5 6l-4 2-3-4-5-1h-4l-3 2-2 4-1 4v5l1 4 2 4 3 2h4l5-1 4-4 3 2-4 6q-3 2-8 2zm37 0-6-1-5-4-3-5-1-8 1-7 3-5 5-4 6-1 6 1 5 4 3 5 1 7-1 8-3 5-5 4-6 1zm0-5q4 0 7-2 3-3 3-8v-5q0-5-3-8-3-2-7-2t-7 2q-3 3-3 8v5q0 5 3 8 3 2 7 2zm25 4v-33h6v5l1-2 2-2 3-1 3-1q5 0 9 4 3 3 3 9v21h-5v-20q0-5-2-7t-6-2h-3l-3 1-2 2v26Z" aria-label="Icon"/><path fill="#f8f8f2" d="m862 1066 1-9 3-8 4-7 5-5h6l-6 5-4 6-3 7-1 8v6l1 8 3 7 4 6 6 5h-6l-5-5-4-7-3-8-1-9z" aria-label="("/><path fill="#8be9fd" d="M892 1086v-4h12v-36h-12v-5h28v5h-11v36h11v4Zm54 1-7-1-4-4-3-5-1-8 1-7 3-5 4-4 7-1q4 0 7 2 4 2 5 6l-4 2-3-4-5-1h-4l-3 2-2 4-1 4v5l1 4 2 4 3 2h4l5-1 4-4 3 2-4 6q-3 2-8 2zm37 0-6-1-5-4-3-5-1-8 1-7 3-5 5-4 6-1 6 1 5 4 3 5 1 7-1 8-3 5-5 4-6 1zm0-5q4 0 7-2 3-3 3-8v-5q0-5-3-8-3-2-7-2t-7 2q-3 3-3 8v5q0 5 3 8 3 2 7 2zm25 4v-33h6v5l1-2 2-2 3-1 3-1q5 0 9 4 3 3 3 9v21h-5v-20q0-5-2-7t-6-2h-3l-3 1-2 2v26Zm52 1q-5 0-9-2l-6-5 3-3 6 4 6 1 7-1q2-1 2-4v-2l-2-2-2-1h-2l-5-1h-4l-3-2-3-3-1-4 1-4 3-3q1-2 4-2l5-1q5 0 8 2 3 1 5 4l-3 3-1-2-2-1-3-1-4-1q-4 0-6 2-2 1-2 4v2l2 1 1 1 3 1h5l4 1 3 1 3 3 1 4q0 5-4 8-3 3-10 3z" aria-label="Icons"/><path fill="#f8f8f2" d="m1098 1087-4-2-1-2v-1l1-3 4-1 4 1 1 3v1l-1 2q-1 2-4 2zm51-1q-3 0-4-2l-2-3q-1 3-4 4-2 2-6 2-5 0-8-3t-3-7q0-5 3-7 3-3 11-3h7v-3q0-4-2-6l-6-1-5 1-4 3-3-2 1-3 3-2 4-1 4-1q6 0 10 3 3 3 3 8v19h5v4Zm-15-4h3l3-1 2-2 1-3v-5h-7l-7 1-2 4v1q0 3 2 4l5 1zm58 8q0 5-4 7-5 3-13 3t-11-3q-4-2-4-6l1-4 4-2v-1l-2-2v-2l1-4 4-2-4-4-2-6 1-5 2-4 5-2 5-1q4 0 6 2v-1l1-3q1-2 3-2h6v5h-7v2l3 4 1 5-1 4-3 4-4 2-5 1h-5l-1 1-2 1v2l1 1 4 1h8q6 0 9 2 3 3 3 7zm-5 0q0-2-2-3l-5-1h-12q-3 1-3 4l2 4 5 1h5l7-1q3-1 3-4zm-12-19q4 0 5-2 2-2 2-5v-1q0-3-2-5-1-2-5-2t-6 2q-2 2-2 5v1q0 3 2 5t6 2zm24 11h10v-25h-10v-4h15v8q1-4 4-6t7-2h5v5h-6q-5 0-7 3-3 2-3 6v15h13v4h-28zm55-36-3-1-1-3v-1l1-2 3-1 3 1 1 2v1l-1 3-3 1zm-15 36h12v-25h-12v-4h17v29h12v4h-29zm52 5-6-1-5-4-3-5-1-8 1-7 3-5 5-4 6-1q5 0 8 2t5 6l-5 2q0-3-3-4l-5-1h-4l-3 2-2 4v13l2 4 3 2h4l6-1 3-4 4 2q-1 3-5 6-3 2-8 2zm45-6-1 2-2 2-3 1-3 1q-5 0-9-3-3-4-3-10v-21h5v20q0 5 2 7t6 2h3l3-1 2-2v-26h6v33h-6zm17 1h11v-39h-11v-4h17v43h11v4h-28zm54 4q-4 0-6-2l-1-6v-21h-11v-4h8l2-1 1-2v-9h5v12h15v4h-15v25h15v4Zm45-5h-1l-1 2-2 2-2 1-4 1q-5 0-8-3-4-4-4-10v-21h6v20q0 5 2 7t5 2h3l3-1 2-2 1-3v-23h5v33h-5zm16 1h10v-25h-10v-4h15v8q1-4 4-6t7-2h5v5h-6q-5 0-8 3-2 2-2 6v15h13v4h-28zm53 5-6-1-5-4-3-5-1-7 1-8 3-5 5-4 6-1 6 1 5 4 2 5 2 6v3h-25v1l1 4 2 4 3 2h4l6-1 4-4 3 2q-1 3-5 6-3 2-8 2zm0-31-4 1-3 2-2 4-1 3v1h19v-1l-1-4q0-2-2-3l-2-2-4-1z" aria-label=".agriculture"/><path fill="#f8f8f2" d="m1565 1066-1 9-3 8q-1 4-4 7l-5 5h-5l5-5 4-6 3-7 1-8v-6l-1-8-3-7-4-6-5-5h5l5 5q3 3 4 7l3 8 1 9zm30 11h8l-7 18h-5zm-1412 66-1 9-3 8q-1 4-4 7l-5 5h-5l5-5 4-6 3-7 1-8v-6l-1-8-3-7-4-6-5-5h5l5 5q3 3 4 7l3 8 1 9zm30 11h8l-7 18h-5z" aria-label="),"/><path fill="#ffb86c" d="M169 1193h5l-3 22 4-6q3-3 8-3t7 3q3 4 3 10l-1 7-3 7-4 6q-3 2-8 2l-6-2q-2-1-3-5h-1l-1 6h-5Zm7 43q4 0 7-3 3-2 4-7l1-5v-3q0-3-2-5t-5-2l-4 1-4 2-2 4-2 4-1 7q0 4 2 5 2 2 6 2zm37 5-5-1-4-3-3-4-1-6q0-5 2-9l3-6 6-4q3-2 7-2l5 1 4 3 3 5 1 5q0 5-2 9l-3 6-6 4q-3 2-7 2zm1-5q4 0 7-2 3-3 4-8v-4l1-2v-1q0-5-3-6-2-2-5-2-5 0-8 2-3 3-3 8l-1 4v3q0 5 2 6 2 2 6 2zm47-4h-1l-4 6q-3 3-7 3-5 0-8-3-3-4-3-10l1-7 3-7q2-4 5-6t7-2q4 0 6 2 3 1 4 5l3-20h5l-8 47h-5zm-11 4h4l4-3 2-4 2-4 1-7q1-4-2-5-2-2-6-2t-7 3q-3 2-4 7v6l-1 1q0 4 2 6t5 2zm37 18q-8 0-12-5l3-3 4 2 5 1q4 0 7-2 3-3 4-8l1-8-5 7q-2 2-6 2t-7-3q-2-2-2-7v-4l3-19h5l-3 19v3l1 5 4 1 4-1 3-2 1-1 1-2 1-2 1-3 3-17h5l-6 33q-1 7-5 10-4 4-10 4z" aria-label="body" font-style="italic"/><path fill="#ff79c6" d="m330 1241-4-2-1-2v-1l1-3 4-1 4 1 1 3v1l-1 2q-1 2-4 2zm0-26-4-1-1-3v-1l1-3 4-1 4 1 1 3v1l-1 3-4 1z" aria-label=":"/><path fill="#ff79c6" d="m408 1241-6-1-5-4-3-5-1-8 1-7 3-5 5-4 6-1q5 0 8 2t5 6l-5 2q0-3-3-4l-5-1h-4l-3 2-2 4v13l2 4 3 2h4l6-1 3-4 4 2q-1 3-5 6-3 2-8 2zm38 0-7-1-4-4-3-5-1-8 1-7 3-5 4-4 7-1 6 1 5 4 3 5 1 7-1 8-3 5-5 4-6 1zm0-5q4 0 7-2 2-3 2-8v-5q0-5-2-8-3-2-7-2-5 0-7 2-3 3-3 8v5q0 5 3 8 2 2 7 2zm25 4v-33h5v5l2-2 2-2 2-1 4-1q5 0 8 4 3 3 3 9v21h-5v-20q0-5-2-7t-6-2h-3l-2 1-2 2-1 3v23Zm52 1q-5 0-9-2l-7-5 4-3q2 3 5 4l7 1 6-1q3-1 3-4l-1-2-1-2-2-1h-2l-5-1h-4l-4-2-3-3-1-4 1-4 3-3 4-2 6-1q4 0 7 2 4 1 6 4l-3 3-2-2-2-1-3-1-4-1-6 2q-2 1-2 4l1 2 1 1 2 1 2 1h5l4 1 4 1 3 3 1 4q0 5-4 8t-10 3zm39-1q-3 0-5-2t-2-6v-21h-11v-4h8l3-1v-11h5v12h15v4h-15v25h15v4Z" aria-label="const"/><path fill="#8be9fd" d="M640 1241q-9 0-13-6t-4-17q0-12 4-17 4-6 13-6h5l4 3 3 3 1 3-4 2-2-2-1-3-3-1-3-1q-6 0-8 4-3 4-3 11v7q0 7 3 11 2 4 8 4h3l3-2 1-2 2-3 4 2-1 4-3 3-4 2-5 1zm37 0-6-1-5-4-3-5-1-7 1-8 3-5 5-4 6-1 6 1 5 4 2 5 2 6v3h-25v1l1 4 2 4 3 2h4l6-1 4-4 3 2q-1 3-5 6-3 2-8 2zm0-31-4 1-3 2-2 4-1 3v1h19v-1l-1-4q0-2-2-3l-2-2-4-1zm25 30v-33h5v5l2-2 2-2 2-1 4-1q5 0 8 4 3 3 3 9v21h-5v-20q0-5-2-7t-6-2h-3l-2 1-2 2-1 3v23Zm53 0q-4 0-6-2l-1-6v-21h-11v-4h8l2-1 1-2v-9h5v12h15v4h-15v25h15v4Zm37 1-6-1-5-4-3-5-1-7 1-8 3-5 5-4 6-1 6 1 5 4 3 5 1 6v3h-25v1l1 4 2 4 3 2h4l6-1 4-4 4 2-5 6q-4 2-9 2zm0-31-4 1-3 2-2 4-1 3v1h19v-5l-2-3-3-2-4-1zm24 26h10v-25h-10v-4h15v8q1-4 4-6t7-2h5v5h-6q-5 0-8 3-2 2-2 6v15h13v4h-28z" aria-label="Center"/><path fill="#f8f8f2" d="m862 1220 1-9 3-8 4-7 5-5h6l-6 5-4 6-3 7-1 8v6l1 8 3 7 4 6 6 5h-6l-5-5-4-7-3-8-1-9z" aria-label="("/><path fill="#ffb86c" d="m904 1241-5-1-4-3-2-4-1-6 1-9q1-4 4-6 2-3 5-4 3-2 7-2l4 1 4 2 2 2 1 3-4 2-3-4-5-1q-4 0-7 2l-3 8-1 4v3q0 4 2 6t6 2h2l3-1 2-2 4-5 4 2-4 5-3 3-4 2-5 1zm33-48h5l-4 22h1l4-6q3-3 7-3t6 3q3 2 3 7l-1 2v2l-3 20h-5l3-20v-3l-1-5-4-1-4 1-3 2-1 1-1 2-1 2-1 3-3 18h-5zm49 7-3-1-1-2v-2l1-2 3-1 3 1 1 2v2l-1 2-3 1zm-5 41-4-1-1-4v-1l1-1 4-23h-12l1-4h17l-6 29h2l12-11 3 3-6 6-3 3-3 2-3 1-2 1zm37 0-4-2-1-3v-1l1-1 7-37h-12l1-4h17l-9 43h2l13-11 3 3-7 6-4 4-3 2-2 1h-2zm48-9-4 6q-3 3-8 3t-7-3q-3-4-3-10l1-7 3-7q1-4 4-6t8-2l6 2q2 1 3 5h1l3-20h5l-8 47h-5zm-10 4h4l4-3 2-4 2-4 1-7q0-4-2-5-2-2-6-2-5 0-7 3-3 2-4 7l-1 5v2q0 4 2 6t5 2z" aria-label="child" font-style="italic"/><path fill="#ff79c6" d="m1098 1241-4-2-1-2v-1l1-3 4-1 4 1 1 3v1l-1 2q-1 2-4 2zm0-26-4-1-1-3v-1l1-3 4-1 4 1 1 3v1l-1 3-4 1z" aria-label=":"/><path fill="#8be9fd" d="M1178 1200v40h-5v-40h-15v-5h35v5Zm36 41-6-1-5-4-3-5-1-7 1-8 3-5 5-4 6-1 6 1 5 4 2 5 2 6v3h-25v1l1 4 2 4 3 2h4l6-1 4-4 3 2q-1 3-5 6-3 2-8 2zm0-31-4 1-3 2-2 4-1 3v1h19v-1l-1-4q0-2-2-3l-2-2-4-1zm23 30 12-17-12-16h6l5 7 4 5 4-5 5-7h6l-12 16 12 17h-6l-5-8-4-5-4 5-5 8zm55 0q-4 0-6-2l-1-6v-21h-11v-4h8l2-1 1-2v-9h5v12h15v4h-15v25h15v4Z" aria-label="Text"/><path fill="#f8f8f2" d="m1322 1220 1-9 3-8 4-7 5-5h6l-6 5-4 6-3 7-1 8v6l1 8 3 7 4 6 6 5h-6l-5-5-4-7-3-8-1-9z" aria-label="("/><path fill="#f1fa8c" d="M1365 1210v-17h5v17zm27 30-3-45h4l2 26 1 13h1l6-27h6l6 27 1-13 2-26h5l-4 45h-8l-5-27h-1l-5 27Zm53 1-7-1-5-4-3-5-1-7 1-8 3-5 5-4 6-1 6 1 5 4 3 5 1 6v3h-25v1l1 4 2 4 3 2h5l5-1 4-4 4 2-5 6q-3 2-8 2zm-1-31-4 1-3 2-2 4-1 3v1h19v-5l-2-3-3-2-4-1zm24 26h12v-39h-12v-4h17v43h11v4h-28zm54 5-6-1-5-4-3-5-1-8 1-7 3-5 5-4 6-1q5 0 8 2t4 6l-4 2-3-4-5-1h-4l-3 2-2 4-1 4v5l1 4 2 4 3 2h4l6-1 3-4 4 2-5 6q-3 2-8 2zm37 0-6-1-5-4-3-5-1-8 1-7 3-5 5-4 6-1 6 1 5 4 3 5 1 7-1 8-3 5-5 4-6 1zm0-5q4 0 7-2 3-3 3-8v-5q0-5-3-8-3-2-7-2t-7 2q-2 3-2 8v5q0 5 2 8 3 2 7 2zm23 4v-33h5v4l2-3q1-2 4-2t4 2q2 1 2 3l3-3q2-2 5-2 4 0 5 3l1 8v23h-4v-22l-1-6q-1-2-3-2l-4 2-1 4v24h-5v-22l-1-6q0-2-3-2-2 0-3 2l-1 4v24Zm55 1-7-1-5-4-3-5-1-7 1-8 3-5 5-4 6-1 6 1 5 4 3 5 1 6v3h-25v1l1 4 2 4 3 2h5l5-1 4-4 4 2-5 6q-3 2-8 2zm-1-31-4 1-3 2-2 4-1 3v1h19v-5l-2-3-3-2-4-1zm36 0v-17h5v17z" aria-label="'Welcome'"/><path fill="#f8f8f2" d="m1718 1220-1 9-3 8q-1 4-4 7l-5 5h-5l5-5 4-6 3-7 1-8v-6l-1-8-3-7-4-6-5-5h5l5 5q3 3 4 7l3 8 1 9zm39 0-1 9-3 8-5 7-5 5h-5l5-5 5-6 3-7 1-8v-6l-1-8-3-7-5-6-5-5h5l5 5 5 7 3 8 1 9zm29 11h9l-8 18h-4z" aria-label=")),"/><path fill="#f8f8f2" d="m183 1297-1 9-3 8q-1 4-4 7l-5 5h-5l5-5 4-6 3-7 1-8v-6l-1-8-3-7-4-6-5-5h5l5 5q3 3 4 7l3 8 1 9zm30 11h8l-7 18h-5z" aria-label="),"/><path fill="#f8f8f2" d="m145 1375-1 9-3 8q-1 4-4 7l-5 5h-5l5-5 4-6 3-7 1-8v-6l-1-8-3-7-4-6-5-5h5l5 5q3 3 4 7l3 8 1 9zm30 11h8l-7 18h-5zm3-16-4-1-1-3v-1l1-3 4-1 3 1 1 3v1l-1 3-3 1z" aria-label=");"/><path fill="#f8f8f2" d="M99 1423q3 0 4 2l1 4v7l-1 2-1 2-1 1-2 3v1q0 3 2 4l7 1h5v4h-5l-7 1q-2 1-2 4v2l2 2 1 1 1 2 1 3v7l-1 3q-1 2-4 2H88v-4h12v-5l-1-4-2-3-2-3-1-3q0-3 2-5l5-2q-3 0-5-2l-2-4 1-4 2-3 2-3 1-4v-5H88v-4zm-38 77q3 0 4 2l1 4v7l-1 2-1 2-1 1-2 3v1q0 3 2 4l7 1h5v4h-5l-7 1q-2 1-2 4v2l2 2 1 1 1 2 1 3v7l-1 3q-1 2-4 2H50v-4h12v-5l-1-4-2-3-2-3-1-3q0-3 2-5l5-2q-3 0-5-2l-2-4 1-4 2-3 2-3 1-4v-5H50v-4z" aria-label="}"/></g></svg>