<svg xmlns="http://www.w3.org/2000/svg" xml:space="preserve" overflow="hidden" viewBox="0 0 2461 1838"><g font-family="Menlo,Menlo_MSFontService,sans-serif" font-size="64"><path fill="#666" d="M87 81h10V45l-12 6v-6l12-5h6v41h10v5H87z" aria-label="1"/><path fill="#f286c4" d="M204 51h15v31h11v4h-28v-4h11V56h-9Zm9-13h6v7h-6zm41 17 2-4 4-1q5 0 6 3 2 4 2 13v20h-5V66l-1-9q-1-2-3-2t-3 2l-1 9v20h-6V57q-1-2-4-2-2 0-3 2l-1 9v20h-5V51h5v3l3-3 3-1 4 1 3 4zm29 27v17h-6V51h6v4l4-3q2-2 5-2 7 0 10 5 4 5 4 14 0 8-4 13-3 5-10 5l-5-1-4-4zm17-13q0-7-2-11-2-3-7-3-4 0-6 3-2 4-2 11 0 6 2 10 2 3 6 3 5 0 7-3 2-4 2-10zm29-14q-4 0-7 3-2 4-2 11 0 6 2 10 3 3 7 3t7-3q2-4 2-10 0-7-2-11-3-3-7-3zm0-5q7 0 11 5t4 14q0 9-4 13-4 5-11 5t-11-5q-4-4-4-13t4-14q4-5 11-5zm55 8-3-2-5-1q-5 0-8 4-3 3-3 10v17h-5V51h5v7q2-4 5-6t7-2l4 1 3 1zm22-17v10h13v4h-13v19l1 6 6 1h6v5h-7q-6 0-9-3-3-2-3-9V55h-9v-4h9V41z" aria-label="import"/><path fill="#e7ee98" d="M486 37v20h-7V37Z" aria-label="'"/><path fill="#e7ee98" d="M513 82v17h-6V51h6v4l4-3q2-2 5-2 7 0 10 5 4 5 4 14 0 8-4 13-3 5-10 5l-5-1-4-4zm17-13q0-7-2-11-2-3-7-3-4 0-6 3-2 4-2 11 0 6 2 10 2 3 6 3 5 0 7-3 2-4 2-10zm32-1h-2q-5 0-8 2-2 2-2 5 0 4 2 5 1 2 5 2 5 0 7-3 3-3 3-9v-2zm11-2v20h-6v-5q-2 3-5 4-2 2-6 2-6 0-9-3t-3-8q0-6 4-9t11-3h8v-1q0-4-2-6t-7-2l-6 1-6 2v-5l7-2 5-1 8 1 5 4 1 4 1 7zm38 18-4 2-5 1q-8 0-13-5t-5-13q0-9 5-14t13-5l5 1 4 2v6l-4-3-5-1q-6 0-9 4-3 3-3 10 0 6 3 10 3 3 9 3l5-1 4-3zm13-47h6v29l15-15h7l-14 13 16 22h-7l-13-18-4 4v14h-6zm53 31h-2q-5 0-7 2-3 2-3 5 0 4 2 5 2 2 5 2 5 0 8-3t3-9v-2zm11-2v20h-5v-5q-2 3-5 4-3 2-7 2-5 0-8-3-4-3-4-8 0-6 4-9t12-3h8v-1q0-4-2-6-3-2-7-2l-6 1-6 2v-5l6-2 6-1 7 1 5 4 2 4v7zm33 2q0-6-2-10-3-3-7-3t-6 3q-2 4-2 10 0 7 2 10t6 3q4 0 7-3 2-3 2-10zm5 16q0 8-3 12-4 4-11 4l-5-1-5-1v-6l5 2 5 1q4 0 7-2 2-3 2-8v-5l-4 5-6 1q-6 0-10-5-3-5-3-13t3-13q4-5 10-5 4 0 6 2l4 4v-5h5zm41-18v2h-25v1q0 7 3 10t9 3l5-1 7-2v5q-3 2-7 2l-5 1q-9 0-13-5-5-5-5-13 0-9 5-14 4-5 12-5 6 0 10 5 4 4 4 11zm-5-2-3-6q-2-3-7-3-4 0-6 3-3 3-3 6zm22-13h10v11h-10zm0 24h10v11h-10zm59-38v5h-7l-4 1-1 5v3h12v4h-12v31h-6V55h-9v-4h9v-2q0-6 3-9 2-3 8-3zm27 36q0 4 2 6 1 2 4 2h7v5h-7q-6 0-8-3-3-4-3-10V42h-10v-5h15Zm23 0V51h5v22q0 4 2 7 2 2 5 2 4 0 6-3 3-3 3-8V51h5v35h-5v-5q-2 3-5 4-2 2-6 2-5 0-8-4-2-3-2-10zm51-32v10h13v4h-13v19q0 4 2 6l5 1h6v5h-7q-6 0-9-3-3-2-3-9V55h-9v-4h9V41zm39 0v10h13v4h-13v19l1 6 5 1h7v5h-7q-7 0-9-3-3-2-3-9V55h-9v-4h9V41zm54 25v2h-25v1q0 7 3 10t8 3l6-1 7-2v5l-7 2-6 1q-8 0-12-5-5-5-5-13 0-9 4-14 5-5 12-5t11 5q4 4 4 11zm-6-2q0-4-2-6-3-3-7-3t-7 3l-3 6zm46-6-4-2-4-1q-6 0-8 4-3 3-3 10v17h-6V51h6v7q1-4 4-6t7-2l4 1 4 1z" aria-label="package:flutter"/><path fill="#e7ee98" d="M1105 39h6l-25 53h-6Z" aria-label="/"/><path fill="#e7ee98" d="m1136 55 3-4 4-1q4 0 6 3 2 4 2 13v20h-5V66l-1-9q-1-2-3-2-3 0-4 2l-1 9v20h-5V66l-1-9q-1-2-3-2t-3 2l-1 9v20h-5V51h5v3l3-3 3-1 4 1q2 1 2 4zm40 13h-2q-5 0-8 2-2 2-2 5 0 4 2 5 2 2 5 2 5 0 7-3 3-3 3-9v-2zm11-2v20h-6v-5l-4 4q-3 2-7 2-6 0-9-3t-3-8q0-6 4-9t11-3h8v-1q0-4-2-6t-7-2l-6 1-5 2v-5l6-2 5-1 8 1 5 4 1 4 1 7zm25-25v10h13v4h-13v19l1 6 5 1h7v5h-7q-7 0-9-3-3-2-3-9V55h-9v-4h9V41zm54 25v2h-25v1q0 7 3 10t8 3l6-1 6-2v5l-6 2-6 1q-8 0-13-5-4-5-4-13 0-9 4-14 5-5 12-5t11 5q4 4 4 11zm-6-2q0-4-2-6-3-3-7-3t-7 3l-3 6zm46-6-4-2-4-1q-6 0-9 4-2 3-2 10v17h-6V51h6v7q1-4 4-6t7-2l4 1 4 1zm12-7h15v31h11v4h-29v-4h12V56h-9zm9-13h6v7h-6zm41 30h-1q-5 0-8 2t-3 5q0 4 2 5 2 2 6 2t7-3q3-3 3-9v-2zm12-2v20h-6v-5q-2 3-5 4-3 2-7 2-5 0-8-3t-3-8q0-6 4-9t11-3h8v-1q0-4-2-6t-7-2l-6 1-6 2v-5l6-2 6-1 7 1 5 4 2 4 1 7zm28 7 1 6q1 2 4 2h7v5h-7q-6 0-8-3-3-4-3-10V42h-9v-5h15zm28 0h11v13h-11zm53-18V37h6v49h-6v-4l-4 4-5 1q-7 0-10-5-4-5-4-14 0-8 4-13 3-5 10-5 3 0 5 2l4 3zm-17 14q0 6 2 10 2 3 6 3 5 0 7-3 2-4 2-10 0-7-2-11-2-3-7-3-4 0-6 3-2 4-2 11zm51-1h-2q-5 0-8 2-2 2-2 5l1 5q2 2 6 2 5 0 7-3 3-3 3-9v-2zm11-2v20h-6v-5q-2 3-5 4-2 2-6 2-6 0-9-3t-3-8q0-6 4-9t11-3h8v-1q0-4-2-6t-7-2l-6 1-6 2v-5l6-2 6-1 8 1 5 4 1 4 1 7zm41-8-3-2-5-1q-5 0-8 4-3 3-3 10v17h-5V51h5v7q2-4 5-6t7-2l4 1 3 1zm22-17v10h13v4h-13v19l1 6 6 1h6v5h-7q-7 0-9-3-3-2-3-9V55h-9v-4h9V41z" aria-label="material.dart"/><path fill="#e7ee98" d="M1632 37h8v7l-6 12h-5l3-12z" aria-label="’"/><path fill="#f6f6f4" d="M1667 75h9v8l-6 12h-7l4-12Zm-1-24h10v11h-10z" aria-label=";"/><path fill="#666" d="M91 158h21v5H84v-5l10-11 6-7 4-6 1-5q0-4-2-6t-6-2l-6 1-7 3v-6l6-3h7q6 0 11 3 4 4 4 10l-2 6-4 6-5 6-10 11z" aria-label="2"/><path fill="#666" d="M103 215q5 1 7 4 3 3 3 8 0 7-5 10-4 4-12 4l-6-1-7-1v-7l7 3 6 1q5 0 8-3 2-2 2-6 0-5-2-7-3-2-8-2h-5v-6h5l7-1q2-2 2-6 0-3-2-5t-6-2h-6l-6 2v-5l6-2h6q6 0 10 3 5 3 5 9 0 4-3 6-2 3-6 4z" aria-label="3"/><path fill="#f286c4" d="M197 205h6l10 29 11-29h6l-13 35h-7Zm55 4q-4 0-7 3-2 4-2 11 0 6 2 10 3 3 7 3t7-3q2-4 2-10 0-7-2-11-3-3-7-3zm0-5q7 0 11 5t4 14q0 9-4 13-4 5-11 5t-11-5q-4-4-4-13t4-14q4-5 11-5zm29 1h15v31h11v4h-28v-4h11v-26h-9Zm9-13h6v7h-6zm47 17v-18h5v49h-5v-4l-4 4-6 1q-6 0-10-5-3-5-3-14 0-8 3-13 4-5 10-5l6 2 4 3zm-17 14q0 6 2 10 2 3 6 3t6-3q3-4 3-10 0-7-3-11-2-3-6-3t-6 3q-2 4-2 11z" aria-label="void"/><path fill="#62e884" d="m407 209 3-4 4-1q4 0 6 3 2 4 2 13v20h-6v-20l-1-9q0-2-3-2-2 0-3 2l-1 9v20h-5v-20l-1-9q-1-2-3-2-3 0-3 2l-1 9v20h-6v-35h6v3l2-3 4-1 4 1 2 4zm40 13h-2q-5 0-8 2t-3 5q0 4 2 5 2 2 6 2t7-3q3-3 3-9v-2zm11-2v20h-6v-5q-2 3-5 4-3 2-7 2-5 0-8-3t-3-8q0-6 4-9t11-3h8v-1q0-4-2-6t-7-2l-6 1-6 2v-5l6-2 6-1 7 1 5 4 2 4 1 7zm15-15h15v31h11v4h-28v-4h11v-26h-9Zm9-13h6v7h-6zm52 26v22h-5v-22q0-4-2-7-2-2-5-2-4 0-6 3-3 3-3 8v20h-5v-35h5v5q2-3 5-4 2-2 6-2 5 0 8 4 2 3 2 10z" aria-label="main"/><path fill="#f6f6f4" d="M566 188q-4 7-6 15l-2 14 2 14 6 14h-5l-7-14-2-14 2-14 7-15zm23 0h5q5 8 7 15l2 14-2 14q-2 7-7 14h-5l6-14 2-14-2-14q-2-8-6-15z" aria-label="()"/><path fill="#f286c4" d="M657 224h34v6h-34Zm0-14h34v5h-34Zm39 0v-6l33 13v6l-33 13v-6l27-10z" aria-label="=&gt;"/><path fill="#62e884" d="m806 212-4-2-4-1q-5 0-8 4-3 3-3 10v17h-6v-35h6v7q1-4 4-6t7-2l4 1 4 1zm9 15v-22h5v22q0 4 2 7 2 2 5 2 4 0 6-3t2-8v-20h6v35h-6v-5q-1 3-4 4-2 2-6 2-5 0-8-4-2-3-2-10Zm65-9v22h-6v-22q0-4-2-7-1-2-5-2t-6 3q-2 3-2 8v20h-6v-35h6v5q1-3 4-4l6-2q6 0 8 4 3 3 3 10zm25-19-7 24h13Zm-4-6h8l14 47h-7l-3-12h-16l-4 12h-6Zm35 43v17h-6v-48h6v4l4-3q2-2 5-2 6 0 10 5t4 14q0 8-4 13t-10 5l-6-1-3-4zm17-13q0-7-3-11-2-3-6-3t-6 3q-2 4-2 11 0 6 2 10 2 3 6 3t6-3q3-4 3-10zm21 13v17h-6v-48h6v4l4-3q2-2 6-2 6 0 10 5 3 5 3 14 0 8-3 13-4 5-10 5l-6-1-4-4zm17-13q0-7-2-11-2-3-6-3t-7 3q-2 4-2 11 0 6 2 10 3 3 7 3t6-3q2-4 2-10z" aria-label="runApp"/><path fill="#f6f6f4" d="M1027 188q-4 7-6 15l-2 14 2 14 6 14h-5q-5-7-7-14l-2-14 2-14q2-7 7-15z" aria-label="("/><path fill="#f286c4" d="m1072 238-5 2-5 1q-8 0-13-5-4-5-4-13 0-9 4-14 5-5 13-5l5 1 5 2v6l-5-3-5-1q-5 0-8 4-3 3-3 10 0 6 3 10 3 3 8 3l5-1 5-3zm24-29q-4 0-6 3-3 4-3 11 0 6 3 10 2 3 6 3 5 0 7-3 2-4 2-10 0-7-2-11-2-3-7-3zm0-5q8 0 11 5 4 5 4 14t-3 13q-4 5-12 5-7 0-11-5-4-4-4-13t4-14q4-5 11-5zm52 14v22h-5v-22q0-4-2-7-2-2-5-2-4 0-6 3-3 3-3 8v20h-5v-35h5v5q2-3 5-4 2-2 6-2 5 0 8 4 2 3 2 10zm37-12v6l-5-2-5-1-6 1-2 4 1 4 7 2h3q4 1 6 4 2 2 2 6 0 5-3 8-4 3-11 3l-5-1-6-1v-6l6 2 6 1 5-1q3-2 3-5 0-4-8-5l-3-1-7-3q-2-2-2-6 0-5 3-8 4-3 10-3l5 1 6 1zm27-11v10h13v4h-13v19l1 6 5 1h7v5h-7q-7 0-9-3-3-2-3-9v-19h-9v-4h9v-10z" aria-label="const"/><path fill="#97e1f1" d="M1275 193h28v6h-22v12h21v6h-21v18h22v5h-28Zm67 12-12 17 14 18h-7l-10-14-11 14h-6l14-18-13-17h6l10 13 9-13Zm26 17h-2q-5 0-8 2-2 2-2 5 0 4 2 5 2 2 5 2 5 0 8-3 2-3 2-9v-2zm11-2v20h-6v-5l-4 4q-3 2-7 2-6 0-9-3t-3-8q0-6 4-9t12-3h7v-1q0-4-2-6t-7-2l-5 1-6 2v-5l6-2 5-1 8 1 5 4 2 4v7zm27-11 2-4 4-1q4 0 6 3 2 4 2 13v20h-5v-20l-1-9q-1-2-3-2-3 0-4 2v29h-6v-20l-1-9q-1-2-3-2t-3 2l-1 9v20h-5v-35h5v3l3-3 3-1 4 1 3 4zm29 27v17h-6v-48h6v4l4-3q2-2 5-2 6 0 10 5t4 14q0 8-4 13t-10 5l-6-1-3-4zm17-13q0-7-3-11-2-3-6-3t-6 3q-2 4-2 11 0 6 2 10 2 3 6 3t6-3q3-4 3-10zm32 4 1 6q2 2 5 2h6v5h-7q-5 0-8-3-3-4-3-10v-31h-9v-5h15Zm51-7v2h-25v1q0 7 3 10t8 3l6-1 6-2v5l-6 2-6 1q-8 0-12-5-5-5-5-13 0-9 4-14 5-5 12-5t11 5q4 4 4 11zm-6-2q0-4-2-6-3-3-7-3t-7 3l-3 6z" aria-label="Example"/><path fill="#f6f6f4" d="M1564 188q-4 7-6 15l-2 14 2 14 6 14h-5l-7-14-2-14 2-14 7-15zm23 0h5q5 8 7 15l2 14-2 14q-2 7-7 14h-5l6-14 2-14-2-14q-2-8-6-15zm39 0h5l7 15 2 14-2 14-7 14h-5l6-14 2-14-2-14q-2-8-6-15zm41 41h10v8l-6 12h-7l3-12Zm0-24h9v11h-9Z" aria-label="());"/><path fill="#666" d="m102 276-15 25h15zm-1-6h7v31h6v5h-6v11h-6v-11H82v-6z" aria-label="4"/><path fill="#666" d="M85 347h24v6H91v11l3-1h3q7 0 11 4 4 5 4 12t-4 12q-5 4-12 4l-7-1-6-1v-6l6 2 6 1q5 0 8-3t3-8q0-5-3-8t-8-3l-5 1-5 2z" aria-label="5"/><path fill="#f286c4" d="M227 392q-2 2-5 2l-5 1q-8 0-12-5-5-5-5-13 0-9 5-14 4-5 12-5l5 1q3 0 5 2v6l-4-3-6-1q-5 0-8 4-3 3-3 10 0 6 3 10 3 3 8 3l6-1 4-3zm28-11q0 4 2 6 1 2 4 2h6v5h-7q-5 0-8-3-3-4-3-10v-31h-9v-5h15Zm38-5h-2q-5 0-7 2-3 2-3 5 0 4 2 5 2 2 5 2 5 0 8-3 2-3 2-9v-2zm11-2v20h-6v-5q-1 3-4 4-3 2-7 2-5 0-8-3-4-3-4-8 0-6 4-9t12-3h7v-1q0-4-2-6t-6-2l-6 1-6 2v-5l6-2 6-1 7 1 5 4 2 4v7zm36-14v6q-2-2-5-2l-5-1-6 1-2 4 2 4 7 2h2q4 1 7 4 2 2 2 6 0 5-4 8-3 3-10 3l-5-1-7-1v-6l7 2 5 1 6-1q2-2 2-5 0-4-8-5l-2-1q-5-1-7-3-3-2-3-6 0-5 4-8 3-3 10-3l5 1 5 1zm39 0v6l-5-2-5-1-6 1-2 4 1 4 7 2h3q4 1 6 4 2 2 2 6 0 5-3 8-4 3-11 3l-5-1-6-1v-6l6 2 6 1 6-1q2-2 2-5 0-4-8-5l-2-1-8-3q-2-2-2-6 0-5 3-8 4-3 10-3l6 1 5 1z" aria-label="class"/><path fill="#97e1f1" d="M431 347h27v6h-21v12h20v6h-20v18h22v5h-28Zm67 12-13 17 14 18h-7l-10-14-10 14h-7l14-18-12-17h6l9 13 9-13Zm25 17h-1q-6 0-8 2-3 2-3 5 0 4 2 5 2 2 6 2t7-3q3-3 3-9v-2zm12-2v20h-6v-5q-2 3-5 4-3 2-7 2-5 0-8-3t-3-8q0-6 4-9 3-3 11-3h8v-1q0-4-2-6t-7-2l-6 1-6 2v-5l6-2 6-1 7 1 5 4 2 4 1 7zm26-11 3-4 4-1q4 0 6 3l1 13v20h-5v-20l-1-9q0-2-3-2-2 0-3 2l-1 9v20h-5v-20l-1-9q-1-2-3-2-3 0-3 2l-1 9v20h-6v-35h6v3l2-3 4-1 4 1 2 4zm29 27v17h-6v-48h6v4l4-3q2-2 6-2 6 0 10 5 3 5 3 14 0 8-3 13-4 5-10 5l-6-1-4-4zm17-13q0-7-2-11-2-3-6-3t-7 3q-2 4-2 11 0 6 2 10 3 3 7 3t6-3q2-4 2-10zm33 4 1 6q1 2 4 2h7v5h-7q-6 0-8-3-3-4-3-10v-31h-9v-5h15Zm51-7v2h-25v1q-1 7 2 10t9 3l6-1 6-2v5l-6 2-6 1q-8 0-13-5t-5-13q0-9 5-14 4-5 12-5 7 0 10 5 4 4 5 11zm-6-2-3-6q-2-3-6-3t-7 3q-3 3-3 6z" aria-label="Example"/><path fill="#f286c4" d="M767 374v2h-25v1q-1 7 2 10t9 3l6-1 6-2v5l-6 2-6 1q-8 0-13-5t-5-13q0-9 5-14 4-5 12-5 7 0 10 5 4 4 5 11zm-6-2-3-6q-2-3-6-3-5 0-7 3-3 3-3 6zm44-13-13 17 14 18h-6l-11-14-10 14h-7l14-18-12-17h6l9 13 10-13Zm23-10v10h13v4h-13v19l1 6 5 1h7v5h-7q-7 0-9-3-3-2-3-9v-19h-9v-4h9v-10zm54 25v2h-25v1q0 7 3 10t8 3l6-1 7-2v5l-7 2-6 1q-8 0-12-5-5-5-5-13 0-9 4-14 5-5 12-5t11 5q4 4 4 11zm-6-2q0-4-2-6-3-3-7-3t-7 3l-3 6zm42 0v22h-5v-22q0-4-2-7-2-2-5-2-4 0-6 3-3 3-3 8v20h-5v-35h5v5q2-3 5-4 2-2 6-2 5 0 8 4 2 3 2 10zm33-9v-18h6v49h-6v-4l-4 4-5 1q-7 0-10-5-4-5-4-14 0-8 4-13 3-5 10-5 3 0 5 2l4 3zm-17 14q0 6 2 10 2 3 6 3 5 0 7-3 2-4 2-10 0-7-2-11-2-3-7-3-4 0-6 3-2 4-2 11zm59-17v6q-2-2-5-2l-5-1-6 1-2 4 2 4 7 2h2q4 1 7 4 2 2 2 6 0 5-4 8-3 3-10 3l-5-1-7-1v-6l7 2 5 1 6-1q2-2 2-5 0-4-8-5l-2-1q-5-1-7-3-3-2-3-6 0-5 4-8 3-3 10-3l5 1 5 1z" aria-label="extends"/><path fill="#97e1f1" d="M1070 349v6l-6-2-5-1q-5 0-7 2-3 2-3 5t2 5q1 2 6 3l3 1q7 1 10 4 3 4 3 9 0 7-4 10-4 4-12 4l-7-1-6-2v-7l6 4 7 1q5 0 7-2 3-2 3-6t-2-6l-6-3h-4q-6-2-9-5t-3-8q0-6 4-10 4-3 11-3h6l6 2zm26 0v10h13v4h-13v19q0 4 2 6l5 1h6v5h-7q-6 0-9-3-2-2-2-9v-19h-10v-4h10v-10zm42 27h-2q-5 0-8 2-2 2-2 5l1 5q2 2 6 2t7-3q3-3 3-9v-2zm11-2v20h-6v-5q-2 3-5 4-2 2-6 2-6 0-9-3t-3-8q0-6 4-9t11-3h8v-1q0-4-2-6t-7-2l-6 1-6 2v-5l6-2 6-1 8 1 5 4 1 4 1 7zm24-25v10h13v4h-13v19q0 4 2 6l5 1h6v5h-7q-6 0-9-3-2-2-2-9v-19h-10v-4h10v-10zm55 25v2h-25v1q0 7 3 10t8 3l6-1 6-2v5l-6 2-6 1q-8 0-13-5-4-5-4-13 0-9 4-14 5-5 12-5t11 5q3 4 4 11zm-6-2q0-4-3-6-2-3-6-3t-7 3q-3 3-3 6zm32 9 1 6 4 2h7v5h-7q-5 0-8-3-3-4-3-10v-31h-9v-5h15Zm51-7v2h-25v1q0 7 3 10t8 3l6-1 6-2v5l-6 2-6 1q-8 0-13-5-4-5-4-13 0-9 4-14 5-5 12-5t11 5q4 4 4 11zm-6-2q0-4-3-6-2-3-6-3t-7 3q-3 3-3 6zm40-12v6l-5-2-5-1-6 1-2 4 1 4 7 2h3q4 1 6 4 2 2 2 6 0 5-3 8-4 3-10 3l-6-1-6-1v-6l6 2 6 1 6-1q2-2 2-5 0-4-8-5l-2-1-8-3q-2-2-2-6 0-5 3-8 4-3 10-3l6 1 5 1zm38 0v6q-2-2-5-2l-5-1-6 1-2 4 2 4 7 2h2q5 1 7 4 2 2 2 6 0 5-4 8-3 3-10 3l-5-1-7-1v-6l7 2 5 1 6-1q2-2 2-5 0-4-7-5h-1l-2-1q-5-1-7-3t-2-6q0-5 3-8t10-3l5 1 5 1zm8-13h7l4 38 5-25h7l5 25 5-38h6l-7 47h-6l-6-28-7 28h-6Zm49 12h14v31h12v4h-29v-4h12v-26h-9zm9-13h5v7h-5zm46 17v-18h6v49h-6v-4l-4 4-5 1q-6 0-10-5t-4-14q0-8 4-13t10-5q3 0 5 2l4 3zm-17 14q0 6 2 10 3 3 7 3t6-3q2-4 2-10 0-7-2-11-2-3-6-3t-7 3q-2 4-2 11zm56-1q0-6-2-10-2-3-6-3-5 0-7 3-2 4-2 10 0 7 2 10t7 3q4 0 6-3t2-10zm6 16q0 8-4 12t-11 4l-5-1-5-1v-6l5 2 5 1q5 0 7-2 2-3 2-8v-5l-4 5-6 1q-6 0-10-5-3-5-3-13t3-13q4-5 10-5 4 0 6 2l4 4v-5h6zm40-18v2h-24v1q-1 7 2 10t9 3l5-1 7-2v5l-6 2-6 1q-8 0-13-5t-5-13q0-9 5-14 4-5 12-5 7 0 10 5 4 4 4 11zm-5-2-3-6q-2-3-6-3-5 0-7 3-3 3-3 6zm28-23v10h13v4h-13v19q0 4 2 6l5 1h6v5h-7q-6 0-9-3-3-2-3-9v-19h-9v-4h9v-10z" aria-label="StatelessWidget"/><path fill="#f6f6f4" d="M1685 396v4h-2q-8 0-10-2-3-3-3-9v-7l-2-6q-2-2-6-2h-4v-4h4q4 0 6-3 2-2 2-6v-8q0-7 3-9 2-2 10-2h2v4h-2l-6 1-1 6v9q0 5-2 7l-9 3q6 0 9 3 2 2 2 7v6l1 6q1 2 6 2z" aria-label="{"/><path fill="#666" d="M110 425v6l-4-2h-5q-6 0-9 4-3 5-3 14 1-3 4-5l6-2q7 0 11 4 3 4 3 12t-3 12q-4 4-11 4-8 0-12-6t-4-18q0-12 5-18 4-6 13-6h4l5 1zm-11 20q-4 0-7 3-2 3-2 8t2 8q3 3 7 3t6-3q2-3 2-8t-2-8q-2-3-6-3z" aria-label="6"/><path fill="#f286c4" d="M304 469q-2 2-5 2l-5 1q-8 0-12-5-5-5-5-13 0-9 5-14 4-5 12-5l5 1q3 0 5 2v6l-5-3-5-1q-5 0-8 4-3 3-3 10 0 6 3 10 3 3 8 3l6-1 4-3zm25-29q-5 0-7 3-2 4-2 11 0 6 2 10 2 3 7 3 4 0 6-3 3-4 3-10 0-7-3-11-2-3-6-3zm0-5q7 0 11 5t4 14q0 9-4 13-4 5-11 5-8 0-11-5-4-4-4-13t4-14q3-5 11-5zm52 14v22h-6v-22q0-4-2-7-1-2-5-2t-6 3q-2 3-2 8v20h-6v-35h6v5q1-3 4-4l6-2q6 0 8 4 3 3 3 10zm36-12v6l-5-2-5-1-6 1-2 4 2 4 7 2h2q4 1 6 4 3 2 3 6 0 5-4 8t-10 3l-6-1-6-1v-6l6 2 6 1 6-1q2-2 2-5 0-4-8-5l-2-1q-5-1-7-3-3-2-3-6 0-5 4-8 3-3 9-3l6 1 5 1zm27-11v10h13v4h-13v19q0 4 2 6l5 1h6v5h-7q-6 0-9-3-3-2-3-9v-19h-9v-4h9v-10z" aria-label="const"/><path fill="#97e1f1" d="M507 424h28v6h-21v12h20v6h-20v18h22v5h-29Zm68 12-13 17 14 18h-7l-10-14-10 14h-7l14-18-13-17h7l9 13 9-13Zm25 17h-2q-5 0-7 2-3 2-3 5 0 4 2 5 2 2 5 2 5 0 8-3t3-9v-2zm11-2v20h-5v-5q-2 3-5 4-3 2-7 2-5 0-8-3-4-3-4-8 0-6 4-9t12-3h8v-1q0-4-3-6-2-2-6-2l-6 1-6 2v-5l6-2 6-1 7 1 5 4 2 4v7zm27-11 3-4 4-1q4 0 6 3l1 13v20h-5v-20l-1-9q-1-2-3-2t-3 2l-1 9v20h-5v-20l-1-9q-1-2-4-2-2 0-3 2l-1 9v20h-5v-35h5v3l3-3 4-1 3 1 3 4zm29 27v17h-6v-48h6v4l4-3q2-2 5-2 7 0 10 5 4 5 4 14 0 8-4 13-3 5-10 5l-5-1-4-4zm17-13q0-7-2-11-2-3-6-3-5 0-7 3-2 4-2 11 0 6 2 10 2 3 7 3 4 0 6-3 2-4 2-10zm32 4q0 4 2 6 1 2 4 2h7v5h-8q-5 0-8-3-2-4-2-10v-31h-10v-5h15Zm51-7v2h-25v1q0 7 3 10t9 3l5-1 7-2v5q-3 2-7 2l-5 1q-9 0-13-5-5-5-5-13 0-9 5-14 4-5 12-5 6 0 10 5 4 4 4 11zm-5-2-3-6q-2-3-7-3-4 0-6 3-3 3-3 6z" aria-label="Example"/><path fill="#f6f6f4" d="M797 419q-5 7-7 15l-2 14 2 14q2 7 7 14h-5q-5-7-7-14-3-7-3-14t3-14q2-7 7-15zm44 54v4h-2q-8 0-11-2-2-3-2-9v-7l-2-6q-2-2-6-2h-4v-4h4q4 0 6-3 2-2 2-6v-8q0-7 2-9 3-2 11-2h2v4h-3l-5 1q-2 2-2 6v9q0 5-2 7t-8 3q6 0 8 3 2 2 2 7v6q0 5 2 6 1 2 5 2z" aria-label="({"/><path fill="#f286c4" d="m880 437-1 6-4-2-5-1q-5 0-7 2-2 1-2 4t7 5l3 1 5 3q2 1 2 4 0 6-5 9-4 4-12 4l-5-1-6-1 1-6 6 2 5 1q5 0 7-2 3-2 3-4 0-4-6-5h-1l-2-1-6-3q-2-2-2-5 0-6 4-9t11-3l6 1 4 1zm10 21 4-22h6l-5 22v4l1 4 4 1q4 0 7-3t4-8l4-20h6l-7 35h-6l1-5q-2 3-5 4l-6 2q-4 0-7-2-2-3-2-7v-2l1-3Zm43 9-4 17h-5l9-48h6l-1 4 5-3q2-2 5-2 5 0 8 3 3 4 3 10l-1 8q-1 5-4 8-2 4-5 6t-7 2l-6-1-3-4zm9 0 4-1 4-4 2-7 1-7q0-4-2-6-1-2-4-2l-5 1-4 5-2 6-1 7q0 4 2 6 1 2 5 2zm50-17v-2q0-4-2-6t-6-2q-4 0-7 3t-4 7zm0 19-6 2-6 1q-7 0-11-4-4-3-4-10 0-5 2-9l5-8 6-4q3-2 7-2 5 0 9 4 3 3 3 9v7h-25l-1 2v1q0 4 3 7 2 2 7 2l6-1 6-2Zm46-26-3-2-5-1q-5 0-8 4-4 4-5 10l-4 17h-5l6-35h6l-1 7q2-4 5-6l8-2 4 1 3 1z" aria-label="super" font-style="italic"/><path fill="#f6f6f4" d="M1051 458h11v13h-11z" aria-label="."/><path fill="#ffb86c" d="M1089 422h6l-5 28 17-14h8l-17 13 12 22h-7l-9-18-5 4-3 14h-6Zm56 28v-2q0-4-2-6t-6-2q-3 0-7 3-3 3-4 7zm1 19-7 2-6 1q-7 0-11-4-3-3-3-10l1-9q2-5 6-8 2-3 5-4l7-2q6 0 9 4 4 3 4 9v3l-1 4h-25v2l-1 1q0 4 3 7 2 2 7 2l6-1 7-2Zm33-9-6 9-6 11-4 3-6 1h-4l1-4h3q3 0 4-2l4-5 2-3-7-34h5l6 27 15-27h6z" aria-label="key" font-style="italic"/><path fill="#f6f6f4" d="M1201 473q5 0 6-2l1-6v-6q0-5 2-7 3-3 9-3l-9-3q-2-2-2-7v-9l-1-6-6-1h-2v-4h2q8 0 10 2 3 2 3 9v8q0 4 2 6 2 3 6 3h4v4h-4q-4 0-6 2l-2 6v7q0 6-3 9-2 2-10 2h-2v-4zm41-54h5l7 15 2 14-2 14-7 14h-5l6-14 2-14-2-14q-2-8-6-15zm41 41h10v8l-6 12h-7l3-12Zm0-24h9v11h-9z" aria-label="});"/><path fill="#666" d="M83 501h30v3l-17 44h-7l17-41H83Z" aria-label="7"/><path fill="#666" d="M98 603q-4 0-6 2-3 3-3 7t3 7q2 2 6 2t7-2q2-3 2-7t-2-7q-3-2-7-2zm-5-3q-4-1-7-4-2-2-2-6 0-6 4-9t10-3q7 0 11 3 3 3 3 9 0 4-2 6-2 3-6 4 4 1 7 4l2 8q0 7-4 10-4 4-11 4t-11-4q-4-3-4-9 0-5 3-9 2-3 7-4zm-3-10q0 4 2 6t6 2q4 0 6-2t2-6q0-4-2-6t-6-2q-4 0-6 2t-2 6z" aria-label="8"/><path fill="#f6f6f4" d="M303 608q0-4-2-6-2-3-5-3t-5 3q-2 2-2 6t2 6q2 3 5 3t5-3q2-2 2-6zm5 13h-5v-4l-3 3-5 1q-5 0-8-3-3-4-3-10t3-10q3-3 8-3l5 1 3 3v-2q0-5-3-8-2-3-7-3-8 0-12 6-5 6-5 16t6 16q5 7 14 7h10v4h-10q-11 0-18-7-6-8-6-20t6-19q5-8 15-8 7 0 11 5 4 4 4 11zm21-27q-5 0-7 3-2 4-2 11 0 6 2 10 2 3 7 3 4 0 6-3 3-4 3-10 0-7-3-11-2-3-6-3zm0-5q7 0 11 5t4 14q0 9-4 13-4 5-11 5-8 0-11-5-4-4-4-13t4-14q3-5 11-5zm22 1h6l10 29 10-29h6l-12 35h-7Zm70 15v2h-24v1q-1 7 2 10t9 3l5-1 7-2v5l-6 2-6 1q-8 0-13-5t-5-13q0-9 5-14 4-5 12-5 7 0 10 5 4 4 4 11zm-5-2-3-6q-2-3-6-3-5 0-7 3-3 3-3 6zm45-6-4-2-4-1q-5 0-8 4-3 3-3 10v17h-6v-35h6v7q2-4 5-6t7-2l4 1 3 1zm39 0-4-2-4-1q-6 0-9 4-2 3-2 10v17h-6v-35h6v7q1-4 4-6t7-2l4 1 4 1zm12-7h15v31h11v4h-28v-4h11v-26h-9zm9-13h6v7h-6zm46 17v-18h6v49h-6v-4l-3 4-6 1q-6 0-10-5t-4-14q0-8 4-13t10-5l6 2 3 3zm-16 14q0 6 2 10 2 3 6 3t6-3q2-4 2-10 0-7-2-11-2-3-6-3t-6 3q-2 4-2 11zm63-3v2h-25v1q0 7 3 10t8 3l6-1 7-2v5l-7 2-6 1q-8 0-12-5-5-5-5-13 0-9 4-14 5-5 12-5t11 5q4 4 4 11zm-6-2q0-4-2-6-3-3-7-3t-7 3l-3 6z" aria-label="@override"/><path fill="#666" d="M98 681q4 0 6-3 2-2 2-8 0-5-2-8t-6-3q-5 0-7 3t-2 8q0 6 2 9 2 2 7 2zm-12 20v-6l5 2 4 1q6 0 9-5 3-4 3-13-1 3-4 5l-6 1q-7 0-10-4-4-4-4-12 0-7 4-11t10-4q9 0 12 5 4 6 4 19 0 12-4 18-5 6-14 6l-4-1-5-1z" aria-label="9"/><path fill="#97e1f1" d="M271 655h6l5 38 5-25h6l6 25 4-38h6l-7 47h-6l-6-28-6 28h-6Zm48 12h15v31h11v4h-28v-4h11v-26h-9Zm9-13h6v7h-6zm47 17v-18h6v49h-6v-4l-4 4-6 1q-6 0-10-5-3-5-3-14 0-8 3-13 4-5 10-5 4 0 6 2l4 3zm-17 14q0 6 2 10 2 3 6 3t7-3q2-4 2-10 0-7-2-11-3-3-7-3t-6 3q-2 4-2 11zm55-1q0-6-2-10-2-3-6-3t-6 3q-3 4-3 10 0 7 3 10 2 3 6 3t6-3q2-3 2-10zm6 16q0 8-4 12-3 4-11 4l-5-1-5-1v-6l6 2 4 1q5 0 7-2 2-3 2-8v-5l-3 5-6 1q-6 0-10-5t-4-13q0-8 4-13t10-5q3 0 5 2 3 1 4 4v-5h6zm41-18v2h-25v1q0 7 3 10t8 3l6-1 6-2v5l-6 2-6 1q-8 0-13-5-4-5-4-13 0-9 4-14 5-5 12-5t11 5q4 4 4 11zm-6-2q0-4-2-6-3-3-7-3t-7 3l-3 6zm29-23v10h13v4h-13v19l1 6 5 1h7v5h-7q-7 0-9-3-3-2-3-9v-19h-9v-4h9v-10z" aria-label="Widget"/><path fill="#62e884" d="M568 685q0-7-2-11-2-3-6-3t-6 3q-3 4-3 11 0 6 3 10 2 3 6 3t6-3q2-4 2-10zm-17-14 4-3 6-2q6 0 10 5 3 5 3 13 0 9-3 14-4 5-10 5l-6-1-4-4v4h-5v-49h5zm33 18v-22h6v22q0 4 2 7 1 2 5 2t6-3q2-3 2-8v-20h6v35h-6v-5q-1 3-4 4l-6 2q-6 0-8-4-3-3-3-10Zm43-22h14v31h12v4h-29v-4h11v-26h-8Zm8-13h6v7h-6zm43 35 1 6q1 2 4 2h7v5h-7q-5 0-8-3-3-4-3-10v-31h-9v-5h15zm43-18v-18h5v49h-5v-4l-4 4-6 1q-6 0-10-5-3-5-3-14 0-8 3-13 4-5 10-5l6 2 4 3zm-17 14q0 6 2 10 2 3 6 3t6-3q3-4 3-10 0-7-3-11-2-3-6-3t-6 3q-2 4-2 11z" aria-label="build"/><path fill="#f6f6f4" d="M758 650q-4 7-6 15l-2 14 2 14 6 14h-5l-7-14-2-14 2-14 7-15z" aria-label="("/><path fill="#97e1f1" d="M781 678v19h8q5 0 8-2 2-2 2-6 0-6-2-8-3-3-8-3Zm0-17v12h8l6-1q2-2 2-5t-2-5l-6-1zm-6-6h14q7 0 11 3 4 4 4 9l-2 6-6 3q4 0 7 4 2 3 2 9 0 7-4 10t-12 3h-14Zm40 34v-22h5v22q0 4 2 7 2 2 5 2 4 0 6-3t2-8v-20h6v35h-6v-5q-1 3-4 4-2 2-6 2-5 0-8-4-2-3-2-10Zm42-22h15v31h11v4h-29v-4h12v-26h-9Zm9-13h6v7h-6zm42 35 1 6q2 2 5 2h6v5h-7q-5 0-8-3-3-4-3-10v-31h-9v-5h15zm43-18v-18h6v49h-6v-4l-4 4-6 1q-6 0-10-5-3-5-3-14 0-8 4-13 3-5 9-5 4 0 6 2l4 3zm-17 14q0 6 2 10 2 3 6 3t7-3q2-4 2-10 0-7-2-11-3-3-7-3t-6 3q-2 4-2 11zm62 15q-2 2-5 2l-5 1q-9 0-14-6-5-7-5-18 0-12 5-18t14-6h5l5 2v7l-5-3-5-1q-6 0-9 4-4 5-4 15 0 9 4 14 3 5 9 5l5-1 5-3zm24-29q-4 0-6 3-3 4-3 11 0 6 3 10 2 3 6 3 5 0 7-3 2-4 2-10 0-7-2-11-2-3-7-3zm0-5q8 0 11 5 4 5 4 14t-4 13q-3 5-11 5-7 0-11-5-4-4-4-13t4-14q4-5 11-5zm52 14v22h-5v-22q0-4-2-7-2-2-5-2-4 0-6 3-3 3-3 8v20h-5v-35h5v5q2-3 5-4 2-2 6-2 5 0 8 4 2 3 2 10zm25-23v10h13v4h-13v19q0 4 2 6l5 1h6v5h-7q-6 0-9-3-2-2-2-9v-19h-10v-4h10v-10zm55 25v2h-25v1q0 7 2 10 3 3 9 3l6-1 6-2v5l-6 2-6 1q-8 0-13-5-4-5-4-13 0-9 4-14 5-5 12-5t11 5q3 4 4 11zm-6-2q0-4-3-6-2-3-6-3t-7 3q-3 3-3 6zm44-13-12 17 13 18h-6l-11-14-10 14h-6l13-18-12-17h6l9 13 10-13Zm23-10v10h13v4h-13v19l1 6 6 1h6v5h-7q-7 0-9-3-3-2-3-9v-19h-9v-4h9v-10z" aria-label="BuildContext"/><path fill="#ffb86c" d="M1298 700q-2 2-5 2l-5 1q-7 0-11-4-3-3-3-10l1-9 5-8 6-4 8-2 5 1 5 2-1 6-4-3-5-1-6 1q-3 2-4 5l-3 5-1 7q0 5 2 7t6 2l6-1 5-3Zm31-29q-5 0-8 5-4 6-4 14 0 4 2 6t5 2q5 0 9-5 3-6 3-14 0-4-2-6-1-2-5-2zm1-5q6 0 9 4 3 3 3 9l-1 9-4 8q-2 3-6 5-3 2-8 2-6 0-9-3-3-4-3-10l1-9 4-7q2-4 6-6 3-2 8-2zm50 14-5 22h-5l4-22v-4l-1-3-4-2q-4 0-7 3t-4 8l-4 20h-5l6-35h6l-1 5 5-4 6-2q4 0 7 2 2 3 2 7v5zm28-23-1 10h13l-1 4h-13l-4 19v4l1 3h11l-1 5h-7q-5 0-8-2-2-1-2-5v-5l4-19h-9v-4h10l2-10zm44 24 1-1v-1q0-4-2-6t-6-2q-4 0-7 3l-5 7zm1 19-6 2-7 1q-7 0-10-4-4-3-4-10 0-5 2-9l5-8 6-4 6-2q6 0 10 4 3 3 3 9v7h-26v3q0 4 2 7 3 2 7 2l6-1 7-2Zm46-33-16 17 10 18h-6l-8-14-13 14h-7l18-19-9-16h6l7 12 11-12Zm25-10-2 10h13l-1 4h-13l-3 19-1 2v2l1 3h11l-1 5h-7q-5 0-7-2-3-1-3-5v-2l1-3 4-19h-10l1-4h9l2-10z" aria-label="context" font-style="italic"/><path fill="#f6f6f4" d="M1548 650h5l8 15 2 14-2 14-8 14h-5q5-7 7-14l2-14-2-14q-2-8-7-15zm99 54v4h-2q-8 0-11-2-2-3-2-9v-7l-2-6q-2-2-6-2h-4v-4h4q4 0 6-3 2-2 2-6v-8q0-7 2-9 3-2 11-2h2v4h-2l-6 1-1 6v9q0 5-2 7l-9 3q6 0 8 3 3 2 3 7v6l1 6q1 2 6 2z" aria-label=") {"/><path fill="#666" d="M49 774h10v-36l-12 6v-6l12-5h6v41h10v5H49zm49-42q8 0 12 6 3 6 3 18t-3 18q-4 6-12 6-7 0-11-6t-4-18q0-12 4-18t11-6zm0 43q5 0 7-5t2-14v-10l-15 24q2 5 6 5zm0-38q-4 0-6 4-2 5-2 15v8l15-23q-3-4-7-4z" aria-label="10"/><path fill="#f286c4" d="m384 751-4-2-4-1q-6 0-8 4-3 3-3 10v17h-6v-35h6v7q1-4 4-6t7-2l4 1 4 1zm37 8v2h-25v1q0 7 3 10t8 3l6-1 7-2v5l-7 2-6 1q-8 0-12-5-5-5-5-13 0-9 5-14 4-5 12-5 6 0 10 5 4 4 4 11zm-6-2q0-4-2-6-2-3-7-3-4 0-7 3l-3 6zm29-23v10h13v4h-13v19l1 6 5 1h7v5h-7q-7 0-9-3-3-2-3-9v-19h-9v-4h9v-10zm25 32v-22h6v22q0 4 2 7 1 2 5 2t6-3q2-3 2-8v-20h6v35h-6v-5q-1 3-4 4l-6 2q-5 0-8-4-3-3-3-10zm69-15-4-2-4-1q-5 0-8 4-3 3-3 10v17h-6v-35h6v7q1-4 4-6t7-2l4 1 4 1zm35 6v22h-6v-22l-1-7q-2-2-5-2-5 0-7 3t-2 8v20h-6v-35h6v5l4-4q3-2 7-2 5 0 7 4 3 3 3 10z" aria-label="return"/><path fill="#97e1f1" d="M617 733h9l8 23 8-23h9v46h-6v-41l-9 24h-4l-9-24v41h-6Zm60 28h-2q-5 0-8 2-2 2-2 5 0 4 2 5 2 2 5 2 5 0 7-3 3-3 3-9v-2zm11-2v20h-6v-5l-4 4q-3 2-7 2-6 0-9-3t-3-8q0-6 4-9t11-3h8v-1q0-4-2-6t-7-2l-6 1-5 2v-5l6-2 5-1 8 1 5 4 1 4 1 7zm25-25v10h13v4h-13v19l1 6 5 1h7v5h-7q-7 0-9-3-3-2-3-9v-19h-9v-4h9v-10zm54 25v2h-25v1q0 7 3 10t8 3l6-1 6-2v5l-6 2-6 1q-8 0-13-5-4-5-4-13 0-9 4-14 5-5 12-5t11 5q4 4 4 11zm-6-2q0-4-2-6-3-3-7-3t-7 3l-3 6zm46-6-4-2-4-1q-6 0-9 4-2 3-2 10v17h-6v-35h6v7q1-4 4-6t7-2l4 1 4 1zm12-7h15v31h11v4h-29v-4h12v-26h-9zm9-13h6v7h-6zm41 30h-1q-5 0-8 2t-3 5q0 4 2 5 2 2 6 2t7-3q3-3 3-9v-2zm12-2v20h-6v-5q-2 3-5 4-3 2-7 2-5 0-8-3t-3-8q0-6 4-9t11-3h8v-1q0-4-2-6t-7-2l-6 1-6 2v-5l6-2 6-1 7 1 5 4 2 4 1 7zm28 7 1 6q1 2 4 2h7v5h-7q-6 0-8-3-3-4-3-10v-31h-9v-5h15zm35-28-7 24h14zm-4-6h8l14 47h-7l-3-12h-16l-4 12h-6zm35 43v17h-6v-48h6v4l4-3q2-2 5-2 7 0 10 5 4 5 4 14 0 8-4 13-3 5-10 5l-5-1-4-4zm17-13q0-7-2-11-2-3-7-3-4 0-6 3-2 4-2 11 0 6 2 10 2 3 6 3 5 0 7-3 2-4 2-10zm21 13v17h-5v-48h5v4l4-3 6-2q6 0 10 5 3 5 3 14 0 8-3 13-4 5-10 5l-6-1-4-4zm17-13q0-7-2-11-2-3-6-3t-6 3q-3 4-3 11 0 6 3 10 2 3 6 3t6-3q2-4 2-10z" aria-label="MaterialApp"/><path fill="#f6f6f4" d="M1065 727q-4 7-6 15l-2 14 2 14 6 14h-5l-7-14-2-14 2-14 7-15z" aria-label="("/><path fill="#666" d="M45 851h10l7-36-11 2 1-5 11-3h7l-8 42h9l-1 5H44Zm39 0h10l7-36-11 2 1-5 11-3h6l-8 42h10l-1 5H83Z" aria-label="11" font-style="italic"/><path fill="#ffb86c" d="m458 834-4 22h-6l4-22 1-4q0-2-2-3-1-2-4-2-4 0-7 3l-3 8-4 20h-6l10-49h5l-3 19q2-3 5-4 2-2 6-2t6 2q3 3 3 7l-1 2v3zm27-9q-5 0-9 5-3 6-3 14l1 6q2 2 6 2 5 0 8-5 4-6 4-14 0-4-2-6t-5-2zm0-5q6 0 10 4 3 3 3 9 0 5-2 9l-3 8-6 5-8 2q-6 0-9-3-3-4-3-10l1-9q1-4 4-7 2-4 5-6l8-2zm40 5 3-4 4-1q3 0 5 2l1 4v4l-1 6-4 20h-5l4-20 1-5v-2l-1-3-2-1-4 2-2 9-4 20h-6l4-20 1-5v-5l-3-1q-2 0-3 2l-3 9-4 20h-5l7-35h5l-1 3 4-3 3-1 4 1 2 4zm44 10 1-1v-1q0-4-2-6t-6-2q-4 0-7 3l-5 7zm1 19-6 2-7 1q-7 0-10-4-4-3-4-10 0-5 2-9l5-8 6-4 6-2q6 0 10 4 3 3 3 9v7h-26v3q0 4 2 7 3 2 7 2l6-1 7-2Z" aria-label="home" font-style="italic"/><path fill="#f286c4" d="M591 821h10v11h-10zm0 24h10v11h-10z" aria-label=":"/><path fill="#97e1f1" d="M686 811v6l-5-2-6-1q-5 0-7 2-3 2-3 5t2 5l6 3 3 1q7 1 10 4 3 4 3 9 0 7-4 10-4 4-12 4l-7-1-6-2v-7l6 4 7 1q5 0 7-2 3-2 3-6t-2-6l-6-3h-4q-6-2-9-5t-3-8q0-6 4-10 4-3 11-3h6l6 2zm40 43-4 2-5 1q-8 0-13-5t-5-13q0-9 5-14t13-5l5 1 4 2v6l-4-3-5-1q-6 0-9 4-3 3-3 10 0 6 3 10 3 3 9 3l5-1 4-3zm28-16h-2q-5 0-8 2-2 2-2 5 0 4 2 5 2 2 5 2 5 0 7-3 3-3 3-9v-2zm11-2v20h-6v-5q-2 3-5 4-2 2-6 2-6 0-9-3t-3-8q0-6 4-9t11-3h8v-1q0-4-2-6t-7-2l-6 1-5 2v-5l6-2 5-1 8 1 5 4 1 4 1 7zm39-29v5h-7l-4 1-1 5v3h12v4h-12v31h-6v-31h-10v-4h10v-2q0-6 2-9 3-3 9-3zm38 0v5h-6l-5 1-1 5v3h12v4h-12v31h-6v-31h-9v-4h9v-2q0-6 3-9t8-3zm25 18q-5 0-7 3-2 4-2 11 0 6 2 10 2 3 7 3 4 0 6-3 3-4 3-10 0-7-3-11-2-3-6-3zm0-5q7 0 11 5t4 14q0 9-4 13-4 5-11 5-8 0-11-5-4-4-4-13t4-14q3-5 11-5zm41 23q0 4 2 6 1 2 4 2h7v5h-8q-5 0-8-3-2-4-2-10v-31h-10v-5h15zm43-18v-18h6v49h-6v-4l-4 4-5 1q-6 0-10-5t-4-14q0-8 4-13t10-5q3 0 5 2l4 3zm-17 14q0 6 2 10 3 3 7 3t6-3q2-4 2-10 0-7-2-11-2-3-6-3t-7 3q-2 4-2 11z" aria-label="Scaffold"/><path fill="#f6f6f4" d="M989 804q-5 7-7 15l-2 14 2 14q2 7 7 14h-5q-5-7-7-14-3-7-3-14t3-14q2-7 7-15z" aria-label="("/><path fill="#666" d="M45 928h10l7-36-11 2 1-5 11-3h7l-8 42h9l-1 5H44Zm42 0h22l-1 5H79l1-5 10-9 1-1q17-15 17-21 0-3-2-5l-6-1-6 1-7 3 1-6 7-3h6q6 0 10 3 3 3 3 7l-1 6-3 6-4 4-9 7z" aria-label="12" font-style="italic"/><path fill="#ffb86c" d="m523 915-6 1h-3l-3 3-2 4q0 3 2 5l4 1q5 0 8-3 4-4 5-9v-2Zm11-2-3 20h-6l1-5q-2 3-6 4l-6 2q-5 0-8-3-3-2-3-7 0-6 5-9 5-4 13-4h8v-2l1-1q0-3-2-5l-6-1-6 1-6 2 1-5 6-2 6-1q6 0 9 3 3 2 3 7v2l-1 4zm15 16-4 17h-5l9-48h6l-1 4 5-3q2-2 5-2 5 0 8 3 3 4 3 10l-1 8q-1 5-4 8-2 4-5 6t-7 2l-6-1-3-4zm9 0 4-1 4-4 2-7 1-7q0-4-2-6-1-2-4-2l-5 1-4 5-2 6-1 7q0 4 2 6 1 2 5 2zm29 0-3 17h-6l10-48h5l-1 4 5-3 6-2q5 0 8 3 3 4 3 10l-2 8-3 8q-2 4-6 6-3 2-7 2l-5-1-4-4zm9 0 5-1 3-4 3-7v-7l-1-6q-2-2-5-2l-5 1-3 5-3 6-1 7q0 4 2 6t5 2zm32-18-3 17h8q5 0 8-3t3-8q0-3-2-5l-6-1zm4-19-3 14h8q4 0 7-3 3-2 3-6 0-3-2-4l-5-1zm-5-6h13q7 0 10 3 3 2 3 7t-3 8q-2 3-7 4l6 3q2 3 2 7 0 7-5 11t-14 4h-14zm50 29-6 1h-3l-3 3-1 4 1 5 5 1q4 0 8-3 3-4 4-9v-2zm12-2-4 20h-6l1-5q-2 3-5 4-3 2-7 2-5 0-8-3-2-2-2-7 0-6 4-9 5-4 13-4h8l1-2v-1q0-3-2-5l-6-1-6 1-6 2 1-5 6-2 6-1q6 0 9 3 3 2 3 7v6zm42-8-3-2-5-1q-5 0-8 4-4 4-5 10l-4 17h-5l6-35h6l-1 7q2-4 5-6l8-2 4 1 3 1z" aria-label="appBar" font-style="italic"/><path fill="#f286c4" d="M745 898h10v11h-10zm0 24h10v11h-10z" aria-label=":"/><path fill="#97e1f1" d="m828 892-7 24h13zm-4-6h7l15 47h-7l-3-12h-17l-3 12h-7Zm35 43v17h-6v-48h6v4l3-3 6-2q6 0 10 5 3 5 3 14 0 8-3 13-4 5-10 5l-6-1-3-4zm16-13q0-7-2-11-2-3-6-3t-6 3q-2 4-2 11 0 6 2 10 2 3 6 3t6-3q2-4 2-10zm22 13v17h-6v-48h6v4l4-3q2-2 5-2 7 0 10 5 4 5 4 14 0 8-4 13-3 5-10 5l-5-1-4-4zm17-13q0-7-2-11-2-3-6-3-5 0-7 3-2 4-2 11 0 6 2 10 2 3 7 3 4 0 6-3 2-4 2-10zm21-7v19h8q5 0 8-2 2-2 2-6 0-6-2-8-3-3-8-3zm0-17v12h8l6-1q2-2 2-5t-2-5l-6-1zm-6-6h14q7 0 11 3 4 4 4 9l-2 6-6 3q4 0 7 4 2 3 2 9 0 7-4 10t-12 3h-14zm55 29h-2q-5 0-7 2-3 2-3 5 0 4 2 5 2 2 5 2 5 0 8-3t3-9v-2zm11-2v20h-5v-5q-2 3-5 4-3 2-7 2-5 0-8-3t-3-8q0-6 3-9 4-3 12-3h8v-1q0-4-2-6-3-2-7-2l-6 1-6 2v-5l6-2 6-1 7 1 5 4 2 4v7zm42-8-4-2-4-1q-5 0-8 4-3 3-3 10v17h-6v-35h6v7q1-4 4-6t8-2l3 1 4 1z" aria-label="AppBar"/><path fill="#f6f6f4" d="M1065 881q-4 7-6 15l-2 14 2 14 6 14h-5l-7-14-2-14 2-14 7-15z" aria-label="("/><path fill="#666" d="M45 1005h10l7-36-11 2 1-5 11-3h7l-8 42h9l-1 5H44Zm58-20 5 3q2 3 2 7 0 7-5 11-5 5-14 5l-6-1-6-1 1-7 6 3 6 1q5 0 9-3 3-3 3-8 0-4-2-5-2-2-7-2h-4l1-6h5q4 0 7-2t3-6q0-3-2-5l-6-1h-5l-7 2 1-5 7-2h6q6 0 9 2 4 3 4 8t-3 8q-3 3-8 4z" aria-label="13" font-style="italic"/><path fill="#ffb86c" d="m602 965-2 10h13l-1 4h-13l-4 19v4l1 3h11l-1 5h-7q-5 0-7-2-3-1-3-5v-2l1-3 3-19h-9l1-4h9l2-10zm26 10h14l-6 31h12l-1 4h-29l1-4h12l5-27h-9zm11-14h6l-1 8h-6zm40 4-2 10h13l-1 4h-13l-3 19-1 2v2l1 3h11l-1 5h-7q-5 0-7-2-3-1-3-5v-2l1-3 3-19h-9l1-4h9l2-10zm33 32v4l1 3 5 1h6l-1 5h-6q-6 0-8-2-3-2-3-6v-2l1-3 6-31h-10l1-5h16zm49-8 1-1v-1q0-4-2-6t-6-2q-4 0-7 3l-5 7zm1 19-6 2-7 1q-7 0-10-4-4-3-4-10 0-5 2-9l5-8 6-4q3-2 7-2 5 0 9 4 3 3 3 9v7h-26v3q0 4 2 7 3 2 7 2l6-1 7-2Z" aria-label="title" font-style="italic"/><path fill="#f286c4" d="M783 975h10v11h-10zm0 24h10v11h-10z" aria-label=":"/><path fill="#f286c4" d="M880 1008q-2 2-5 2l-5 1q-8 0-13-5-4-5-4-13 0-9 4-14 5-5 13-5l5 1 5 2v6l-5-3-5-1q-5 0-8 4-3 3-3 10 0 6 3 10 3 3 8 3l5-1 5-3zm24-29q-4 0-6 3-2 4-2 11 0 6 2 10 2 3 6 3 5 0 7-3 2-4 2-10 0-7-2-11-2-3-7-3zm0-5q8 0 12 5 3 5 3 14t-3 13q-4 5-12 5-7 0-11-5-4-4-4-13t4-14q4-5 11-5zm53 14v22h-6v-22q0-4-2-7-2-2-5-2-4 0-6 3t-2 8v20h-6v-35h6v5q1-3 4-4 2-2 6-2 5 0 8 4 3 3 3 10zm36-12v6l-5-2-5-1-6 1-2 4 1 4 7 2h3q4 1 6 4 2 2 2 6 0 5-3 8-4 3-10 3l-6-1-6-1v-6l6 2 6 1 6-1q2-2 2-5 0-4-8-5l-2-1-8-3q-2-2-2-6 0-5 3-8 4-3 10-3l6 1 5 1zm27-11v10h13v4h-13v19l1 6 6 1h6v5h-7q-6 0-9-3-3-2-3-9v-19h-9v-4h9v-10z" aria-label="const"/><path fill="#97e1f1" d="M1078 963h36v6h-15v41h-6v-41h-15Zm73 27v2h-25v1q-1 7 2 10t9 3l6-1 6-2v5l-6 2-6 1q-8 0-13-5t-5-13q0-9 5-14 4-5 12-5 7 0 10 5 4 4 5 11zm-6-2-3-6q-2-3-6-3-5 0-7 3-3 3-3 6zm44-13-13 17 14 18h-6l-11-14-10 14h-7l14-18-12-17h6l9 13 10-13Zm23-10v10h13v4h-13v19l1 6 5 1h7v5h-7q-7 0-9-3-3-2-3-9v-19h-9v-4h9v-10z" aria-label="Text"/><path fill="#f6f6f4" d="M1257 958q-4 7-6 15l-2 14 2 14 6 14h-5l-7-14-2-14 2-14 7-15z" aria-label="("/><path fill="#e7ee98" d="M1292 961v20h-7v-20Zm22 2h27v6h-21v12h20v6h-20v18h22v5h-28Zm67 12-13 17 14 18h-7l-10-14-10 14h-7l14-18-12-17h6l9 13 9-13Zm25 17h-1q-6 0-8 2-3 2-3 5 0 4 2 5 2 2 6 2t7-3q3-3 3-9v-2zm12-2v20h-6v-5q-2 3-5 4-3 2-7 2-5 0-8-3t-3-8q0-6 4-9 3-3 11-3h8v-1q0-4-2-6t-7-2l-6 1-6 2v-5l6-2 6-1 7 1 5 4 2 4 1 7zm26-11 3-4 4-1q4 0 6 3l1 13v20h-5v-20l-1-9q0-2-3-2-2 0-3 2l-1 9v20h-5v-20l-1-9q-1-2-3-2-3 0-3 2l-1 9v20h-6v-35h6v3l2-3 4-1 4 1 2 4zm29 27v17h-6v-48h6v4l4-3q2-2 6-2 6 0 10 5 3 5 3 14 0 8-3 13-4 5-10 5l-6-1-4-4zm17-13q0-7-2-11-2-3-6-3t-7 3q-2 4-2 11 0 6 2 10 3 3 7 3t6-3q2-4 2-10zm33 4 1 6q1 2 4 2h7v5h-7q-6 0-8-3-3-4-3-10v-31h-9v-5h15zm51-7v2h-25v1q-1 7 2 10t9 3l6-1 6-2v5l-6 2-6 1q-8 0-13-5t-5-13q0-9 5-14 4-5 12-5 7 0 10 5 4 4 5 11zm-6-2-3-6q-2-3-6-3t-7 3q-3 3-3 6zm27-27h8v7l-7 12h-4l3-12z" aria-label="'Example’"/><path fill="#f6f6f4" d="M1625 958h5q5 8 7 15 3 7 3 14t-3 14q-2 7-7 14h-5l6-14 2-14-2-14q-2-8-6-15zm42 41h9v8l-6 13-7 1 4-14z" aria-label="),"/><path fill="#666" d="M45 1082h10l7-36-11 2 1-5 11-3h7l-8 42h9l-1 5H44Zm60-35-19 24h15zm1-7h7l-6 31h6l-1 5h-6l-2 11h-6l2-11H80l1-6z" aria-label="14" font-style="italic"/><path fill="#ffb86c" d="m597 1074-1 2v2q0 2 2 3l4 1h7l-1 5h-7q-5 0-8-2t-3-6l1-2v-3l7-31h-10l1-5h15Zm49-8v-2q0-4-2-6t-6-2q-3 0-7 3-3 3-4 7zm1 19-7 2-6 1q-7 0-11-4-3-3-3-10l1-9q2-5 6-8 2-3 5-4l7-2q6 0 9 4 4 3 4 9v3l-1 4h-25v2l-1 1q0 4 3 7 2 2 7 2l6-1 7-2Zm30-16-6 1h-3l-3 3-2 4q0 3 2 5l4 1q5 0 8-3 4-4 5-9v-2zm11-2-4 20h-5l1-5-6 4-6 2q-5 0-8-3-3-2-3-7 0-6 5-9 5-4 13-4h8v-3q0-3-2-5l-5-1-6 1-7 2 2-5 6-2 6-1q6 0 9 3 3 2 3 7v2l-1 4zm27-11-5 1-3 4-3 7-1 7q0 4 2 6t5 2l5-1 3-5 3-6v-7l-1-6q-2-2-5-2zm8 0 4-18h6l-10 49h-5v-4l-4 4-6 1q-5 0-8-3-3-4-3-10l2-8 3-8q2-4 5-6l8-2q3 0 5 2l3 3zm20-4h15l-6 31h11v4h-29l1-4h11l5-27h-9zm12-14h6l-2 8h-6zm49 27-4 22h-6l4-22h1v-4l-1-3q-2-2-5-2-4 0-6 3-3 3-4 8l-4 20h-6l7-35h6l-1 5q2-3 5-4l6-2q4 0 6 2 3 3 3 7v2l-1 3zm21 17 5-1 3-4 3-6v-7l-1-6q-2-2-5-2-5 0-8 5-4 6-4 14 0 3 2 5t5 2zm14 3q-2 8-6 12t-12 4l-5-1-5-1 1-6q2 2 5 2l5 1q5 0 7-2 3-3 4-9l1-3-5 4-6 1q-5 0-8-3t-3-9q0-5 2-9l3-7q2-4 6-6l6-2q4 0 6 2l3 4 1-5h6z" aria-label="leading" font-style="italic"/><path fill="#f286c4" d="M860 1052h10v11h-10zm0 24h10v11h-10z" aria-label=":"/><path fill="#97e1f1" d="M930 1040h26v6h-10v36h10v5h-26v-5h10v-36h-10Zm65 45q-2 2-5 2l-5 1q-8 0-12-5-5-5-5-13 0-9 5-14 4-5 12-5l5 1q3 0 5 2v6l-4-3-6-1q-5 0-8 4-3 3-3 10 0 6 3 10 3 3 8 3l6-1 4-3zm25-29q-5 0-7 3-2 4-2 11 0 6 2 10 2 3 7 3 4 0 6-3 3-4 3-10 0-7-3-11-2-3-6-3zm0-5q7 0 11 5t4 14q0 9-4 13-4 5-11 5-8 0-11-5-4-4-4-13t4-14q3-5 11-5zm52 14v22h-6v-22q0-4-2-7-1-2-5-2t-6 3q-2 3-2 8v20h-6v-35h6v5q1-3 4-4l6-2q6 0 8 4 3 3 3 10zm17-2v19h8q5 0 7-2 3-2 3-6 0-6-3-8-2-3-7-3zm0-17v12h7l7-1q2-2 2-5t-2-5l-7-1zm-6-6h14q7 0 11 3 3 4 3 9l-2 6-6 3q5 0 7 4 3 3 3 9 0 7-4 10t-12 3h-14zm39 34v-22h6v22q0 4 2 7 1 2 5 2t6-3q2-3 2-8v-20h6v35h-6v-5q-1 3-4 4l-6 2q-6 0-8-4-3-3-3-10Zm52-32v10h13v4h-13v19l1 6 5 1h7v5h-7q-7 0-9-3-3-2-3-9v-19h-9v-4h9v-10zm38 0v10h13v4h-13v19q0 4 2 6l5 1h6v5h-7q-6 0-9-3-2-2-2-9v-19h-10v-4h10v-10zm39 14q-4 0-7 3-2 4-2 11 0 6 2 10 3 3 7 3t7-3q2-4 2-10 0-7-2-11-3-3-7-3zm0-5q7 0 11 5t4 14q0 9-4 13-4 5-11 5t-11-5q-4-4-4-13t4-14q4-5 11-5zm52 14v22h-6v-22l-1-7q-2-2-6-2t-6 3q-2 3-2 8v20h-6v-35h6v5l4-4 6-2q6 0 8 4 3 3 3 10z" aria-label="IconButton"/><path fill="#f6f6f4" d="M1334 1035q-4 7-6 15l-2 14 2 14 6 14h-5q-5-7-7-14l-2-14 2-14q2-7 7-15z" aria-label="("/><path fill="#666" d="M45 1159h10l7-36-11 2 1-5 11-3h7l-8 42h9l-1 5H44Zm45-42h24l-1 6H95l-2 11 2-1h3q6 0 10 4 3 3 3 9l-1 8-5 6-6 4-8 1-7-1-5-1 2-6 5 2 6 1q5 0 9-4t4-9q0-4-3-6-2-3-6-3l-6 1-4 2z" aria-label="15" font-style="italic"/><path fill="#ffb86c" d="M666 1129h15l-6 31h11l-1 4h-28l1-4h11l5-27h-9zm12-14h5l-1 8h-6zm45 47-5 2-6 1q-7 0-10-4-4-3-4-10 0-5 2-9 1-5 4-8t7-4q3-2 7-2l6 1 5 2-1 6-5-3-4-1-7 1-4 5-3 5-1 7q0 5 2 7t7 2l5-1 6-3zm31-29q-6 0-9 5-3 6-3 14l1 6q2 2 6 2 5 0 8-5 4-6 4-14 0-4-2-6t-5-2zm0-5q6 0 9 4 4 3 4 9 0 5-2 9l-3 8-6 5-8 2q-6 0-9-3-4-4-4-10l2-9 3-7 6-6 8-2zm50 14-4 22h-6l4-22 1-4q0-2-2-3-1-2-4-2-4 0-7 3l-3 8-4 20h-6l7-35h6l-1 5q2-3 5-4 2-2 5-2 5 0 7 2 3 3 3 7l-1 2v3z" aria-label="icon" font-style="italic"/><path fill="#f286c4" d="M822 1129h9v11h-9zm0 24h9v11h-9z" aria-label=":"/><path fill="#f286c4" d="M918 1162q-2 2-5 2l-5 1q-8 0-12-5-5-5-5-13 0-9 5-14 4-5 12-5l5 1q3 0 5 2v6l-4-3-6-1q-5 0-8 4-3 3-3 10 0 6 3 10 3 3 8 3l6-1 4-3zm25-29q-5 0-7 3-2 4-2 11 0 6 2 10 2 3 7 3 4 0 6-3 3-4 3-10 0-7-3-11-2-3-6-3zm0-5q7 0 11 5t4 14q0 9-4 13-4 5-11 5t-11-5q-4-4-4-13t4-14q4-5 11-5zm52 14v22h-6v-22l-1-7q-2-2-6-2t-6 3q-2 3-2 8v20h-6v-35h6v5q1-3 4-4l6-2q6 0 8 4 3 3 3 10zm36-12v6q-2-2-5-2l-5-1-6 1-2 4 2 4 7 2h2q4 1 7 4 2 2 2 6 0 5-4 8t-10 3l-6-1-6-1v-6l6 2 6 1 6-1q2-2 2-5 0-4-8-5l-2-1q-5-1-7-3-3-2-3-6 0-5 4-8 3-3 10-3l5 1 5 1zm27-11v10h13v4h-13v19q0 4 2 6l5 1h6v5h-7q-6 0-9-3-2-2-2-9v-19h-10v-4h10v-10z" aria-label="const"/><path fill="#97e1f1" d="M1122 1117h26v6h-10v36h10v5h-26v-5h9v-36h-9Zm65 45q-2 2-5 2l-5 1q-8 0-12-5-5-5-5-13 0-9 5-14 4-5 12-5l5 1q3 0 5 2v6l-5-3-5-1q-5 0-8 4-3 3-3 10 0 6 3 10 3 3 8 3l6-1 4-3zm25-29q-5 0-7 3-2 4-2 11 0 6 2 10 2 3 7 3 4 0 6-3 3-4 3-10 0-7-3-11-2-3-6-3zm0-5q7 0 11 5t4 14q0 9-4 13-4 5-11 5-8 0-11-5-4-4-4-13t4-14q3-5 11-5zm52 14v22h-6v-22q0-4-2-7-1-2-5-2t-6 3q-2 3-2 8v20h-6v-35h6v5q1-3 4-4l6-2q6 0 8 4 3 3 3 10z" aria-label="Icon"/><path fill="#f6f6f4" d="M1296 1112q-5 7-7 15l-2 14 2 14q2 7 7 14h-5q-5-7-7-14-3-7-3-14t3-14q2-7 7-15z" aria-label="("/><path fill="#97e1f1" d="M1314 1117h25v6h-9v36h9v5h-25v-5h9v-36h-9Zm65 45q-2 2-5 2l-5 1q-8 0-13-5-4-5-4-13 0-9 4-14 5-5 13-5l5 1q3 0 5 2v6l-5-3-5-1q-5 0-8 4-3 3-3 10 0 6 3 10 3 3 8 3l6-1 4-3zm25-29q-5 0-7 3-2 4-2 11 0 6 2 10 2 3 7 3 4 0 6-3 3-4 3-10 0-7-3-11-2-3-6-3zm0-5q7 0 11 5t4 14q0 9-4 13-4 5-11 5-8 0-12-5-3-4-3-13t3-14q4-5 12-5zm52 14v22h-6v-22q0-4-2-7-1-2-5-2t-6 3q-2 3-2 8v20h-6v-35h6v5q1-3 4-4l6-2q5 0 8 4 3 3 3 10zm36-12v6l-5-2-5-1-6 1-2 4 1 4 8 2h2q4 1 6 4 3 2 3 6 0 5-4 8t-10 3l-6-1-6-1v-6l6 2 6 1 6-1q2-2 2-5 0-4-8-5l-2-1-8-3q-2-2-2-6 0-5 4-8 3-3 9-3l6 1 5 1z" aria-label="Icons"/><path fill="#f6f6f4" d="M1511 1151h11v13h-11zm48-18 3-4 4-1q4 0 5 3 2 4 2 13v20h-5v-20l-1-9q-1-2-3-2t-3 2l-1 9v20h-5v-20l-1-9q-1-2-4-2-2 0-3 2l-1 9v20h-5v-35h5v3l3-3 3-1 4 1 3 4zm52 11v2h-25v1q0 7 3 10t9 3l5-1 7-2v5l-7 2-6 1q-8 0-12-5-5-5-5-13 0-9 5-14 4-5 12-5 6 0 10 5 4 4 4 11zm-5-2-3-6q-2-3-7-3-4 0-6 3-3 3-3 6zm42 0v22h-6v-22q0-4-2-7-1-2-5-2t-6 3q-2 3-2 8v20h-6v-35h6v5q1-3 4-4 2-2 6-2 5 0 8 4 3 3 3 10zm11 9v-22h6v22q0 4 2 7 2 2 5 2 4 0 6-3t2-8v-20h6v35h-6v-5q-1 3-4 4-2 2-6 2-5 0-8-4-3-3-3-10z" aria-label=".menu"/><path fill="#f6f6f4" d="M1702 1112h5q5 8 7 15l2 14-2 14q-2 7-7 14h-5l6-14 2-14-2-14q-2-8-6-15zm41 41h10v8l-7 13-6 1 3-14z" aria-label="),"/><path fill="#666" d="M45 1236h10l7-36-11 2 1-5 11-3h7l-8 42h9l-1 5H44Zm61-14q0-3-2-5t-5-2q-5 0-8 4t-3 10q0 4 2 6t5 2q5 0 8-4t3-11zm8-27-1 6-4-2h-4q-6 0-10 4-4 5-6 14 2-4 5-5 3-2 7-2 5 0 8 3t3 9l-1 8-3 6-6 4q-3 2-7 2-6 0-10-4-3-3-3-10l1-11 4-10q3-7 7-10 5-3 12-3h4l4 1z" aria-label="16" font-style="italic"/><path fill="#ffb86c" d="M676 1210q-5 0-8 5-3 6-3 14l1 6q2 2 6 2 5 0 8-5 3-6 3-14l-1-6q-2-2-6-2zm1-5q6 0 9 4 4 3 4 9 0 5-2 9l-3 8-6 5-8 2q-6 0-9-3-4-4-4-10l2-9 3-7 6-6 8-2zm50 14-4 22h-6l4-22 1-4q0-2-2-3-1-2-4-2-4 0-7 3l-4 8-3 20h-6l7-35h5l-1 5 6-4q2-2 5-2 5 0 7 2 3 3 3 7l-1 2v3zm21-19-4 17h8q5 0 8-3t3-8q0-3-2-5l-6-1zm-6-6h14q7 0 10 3t3 9q0 7-5 12-5 4-13 4h-8l-3 19h-7zm65 19-3-2-4-1q-5 0-9 4t-5 10l-3 17h-6l7-35h6l-2 7q2-4 6-6 3-2 7-2l4 1 3 1zm31 7v-2q0-4-2-6t-5-2q-4 0-7 3l-5 7zm1 19q-3 2-7 2l-6 1q-7 0-10-4-4-3-4-10 0-5 2-9l5-8 6-4 6-2q6 0 10 4 3 3 3 9v3l-1 4h-25v3q0 4 2 7 3 2 7 2l6-1 7-2Zm42-32-1 6q-2-2-5-2l-5-1q-4 0-6 2-3 1-3 4t7 5h1l2 1 6 3q2 1 2 4 0 6-5 9-4 4-12 4l-5-1-6-1 1-6 6 2 5 1q4 0 7-2t3-4q0-4-7-5l-2-1q-5-1-6-3-2-2-2-5 0-6 4-9t11-3l5 1 5 1zm39 0-2 6-4-2-5-1q-4 0-7 2-2 1-2 4t7 5h1l2 1 5 3q2 1 2 4 0 6-4 9-5 4-12 4l-6-1-5-1 1-6 5 2 6 1q4 0 7-2l2-4q0-4-6-5h-1l-2-1-6-3q-2-2-2-5 0-6 4-9t11-3l6 1 5 1zm34 13v-2q0-4-2-6t-6-2q-3 0-7 3-3 3-4 7zm0 19-6 2-6 1q-7 0-11-4-3-3-3-10l1-9q2-5 6-8 2-3 5-4 3-2 7-2 6 0 9 4 4 3 4 9l-1 3v4h-25l-1 2v1q0 4 3 7 2 2 7 2l6-1 7-2Zm30-29-4 1-4 4-2 7-1 7 1 6q2 2 5 2l5-1 4-5 2-6 1-7q0-4-2-6t-5-2zm9 0 3-18h6l-9 49h-6l1-4-5 4-6 1q-5 0-7-3-3-4-3-10l1-8 3-8 6-6q3-2 7-2 3 0 5 2l4 3z" aria-label="onPressed" font-style="italic"/><path fill="#f286c4" d="M1014 1206h9v11h-9zm0 24h9v11h-9z" aria-label=":"/><path fill="#f6f6f4" d="m1104 1189-7 15-2 14 2 14 7 14h-5q-5-7-7-14-3-7-3-14t3-14q2-7 7-15zm22 0h5q5 8 7 15 3 7 3 14t-3 14q-2 7-7 14h-5q5-7 7-14l2-14-2-14q-2-8-7-15zm99 54v4h-2q-8 0-11-2-2-3-2-9v-7l-2-6q-2-2-6-2h-4v-4h4q4 0 6-3 2-2 2-6v-8q0-7 2-9 3-2 11-2h2v4h-2l-6 1-1 6v9q0 5-3 7-2 2-8 3 6 0 8 3 3 2 3 7v6l1 6q1 2 6 2zm15 0q5 0 6-2l1-6v-6q0-5 2-7 3-3 9-3-7-1-9-3t-2-7v-9l-1-6-6-1h-2v-4h2q8 0 10 2 3 2 3 9v8q0 4 2 6 1 3 6 3h4v4h-4q-4 0-6 2l-2 6v7q0 6-3 9-2 2-10 2h-2v-4zm43-13h10v8l-7 13-6 1 3-14z" aria-label="() {},"/><path fill="#666" d="M49 1313h10v-36l-12 6v-6l12-5h6v41h10v5H49zm34-42h30v3l-17 44h-6l16-41H83Z" aria-label="17"/><path fill="#f6f6f4" d="M589 1266h5q5 8 7 15l2 14-2 14q-2 7-7 14h-5l6-14 2-14-2-14q-2-8-6-15zm41 41h10v8l-7 13-6 1 3-14z" aria-label="),"/><path fill="#666" d="M49 1390h10v-36l-12 6v-6l12-5h6v41h10v5H49zm49-17q-4 0-6 2-2 3-2 7t2 7q2 2 6 2 5 0 7-2 2-3 2-7t-2-7q-2-2-7-2zm-5-3q-4-1-6-4-3-2-3-6 0-6 4-9t10-3q7 0 11 3 3 3 3 9 0 4-2 6-2 3-6 4 5 1 7 4 3 4 3 8 0 7-4 10-5 4-12 4t-11-4q-4-3-4-9 0-5 3-9 2-3 7-4zm-2-10q0 4 2 6t5 2q4 0 6-2t2-6q0-4-2-6t-6-2q-3 0-5 2t-2 6z" aria-label="18"/><path fill="#f6f6f4" d="M512 1343h5q5 8 7 15l2 14-2 14q-2 7-7 14h-5l6-14 2-14-2-14q-2-8-6-15zm42 41h9v8l-7 13-6 1 4-14z" aria-label="),"/><path fill="#666" d="M45 1467h10l7-36-11 2 1-5 11-3h7l-8 42h9l-1 5H44Zm44-23q0 4 2 5 2 2 5 2 5 0 8-4t3-9q0-4-2-6-2-3-5-3-4 0-8 5-3 4-3 10zm-8 27 1-6 4 2 5 1q6 0 10-5 3-4 5-13l-5 5-6 1q-6 0-9-3t-3-9l1-7 4-6 5-5 7-1q7 0 10 3 3 4 3 11l-1 10-3 10q-3 7-8 11-5 3-11 3l-5-1-4-1Z" aria-label="19" font-style="italic"/><path fill="#ffb86c" d="m518 1468 5-1 3-4 3-7 1-7q0-4-2-6-1-2-5-2l-4 1q-3 2-4 5l-3 6v7l1 6q2 2 5 2zm-3-27 4-3 6-2q5 0 8 3 3 4 3 9l-1 9-4 8q-2 4-6 6-3 2-7 2l-5-1-3-4-1 4h-6l10-49h5zm46 0q-5 0-8 5-3 6-3 14l1 6q2 2 6 2 5 0 8-5 3-6 3-14l-1-6q-2-2-6-2zm1-5q6 0 9 4 4 3 4 9 0 5-2 9l-3 8-6 5-8 2q-6 0-9-3-4-4-4-10l2-9 3-7 6-6 8-2zm38 5-5 1-4 4-2 7-1 7q0 4 2 6 1 2 4 2l5-1 4-5 2-6 1-7q0-4-2-6-1-2-4-2zm8 0 4-18h5l-9 49h-6l1-4-5 4-5 1q-5 0-8-3-3-4-3-10l1-8q1-5 4-8 2-4 5-6t7-2l6 2 3 3zm33 20-5 9-6 11-4 3-6 1h-4v-4h4l4-2 4-5 1-3-7-34h6l6 27 15-27h6z" aria-label="body" font-style="italic"/><path fill="#f286c4" d="M668 1437h10v11h-10zm0 24h10v11h-10z" aria-label=":"/><path fill="#f286c4" d="m765 1470-5 2-5 1q-8 0-13-5-4-5-4-13 0-9 4-14 5-5 13-5l5 1 5 2v6l-5-3-5-1q-6 0-8 4-3 3-3 10 0 6 3 10 3 3 8 3l5-1 5-3zm24-29q-4 0-6 3-3 4-3 11 0 6 3 10 2 3 6 3 5 0 7-3 2-4 2-10 0-7-2-11-2-3-7-3zm0-5q8 0 11 5 4 5 4 14t-4 13q-3 5-11 5-7 0-11-5-4-4-4-13t4-14q4-5 11-5zm52 14v22h-5v-22q0-4-2-7-2-2-5-2-4 0-6 3-3 3-3 8v20h-5v-35h5v5q2-3 5-4 2-2 6-2 5 0 8 4 2 3 2 10zm37-12v6l-5-2-6-1-5 1-2 4 1 4 7 2h3q4 1 6 4 2 2 2 6 0 5-3 8-4 3-11 3l-5-1-6-1v-6l6 2 5 1 6-1q2-2 2-5 0-4-7-5l-3-1q-5-1-7-3t-2-6q0-5 3-8 4-3 10-3l5 1 6 1zm27-11v10h13v4h-13v19l1 6 5 1h7v5h-7q-7 0-9-3-3-2-3-9v-19h-9v-4h9v-10z" aria-label="const"/><path fill="#97e1f1" d="M995 1470q-2 2-5 2l-5 1q-9 0-14-6-5-7-5-18 0-12 5-18t14-6h5l5 2v7l-5-3-5-1q-6 0-9 4-3 5-3 15 0 9 3 14t9 5l5-1 5-3zm40-18v2h-25v1q0 7 3 10t9 3l5-1 7-2v5l-7 2-5 1q-9 0-13-5-5-5-5-13 0-9 5-14 4-5 12-5 6 0 10 5 4 4 4 11zm-5-2-3-6q-2-3-7-3-4 0-6 3-3 3-3 6zm42 0v22h-6v-22q0-4-2-7-1-2-5-2t-6 3q-2 3-2 8v20h-6v-35h6v5q1-3 4-4l6-2q5 0 8 4 3 3 3 10zm25-23v10h13v4h-13v19l1 6 5 1h7v5h-7q-7 0-9-3-3-2-3-9v-19h-9v-4h9v-10zm54 25v2h-25v1q0 7 3 10t8 3l6-1 6-2v5l-6 2-6 1q-8 0-13-5-4-5-4-13 0-9 4-14 5-5 12-5t11 5q4 4 4 11zm-6-2q0-4-2-6-3-3-7-3t-7 3l-3 6zm46-6-4-2-4-1q-6 0-9 4-2 3-2 10v17h-6v-35h6v7q1-4 4-6t7-2l4 1 4 1z" aria-label="Center"/><path fill="#f6f6f4" d="M1219 1420q-4 7-6 15l-2 14 2 14 6 14h-5q-5-7-7-14l-2-14 2-14q2-7 7-15z" aria-label="("/><path fill="#ffb86c" d="M1260 1470q-2 2-5 2l-5 1q-7 0-11-4-4-3-4-10 0-5 2-9l5-8q2-3 6-4 3-2 8-2l5 1 5 2-1 6-4-3-5-1-6 1-5 5-3 5-1 7q0 5 3 7 2 2 6 2l6-1 5-3Zm43-20-5 22h-5l4-22v-4l-1-3q-1-2-4-2-4 0-7 3t-4 8l-4 20h-5l9-49h6l-4 19 5-4 6-2q4 0 7 2 2 3 2 7v5zm16-13h14l-5 31h11l-1 4h-29l1-4h12l5-27h-9Zm11-14h6l-1 8h-6zm35 36v2l-1 2q0 2 2 3l4 1h7l-1 5h-7q-5 0-8-2-2-2-2-6v-5l7-31h-10l1-5h15zm41-18-5 1-3 4-3 7-1 7q0 4 2 6t5 2l5-1 3-5 3-6 1-7q0-4-2-6t-5-2zm8 0 4-18h6l-10 49h-5v-4l-4 4-6 1q-5 0-8-3-3-4-3-10l2-8 3-8q2-4 6-6 3-2 7-2 3 0 5 2l3 3z" aria-label="child" font-style="italic"/><path fill="#f286c4" d="M1436 1437h10v11h-10zm0 24h10v11h-10z" aria-label=":"/><path fill="#97e1f1" d="M1501 1425h35v6h-14v41h-7v-41h-14Zm72 27v2h-25v1q0 7 3 10t8 3l6-1 6-2v5l-6 2-6 1q-8 0-13-5-4-5-4-13 0-9 4-14 5-5 12-5t11 5q4 4 4 11zm-6-2q0-4-3-6-2-3-6-3t-7 3q-3 3-3 6zm44-13-12 17 13 18h-6l-10-14-11 14h-6l13-18-12-17h6l10 13 9-13Zm23-10v10h13v4h-13v19l1 6 6 1h6v5h-7q-6 0-9-3-3-2-3-9v-19h-9v-4h9v-10z" aria-label="Text"/><path fill="#f6f6f4" d="M1679 1420q-4 7-6 15l-2 14 2 14 6 14h-5l-7-14-2-14 2-14 7-15z" aria-label="("/><path fill="#e7ee98" d="M1714 1423v20h-7v-20Zm20 2h6v18h18v-18h6v47h-6v-23h-18v23h-6Zm69 27v2h-25v1q0 7 3 10t8 3l6-1 7-2v5l-7 2-6 1q-8 0-12-5-5-5-5-13 0-9 5-14 4-5 12-5 6 0 10 5 4 4 4 11zm-6-2q0-4-2-6-2-3-7-3-4 0-7 3l-2 6zm32 9q0 4 2 6 1 2 4 2h7v5h-8q-5 0-8-3-3-4-3-10v-31h-9v-5h15zm39 0 1 6 4 2h7v5h-7q-5 0-8-3-3-4-3-10v-31h-9v-5h15zm35-18q-4 0-7 3-2 4-2 11 0 6 2 10 3 3 7 3t7-3q2-4 2-10 0-7-2-11-3-3-7-3zm0-5q7 0 11 5t4 14q0 9-4 13-4 5-11 5t-11-5q-4-4-4-13t4-14q4-5 11-5zm65-11h28v6h-22v12h20v5h-20v24h-6Zm54 34 1 6 4 2h7v5h-7q-5 0-8-3-3-4-3-10v-31h-9v-5h15zm22 0v-22h6v22l1 7q2 2 6 2t6-3q2-3 2-8v-20h6v35h-6v-5l-4 4-6 2q-6 0-8-4-3-3-3-10Zm52-32v10h13v4h-13v19l1 6 5 1h7v5h-7q-7 0-9-3-3-2-3-9v-19h-9v-4h9v-10zm38 0v10h13v4h-13v19q0 4 2 6l5 1h6v5h-7q-6 0-9-3-3-2-3-9v-19h-9v-4h9v-10zm55 25v2h-25v1q-1 7 2 10t9 3l6-1 6-2v5l-6 2-6 1q-8 0-13-5t-5-13q0-9 5-14 4-5 12-5 7 0 10 5 4 4 5 11zm-6-2-3-6q-2-3-6-3-5 0-7 3-3 3-3 6zm45-6-4-2-4-1q-5 0-8 4-3 3-3 10v17h-6v-35h6v7q2-4 5-6t7-2l4 1 3 1zm20-19h6v21l-1 9h-5v-9Zm-1 39h8v8h-8zm45-41v20h-7v-20Z" aria-label="'Hello Flutter!'"/><path fill="#f6f6f4" d="M2316 1420h5q5 8 7 15 3 7 3 14t-3 14q-2 7-7 14h-5l6-14 2-14-2-14q-2-8-6-15zm39 0h5l7 15 2 14-2 14-7 14h-5l6-14 2-14-2-14q-2-8-6-15zm41 41h10v8l-7 13-6 1 3-14Z" aria-label=")),"/><path fill="#666" d="M52 1544h22v5H45v-5l11-11 6-7 4-6 1-5q0-4-2-6-3-2-7-2l-6 1-6 3v-6l6-3h6q7 0 11 3 4 4 4 10l-1 6q-1 3-5 6l-5 6-10 11zm46-42q8 0 12 6 3 6 3 18t-3 18q-4 6-12 6-7 0-11-6t-4-18q0-12 4-18t11-6zm0 43q5 0 7-5t2-14v-10l-15 24q2 5 6 5zm0-38q-4 0-6 4-2 5-2 15v8l15-23q-3-4-7-4z" aria-label="20"/><path fill="#f6f6f4" d="M435 1497h5q5 8 7 15 3 7 3 14t-3 14q-2 7-7 14h-5l6-14q3-7 3-14t-3-14q-2-8-6-15zm42 41h10v8l-7 13-7 1 4-14z" aria-label="),"/><path fill="#666" d="M52 1621h22v5H45v-5l11-11 6-7 4-6 1-5q0-4-2-6-3-2-7-2l-6 1-6 3v-6l6-3h6q7 0 11 3 4 4 4 10l-1 6q-1 3-5 6l-5 6-10 11zm36 0h9v-36l-11 6v-6l11-5h7v41h9v5H88z" aria-label="21"/><path fill="#f6f6f4" d="M359 1574h5l7 15 2 14-2 14-7 14h-5l6-14 2-14-2-14q-2-8-6-15zm41 41h10v8l-6 12h-7l3-12Zm0-24h9v11h-9z" aria-label=");"/><path fill="#666" d="M52 1698h22v5H45v-5l11-11 6-7 4-6 1-5q0-4-2-6-3-2-7-2l-6 1-6 3v-6l6-3h6q7 0 11 3 4 4 4 10l-1 6q-1 3-5 6l-5 6-10 11zm39 0h21v5H84v-5l10-11 6-7 4-6 1-5q0-4-2-6t-6-2l-6 1-7 3v-6l7-3h6q7 0 11 3 4 4 4 10l-2 6-4 6-5 6-10 11z" aria-label="22"/><path fill="#f6f6f4" d="M280 1705q4 0 6-2l1-6v-6q0-5 2-7 2-3 9-3-7-1-9-3t-2-7v-9l-1-6-6-1h-2v-4h2q8 0 10 2 3 2 3 9v8q0 4 2 6 1 3 6 3h3v4h-3q-4 0-6 2l-2 6v7q0 6-3 9-2 2-10 2h-2v-4z" aria-label="}"/><path fill="#666" d="M52 1775h22v5H45v-5l11-11 6-7 4-6 1-5q0-4-2-6-3-2-7-2l-6 1-6 3v-6l6-3h6q7 0 11 3 4 4 4 10l-1 6q-1 3-5 6l-5 6-10 11zm51-20q5 1 7 4 3 3 3 8 0 7-5 10-4 4-11 4l-7-1-7-1v-7l7 3 6 1q5 0 8-3 3-2 3-6 0-5-3-7t-8-2h-5v-6h5l7-1q2-2 2-6 0-3-2-5t-6-2h-6l-6 2v-5l7-2h5q7 0 11 3t4 9q0 4-2 6-3 3-7 4z" aria-label="23"/><path fill="#f6f6f4" d="M203 1782q5 0 6-2l1-6v-6q0-5 2-7 3-3 9-3-7-1-9-3t-2-7v-9l-1-6-6-1h-2v-4h2q8 0 10 2 3 2 3 9v8q0 4 2 6 1 3 6 3h4v4h-4q-4 0-6 2l-2 6v7q0 6-3 9-2 2-10 2h-2v-4z" aria-label="}"/></g></svg>