<svg xmlns="http://www.w3.org/2000/svg" xmlns:xlink="http://www.w3.org/1999/xlink" xml:space="preserve" overflow="hidden" viewBox="0 0 1277 240"><defs><path id="a" d="M2213 1938h1279v266H2213z"/></defs><defs><clipPath id="b"><use xlink:href="#a"/></clipPath><clipPath id="c"><use xlink:href="#a"/></clipPath></defs><g clip-path="url(#b)" transform="translate(-2215 -1941)"><g clip-path="url(#c)"><path fill="#262626" fill-rule="evenodd" d="M2215 1985.4a44.4 44.4 0 0 1 44.4-44.4h1188.2a44.4 44.4 0 0 1 44.4 44.4v151.2a44.4 44.4 0 0 1-44.4 44.4H2259.4a44.4 44.4 0 0 1-44.4-44.4z"/><path fill="#8be9fd" d="M2266.4 1983.9h23.8v4.6H2272v10.8h17.5v4.5H2272v15.6h18.8v4.6h-24.3Zm57.9 10.1-10.8 14.3 11.8 15.7h-5.7l-8.8-12-8.8 12h-5.7l11.8-15.7-10.7-14.4h5.4l8 10.9 8-10.9zm31.6 28.5q-2 1.1-4.1 1.7-2.1.6-4.3.6-7 0-11-4.2-3.9-4.2-3.9-11.6 0-7.4 4-11.6 3.9-4.2 10.9-4.2 2.1 0 4.2.6 2 .5 4.2 1.7v5.2q-2-1.8-4-2.5-2-.8-4.4-.8-4.7 0-7.2 3t-2.5 8.6q0 5.5 2.5 8.6 2.5 3 7.2 3 2.5 0 4.6-.8 2-.8 3.8-2.5zm23.9-9.4q0 3.4 1.2 5 1.2 1.7 3.6 1.7h5.8v4.2h-6.3q-4.4 0-6.8-2.8-2.4-2.9-2.4-8v-27.3h-8v-3.8h12.9zm19-.5V1994h5v18.6q0 4 1.4 6 1.5 1.9 4.5 1.9 3.5 0 5.3-2.5 1.9-2.4 1.9-7v-17h5v30h-5v-4.5q-1.4 2.6-3.6 4-2.3 1.3-5.3 1.3-4.7 0-7-3-2.2-3-2.2-9.2zm51-14.8v-15.6h4.9v41.8h-5v-3.8q-1.2 2.2-3.2 3.4-2 1.2-4.8 1.2-5.4 0-8.6-4.2-3-4.3-3-11.7 0-7.4 3-11.5 3.2-4.2 8.6-4.2 2.7 0 4.8 1.2 2 1.1 3.3 3.4zm-14.6 11.2q0 5.7 1.9 8.7 1.8 2.9 5.4 2.9 3.5 0 5.4-3 1.9-3 1.9-8.6 0-5.7-2-8.7-1.8-3-5.3-3-3.6 0-5.4 3-1.9 3-1.9 8.7zm54.7-2.5v2.4h-21.4v.2q-.2 6.1 2.3 8.8 2.6 2.7 7.3 2.7 2.4 0 5-.8 2.5-.7 5.4-2.2v4.9q-2.8 1.1-5.4 1.7-2.6.6-5 .6-7 0-11-4.2t-4-11.6q0-7.2 3.9-11.5t10.3-4.3q5.8 0 9 3.9 3.4 3.9 3.6 9.4zm-5-1.5q-.3-3-2.2-5.3-2-2.3-5.6-2.3-3.6 0-5.9 2.3-2.3 2.4-2.5 5.4zm35.2-19.7v5.5q-2.5-1.6-5-2.4-2.4-.8-5-.8-3.8 0-6 1.8t-2.2 4.8q0 2.6 1.4 4 1.5 1.4 5.5 2.4l2.8.6q5.7 1.3 8.2 4.2 2.6 2.8 2.6 7.6 0 5.8-3.5 8.8-3.6 3-10.3 3-2.9 0-5.7-.6-2.8-.6-5.7-1.8v-5.8q3 2 5.8 2.9 2.8.9 5.6.9 4 0 6.4-1.9 2.2-1.8 2.2-5.1 0-3-1.5-4.6-1.6-1.6-5.5-2.4l-2.9-.7q-5.6-1.3-8.1-3.8-2.5-2.6-2.5-6.9 0-5.3 3.6-8.6 3.6-3.2 9.6-3.2 2.3 0 4.8.5 2.6.5 5.4 1.6zm36 21.2v2.4h-21.4v.2q-.2 6.1 2.4 8.8 2.5 2.7 7.2 2.7 2.4 0 5-.8 2.5-.7 5.5-2.2v4.9q-2.9 1.1-5.5 1.7-2.6.6-5 .6-7 0-11-4.2t-4-11.6q0-7.2 4-11.5 3.8-4.3 10.2-4.3 5.8 0 9 3.9 3.4 3.9 3.6 9.4zm-5-1.5q-.2-3-2.2-5.3t-5.6-2.3q-3.6 0-5.9 2.3-2.3 2.4-2.5 5.4zm26.2-8q1-2 2.3-2.9 1.5-.9 3.4-.9 3.7 0 5.1 2.8 1.5 2.8 1.5 10.6v17.4h-4.5v-17.2q0-6.4-.7-8-.7-1.5-2.6-1.5-2.1 0-3 1.7-.7 1.6-.7 7.8v17.2h-4.5v-17.2q0-6.5-.8-8-.7-1.5-2.7-1.5t-2.8 1.7q-.7 1.6-.7 7.8v17.2h-4.5v-30h4.5v2.5q.9-1.6 2.2-2.4 1.3-.9 3-.9 2 0 3.4 1 1.4.9 2.1 2.8zm33.8 11.9h-1.6q-4.3 0-6.5 1.5t-2.2 4.5q0 2.7 1.6 4.2 1.7 1.5 4.6 1.5 4 0 6.4-2.8 2.3-2.8 2.3-7.8v-1.1zm9.6-2v17.1h-5v-4.5q-1.5 2.7-4 4-2.3 1.3-5.8 1.3-4.6 0-7.3-2.6-2.8-2.6-2.8-7 0-5 3.4-7.6 3.4-2.6 10-2.6h6.5v-.8q0-3.6-1.8-5.2t-5.7-1.6q-2.5 0-5.1.7-2.6.7-5 2.1v-5q2.7-1 5.2-1.5t4.9-.5q3.7 0 6.3 1.1 2.7 1.1 4.3 3.3 1 1.3 1.5 3.3.4 2 .4 6zm32.9-1.5v18.6h-5v-18.6q0-4-1.4-6t-4.4-2q-3.5 0-5.4 2.6-1.8 2.4-1.8 7v17h-5v-30h5v4.4q1.3-2.5 3.5-3.9 2.3-1.3 5.4-1.3 4.6 0 6.8 3 2.3 3 2.3 9.2zm21.4-20v8.5h11.2v3.9H2675v16.3q0 3.3 1.3 4.6 1.2 1.4 4.4 1.4h5.5v3.9h-6q-5.6 0-7.9-2.2-2.2-2.3-2.2-7.7v-16.3h-8v-3.9h8v-8.5zm25.1 8.6h12.7v26.2h9.8v3.8H2698v-3.8h9.8v-22.3h-7.7zm7.7-11.7h5v6.3h-5zm45.4 40.2q-2 1.1-4 1.7-2.2.6-4.4.6-7 0-11-4.2-3.8-4.2-3.8-11.6 0-7.4 3.9-11.6 4-4.2 11-4.2 2 0 4.2.6 2 .5 4.1 1.7v5.2q-2-1.8-4-2.5-1.9-.8-4.4-.8-4.6 0-7.1 3t-2.5 8.6q0 5.5 2.5 8.6 2.5 3 7.1 3 2.6 0 4.6-.8 2-.8 3.8-2.5zm30.8-27.5v4.8q-2.1-1.2-4.3-1.8-2.1-.7-4.4-.7-3.3 0-5 1.1-1.6 1.1-1.6 3.3 0 2 1.2 3t6.1 2l2 .4q3.7.7 5.6 2.7 1.9 2.1 1.9 5.5 0 4.5-3.2 7-3.1 2.5-8.8 2.5-2.2 0-4.6-.5-2.5-.5-5.3-1.4v-5.1q2.7 1.4 5.3 2.1 2.5.7 4.7.7 3.3 0 5.1-1.3 1.8-1.3 1.8-3.7 0-3.4-6.6-4.8h-.2l-1.8-.4q-4.3-.8-6.3-2.8-2-2-2-5.4 0-4.3 3-6.6 3-2.4 8.3-2.4 2.5 0 4.7.5 2.2.4 4.4 1.3z" aria-label="ExcludeSemantics" font-family="Menlo,Menlo_MSFontService,sans-serif" font-size="55"/><path fill="#f8f8f2" d="M2815.8 1979.6q-3.6 6.1-5.4 12.2-1.7 6-1.7 12.2 0 6.2 1.7 12.3 1.8 6 5.4 12.3h-4.3q-4-6.4-6-12.5-2-6-2-12t2-12.1q2-6 6-12.4z" aria-label="(" font-family="Menlo,Menlo_MSFontService,sans-serif" font-size="55"/><path fill="#ffb86c" d="M2352.8 2088.6q-2 1-4.2 1.6-2.2.6-4.6.6-6 0-9.1-3-3.1-3-3.1-9 0-4 1.4-7.8 1.5-3.9 4-6.5 2.4-2.7 5.4-4 3-1.3 6.6-1.3 2.4 0 4.6.6 2.2.6 4.3 1.7l-1 4.9q-1.7-1.6-3.6-2.3-1.9-.7-4.2-.7-3 0-5.2 1.2-2.3 1.2-3.9 3.6-1.5 2.2-2.4 5-.8 2.8-.8 5.6 0 3.9 1.8 5.9 1.9 1.9 5.5 1.9 2.6 0 5-.8 2.4-.9 4.6-2.6zm36.8-17.2-3.6 18.6h-5l3.6-18.7.1-.3q.4-2 .4-3 0-2.2-1.2-3.3-1.3-1.2-3.6-1.2-3.4 0-5.8 2.5t-3.3 7l-3.3 17h-5l8.2-41.8h5l-3.2 16.2q2-2.6 4.4-3.9 2.3-1.3 5-1.3 3.7 0 5.8 2 2 1.9 2 5.4l-.1 2.1-.4 2.7zm13.8-11.4h12.7l-5.1 26.2h9.8l-.8 3.8h-24.5l.7-3.8h9.8l4.4-22.4h-7.7zm10-11.8h5l-1.3 6.3h-5zm29.6 30.8-.2 1.7-.1 1.2q0 2 1.2 3t3.6 1h5.7l-.9 4.1h-5.5q-4.7 0-7-1.7-2.2-1.7-2.2-5.2l.1-1.9.4-2.3 5.7-27.1h-8.5l.8-3.9h13.4zm35.5-15.6q-2.4 0-4.2 1.2-1.8 1.1-3 3.5-1.3 2.4-2 5.5-.8 3-.8 6.1 0 3.5 1.4 5.2 1.3 1.7 4 1.7 2.3 0 4.2-1.2 1.8-1.2 3.1-3.6 1.3-2.3 2-5.4.8-3.1.8-6.2 0-3.2-1.4-5-1.5-1.8-4.1-1.8zm7.2.4 3-15.6h5l-8.1 41.8h-5l.7-3.8q-1.7 2.3-4 3.4-2.1 1.2-4.8 1.2-4.4 0-6.8-2.8-2.5-2.9-2.5-8 0-3.8 1.1-7.6 1.1-4 3-6.8 2-3.2 4.7-4.8 2.7-1.6 6-1.6 2.6 0 4.6 1.2 2 1.1 3 3.4z" aria-label="child" font-family="Menlo,Menlo_MSFontService,sans-serif" font-size="55" font-style="italic"/><path fill="#ff79c6" d="M2505.3 2060h8.3v9.6h-8.3zm0 20.2h8.3v9.8h-8.3z" aria-label=":" font-family="Menlo,Menlo_MSFontService,sans-serif" font-size="55"/><path fill="#8be9fd" d="M2569 2085.5q4.9 0 7.9-1.6 3-1.7 4.8-5.5 1.5-3 2.4-7.4 1-4.3 1-7.8 0-4.8-2.3-6.8-2.2-2-7.4-2h-3l-6 31.1Zm7-35.6q7.3 0 10.9 3.3 3.7 3.4 3.7 10.1 0 4.4-1.2 9-1.1 4.6-3 8.2-2.8 5.1-7 7.3t-11.3 2.2h-8.1l7.8-40.1Zm42.5 22.4.2-1.2v-.9q0-3.2-1.7-5-1.7-1.8-4.8-1.8-3.3 0-6 2.4-2.8 2.4-4 6.5zm.6 16.2q-2.8 1.1-5.5 1.7-2.7.6-5.4.6-6 0-9.1-3-3.1-3-3.1-8.8 0-4.1 1.6-8.2 1.6-4 4.4-7 2.3-2.2 5-3.4 2.7-1.3 5.6-1.3 5 0 8 3.1 3 3 3 8.2l-.2 2.3-.4 3.4h-21.7l-.2 1.6-.1 1.2q0 3.8 2 5.7 2.1 2 6 2 2.4 0 5.2-.8 2.8-.7 5.9-2.2zm32.6.1q-2 1-4.2 1.6-2.3.6-4.7.6-6 0-9-3-3.2-3-3.2-9 0-4 1.4-7.8 1.5-3.9 4-6.5 2.4-2.7 5.4-4 3-1.3 6.6-1.3 2.4 0 4.6.6 2.2.6 4.4 1.7l-1 4.9q-1.8-1.6-3.7-2.3-1.9-.7-4.1-.7-3 0-5.3 1.2t-3.9 3.6q-1.5 2.2-2.3 5-.9 2.8-.9 5.6 0 3.9 1.9 5.9 1.8 1.9 5.5 1.9 2.5 0 5-.8 2.3-.9 4.5-2.6zm26.5-25.2q-4.4 0-7.3 4.6-3 4.6-3 11.7 0 3.4 1.6 5.2 1.5 1.7 4.5 1.7 4.4 0 7.3-4.6 3-4.6 3-11.7 0-3.4-1.5-5.2-1.6-1.7-4.6-1.7zm.5-4.2q5.3 0 8 2.9 2.8 2.8 2.8 8.4 0 3.7-1.1 7.4-1.1 3.6-3.1 6.5-2.1 3.2-5.2 4.8-3 1.6-7 1.6-5 0-7.7-3-2.7-2.9-2.7-8.4 0-3.6 1-7.2 1.2-3.6 3.2-6.7 2.1-3 5.1-4.7 3-1.6 6.7-1.6zm45.8 6.9q-1.3-1.2-2.9-1.7-1.5-.6-3.6-.6-4.4 0-7.5 3-3.2 3.1-4.2 8.5l-2.9 14.7h-5l6-30h4.9l-1.1 5.8q1.8-3.2 4.6-5 2.9-1.6 6.5-1.6 2 0 3.5.5t2.6 1.4zm19.9 8.8q-3.2 0-4.8.2-1.6.2-2.7.7-1.8.7-3 2.4-1 1.6-1 3.6 0 2.2 1.3 3.5 1.4 1.3 3.8 1.3 4 0 6.8-2.8 3-2.9 4-7.8l.2-1.1zm10-2-3.4 17.1h-5l.9-4.5q-2 2.6-4.6 4-2.6 1.3-5.6 1.3-4 0-6.5-2.3-2.5-2.2-2.5-6 0-5.2 4.1-8.3 4.2-3.2 11.3-3.2h6.6l.3-1.6.1-.5v-.8q0-2.3-1.7-3.5-1.7-1.2-4.8-1.2-2.3 0-5 .7-2.6.7-5.6 2l1-4.8q2.8-1 5.4-1.6 2.6-.5 5-.5 5 0 7.8 2.2t2.8 6.1l-.2 2.3-.5 3zm25.1-21.5-1.6 8.5h11.2l-.8 3.9h-11.2l-3.2 16.3-.2 1.5-.1 1.3q0 1.7 1 2.5 1 .7 3.8.7h5.6l-.8 3.9h-6q-4.5 0-6.6-1.5-2.1-1.5-2.1-4.6l.1-1.6.4-2.2 3.2-16.3h-8l.7-3.9h8l1.7-8.5zm22.1 8.6h12.7l-5.1 26.2h9.8l-.8 3.8h-24.6l.8-3.8h9.8l4.3-22.4h-7.6zm10-11.8h5l-1.3 6.3h-5zm18.4 11.8h4.8l4.1 25.6 13.5-25.7h5.3l-16.5 30.1h-6.4zm53.4 12.3.2-1.2v-.9q0-3.2-1.7-5-1.7-1.8-4.8-1.8-3.3 0-6 2.4-2.8 2.4-4 6.5zm.6 16.2q-2.8 1.1-5.5 1.7-2.7.6-5.4.6-6 0-9.1-3-3.1-3-3.1-8.8 0-4.1 1.6-8.2 1.6-4 4.4-7 2.3-2.2 5-3.4 2.7-1.3 5.6-1.3 5 0 8 3.1 3 3 3 8.2l-.2 2.3-.4 3.4h-21.7l-.2 1.6-.1 1.2q0 3.8 2 5.7 2.1 2 6 2 2.4 0 5.2-.8 2.8-.7 5.9-2.2zm11.2-38.6h5.2l-2.5 32.5 8.9-21.5h5.6l.4 21.6 10.2-32.6h5.3l-13.7 40.1h-5.2l-.8-23.4-10 23.4h-5zm38.8 10.1h12.7l-5 26.2h9.7l-.8 3.8h-24.5l.8-3.8h9.8l4.3-22.4h-7.7zm10-11.8h5l-1.2 6.3h-5zm32 15.2q-2.4 0-4.2 1.2-1.8 1.1-3 3.5-1.3 2.4-2 5.5-.8 3-.8 6.1 0 3.5 1.4 5.2 1.4 1.7 4 1.7 2.4 0 4.2-1.2 1.8-1.2 3.1-3.6 1.3-2.3 2-5.4.8-3.1.8-6.2 0-3.2-1.4-5-1.5-1.8-4.1-1.8zm7.2.4 3-15.6h5l-8.1 41.8h-5l.8-3.8q-1.8 2.3-4 3.4-2.2 1.2-4.9 1.2-4.4 0-6.8-2.8-2.4-2.9-2.4-8 0-3.8 1-7.6 1.1-4 3-6.8 2-3.2 4.7-4.8 2.7-1.6 6-1.6 2.7 0 4.6 1.2 2 1.1 3 3.4zm21.2 22.3q2.1 0 4-1.2 1.7-1.2 3-3.5 1.3-2.4 2-5.4.7-3 .7-5.8 0-3.2-1.5-5-1.5-1.8-4.1-1.8-4.2 0-7 4.5t-2.8 11.4q0 3.2 1.5 5 1.5 1.8 4.2 1.8zm11.6 2q-1.4 7.2-5 10.5-3.6 3.2-10.3 3.2-2.2 0-4.3-.4-2.1-.3-4.1-1l1-5q2 1.2 4 1.9 2.1.6 4.3.6 4 0 6.2-2.2 2.2-2.1 3.2-7.1l.6-3.2q-1.5 2.4-3.9 3.6-2.3 1.2-5.3 1.2-4.1 0-6.5-2.9-2.5-2.9-2.5-7.8 0-3.7 1-7.4 1.2-3.7 3.1-6.6 2-3 4.8-4.6 2.8-1.7 5.8-1.7 2.7 0 4.7 1.3t3 3.6l.7-4h5zm33-15.8.2-1.2v-.9q0-3.2-1.7-5-1.7-1.8-4.9-1.8-3.3 0-6 2.4t-3.9 6.5zm.6 16.2q-2.8 1.1-5.5 1.7-2.7.6-5.5.6-6 0-9-3-3.2-3-3.2-8.8 0-4.1 1.6-8.2 1.6-4 4.5-7 2.2-2.2 4.9-3.4 2.7-1.3 5.6-1.3 5 0 8 3.1 3 3 3 8.2l-.1 2.3-.5 3.4h-21.6l-.3 1.6v1.2q0 3.8 2 5.7 2 2 6 2 2.4 0 5.2-.8 2.8-.7 5.9-2.2zm27.9-37.1-1.6 8.5h11.2l-.8 3.9h-11.2l-3.2 16.3-.2 1.5-.1 1.3q0 1.7 1 2.5 1 .7 3.8.7h5.6l-.8 3.9h-6q-4.5 0-6.6-1.5-2-1.5-2-4.6v-1.6l.4-2.2 3.2-16.3h-8l.7-3.9h8l1.7-8.5z" aria-label="DecorativeWidget" font-family="Menlo,Menlo_MSFontService,sans-serif" font-size="55" font-style="italic"/><path fill="#f8f8f2" d="M3114.8 2045.6q-3.5 6.1-5.3 12.2-1.7 6-1.7 12.2 0 6.2 1.7 12.3 1.8 6 5.3 12.3h-4.3q-4-6.4-6-12.5-2-6-2-12t2-12.1q2-6 6-12.4zm19.5 0h4.3q4 6.3 6 12.4 2 6 2 12t-2 12.2q-2 6-6 12.4h-4.3q3.6-6.3 5.4-12.4 1.7-6 1.7-12.2 0-6-1.7-12.2-1.8-6-5.4-12.2zm35.7 34.7h8.4v7.1l-6 11.6h-5.4l3-11.6Z" aria-label="()," font-family="Menlo,Menlo_MSFontService,sans-serif" font-size="55"/><path fill="#f8f8f2" d="M2270.5 2111.6h4.3q4 6.3 6 12.4 2 6 2 12t-2 12.2q-2 6-6 12.4h-4.3q3.6-6.3 5.3-12.4 1.8-6 1.8-12.2 0-6-1.8-12.2-1.7-6-5.3-12.2zm35.6 34.7h8.4v7.1l-6 11.6h-5.3l3-11.6Z" aria-label=")," font-family="Menlo,Menlo_MSFontService,sans-serif" font-size="55"/></g></g></svg>