<?xml version="1.0" encoding="UTF-8" standalone="no"?>
<svg
   xml:space="preserve"
   overflow="hidden"
   viewBox="0 0 1000 194"
   version="1.1"
   id="svg158"
   sodipodi:docname="ExcludeSemantics.svg"
   inkscape:version="1.2.1 (9c6d41e, 2022-07-14)"
   width="1000"
   height="194"
   xmlns:inkscape="http://www.inkscape.org/namespaces/inkscape"
   xmlns:sodipodi="http://sodipodi.sourceforge.net/DTD/sodipodi-0.dtd"
   xmlns:xlink="http://www.w3.org/1999/xlink"
   xmlns="http://www.w3.org/2000/svg"
   xmlns:svg="http://www.w3.org/2000/svg"><sodipodi:namedview
     id="namedview160"
     pagecolor="#ffffff"
     bordercolor="#000000"
     borderopacity="0.25"
     inkscape:showpageshadow="2"
     inkscape:pageopacity="0.0"
     inkscape:pagecheckerboard="0"
     inkscape:deskcolor="#d1d1d1"
     showgrid="false"
     inkscape:zoom="0.44037177"
     inkscape:cx="381.49584"
     inkscape:cy="9.0832344"
     inkscape:window-width="1309"
     inkscape:window-height="688"
     inkscape:window-x="0"
     inkscape:window-y="44"
     inkscape:window-maximized="0"
     inkscape:current-layer="svg158" /><defs
     id="defs133"><path
       id="a"
       d="m 2213,1938 h 1279 v 266 H 2213 Z" /></defs><defs
     id="defs138"><clipPath
       id="b"><use
         xlink:href="#a"
         id="use135" /></clipPath></defs><g
     clip-path="url(#b)"
     transform="matrix(0.783,0,0,0.7917,-1734.5,-1540.6)"
     id="g156"><path
       fill="#8be9fd"
       d="m 2266.4,1983.9 h 23.8 v 4.6 H 2272 v 10.8 h 17.5 v 4.5 H 2272 v 15.6 h 18.8 v 4.6 h -24.3 z m 57.9,10.1 -10.8,14.3 11.8,15.7 h -5.7 l -8.8,-12 -8.8,12 h -5.7 l 11.8,-15.7 -10.7,-14.4 h 5.4 l 8,10.9 8,-10.9 z m 31.6,28.5 q -2,1.1 -4.1,1.7 -2.1,0.6 -4.3,0.6 -7,0 -11,-4.2 -3.9,-4.2 -3.9,-11.6 0,-7.4 4,-11.6 3.9,-4.2 10.9,-4.2 2.1,0 4.2,0.6 2,0.5 4.2,1.7 v 5.2 q -2,-1.8 -4,-2.5 -2,-0.8 -4.4,-0.8 -4.7,0 -7.2,3 -2.5,3 -2.5,8.6 0,5.5 2.5,8.6 2.5,3 7.2,3 2.5,0 4.6,-0.8 2,-0.8 3.8,-2.5 z m 23.9,-9.4 q 0,3.4 1.2,5 1.2,1.7 3.6,1.7 h 5.8 v 4.2 h -6.3 q -4.4,0 -6.8,-2.8 -2.4,-2.9 -2.4,-8 v -27.3 h -8 v -3.8 h 12.9 z m 19,-0.5 V 1994 h 5 v 18.6 q 0,4 1.4,6 1.5,1.9 4.5,1.9 3.5,0 5.3,-2.5 1.9,-2.4 1.9,-7 v -17 h 5 v 30 h -5 v -4.5 q -1.4,2.6 -3.6,4 -2.3,1.3 -5.3,1.3 -4.7,0 -7,-3 -2.2,-3 -2.2,-9.2 z m 51,-14.8 v -15.6 h 4.9 v 41.8 h -5 v -3.8 q -1.2,2.2 -3.2,3.4 -2,1.2 -4.8,1.2 -5.4,0 -8.6,-4.2 -3,-4.3 -3,-11.7 0,-7.4 3,-11.5 3.2,-4.2 8.6,-4.2 2.7,0 4.8,1.2 2,1.1 3.3,3.4 z m -14.6,11.2 q 0,5.7 1.9,8.7 1.8,2.9 5.4,2.9 3.5,0 5.4,-3 1.9,-3 1.9,-8.6 0,-5.7 -2,-8.7 -1.8,-3 -5.3,-3 -3.6,0 -5.4,3 -1.9,3 -1.9,8.7 z m 54.7,-2.5 v 2.4 h -21.4 v 0.2 q -0.2,6.1 2.3,8.8 2.6,2.7 7.3,2.7 2.4,0 5,-0.8 2.5,-0.7 5.4,-2.2 v 4.9 q -2.8,1.1 -5.4,1.7 -2.6,0.6 -5,0.6 -7,0 -11,-4.2 -4,-4.2 -4,-11.6 0,-7.2 3.9,-11.5 3.9,-4.3 10.3,-4.3 5.8,0 9,3.9 3.4,3.9 3.6,9.4 z m -5,-1.5 q -0.3,-3 -2.2,-5.3 -2,-2.3 -5.6,-2.3 -3.6,0 -5.9,2.3 -2.3,2.4 -2.5,5.4 z m 35.2,-19.7 v 5.5 q -2.5,-1.6 -5,-2.4 -2.4,-0.8 -5,-0.8 -3.8,0 -6,1.8 -2.2,1.8 -2.2,4.8 0,2.6 1.4,4 1.5,1.4 5.5,2.4 l 2.8,0.6 q 5.7,1.3 8.2,4.2 2.6,2.8 2.6,7.6 0,5.8 -3.5,8.8 -3.6,3 -10.3,3 -2.9,0 -5.7,-0.6 -2.8,-0.6 -5.7,-1.8 v -5.8 q 3,2 5.8,2.9 2.8,0.9 5.6,0.9 4,0 6.4,-1.9 2.2,-1.8 2.2,-5.1 0,-3 -1.5,-4.6 -1.6,-1.6 -5.5,-2.4 l -2.9,-0.7 q -5.6,-1.3 -8.1,-3.8 -2.5,-2.6 -2.5,-6.9 0,-5.3 3.6,-8.6 3.6,-3.2 9.6,-3.2 2.3,0 4.8,0.5 2.6,0.5 5.4,1.6 z m 36,21.2 v 2.4 h -21.4 v 0.2 q -0.2,6.1 2.4,8.8 2.5,2.7 7.2,2.7 2.4,0 5,-0.8 2.5,-0.7 5.5,-2.2 v 4.9 q -2.9,1.1 -5.5,1.7 -2.6,0.6 -5,0.6 -7,0 -11,-4.2 -4,-4.2 -4,-11.6 0,-7.2 4,-11.5 3.8,-4.3 10.2,-4.3 5.8,0 9,3.9 3.4,3.9 3.6,9.4 z m -5,-1.5 q -0.2,-3 -2.2,-5.3 -2,-2.3 -5.6,-2.3 -3.6,0 -5.9,2.3 -2.3,2.4 -2.5,5.4 z m 26.2,-8 q 1,-2 2.3,-2.9 1.5,-0.9 3.4,-0.9 3.7,0 5.1,2.8 1.5,2.8 1.5,10.6 v 17.4 h -4.5 v -17.2 q 0,-6.4 -0.7,-8 -0.7,-1.5 -2.6,-1.5 -2.1,0 -3,1.7 -0.7,1.6 -0.7,7.8 v 17.2 h -4.5 v -17.2 q 0,-6.5 -0.8,-8 -0.7,-1.5 -2.7,-1.5 -2,0 -2.8,1.7 -0.7,1.6 -0.7,7.8 v 17.2 h -4.5 v -30 h 4.5 v 2.5 q 0.9,-1.6 2.2,-2.4 1.3,-0.9 3,-0.9 2,0 3.4,1 1.4,0.9 2.1,2.8 z m 33.8,11.9 h -1.6 q -4.3,0 -6.5,1.5 -2.2,1.5 -2.2,4.5 0,2.7 1.6,4.2 1.7,1.5 4.6,1.5 4,0 6.4,-2.8 2.3,-2.8 2.3,-7.8 v -1.1 z m 9.6,-2 v 17.1 h -5 v -4.5 q -1.5,2.7 -4,4 -2.3,1.3 -5.8,1.3 -4.6,0 -7.3,-2.6 -2.8,-2.6 -2.8,-7 0,-5 3.4,-7.6 3.4,-2.6 10,-2.6 h 6.5 v -0.8 q 0,-3.6 -1.8,-5.2 -1.8,-1.6 -5.7,-1.6 -2.5,0 -5.1,0.7 -2.6,0.7 -5,2.1 v -5 q 2.7,-1 5.2,-1.5 2.5,-0.5 4.9,-0.5 3.7,0 6.3,1.1 2.7,1.1 4.3,3.3 1,1.3 1.5,3.3 0.4,2 0.4,6 z m 32.9,-1.5 v 18.6 h -5 v -18.6 q 0,-4 -1.4,-6 -1.4,-2 -4.4,-2 -3.5,0 -5.4,2.6 -1.8,2.4 -1.8,7 v 17 h -5 v -30 h 5 v 4.4 q 1.3,-2.5 3.5,-3.9 2.3,-1.3 5.4,-1.3 4.6,0 6.8,3 2.3,3 2.3,9.2 z m 21.4,-20 v 8.5 h 11.2 v 3.9 H 2675 v 16.3 q 0,3.3 1.3,4.6 1.2,1.4 4.4,1.4 h 5.5 v 3.9 h -6 q -5.6,0 -7.9,-2.2 -2.2,-2.3 -2.2,-7.7 v -16.3 h -8 v -3.9 h 8 v -8.5 z m 25.1,8.6 h 12.7 v 26.2 h 9.8 v 3.8 H 2698 v -3.8 h 9.8 v -22.3 h -7.7 z m 7.7,-11.7 h 5 v 6.3 h -5 z m 45.4,40.2 q -2,1.1 -4,1.7 -2.2,0.6 -4.4,0.6 -7,0 -11,-4.2 -3.8,-4.2 -3.8,-11.6 0,-7.4 3.9,-11.6 4,-4.2 11,-4.2 2,0 4.2,0.6 2,0.5 4.1,1.7 v 5.2 q -2,-1.8 -4,-2.5 -1.9,-0.8 -4.4,-0.8 -4.6,0 -7.1,3 -2.5,3 -2.5,8.6 0,5.5 2.5,8.6 2.5,3 7.1,3 2.6,0 4.6,-0.8 2,-0.8 3.8,-2.5 z M 2784,1995 v 4.8 q -2.1,-1.2 -4.3,-1.8 -2.1,-0.7 -4.4,-0.7 -3.3,0 -5,1.1 -1.6,1.1 -1.6,3.3 0,2 1.2,3 1.2,1 6.1,2 l 2,0.4 q 3.7,0.7 5.6,2.7 1.9,2.1 1.9,5.5 0,4.5 -3.2,7 -3.1,2.5 -8.8,2.5 -2.2,0 -4.6,-0.5 -2.5,-0.5 -5.3,-1.4 v -5.1 q 2.7,1.4 5.3,2.1 2.5,0.7 4.7,0.7 3.3,0 5.1,-1.3 1.8,-1.3 1.8,-3.7 0,-3.4 -6.6,-4.8 h -0.2 l -1.8,-0.4 q -4.3,-0.8 -6.3,-2.8 -2,-2 -2,-5.4 0,-4.3 3,-6.6 3,-2.4 8.3,-2.4 2.5,0 4.7,0.5 2.2,0.4 4.4,1.3 z"
       aria-label="ExcludeSemantics"
       font-family="Menlo, Menlo_MSFontService, sans-serif"
       font-size="55px"
       id="path142" /><path
       fill="#f8f8f2"
       d="m 2815.8,1979.6 q -3.6,6.1 -5.4,12.2 -1.7,6 -1.7,12.2 0,6.2 1.7,12.3 1.8,6 5.4,12.3 h -4.3 q -4,-6.4 -6,-12.5 -2,-6 -2,-12 0,-6 2,-12.1 2,-6 6,-12.4 z"
       aria-label="("
       font-family="Menlo, Menlo_MSFontService, sans-serif"
       font-size="55px"
       id="path144" /><path
       fill="#ffb86c"
       d="m 2352.8,2088.6 q -2,1 -4.2,1.6 -2.2,0.6 -4.6,0.6 -6,0 -9.1,-3 -3.1,-3 -3.1,-9 0,-4 1.4,-7.8 1.5,-3.9 4,-6.5 2.4,-2.7 5.4,-4 3,-1.3 6.6,-1.3 2.4,0 4.6,0.6 2.2,0.6 4.3,1.7 l -1,4.9 q -1.7,-1.6 -3.6,-2.3 -1.9,-0.7 -4.2,-0.7 -3,0 -5.2,1.2 -2.3,1.2 -3.9,3.6 -1.5,2.2 -2.4,5 -0.8,2.8 -0.8,5.6 0,3.9 1.8,5.9 1.9,1.9 5.5,1.9 2.6,0 5,-0.8 2.4,-0.9 4.6,-2.6 z m 36.8,-17.2 -3.6,18.6 h -5 l 3.6,-18.7 0.1,-0.3 q 0.4,-2 0.4,-3 0,-2.2 -1.2,-3.3 -1.3,-1.2 -3.6,-1.2 -3.4,0 -5.8,2.5 -2.4,2.5 -3.3,7 l -3.3,17 h -5 l 8.2,-41.8 h 5 l -3.2,16.2 q 2,-2.6 4.4,-3.9 2.3,-1.3 5,-1.3 3.7,0 5.8,2 2,1.9 2,5.4 l -0.1,2.1 z m 13.8,-11.4 h 12.7 l -5.1,26.2 h 9.8 l -0.8,3.8 h -24.5 l 0.7,-3.8 h 9.8 l 4.4,-22.4 h -7.7 z m 10,-11.8 h 5 l -1.3,6.3 h -5 z m 29.6,30.8 -0.2,1.7 -0.1,1.2 q 0,2 1.2,3 1.2,1 3.6,1 h 5.7 l -0.9,4.1 h -5.5 q -4.7,0 -7,-1.7 -2.2,-1.7 -2.2,-5.2 l 0.1,-1.9 0.4,-2.3 5.7,-27.1 h -8.5 l 0.8,-3.9 h 13.4 z m 35.5,-15.6 q -2.4,0 -4.2,1.2 -1.8,1.1 -3,3.5 -1.3,2.4 -2,5.5 -0.8,3 -0.8,6.1 0,3.5 1.4,5.2 1.3,1.7 4,1.7 2.3,0 4.2,-1.2 1.8,-1.2 3.1,-3.6 1.3,-2.3 2,-5.4 0.8,-3.1 0.8,-6.2 0,-3.2 -1.4,-5 -1.5,-1.8 -4.1,-1.8 z m 7.2,0.4 3,-15.6 h 5 l -8.1,41.8 h -5 l 0.7,-3.8 q -1.7,2.3 -4,3.4 -2.1,1.2 -4.8,1.2 -4.4,0 -6.8,-2.8 -2.5,-2.9 -2.5,-8 0,-3.8 1.1,-7.6 1.1,-4 3,-6.8 2,-3.2 4.7,-4.8 2.7,-1.6 6,-1.6 2.6,0 4.6,1.2 2,1.1 3,3.4 z"
       aria-label="child"
       font-family="Menlo, Menlo_MSFontService, sans-serif"
       font-size="55px"
       font-style="italic"
       id="path146" /><path
       fill="#ff79c6"
       d="m 2505.3,2060 h 8.3 v 9.6 h -8.3 z m 0,20.2 h 8.3 v 9.8 h -8.3 z"
       aria-label=":"
       font-family="Menlo, Menlo_MSFontService, sans-serif"
       font-size="55px"
       id="path148" /><path
       fill="#8be9fd"
       d="m 2569,2085.5 q 4.9,0 7.9,-1.6 3,-1.7 4.8,-5.5 1.5,-3 2.4,-7.4 1,-4.3 1,-7.8 0,-4.8 -2.3,-6.8 -2.2,-2 -7.4,-2 h -3 l -6,31.1 z m 7,-35.6 q 7.3,0 10.9,3.3 3.7,3.4 3.7,10.1 0,4.4 -1.2,9 -1.1,4.6 -3,8.2 -2.8,5.1 -7,7.3 -4.2,2.2 -11.3,2.2 h -8.1 l 7.8,-40.1 z m 42.5,22.4 0.2,-1.2 v -0.9 q 0,-3.2 -1.7,-5 -1.7,-1.8 -4.8,-1.8 -3.3,0 -6,2.4 -2.8,2.4 -4,6.5 z m 0.6,16.2 q -2.8,1.1 -5.5,1.7 -2.7,0.6 -5.4,0.6 -6,0 -9.1,-3 -3.1,-3 -3.1,-8.8 0,-4.1 1.6,-8.2 1.6,-4 4.4,-7 2.3,-2.2 5,-3.4 2.7,-1.3 5.6,-1.3 5,0 8,3.1 3,3 3,8.2 l -0.2,2.3 -0.4,3.4 h -21.7 l -0.2,1.6 -0.1,1.2 q 0,3.8 2,5.7 2.1,2 6,2 2.4,0 5.2,-0.8 2.8,-0.7 5.9,-2.2 z m 32.6,0.1 q -2,1 -4.2,1.6 -2.3,0.6 -4.7,0.6 -6,0 -9,-3 -3.2,-3 -3.2,-9 0,-4 1.4,-7.8 1.5,-3.9 4,-6.5 2.4,-2.7 5.4,-4 3,-1.3 6.6,-1.3 2.4,0 4.6,0.6 2.2,0.6 4.4,1.7 l -1,4.9 q -1.8,-1.6 -3.7,-2.3 -1.9,-0.7 -4.1,-0.7 -3,0 -5.3,1.2 -2.3,1.2 -3.9,3.6 -1.5,2.2 -2.3,5 -0.9,2.8 -0.9,5.6 0,3.9 1.9,5.9 1.8,1.9 5.5,1.9 2.5,0 5,-0.8 2.3,-0.9 4.5,-2.6 z m 26.5,-25.2 q -4.4,0 -7.3,4.6 -3,4.6 -3,11.7 0,3.4 1.6,5.2 1.5,1.7 4.5,1.7 4.4,0 7.3,-4.6 3,-4.6 3,-11.7 0,-3.4 -1.5,-5.2 -1.6,-1.7 -4.6,-1.7 z m 0.5,-4.2 q 5.3,0 8,2.9 2.8,2.8 2.8,8.4 0,3.7 -1.1,7.4 -1.1,3.6 -3.1,6.5 -2.1,3.2 -5.2,4.8 -3,1.6 -7,1.6 -5,0 -7.7,-3 -2.7,-2.9 -2.7,-8.4 0,-3.6 1,-7.2 1.2,-3.6 3.2,-6.7 2.1,-3 5.1,-4.7 3,-1.6 6.7,-1.6 z m 45.8,6.9 q -1.3,-1.2 -2.9,-1.7 -1.5,-0.6 -3.6,-0.6 -4.4,0 -7.5,3 -3.2,3.1 -4.2,8.5 l -2.9,14.7 h -5 l 6,-30 h 4.9 l -1.1,5.8 q 1.8,-3.2 4.6,-5 2.9,-1.6 6.5,-1.6 2,0 3.5,0.5 1.5,0.5 2.6,1.4 z m 19.9,8.8 q -3.2,0 -4.8,0.2 -1.6,0.2 -2.7,0.7 -1.8,0.7 -3,2.4 -1,1.6 -1,3.6 0,2.2 1.3,3.5 1.4,1.3 3.8,1.3 4,0 6.8,-2.8 3,-2.9 4,-7.8 l 0.2,-1.1 z m 10,-2 -3.4,17.1 h -5 l 0.9,-4.5 q -2,2.6 -4.6,4 -2.6,1.3 -5.6,1.3 -4,0 -6.5,-2.3 -2.5,-2.2 -2.5,-6 0,-5.2 4.1,-8.3 4.2,-3.2 11.3,-3.2 h 6.6 l 0.3,-1.6 0.1,-0.5 v -0.8 q 0,-2.3 -1.7,-3.5 -1.7,-1.2 -4.8,-1.2 -2.3,0 -5,0.7 -2.6,0.7 -5.6,2 l 1,-4.8 q 2.8,-1 5.4,-1.6 2.6,-0.5 5,-0.5 5,0 7.8,2.2 2.8,2.2 2.8,6.1 l -0.2,2.3 -0.5,3 z m 25.1,-21.5 -1.6,8.5 h 11.2 l -0.8,3.9 h -11.2 l -3.2,16.3 -0.2,1.5 -0.1,1.3 q 0,1.7 1,2.5 1,0.7 3.8,0.7 h 5.6 l -0.8,3.9 h -6 q -4.5,0 -6.6,-1.5 -2.1,-1.5 -2.1,-4.6 l 0.1,-1.6 0.4,-2.2 3.2,-16.3 h -8 l 0.7,-3.9 h 8 l 1.7,-8.5 z m 22.1,8.6 h 12.7 l -5.1,26.2 h 9.8 l -0.8,3.8 h -24.6 l 0.8,-3.8 h 9.8 l 4.3,-22.4 h -7.6 z m 10,-11.8 h 5 l -1.3,6.3 h -5 z m 18.4,11.8 h 4.8 l 4.1,25.6 13.5,-25.7 h 5.3 l -16.5,30.1 h -6.4 z m 53.4,12.3 0.2,-1.2 v -0.9 q 0,-3.2 -1.7,-5 -1.7,-1.8 -4.8,-1.8 -3.3,0 -6,2.4 -2.8,2.4 -4,6.5 z m 0.6,16.2 q -2.8,1.1 -5.5,1.7 -2.7,0.6 -5.4,0.6 -6,0 -9.1,-3 -3.1,-3 -3.1,-8.8 0,-4.1 1.6,-8.2 1.6,-4 4.4,-7 2.3,-2.2 5,-3.4 2.7,-1.3 5.6,-1.3 5,0 8,3.1 3,3 3,8.2 l -0.2,2.3 -0.4,3.4 h -21.7 l -0.2,1.6 -0.1,1.2 q 0,3.8 2,5.7 2.1,2 6,2 2.4,0 5.2,-0.8 2.8,-0.7 5.9,-2.2 z m 11.2,-38.6 h 5.2 l -2.5,32.5 8.9,-21.5 h 5.6 l 0.4,21.6 10.2,-32.6 h 5.3 l -13.7,40.1 h -5.2 l -0.8,-23.4 -10,23.4 h -5 z m 38.8,10.1 h 12.7 l -5,26.2 h 9.7 l -0.8,3.8 h -24.5 l 0.8,-3.8 h 9.8 l 4.3,-22.4 h -7.7 z m 10,-11.8 h 5 l -1.2,6.3 h -5 z m 32,15.2 q -2.4,0 -4.2,1.2 -1.8,1.1 -3,3.5 -1.3,2.4 -2,5.5 -0.8,3 -0.8,6.1 0,3.5 1.4,5.2 1.4,1.7 4,1.7 2.4,0 4.2,-1.2 1.8,-1.2 3.1,-3.6 1.3,-2.3 2,-5.4 0.8,-3.1 0.8,-6.2 0,-3.2 -1.4,-5 -1.5,-1.8 -4.1,-1.8 z m 7.2,0.4 3,-15.6 h 5 l -8.1,41.8 h -5 l 0.8,-3.8 q -1.8,2.3 -4,3.4 -2.2,1.2 -4.9,1.2 -4.4,0 -6.8,-2.8 -2.4,-2.9 -2.4,-8 0,-3.8 1,-7.6 1.1,-4 3,-6.8 2,-3.2 4.7,-4.8 2.7,-1.6 6,-1.6 2.7,0 4.6,1.2 2,1.1 3,3.4 z m 21.2,22.3 q 2.1,0 4,-1.2 1.7,-1.2 3,-3.5 1.3,-2.4 2,-5.4 0.7,-3 0.7,-5.8 0,-3.2 -1.5,-5 -1.5,-1.8 -4.1,-1.8 -4.2,0 -7,4.5 -2.8,4.5 -2.8,11.4 0,3.2 1.5,5 1.5,1.8 4.2,1.8 z m 11.6,2 q -1.4,7.2 -5,10.5 -3.6,3.2 -10.3,3.2 -2.2,0 -4.3,-0.4 -2.1,-0.3 -4.1,-1 l 1,-5 q 2,1.2 4,1.9 2.1,0.6 4.3,0.6 4,0 6.2,-2.2 2.2,-2.1 3.2,-7.1 l 0.6,-3.2 q -1.5,2.4 -3.9,3.6 -2.3,1.2 -5.3,1.2 -4.1,0 -6.5,-2.9 -2.5,-2.9 -2.5,-7.8 0,-3.7 1,-7.4 1.2,-3.7 3.1,-6.6 2,-3 4.8,-4.6 2.8,-1.7 5.8,-1.7 2.7,0 4.7,1.3 2,1.3 3,3.6 l 0.7,-4 h 5 z m 33,-15.8 0.2,-1.2 v -0.9 q 0,-3.2 -1.7,-5 -1.7,-1.8 -4.9,-1.8 -3.3,0 -6,2.4 -2.7,2.4 -3.9,6.5 z m 0.6,16.2 q -2.8,1.1 -5.5,1.7 -2.7,0.6 -5.5,0.6 -6,0 -9,-3 -3.2,-3 -3.2,-8.8 0,-4.1 1.6,-8.2 1.6,-4 4.5,-7 2.2,-2.2 4.9,-3.4 2.7,-1.3 5.6,-1.3 5,0 8,3.1 3,3 3,8.2 l -0.1,2.3 -0.5,3.4 h -21.6 l -0.3,1.6 v 1.2 q 0,3.8 2,5.7 2,2 6,2 2.4,0 5.2,-0.8 2.8,-0.7 5.9,-2.2 z m 27.9,-37.1 -1.6,8.5 h 11.2 l -0.8,3.9 h -11.2 l -3.2,16.3 -0.2,1.5 -0.1,1.3 q 0,1.7 1,2.5 1,0.7 3.8,0.7 h 5.6 l -0.8,3.9 h -6 q -4.5,0 -6.6,-1.5 -2,-1.5 -2,-4.6 v -1.6 l 0.4,-2.2 3.2,-16.3 h -8 l 0.7,-3.9 h 8 l 1.7,-8.5 z"
       aria-label="DecorativeWidget"
       font-family="Menlo, Menlo_MSFontService, sans-serif"
       font-size="55px"
       font-style="italic"
       id="path150" /><path
       fill="#f8f8f2"
       d="m 3114.8,2045.6 q -3.5,6.1 -5.3,12.2 -1.7,6 -1.7,12.2 0,6.2 1.7,12.3 1.8,6 5.3,12.3 h -4.3 q -4,-6.4 -6,-12.5 -2,-6 -2,-12 0,-6 2,-12.1 2,-6 6,-12.4 z m 19.5,0 h 4.3 q 4,6.3 6,12.4 2,6 2,12 0,6 -2,12.2 -2,6 -6,12.4 h -4.3 q 3.6,-6.3 5.4,-12.4 1.7,-6 1.7,-12.2 0,-6 -1.7,-12.2 -1.8,-6 -5.4,-12.2 z m 35.7,34.7 h 8.4 v 7.1 l -6,11.6 h -5.4 l 3,-11.6 z"
       aria-label="(),"
       font-family="Menlo, Menlo_MSFontService, sans-serif"
       font-size="55px"
       id="path152" /><path
       fill="#f8f8f2"
       d="m 2270.5,2111.6 h 4.3 q 4,6.3 6,12.4 2,6 2,12 0,6 -2,12.2 -2,6 -6,12.4 h -4.3 q 3.6,-6.3 5.3,-12.4 1.8,-6 1.8,-12.2 0,-6 -1.8,-12.2 -1.7,-6 -5.3,-12.2 z m 35.6,34.7 h 8.4 v 7.1 l -6,11.6 h -5.3 l 3,-11.6 z"
       aria-label="),"
       font-family="Menlo, Menlo_MSFontService, sans-serif"
       font-size="55px"
       id="path154" /></g></svg>
