<svg xmlns="http://www.w3.org/2000/svg" xmlns:xlink="http://www.w3.org/1999/xlink" xml:space="preserve" overflow="hidden" viewBox="0 0 312 122"><defs><path id="a" d="M63 59h311v120H63z"/></defs><defs><clipPath id="b"><use xlink:href="#a"/></clipPath><clipPath id="c"><use xlink:href="#a"/></clipPath><clipPath id="d"><use xlink:href="#a"/></clipPath></defs><g clip-path="url(#b)" transform="translate(-62 -58)"><g clip-path="url(#c)"><g clip-path="url(#d)"><path fill="#FFCB0F" d="M266.93 91.45a154.72 154.72 0 0 0-21.67-8.59c-10.35-3.25-24.03-5.6-32.16 3.3-2.42 2.78-3.5 6.49-3.6 10.21-.37 11.47 7.59 21.78 17.3 27.14 12.34 6.79 20.13 3.14 31.62-2.88 13.61-7.42 26.6-16.26 39.9-24.3 10.94-6.38 31-20.45 43.52-19.24 12.48 1.38 23.54 9.96 28.91 21.15 2.65 5.68 3.62 12.33 1.96 18.49-3.16 12.31-17.86 15.44-28.78 13.02-18.28-4.12-35.14-13.04-50.72-23.19a.43.43 0 0 1 .46-.73c16 9.15 32.79 17.29 50.85 20.82 33.44 5.03 30.91-29.91 7.26-42.07-6.9-3.6-13.59-4.23-20.78-1.19-10.74 4.22-20.56 10.55-30.5 16.5-13.45 8.08-26.54 16.52-40.45 23.87-7.1 3.45-14.95 7.6-23.15 6.33-12.06-2-22.6-10.74-27.37-21.9-5.02-12.23-1.57-26.15 12.72-29.08 7.88-1.82 15.89.2 23.38 2.55a155.7 155.7 0 0 1 21.72 8.95c.56.29.13 1.11-.41.86Z"/><path fill="#75B953" d="M303.52 99.66c12.35 6.38 25.39 12.45 39.3 14.12 16.91 1.18 24.76-10.72 17.5-25.96-4.6-8.8-13.84-15.7-23.8-16.48-11.17-.8-35.3 16.54-45.9 22.8-9.02 5.52-17.95 11.34-27.33 16.35-6.47 3.25-13.64 7.17-21.2 6.21-14.83-2.11-28.2-15.47-28.15-30.82.06-13.67 12.31-19.27 24.45-17.55 7.1 1.08 13.91 3.57 20.49 6.34a156.3 156.3 0 0 1 18.9 9.66c.48.27.06 1.01-.42.76-10.95-5.5-22.26-10.38-34.25-13.01-8.86-2.24-21.9-1.1-24.76 9.13-2.92 11.46 5.19 22.88 15.03 28.17 5.87 3.24 12.3 4.22 18.55 1.53 12.82-5.03 24.6-13.27 36.51-20.34 12.3-7.12 23.92-15.22 37.28-20.55 7.53-3.15 14.56-2.6 21.71 1.19 9.7 5.09 17.54 14.92 17.87 26.16.5 13.36-10.49 19.3-22.61 18.1-14.1-1.98-27.21-8.29-39.62-14.96-.55-.3-.09-1.11.45-.83Z"/><path fill="#727BBB" d="M313.42 93.52c10.41 4.22 25.14 10.7 35.92 5.4 5.73-2.62 7.77-9.17 6.7-15.05-.93-5.97-4.54-11.32-9.17-15.19-4.51-3.74-10.35-6.48-16.26-6.26-2.8.21-5.73 1.26-8.54 2.46-14.28 6.59-27.13 15.94-40.7 24.03-8.23 4.96-16.4 10.32-25.59 13.62-9.96 3.83-21.08-1.47-27.83-8.94-6.83-7.4-10.6-20.02-3.67-28.61 4.76-5.47 12.4-6.52 19.1-5.66a64.5 64.5 0 0 1 9.47 2.36 119.39 119.39 0 0 1 17.7 7.46c5.7 2.89 11.19 6.13 16.48 9.67.2.13.25.4.12.6a.43.43 0 0 1-.58.14c-10.99-6.25-22.48-11.77-34.52-15.19a62.91 62.91 0 0 0-9.05-1.91c-5.59-.56-12.26.4-15.91 4.88-5.32 7.1-1.76 17.53 3.94 23.46 5.88 6.25 14.92 10.89 23.36 7.6 8.76-3.13 16.72-8.28 24.76-13.08 4.77-2.96 11.55-7 16.28-9.86 5.43-3.28 10.87-6.58 16.53-9.62 5.88-3 11.6-6.2 18.45-6.8 13.27 0 26.04 11.48 27.9 24.53 1.03 6.73-1.6 14.17-8.19 17-11.74 5.27-26.18-1.5-37.1-6.16-.56-.26-.16-1.1.39-.86Z"/><path fill="#FFF" d="M63.48 178.4v-32.75h12.91c10.27 0 17.39 6.54 17.39 16.4 0 9.87-7.12 16.36-17.39 16.36H63.48Zm23.18-16.35c0-5.8-3.54-10.26-10.27-10.26h-5.94v20.48h5.94c6.49 0 10.27-4.67 10.27-10.2Zm10.4 4.47c0-6.87 5.06-12.42 12.28-12.42 7.21 0 11.88 5.3 11.88 13.06v1.38h-17.63c.39 3 2.8 5.5 6.83 5.5 2.01 0 4.81-.89 6.33-2.36l2.75 4.03c-2.36 2.16-6.09 3.29-9.77 3.29-7.22 0-12.67-4.86-12.67-12.48Zm12.28-7.46c-3.88 0-5.55 2.9-5.85 5.26h11.7a5.49 5.49 0 0 0-5.85-5.26Zm22.54 19.34-9.53-23.71h6.68l6.19 16.5 6.19-16.5h6.72l-9.52 23.72h-6.73Zm17.62-16.35c0-10.06 7.62-16.94 17.44-16.94 7.22 0 11.4 3.93 13.7 8l-6 2.95a8.87 8.87 0 0 0-7.7-4.76c-5.94 0-10.26 4.57-10.26 10.75 0 6.2 4.32 10.76 10.26 10.76a8.78 8.78 0 0 0 7.7-4.77l6 2.9c-2.36 4.08-6.49 8.05-13.7 8.05-9.82 0-17.43-6.87-17.43-16.94Zm33.64 4.47c0-6.72 4.72-12.42 12.52-12.42s12.57 5.7 12.57 12.42c0 6.74-4.71 12.48-12.57 12.48-7.85 0-12.52-5.7-12.52-12.48Zm18.6 0c0-3.68-2.2-6.87-6.08-6.87-3.89 0-6.04 3.19-6.04 6.87 0 3.7 2.16 6.93 6.04 6.93 3.87 0 6.09-3.2 6.09-6.93Zm27.12 11.88v-14.33c0-3.3-1.72-4.42-4.37-4.42a6.76 6.76 0 0 0-5.4 2.8v15.96h-6.24v-23.72h6.23v3.1a10.86 10.86 0 0 1 8.3-3.7c5.21 0 7.71 2.96 7.71 7.57v16.75h-6.23Zm22.58 0v-3.23c11.8-9.29 18.17-14.73 18.17-20.38 0-4.18-3.44-6-6.83-6-3.92 0-6.97 1.68-8.88 4.13l-2.5-2.6c2.5-3.3 6.77-5.16 11.4-5.16 5.44 0 11 3.1 11 9.63 0 6.53-6.78 12.77-15.92 19.98h16.06v3.63h-22.5Zm26.76-16.35c0-8 3.54-16.89 12.53-16.89 8.99 0 12.52 8.89 12.52 16.9 0 8-3.58 16.94-12.52 16.94s-12.52-8.99-12.52-16.95Zm20.88 0c0-6.53-2.11-13.25-8.35-13.25s-8.35 6.72-8.35 13.25c0 6.54 2.11 13.31 8.35 13.31s8.35-6.78 8.35-13.3Zm7.36 16.35v-3.23c11.79-9.29 18.17-14.73 18.17-20.38 0-4.18-3.44-6-6.83-6-3.93 0-6.97 1.68-8.88 4.13l-2.5-2.6c2.5-3.3 6.77-5.16 11.39-5.16 5.45 0 11 3.1 11 9.63 0 6.53-6.77 12.77-15.91 19.98h16.05v3.63h-22.49Zm25.69-4.8 2.4-2.56a11.39 11.39 0 0 0 9.13 4.33c4.77 0 7.66-2.36 7.66-6.14 0-4.08-3.34-5.8-8.14-5.8-1.38 0-2.9 0-3.4.05v-3.74c.55.05 2.07.05 3.4.05 4.12 0 7.6-1.62 7.6-5.4 0-3.79-3.33-5.6-7.3-5.6-3.59 0-6.25 1.37-8.65 3.98l-2.26-2.55a14.2 14.2 0 0 1 11.2-5.06c6.28 0 11.09 3.19 11.09 8.74 0 4.72-3.98 7.07-7.07 7.61 3 .25 7.56 2.8 7.56 8.05 0 5.26-4.37 9.43-11.58 9.43-5.55 0-9.63-2.45-11.64-5.4ZM63.48 134.75v-3.39l18.41-25.73H63.48v-3.64H87.1v3.39l-18.41 25.74h18.76v3.63H63.48Zm28.68-11.88c0-6.88 4.9-12.43 11.69-12.43 7.17 0 11.4 5.6 11.4 12.72v.94h-19.2c.29 4.47 3.43 8.2 8.54 8.2 2.7 0 5.45-1.08 7.32-3l1.77 2.41c-2.36 2.36-5.55 3.63-9.43 3.63-7.02 0-12.08-5.06-12.08-12.47Zm11.63-9.38c-5.06 0-7.56 4.27-7.75 7.9h15.57c-.05-3.53-2.41-7.9-7.82-7.9Zm17.39 21.26V102h3.68v12.62a9.85 9.85 0 0 1 8-4.18c6.2 0 10.56 4.91 10.56 12.48 0 7.56-4.37 12.42-10.55 12.42a9.98 9.98 0 0 1-8-4.12v3.53h-3.7Zm10.75-2.7c4.82 0 7.66-3.88 7.66-9.13 0-5.26-2.84-9.18-7.66-9.18a8.8 8.8 0 0 0-7.07 3.83v10.75c1.28 2.07 4.18 3.74 7.07 3.74Zm17.48 2.7v-23.72h3.69v3.83c1.92-2.5 4.66-4.32 7.9-4.32v3.79c-.43-.1-.88-.15-1.47-.15-2.26 0-5.35 1.87-6.43 3.78v16.8h-3.69Zm31.04 0v-2.7a10.26 10.26 0 0 1-7.86 3.29c-4.03 0-8.3-2.7-8.3-7.86s4.27-7.81 8.3-7.81c3.23 0 5.94 1.03 7.86 3.24v-4.27c0-3.2-2.56-5-6-5a9.38 9.38 0 0 0-7.26 3.29l-1.72-2.55a12.4 12.4 0 0 1 9.47-3.93c5.01 0 9.18 2.26 9.18 8v16.3h-3.68Zm0-5v-4.47c-1.43-1.97-3.93-2.95-6.54-2.95-3.44 0-5.84 2.16-5.84 5.2 0 3.05 2.4 5.17 5.84 5.17 2.61 0 5.11-.99 6.54-2.95Z"/></g></g></g></svg>