<svg xmlns="http://www.w3.org/2000/svg" xml:space="preserve" overflow="hidden" viewBox="0 0 1277 583"><path fill="#262626" fill-rule="evenodd" d="M0 35A35 35 0 0 1 35 0h1207a35 35 0 0 1 35 35v513a35 35 0 0 1-35 35H35a35 35 0 0 1-35-35Z"/><path fill="#8be9fd" d="M43.9 40h7.2l7 20.4L65 40h7.2v40h-5V44.7l-7.1 21H56l-7.2-21V80h-5Zm62.2 22.5v2.4H84.7v.2q-.2 6.1 2.4 8.8 2.5 2.7 7.2 2.7 2.4 0 5-.8 2.5-.7 5.5-2.2v4.9q-2.9 1.1-5.5 1.7-2.6.6-5 .6-7 0-11-4.2t-4-11.6q0-7.2 4-11.5 3.8-4.3 10.2-4.3 5.8 0 9 3.9 3.4 3.9 3.6 9.4zm-5-1.5q-.2-3-2.2-5.3t-5.6-2.3q-3.6 0-5.9 2.3-2.3 2.4-2.5 5.4zm39.1-4.9q-1.6-1.2-3.2-1.8-1.7-.5-3.6-.5-4.7 0-7.1 2.9-2.5 2.9-2.5 8.3v15h-5V50h5v5.8q1.3-3.2 3.8-4.9 2.6-1.7 6.1-1.7 1.9 0 3.4.5 1.6.4 3 1.4zm25.1 8.6q0-5.5-1.8-8.4-1.8-3-5.3-3-3.6 0-5.5 3-2 2.9-2 8.4 0 5.6 2 8.5 2 3 5.6 3 3.4 0 5.2-3 1.8-3 1.8-8.5zm5 13.4q0 6.7-3.2 10.2-3.2 3.5-9.4 3.5-2 0-4.3-.4-2.2-.3-4.5-1v-5q2.7 1.3 4.8 1.9 2.2.6 4 .6 4 0 5.8-2.2 1.8-2.2 1.8-7v-3.5q-1.2 2.5-3.2 3.8-2 1.2-5 1.2-5.2 0-8.4-4.2-3.1-4.2-3.1-11.3 0-7 3.1-11.3 3.2-4.2 8.4-4.2 3 0 5 1.2 2 1.1 3.2 3.5V50h5zm35.2-15.6v2.4H184v.2q-.3 6.1 2.3 8.8 2.6 2.7 7.2 2.7 2.4 0 5-.8 2.6-.7 5.5-2.2v4.9q-2.8 1.1-5.5 1.7-2.6.6-5 .6-7 0-11-4.2t-4-11.6q0-7.2 4-11.5 3.8-4.3 10.3-4.3 5.7 0 9 3.9t3.6 9.4zm-5-1.5q-.3-3-2.3-5.3-1.9-2.3-5.5-2.3t-6 2.3q-2.2 2.4-2.5 5.4zm35.2-19.7v5.5q-2.5-1.6-5-2.4-2.5-.8-5-.8-3.8 0-6 1.8-2.3 1.8-2.3 4.8 0 2.6 1.5 4 1.4 1.4 5.4 2.4l2.9.6q5.6 1.3 8.2 4.2 2.6 2.8 2.6 7.6 0 5.8-3.6 8.8-3.5 3-10.3 3-2.8 0-5.6-.6-2.9-.6-5.8-1.8v-5.8q3.1 2 5.9 2.9 2.7.9 5.5.9 4.1 0 6.4-1.9 2.3-1.8 2.3-5.1 0-3-1.6-4.6-1.5-1.6-5.4-2.4l-3-.7q-5.5-1.3-8-3.8-2.6-2.6-2.6-6.9 0-5.3 3.6-8.6 3.7-3.2 9.6-3.2 2.4 0 4.9.5 2.6.5 5.4 1.6zm36 21.2v2.4h-21.4v.2q-.2 6.1 2.3 8.8 2.6 2.7 7.3 2.7 2.3 0 5-.8 2.5-.7 5.4-2.2v4.9q-2.8 1.1-5.4 1.7-2.6.6-5 .6-7 0-11-4.2t-4-11.6q0-7.2 3.9-11.5 3.8-4.3 10.3-4.3 5.7 0 9 3.9 3.4 3.9 3.6 9.4zm-5-1.5q-.3-3-2.2-5.3-2-2.3-5.6-2.3-3.6 0-6 2.3-2.2 2.4-2.4 5.4zm26.2-8q.9-2 2.3-2.9 1.4-.9 3.4-.9 3.6 0 5.1 2.8 1.5 2.8 1.5 10.6V80h-4.5V62.8q0-6.4-.7-8-.7-1.5-2.6-1.5-2.2 0-3 1.7-.7 1.6-.7 7.8V80H289V62.8q0-6.5-.7-8-.8-1.5-2.8-1.5-2 0-2.7 1.7-.8 1.6-.8 7.8V80h-4.5V50h4.5v2.5q1-1.6 2.2-2.4 1.4-.9 3-.9 2.1 0 3.5 1 1.3.9 2 2.8zm33.8 11.9H325q-4.3 0-6.5 1.5t-2.2 4.5q0 2.7 1.7 4.2 1.6 1.5 4.5 1.5 4.1 0 6.4-2.8 2.4-2.8 2.4-7.8v-1.1zm9.6-2V80h-5v-4.5q-1.6 2.7-4 4-2.4 1.3-5.8 1.3-4.6 0-7.4-2.6-2.7-2.6-2.7-7 0-5 3.4-7.6 3.3-2.6 9.9-2.6h6.6v-.8q0-3.6-1.8-5.2t-5.8-1.6q-2.5 0-5 .7-2.6.7-5 2.1v-5q2.6-1 5.1-1.5 2.6-.5 5-.5 3.7 0 6.3 1.1 2.7 1.1 4.3 3.3 1 1.3 1.4 3.3.5 2 .5 6zm32.9-1.5V80h-5V61.4q0-4-1.4-6t-4.5-2q-3.4 0-5.3 2.6-1.9 2.4-1.9 7v17h-5V50h5v4.4q1.3-2.5 3.6-3.9 2.3-1.3 5.3-1.3 4.6 0 6.9 3 2.3 3 2.3 9.2zm21.3-20v8.5h11.3v3.9h-11.3V70q0 3.3 1.3 4.6 1.3 1.4 4.4 1.4h5.6v4h-6q-5.6 0-8-2.2-2.2-2.3-2.2-7.7V53.8h-8v-3.9h8v-8.5zm25.2 8.6h12.6v26.2h9.8V80h-24.5v-3.8h9.8V53.9h-7.7zm7.7-11.7h5v6.3h-5zm45.4 40.2q-2 1.1-4.1 1.7-2.1.6-4.3.6-7 0-11-4.2-3.9-4.2-3.9-11.6 0-7.4 4-11.6 3.9-4.2 10.9-4.2 2.1 0 4.2.6 2 .5 4.2 1.7v5.2q-2-1.8-4-2.5-2-.8-4.4-.8-4.7 0-7.2 3t-2.5 8.6q0 5.5 2.5 8.6 2.6 3 7.2 3 2.6 0 4.6-.8 2-.8 3.8-2.5zM499.5 51v4.8q-2-1.2-4.2-1.8-2.2-.7-4.4-.7-3.4 0-5 1.1-1.7 1.1-1.7 3.3 0 2 1.3 3 1.2 1 6.1 2l2 .4q3.7.7 5.6 2.7 1.9 2.1 1.9 5.5 0 4.5-3.2 7t-8.8 2.5q-2.2 0-4.7-.5-2.4-.5-5.3-1.4v-5.1q2.8 1.4 5.3 2.1 2.5.7 4.8.7 3.3 0 5-1.3 1.9-1.3 1.9-3.7 0-3.4-6.6-4.8h-.2l-1.9-.4q-4.3-.8-6.2-2.8-2-2-2-5.4 0-4.3 3-6.6 2.9-2.4 8.3-2.4 2.4 0 4.7.5 2.2.4 4.3 1.3z" aria-label="MergeSemantics" font-family="Menlo,Menlo_MSFontService,sans-serif" font-size="55"/><path fill="#f8f8f2" d="M531.1 35.6q-3.6 6.1-5.3 12.2-1.8 6-1.8 12.2 0 6.2 1.8 12.3 1.7 6 5.3 12.3h-4.3q-4-6.4-6-12.5-2-6-2-12t2-12.1q2-6 6-12.4z" aria-label="(" font-family="Menlo,Menlo_MSFontService,sans-serif" font-size="55"/><path fill="#ffb86c" d="M134.6 144.6q-2 1-4.2 1.6-2.2.6-4.6.6-6 0-9.1-3-3.1-3-3.1-9 0-4 1.4-7.8 1.5-3.9 3.9-6.5 2.5-2.7 5.5-4 3-1.3 6.6-1.3 2.3 0 4.6.6 2.2.6 4.3 1.7l-1 4.9q-1.7-1.6-3.6-2.3-1.9-.7-4.2-.7-3 0-5.2 1.2-2.3 1.2-4 3.6-1.4 2.2-2.3 5-.8 2.8-.8 5.6 0 3.9 1.8 5.9 1.9 1.9 5.5 1.9 2.6 0 5-.8 2.4-.9 4.6-2.6zm36.8-17.2-3.7 18.6h-4.9l3.6-18.7.1-.3q.4-2 .4-3 0-2.2-1.2-3.3-1.3-1.2-3.6-1.2-3.4 0-5.8 2.5t-3.3 7l-3.3 17h-5l8.2-41.8h5l-3.2 16.2q2-2.6 4.4-3.9 2.3-1.3 5-1.3 3.7 0 5.8 2 2 1.9 2 5.4l-.1 2.1-.4 2.7zm13.8-11.4H198l-5.1 26.2h9.8l-.8 3.8h-24.5l.7-3.8h9.8l4.4-22.4h-7.7zm10-11.8h5l-1.3 6.3h-5zm29.6 30.8-.3 1.7v1.2q0 2 1.1 3 1.3 1 3.7 1h5.7l-.9 4.1h-5.5q-4.7 0-7-1.7-2.2-1.7-2.2-5.2l.1-1.9.4-2.3 5.7-27.1H217l.8-3.9h13.4zm35.5-15.6q-2.4 0-4.2 1.2-1.8 1.1-3 3.5-1.4 2.4-2 5.5-.8 3-.8 6.1 0 3.5 1.4 5.2 1.3 1.7 4 1.7 2.3 0 4.2-1.2 1.8-1.2 3.1-3.6 1.3-2.3 2-5.4.8-3.1.8-6.2 0-3.2-1.5-5-1.4-1.8-4-1.8zm7.2.4 3-15.6h5l-8.1 41.8h-5l.7-3.8q-1.7 2.3-4 3.4-2.1 1.2-4.8 1.2-4.4 0-6.8-2.8-2.5-2.9-2.5-8 0-3.7 1.1-7.6 1-4 3-6.8 2-3.2 4.7-4.8 2.7-1.6 6-1.6 2.6 0 4.6 1.2 2 1.1 3 3.4z" aria-label="child" font-family="Menlo,Menlo_MSFontService,sans-serif" font-size="55" font-style="italic"/><path fill="#ff79c6" d="M287 116h8.4v9.6h-8.3zm0 20.2h8.4v9.8h-8.3z" aria-label=":" font-family="Menlo,Menlo_MSFontService,sans-serif" font-size="55"/><path fill="#8be9fd" d="M362.4 127q2 .6 3.6 2.1 1.4 1.5 3.7 6L375 146h-5.8l-4.8-10.1q-2-4.3-3.7-5.6-1.7-1.2-4.3-1.2h-5.2V146h-5.5v-40.1H357q6.6 0 10.1 3t3.5 8.6q0 4-2.1 6.5-2.2 2.5-6.1 3zm-11.1-16.6v14.2h6q3.8 0 5.7-1.7 2-1.8 2-5.4 0-3.5-2.1-5.3-2-1.8-5.9-1.8zm40.3 9q-3.7 0-5.6 3-2 2.8-2 8.6 0 5.7 2 8.7 1.9 2.9 5.6 2.9 3.8 0 5.8-3 1.9-2.9 1.9-8.6 0-5.8-2-8.7-1.9-3-5.7-3zm0-4.2q6.3 0 9.6 4 3.3 4.1 3.3 11.8 0 7.7-3.3 11.8-3.3 4-9.6 4-6.2 0-9.5-4-3.3-4.1-3.3-11.8 0-7.7 3.3-11.7 3.3-4.1 9.5-4.1zm16.6.8h4.9l5.2 24.2 4.3-15.5h4.3l4.3 15.5 5.2-24.3h5l-7.1 30.1h-4.7l-4.8-16.5L420 146h-4.7z" aria-label="Row" font-family="Menlo,Menlo_MSFontService,sans-serif" font-size="55"/><path fill="#f8f8f2" d="M464.6 101.6q-3.5 6.1-5.3 12.2-1.7 6-1.7 12.2 0 6.2 1.7 12.3 1.8 6 5.3 12.3h-4.3q-4-6.4-6-12.5-2-6-2-12t2-12.1q2-6 6-12.4z" aria-label="(" font-family="Menlo,Menlo_MSFontService,sans-serif" font-size="55"/><path fill="#ffb86c" d="M134.6 210.6q-2 1-4.2 1.6-2.2.6-4.6.6-6 0-9.1-3-3.1-3-3.1-9 0-4 1.4-7.8 1.5-3.9 3.9-6.5 2.5-2.7 5.5-4 3-1.3 6.6-1.3 2.3 0 4.6.6 2.2.6 4.3 1.7l-1 4.9q-1.7-1.6-3.6-2.3-1.9-.7-4.2-.7-3 0-5.2 1.2-2.3 1.2-4 3.6-1.4 2.2-2.3 5-.8 2.8-.8 5.6 0 3.9 1.8 5.9 1.9 1.9 5.5 1.9 2.6 0 5-.8 2.4-.9 4.6-2.6zm36.8-17.2-3.7 18.6h-4.9l3.6-18.7.1-.3q.4-2 .4-3 0-2.2-1.2-3.3-1.3-1.2-3.6-1.2-3.4 0-5.8 2.5t-3.3 7l-3.3 17h-5l8.2-41.8h5l-3.2 16.2q2-2.6 4.4-3.9 2.3-1.3 5-1.3 3.7 0 5.8 2 2 1.9 2 5.4l-.1 2.1-.4 2.7zm13.8-11.4H198l-5.1 26.2h9.8l-.8 3.8h-24.5l.7-3.8h9.8l4.4-22.4h-7.7zm10-11.8h5l-1.3 6.3h-5zm29.6 30.8-.3 1.7v1.2q0 2 1.1 3 1.3 1 3.7 1h5.7l-.9 4.1h-5.5q-4.7 0-7-1.7-2.2-1.7-2.2-5.2l.1-1.9.4-2.3 5.7-27.1H217l.8-3.9h13.4zm35.5-15.6q-2.4 0-4.2 1.2-1.8 1.1-3 3.5-1.4 2.4-2 5.5-.8 3-.8 6.1 0 3.5 1.4 5.2 1.3 1.7 4 1.7 2.3 0 4.2-1.2 1.8-1.2 3.1-3.6 1.3-2.3 2-5.4.8-3.1.8-6.2 0-3.2-1.5-5-1.4-1.8-4-1.8zm7.2.4 3-15.6h5l-8.1 41.8h-5l.7-3.8q-1.7 2.3-4 3.4-2.1 1.2-4.8 1.2-4.4 0-6.8-2.8-2.5-2.9-2.5-8 0-3.7 1.1-7.6 1-4 3-6.8 2-3.2 4.7-4.8 2.7-1.6 6-1.6 2.6 0 4.6 1.2 2 1.1 3 3.4zm39.2 2.3q-1.2-1.2-2.8-1.7-1.6-.6-3.6-.6-4.4 0-7.5 3-3.2 3.1-4.2 8.5l-2.9 14.7h-5l6-30h4.8l-1 5.8q1.8-3.2 4.6-5 2.9-1.6 6.5-1.6 2 0 3.5.5t2.6 1.4zm26.6 6.2.2-1.2v-.9q0-3.2-1.7-5-1.8-1.8-4.9-1.8-3.3 0-6 2.4t-4 6.5zm.6 16.2q-2.8 1.1-5.5 1.7-2.7.6-5.5.6-6 0-9-3-3.2-3-3.2-8.8 0-4.1 1.6-8.2 1.6-4 4.5-7 2.2-2.2 4.9-3.4 2.7-1.3 5.6-1.3 5 0 8 3.1 3 3 3 8.2l-.1 2.3-.5 3.4H316l-.2 1.6v1.2q0 3.8 2 5.7 2 2 6 2 2.4 0 5.2-.8 2.8-.7 5.8-2.2zm36.1-17.1-3.6 18.6h-5l3.7-18.7v-.3q.5-2 .5-3 0-2.2-1.3-3.3-1.2-1.2-3.5-1.2-3.5 0-5.8 2.5-2.4 2.5-3.3 7l-3.3 17h-5l6-30h4.9l-.9 4.4q2-2.6 4.3-3.9 2.4-1.3 5-1.3 3.8 0 5.8 2 2.1 1.9 2.1 5.4l-.1 2.1-.5 2.7z" aria-label="children" font-family="Menlo,Menlo_MSFontService,sans-serif" font-size="55" font-style="italic"/><path fill="#ff79c6" d="M386.7 182h8.4v9.6h-8.4zm0 20.2h8.4v9.8h-8.4z" aria-label=":" font-family="Menlo,Menlo_MSFontService,sans-serif" font-size="55"/><path fill="#f8f8f2" d="M456.8 167.5h11.4v3.9h-6.5v41.3h6.5v3.9h-11.4Z" aria-label="[" font-family="Menlo,Menlo_MSFontService,sans-serif" font-size="55"/><path fill="#8be9fd" d="M177.1 237.9h30.6v4.6h-12.5V278h-5.5v-35.5h-12.6Zm61.9 22.6v2.4h-21.4v.2q-.2 6.1 2.4 8.8 2.5 2.7 7.2 2.7 2.4 0 5-.8 2.5-.7 5.5-2.2v4.9q-2.9 1.1-5.5 1.7-2.6.6-5 .6-7 0-11-4.2t-4-11.6q0-7.2 4-11.5 3.8-4.3 10.2-4.3 5.8 0 9 3.9 3.4 3.9 3.6 9.4zm-4.9-1.5q-.3-3-2.3-5.3-2-2.3-5.6-2.3-3.5 0-5.9 2.3-2.3 2.4-2.5 5.4zm38-11-10.8 14.3 11.8 15.7h-5.7l-8.8-12-8.8 12h-5.7l11.8-15.7-10.7-14.4h5.4l8 10.9 8-10.9zm19.6-8.6v8.5h11.2v3.9h-11.2V268q0 3.3 1.2 4.6 1.3 1.4 4.4 1.4h5.6v3.9h-6q-5.6 0-7.9-2.2-2.3-2.3-2.3-7.7v-16.3h-8v-3.9h8v-8.5z" aria-label="Text" font-family="Menlo,Menlo_MSFontService,sans-serif" font-size="55"/><path fill="#f8f8f2" d="M331.7 233.6q-3.6 6.1-5.3 12.2-1.8 6-1.8 12.2 0 6.2 1.8 12.3 1.7 6 5.3 12.3h-4.3q-4-6.4-6-12.5-2-6-2-12t2-12.1q2-6 6-12.4zM361 252h-6.7v-5.5l5.3-10.3h4.1l-2.6 10.3z" aria-label="(‘" font-family="Menlo,Menlo_MSFontService,sans-serif" font-size="55"/><path fill="#8be9fd" d="M400.6 276.6q-2.3 1-4.6 1.6-2.3.6-4.7.6-6.2 0-9.6-3.6-3.4-3.6-3.4-10 0-6 1.9-11.7 1.9-5.8 5-9.5 2.8-3.5 6.3-5.2 3.4-1.6 7.9-1.6 2.1 0 4.2.5 2.2.6 4.2 1.7l-1.1 5.5q-1.8-1.7-3.7-2.5-1.9-.8-4-.8-2.6 0-4.7 1-2.2 1.2-4.1 3.4-2.8 3.3-4.5 8.4-1.7 5.2-1.7 10.4 0 4.6 2 7.1 2.2 2.5 6.1 2.5 2.3 0 4.7-.9 2.5-.8 4.8-2.5zm26.4-25.2q-4.4 0-7.3 4.6-3 4.6-3 11.7 0 3.4 1.5 5.2 1.5 1.7 4.6 1.7 4.4 0 7.3-4.6 3-4.6 3-11.7 0-3.4-1.6-5.2-1.5-1.7-4.5-1.7zm.5-4.2q5.2 0 8 2.9 2.7 2.8 2.7 8.4 0 3.7-1 7.4-1.2 3.6-3.1 6.5-2.2 3.2-5.2 4.8-3 1.6-7 1.6-5 0-7.7-3-2.7-2.9-2.7-8.4 0-3.6 1-7.2 1.2-3.6 3.2-6.7 2.1-3 5-4.7 3.1-1.6 6.8-1.6zm17.8 19.4 3.6-18.7h5l-3.7 18.7-.3 1.9-.1 1.5q0 2.1 1.2 3.3 1.3 1.1 3.6 1.1 3.4 0 5.8-2.4 2.3-2.5 3.2-7l3.3-17h5l-5.9 30h-5l1-4.5q-2 2.6-4.4 4-2.4 1.2-5.2 1.2-3.5 0-5.6-2-2-2-2-5.3l.1-2.3q.1-1.3.4-2.5zm58.1-7.2-3.6 18.6h-5l3.7-18.7v-.3q.5-2 .5-3 0-2.2-1.3-3.3-1.2-1.2-3.6-1.2-3.4 0-5.8 2.5t-3.2 7l-3.3 17h-5l5.9-30h5l-1 4.4q2-2.6 4.4-3.9 2.4-1.3 5-1.3 3.8 0 5.8 2 2 1.9 2 5.4v2.1l-.5 2.7zm24.9-20-1.6 8.5h11.2l-.8 3.9h-11.2l-3.2 16.3-.3 1.5v1.3q0 1.7 1 2.5 1 .7 3.8.7h5.6l-.8 3.9h-6q-4.5 0-6.6-1.5-2.1-1.5-2.1-4.6v-1.6l.4-2.2 3.2-16.3h-8l.8-3.9h8l1.7-8.5z" aria-label="Count" font-family="Menlo,Menlo_MSFontService,sans-serif" font-size="55" font-style="italic"/><path fill="#8be9fd" d="M552.9 248h8.4v9.6h-8.4zm0 20.2h8.4v9.8h-8.4z" aria-label=":" font-family="Menlo,Menlo_MSFontService,sans-serif" font-size="55"/><path fill="#f8f8f2" d="M627 252h-6.7v-5.5l5.2-10.3h4.2l-2.7 10.3Zm23.3-18.4h4.3q4 6.3 6 12.4 2 6 2 12t-2 12.2q-2 6-6 12.4h-4.3q3.6-6.3 5.3-12.4 1.8-6 1.8-12.2 0-6-1.8-12.2-1.7-6-5.3-12.2zm35.7 34.7h8.3v7.1l-6 11.6H683l3-11.6Z" aria-label="‘)," font-family="Menlo,Menlo_MSFontService,sans-serif" font-size="55"/><path fill="#8be9fd" d="M177.1 303.9h30.6v4.6h-12.5V344h-5.5v-35.5h-12.6Zm61.9 22.6v2.4h-21.4v.2q-.2 6.1 2.4 8.8 2.5 2.7 7.2 2.7 2.4 0 5-.8 2.5-.7 5.5-2.2v4.9q-2.9 1.1-5.5 1.7-2.6.6-5 .6-7 0-11-4.2t-4-11.6q0-7.2 4-11.5 3.8-4.3 10.2-4.3 5.8 0 9 3.9 3.4 3.9 3.6 9.4zm-4.9-1.5q-.3-3-2.3-5.3-2-2.3-5.6-2.3-3.5 0-5.9 2.3-2.3 2.4-2.5 5.4zm38-11-10.8 14.3 11.8 15.7h-5.7l-8.8-12-8.8 12h-5.7l11.8-15.7-10.7-14.4h5.4l8 10.9 8-10.9zm19.6-8.6v8.5h11.2v3.9h-11.2V334q0 3.3 1.2 4.6 1.3 1.4 4.4 1.4h5.6v3.9h-6q-5.6 0-7.9-2.2-2.3-2.3-2.3-7.7v-16.3h-8v-3.9h8v-8.5z" aria-label="Text" font-family="Menlo,Menlo_MSFontService,sans-serif" font-size="55"/><path fill="#f8f8f2" d="M331.7 299.6q-3.6 6.1-5.3 12.2-1.8 6-1.8 12.2 0 6.2 1.8 12.3 1.7 6 5.3 12.3h-4.3q-4-6.4-6-12.5-2-6-2-12t2-12.1q2-6 6-12.4zM361 318h-6.7v-5.5l5.3-10.3h4.1l-2.6 10.3zm32.6 10.4v11.7q3-.1 4.6-1.7 1.7-1.5 1.7-4.2 0-2.5-1.6-3.9-1.5-1.4-4.7-1.9zm-2.7-5v-11.2q-2.8.1-4.4 1.6-1.6 1.5-1.6 4 0 2.4 1.5 3.7 1.5 1.4 4.5 1.8zm2.7 28.7h-2.7V344q-2.8-.1-5.5-.8-2.7-.6-5.3-1.7v-4.8q2.7 1.7 5.4 2.5 2.7 1 5.4 1v-12.3q-5.4-.8-8.1-3.3-2.7-2.4-2.7-6.5 0-4.2 2.8-6.7 2.9-2.5 8-2.9v-6.3h2.7v6.3l4.3.6 4.4 1v4.7q-2.3-1.1-4.4-1.8-2.2-.6-4.3-.7v11.6q5.5.8 8.4 3.4 2.9 2.6 2.9 6.7 0 4.2-3.1 7-3.2 2.7-8.2 3zm42.7-26.7V344h-5v-18.6q0-4-1.4-6t-4.4-2q-3.5 0-5.4 2.6-1.8 2.4-1.8 7v17h-5v-30h5v4.4q1.3-2.5 3.5-3.9 2.3-1.3 5.4-1.3 4.6 0 6.8 3 2.3 3 2.3 9.2zm23.1-8.4q.9-2 2.3-2.9 1.4-.9 3.4-.9 3.6 0 5 2.8 1.6 2.8 1.6 10.6V344h-4.5v-17.2q0-6.4-.7-8-.7-1.5-2.6-1.5-2.2 0-3 1.7-.8 1.6-.8 7.8V344h-4.5v-17.2q0-6.5-.7-8-.8-1.5-2.8-1.5-2 0-2.7 1.7-.8 1.6-.8 7.8V344h-4.5v-30h4.5v2.5q1-1.6 2.2-2.4 1.4-.9 3-.9 2.1 0 3.4 1 1.4.9 2.2 2.8zm45.9 3.1q-1.5-1.2-3.2-1.8-1.6-.5-3.6-.5-4.6 0-7 2.9-2.5 2.9-2.5 8.3v15h-5v-30h5v5.8q1.2-3.2 3.8-4.9 2.6-1.7 6.1-1.7 1.8 0 3.4.5 1.6.4 3 1.4zm17.2-17.9h6.8v5.5L524 318h-4.1l2.6-10.3zm29.9 32.1h8.4v7.1l-6 11.6h-5.3l3-11.6z" aria-label="(‘$nmr’," font-family="Menlo,Menlo_MSFontService,sans-serif" font-size="55"/><path fill="#ffb86c" d="m636.8 315-1 4.8q-1.9-1.2-4-1.8-2.1-.7-4.2-.7-3.7 0-5.7 1.4t-2 3.8q0 2.7 6 4.2l.5.1 2 .5q3 .9 4.6 2.5 1.6 1.7 1.6 4.1 0 4.9-3.9 7.9-3.8 3-10.2 3-2.2 0-4.6-.5-2.3-.5-5-1.4l1-5.1q2.5 1.4 4.9 2.1 2.4.7 4.6.7 3.6 0 5.8-1.5 2.3-1.7 2.3-4.1 0-2.7-5.3-4l-.7-.3-1.8-.4q-3.5-1-5.1-2.7-1.6-1.7-1.6-4.4 0-4.6 3.5-7.3 3.6-2.7 9.6-2.7 2.3 0 4.5.5 2.2.4 4.2 1.3zm24.8-9.6-1.7 8.5h11.2l-.7 3.9h-11.2L656 334l-.3 1.5v1.3q0 1.7 1 2.5 1 .7 3.8.7h5.5l-.8 3.9h-6q-4.4 0-6.5-1.5-2.1-1.5-2.1-4.6v-1.6l.4-2.2 3.2-16.3h-8l.7-3.9h8l1.7-8.5zm33.6 28.9-4.5 7.8q-4.1 7.4-5.6 9.3-1.5 2-3.6 3-2 1-4.5 1h-4l.8-4.1h2.9q2.2 0 3.7-1.3 1.6-1.2 3.2-4.2l1.2-2.3-5.9-29.6h5l4.6 23.2 13-23.2h5.5zm28.1-1.3-.3 1.7v1.2q0 2 1 3 1.3 1 3.7 1h5.7l-.8 4.1H727q-4.6 0-7-1.7-2.2-1.7-2.2-5.2l.2-1.9.3-2.3 5.7-27.1h-8.5l.8-3.9h13.4zm42.2-6.7.2-1.2v-.9q0-3.2-1.7-5-1.8-1.8-4.9-1.8-3.3 0-6 2.4t-3.9 6.5zm.6 16.2q-2.8 1.1-5.5 1.7-2.7.6-5.5.6-6 0-9-3-3.2-3-3.2-8.8 0-4.1 1.6-8.2 1.6-4 4.5-7 2.2-2.2 4.9-3.4 2.7-1.3 5.6-1.3 5 0 8 3.1 3 3 3 8.2l-.1 2.3-.5 3.4h-21.6l-.3 1.6v1.2q0 3.8 2 5.7 2 2 6 2 2.4 0 5.2-.8 2.8-.7 5.9-2.2z" aria-label="style" font-family="Menlo,Menlo_MSFontService,sans-serif" font-size="55" font-style="italic"/><path fill="#ff79c6" d="M785.5 314h8.4v9.6h-8.4zm0 20.2h8.4v9.8h-8.4z" aria-label=":" font-family="Menlo,Menlo_MSFontService,sans-serif" font-size="55"/><path fill="#f8f8f2" d="M866.6 315v4.8q-2.2-1.2-4.3-1.8-2.2-.7-4.4-.7-3.3 0-5 1.1-1.6 1.1-1.6 3.3 0 2 1.2 3t6.1 2l2 .4q3.7.7 5.6 2.7 1.9 2.1 1.9 5.5 0 4.5-3.2 7-3.1 2.5-8.8 2.5-2.2 0-4.7-.5-2.4-.5-5.2-1.4v-5.1q2.7 1.4 5.2 2.1 2.6.7 4.8.7 3.3 0 5.1-1.3 1.8-1.3 1.8-3.7 0-3.4-6.6-4.8h-.2l-1.9-.4q-4.2-.8-6.2-2.8-2-2-2-5.4 0-4.3 3-6.6 3-2.4 8.3-2.4 2.5 0 4.7.5 2.2.4 4.4 1.3zm17 24.4H902v4.6h-24.4v-4.6l8.8-9.3q3.8-4 5.2-5.7 2.7-3.3 3.6-5.3 1-2 1-4.2 0-3.3-2-5.2-2-2-5.4-2-2.5 0-5.2 1-2.6.8-5.7 2.6v-5.5q2.8-1.3 5.5-2 2.7-.6 5.3-.6 5.8 0 9.4 3.1 3.6 3.1 3.6 8.2 0 2.6-1.2 5.2-1.2 2.5-3.9 5.7l-4.3 4.8-8.7 9.2zm32.4-39.8h4.3q4 6.3 6 12.4 2 6 2 12t-2 12.2q-2 6-6 12.4H916q3.6-6.3 5.3-12.4 1.8-6 1.8-12.2 0-6-1.8-12.2-1.7-6-5.3-12.2z" aria-label="s2)" font-family="Menlo,Menlo_MSFontService,sans-serif" font-size="55"/><path fill="#f8f8f2" d="M195.2 365.5v49h-11.4v-3.8h6.4v-41.3h-6.4v-3.9z" aria-label="]" font-family="Menlo,Menlo_MSFontService,sans-serif" font-size="55"/><path fill="#f8f8f2" d="M118.7 431.6h4.3q4 6.3 6 12.4 2 6 2 12t-2 12.2q-2 6-6 12.4h-4.3q3.6-6.3 5.4-12.4 1.7-6 1.7-12.2 0-6-1.7-12.2-1.8-6-5.4-12.2zm35.7 34.7h8.4v7.1l-6 11.6h-5.4l3-11.6Z" aria-label=")," font-family="Menlo,Menlo_MSFontService,sans-serif" font-size="55"/><path fill="#f8f8f2" d="M52.3 497.6h4.3q4 6.3 6 12.4 2 6 2 12t-2 12.2q-2 6-6 12.4h-4.3q3.5-6.3 5.3-12.4 1.8-6 1.8-12.2 0-6-1.8-12.2-1.8-6-5.3-12.2z" aria-label=")" font-family="Menlo,Menlo_MSFontService,sans-serif" font-size="55"/></svg>