<?xml version="1.0" encoding="UTF-8" standalone="no"?>
<svg
   xml:space="preserve"
   overflow="hidden"
   viewBox="0 0 1000 450"
   version="1.1"
   id="svg852"
   sodipodi:docname="MergeSemantics.svg"
   inkscape:version="1.2.1 (9c6d41e, 2022-07-14)"
   xmlns:inkscape="http://www.inkscape.org/namespaces/inkscape"
   xmlns:sodipodi="http://sodipodi.sourceforge.net/DTD/sodipodi-0.dtd"
   xmlns="http://www.w3.org/2000/svg"
   xmlns:svg="http://www.w3.org/2000/svg"><defs
     id="defs856" /><sodipodi:namedview
     id="namedview854"
     pagecolor="#ffffff"
     bordercolor="#000000"
     borderopacity="0.25"
     inkscape:showpageshadow="2"
     inkscape:pageopacity="0.0"
     inkscape:pagecheckerboard="0"
     inkscape:deskcolor="#d1d1d1"
     showgrid="false"
     inkscape:zoom="0.52444444"
     inkscape:cx="453.81356"
     inkscape:cy="225"
     inkscape:window-width="1309"
     inkscape:window-height="456"
     inkscape:window-x="0"
     inkscape:window-y="44"
     inkscape:window-maximized="0"
     inkscape:current-layer="svg852" /><path
     fill="#8be9fd"
     d="M34.4 31.3H40l5.5 16 5.4-16h5.6v31.3h-3.9V35l-5.5 16.4h-3.2L38.2 35v27.6h-3.9ZM83 49v2H66.3q-.1 4.9 2 7 1.9 2 5.5 2 2 0 4-.5 2-.6 4.3-1.8v3.9q-2.3.8-4.3 1.3t-4 .5q-5.4 0-8.6-3.3-3.1-3.3-3.1-9.1 0-5.6 3.1-9 3-3.4 8-3.4 4.6 0 7 3 2.7 3.1 2.9 7.4zm-4-1.1q0-2.4-1.7-4.2-1.5-1.8-4.3-1.8-2.9 0-4.7 1.8-1.8 1.9-2 4.2zm30.7-3.9q-1.3-1-2.5-1.4-1.3-.4-2.8-.4-3.7 0-5.6 2.3-2 2.3-2 6.5v11.7H93V39.2h4v4.5q1-2.5 3-3.8 2-1.4 4.7-1.4 1.5 0 2.7.4 1.2.3 2.3 1.1zm19.6 6.8q0-4.3-1.4-6.6-1.4-2.4-4.1-2.4-2.8 0-4.3 2.4-1.6 2.3-1.6 6.6 0 4.4 1.6 6.6 1.5 2.4 4.4 2.4 2.6 0 4-2.4 1.4-2.3 1.4-6.6zm4 10.5q0 5.2-2.5 8-2.6 2.7-7.4 2.7-1.6 0-3.4-.3l-3.5-.8v-4q2.1 1 3.8 1.6 1.7.4 3 .4 3.2 0 4.6-1.7 1.4-1.7 1.4-5.5V59q-.9 2-2.5 3-1.5.9-3.9.9-4 0-6.6-3.3-2.4-3.3-2.4-8.8 0-5.5 2.4-8.9 2.6-3.3 6.6-3.3 2.4 0 4 1 1.5.8 2.4 2.7v-3h4zM160.8 49v2H144q-.2 4.9 1.8 7 2 2 5.6 2 2 0 4-.5 2-.6 4.2-1.8v3.9q-2.1.8-4.3 1.3-2 .5-3.9.5-5.5 0-8.6-3.3-3.1-3.3-3.1-9.1 0-5.6 3.1-9 3-3.4 8-3.4 4.5 0 7.1 3 2.6 3.1 2.8 7.4zm-3.9-1.1q-.2-2.4-1.8-4.2-1.5-1.8-4.3-1.8t-4.7 1.8q-1.7 1.9-2 4.2zm27.6-15.5v4.3q-2-1.2-4-1.8-1.9-.7-3.9-.7-3 0-4.7 1.5-1.8 1.4-1.8 3.7 0 2 1.2 3.1 1.1 1.1 4.2 2l2.3.4q4.4 1 6.4 3.3 2 2.2 2 6 0 4.5-2.7 6.8-2.8 2.4-8.1 2.4-2.2 0-4.4-.5-2.3-.5-4.5-1.4V57q2.4 1.5 4.6 2.2 2.1.7 4.3.7 3.2 0 5-1.5 1.8-1.4 1.8-4 0-2.3-1.3-3.6-1.1-1.2-4.2-1.8l-2.3-.6q-4.3-1-6.3-3t-2-5.4q0-4.1 2.8-6.7 2.9-2.5 7.5-2.5 1.9 0 3.8.4 2 .4 4.3 1.2zM212.8 49v2H196q-.2 4.9 1.8 7 2 2 5.7 2 1.8 0 4-.5 1.9-.6 4.2-1.8v3.9q-2.2.8-4.3 1.3-2 .5-3.9.5-5.5 0-8.6-3.3-3.1-3.3-3.1-9.1 0-5.6 3-9 3-3.4 8.1-3.4 4.5 0 7 3 2.7 3.1 2.9 7.4zm-4-1.1q-.2-2.4-1.7-4.2-1.5-1.8-4.4-1.8-2.8 0-4.7 1.8-1.7 1.9-1.8 4.2zm20.6-6.3q.7-1.6 1.8-2.3 1-.7 2.6-.7 2.8 0 4 2.2Q239 43 239 49v13.6h-3.5V49.2q0-5-.6-6.3-.5-1.2-2-1.2-1.7 0-2.4 1.4-.5 1.2-.5 6v13.5h-3.7V49.2q0-5.1-.5-6.3-.7-1.2-2.2-1.2-1.6 0-2.1 1.4-.7 1.2-.7 6v13.5h-3.5V39.2h3.5v2q.8-1.3 1.8-2t2.3-.7q1.6 0 2.7.8 1 .7 1.6 2.2zm26.4 9.3h-1.3q-3.4 0-5 1.2-1.8 1.2-1.8 3.5 0 2.1 1.3 3.3 1.3 1.2 3.5 1.2 3.3 0 5-2.2 2-2.2 2-6.1v-.9Zm7.6-1.5v13.3h-4v-3.5q-1.2 2.1-3.1 3.2-1.9 1-4.5 1-3.6 0-5.8-2-2.1-2.1-2.1-5.5 0-4 2.6-6t7.8-2h5.1V47q0-2.8-1.4-4-1.4-1.3-4.5-1.3-2 0-4 .6-2 .5-3.8 1.6v-4q2-.7 4-1 2-.5 3.9-.5 2.9 0 4.9.9 2.1.9 3.4 2.6.7 1 1 2.6.5 1.5.5 4.7zM289 48v14.5h-3.9V48.1q0-3.2-1.1-4.7-1-1.6-3.5-1.6-2.7 0-4.2 2t-1.5 5.5v13.3H271V39.2h4v3.4q1-2 2.8-3 1.8-1 4.1-1 3.6 0 5.4 2.3 1.8 2.3 1.8 7.2zm16.7-15.7V39h8.8v3h-8.8v12.7q0 2.6 1 3.6 1 1.1 3.5 1.1h4.3v3.1H310q-4.3 0-6.2-1.7-1.7-1.8-1.7-6V42h-6.3v-3h6.3v-6.7zm19.7 6.8h9.9v20.5h7.7v3h-19.2v-3h7.7V42.2h-6zm6-9.2h4v5h-4zM367 61.4q-1.6.8-3.2 1.3t-3.4.5q-5.4 0-8.6-3.3-3-3.3-3-9.1t3.1-9q3-3.4 8.5-3.4 1.7 0 3.3.5 1.6.4 3.3 1.3v4.1q-1.6-1.4-3.1-2-1.6-.6-3.5-.6-3.6 0-5.6 2.4-2 2.3-2 6.7 0 4.3 2 6.7 2 2.4 5.6 2.4 2 0 3.6-.6 1.6-.7 3-2zm24-21.6v3.8q-1.5-1-3.2-1.4-1.8-.6-3.5-.6-2.6 0-3.9.9-1.3.9-1.3 2.6 0 1.6 1 2.3 1 .8 4.8 1.6l1.5.3q3 .6 4.4 2.1 1.5 1.7 1.5 4.3 0 3.6-2.5 5.5-2.5 2-6.9 2-1.7 0-3.7-.4-1.9-.4-4.1-1.1v-4q2.2 1 4.1 1.6 2 .6 3.8.6 2.6 0 3.9-1 1.5-1 1.5-3 0-2.6-5.2-3.7h-.1l-1.5-.3q-3.4-.6-4.9-2.2-1.5-1.6-1.5-4.2 0-3.4 2.3-5.2 2.3-1.9 6.5-1.9 1.9 0 3.7.4 1.7.3 3.4 1z"
     aria-label="MergeSemantics"
     font-family="Menlo, Menlo_MSFontService, sans-serif"
     font-size="55"
     id="path808" /><path
     fill="#f8f8f2"
     d="M415.9 27.9q-2.8 4.8-4.2 9.5-1.4 4.7-1.4 9.6 0 4.8 1.4 9.6 1.4 4.7 4.2 9.6h-3.4q-3.1-5-4.7-9.7-1.5-4.7-1.5-9.4t1.5-9.5q1.6-4.7 4.7-9.7z"
     aria-label="("
     font-family="Menlo, Menlo_MSFontService, sans-serif"
     font-size="55"
     id="path810" /><path
     fill="#ffb86c"
     d="M105.4 113.2q-1.6.8-3.3 1.3-1.7.5-3.6.5-4.7 0-7.1-2.4-2.4-2.3-2.4-7 0-3.2 1-6.1 1.2-3.1 3.1-5.1 2-2.2 4.3-3.2 2.4-1 5.2-1 1.8 0 3.6.5 1.7.5 3.4 1.3l-.8 3.8q-1.4-1.2-2.8-1.8-1.5-.5-3.3-.5-2.4 0-4.1 1-1.8.9-3.1 2.8-1.1 1.7-1.8 3.9t-.7 4.4q0 3 1.4 4.6 1.5 1.5 4.3 1.5 2 0 4-.7 1.8-.7 3.6-2zm28.8-13.4-2.9 14.5h-3.8l2.8-14.6v-.2q.4-1.6.4-2.4 0-1.7-1-2.6-1-1-2.8-1-2.6 0-4.5 2t-2.6 5.5l-2.6 13.3h-3.9l6.4-32.7h4L121 94.3q1.6-2 3.5-3 1.8-1 3.9-1 2.9 0 4.5 1.5t1.6 4.2v1.7zm10.8-9h10l-4 20.6h7.7l-.6 3h-19.2l.6-3h7.6l3.5-17.6h-6zm7.9-9.2h3.9l-1 5h-4zm23.1 24.1-.2 1.3v1q0 1.6.9 2.3 1 .8 2.9.8h4.4l-.7 3.2H179q-3.7 0-5.5-1.3-1.7-1.3-1.7-4v-1.6l.4-1.8 4.5-21.2h-6.8l.7-3H181zm27.8-12.2q-1.8 0-3.3 1-1.4.8-2.3 2.7-1.1 1.9-1.6 4.3-.6 2.3-.6 4.8 0 2.7 1.1 4 1 1.4 3.1 1.4 1.8 0 3.3-1 1.4-1 2.5-2.8 1-1.8 1.5-4.2.6-2.4.6-4.9 0-2.5-1.1-3.9t-3.2-1.4zm5.7.3 2.3-12.2h4l-6.4 32.7h-4l.6-3q-1.3 1.9-3.1 2.7-1.6 1-3.8 1-3.4 0-5.3-2.2-2-2.3-2-6.3 0-2.9 1-6 .7-3 2.3-5.3 1.5-2.5 3.6-3.7 2.2-1.3 4.7-1.3 2 0 3.6 1 1.6.8 2.4 2.6z"
     aria-label="child"
     font-family="Menlo, Menlo_MSFontService, sans-serif"
     font-size="55"
     font-style="italic"
     id="path812" /><path
     fill="#ff79c6"
     d="M224.7 90.8h6.6v7.6h-6.5zm0 15.9h6.6v7.6h-6.5z"
     aria-label=":"
     font-family="Menlo, Menlo_MSFontService, sans-serif"
     font-size="55"
     id="path814" /><path
     fill="#8be9fd"
     d="M283.8 99.5q1.6.4 2.8 1.6 1.1 1.2 3 4.7l4 8.5h-4.5l-3.7-7.9q-1.6-3.3-3-4.4-1.3-.9-3.3-.9h-4v13.2h-4.4V83h8.9q5.1 0 7.9 2.4 2.7 2.3 2.7 6.7 0 3.1-1.6 5.1-1.8 2-4.8 2.4zm-8.7-13v11h4.7q3 0 4.5-1.3 1.5-1.4 1.5-4.2 0-2.7-1.6-4.1-1.6-1.4-4.6-1.4zm31.6 7q-3 0-4.4 2.3-1.6 2.2-1.6 6.8 0 4.4 1.6 6.8 1.5 2.3 4.4 2.3 3 0 4.5-2.4 1.5-2.3 1.5-6.7 0-4.6-1.6-6.8-1.5-2.4-4.4-2.4zm0-3.3q4.9 0 7.5 3.1 2.6 3.3 2.6 9.3 0 6-2.6 9.2-2.6 3.2-7.5 3.2t-7.5-3.2q-2.6-3.2-2.6-9.2 0-6 2.6-9.2 2.6-3.2 7.5-3.2zm13 .6h3.8l4 19 3.4-12.1h3.4l3.4 12 4-19h4l-5.6 23.6h-3.7l-3.7-12.9-3.8 13h-3.7z"
     aria-label="Row"
     font-family="Menlo, Menlo_MSFontService, sans-serif"
     font-size="55"
     id="path816" /><path
     fill="#f8f8f2"
     d="M363.8 79.6q-2.7 4.7-4.1 9.5-1.4 4.7-1.4 9.6 0 4.8 1.4 9.6 1.4 4.7 4.1 9.6h-3.3q-3.2-5-4.7-9.8-1.6-4.7-1.6-9.4t1.6-9.4q1.5-4.7 4.7-9.7z"
     aria-label="("
     font-family="Menlo, Menlo_MSFontService, sans-serif"
     font-size="55"
     id="path818" /><path
     fill="#ffb86c"
     d="M105.4 165q-1.6.7-3.3 1.2-1.7.4-3.6.4-4.7 0-7.1-2.3-2.4-2.4-2.4-7 0-3.2 1-6.2 1.2-3 3.1-5 2-2.2 4.3-3.2 2.4-1 5.2-1 1.8 0 3.6.5 1.7.4 3.4 1.3l-.8 3.8q-1.4-1.2-2.8-1.8-1.5-.5-3.3-.5-2.4 0-4.1 1-1.8.9-3.1 2.7-1.1 1.8-1.8 4t-.7 4.3q0 3.1 1.4 4.7 1.5 1.5 4.3 1.5 2 0 4-.7 1.8-.7 3.6-2zm28.8-13.6-2.9 14.6h-3.8l2.8-14.6v-.3q.4-1.5.4-2.3 0-1.7-1-2.6-1-1-2.8-1-2.6 0-4.5 2t-2.6 5.5l-2.6 13.3h-3.9l6.4-32.7h4L121 146q1.6-2 3.5-3 1.8-1.1 3.9-1.1 2.9 0 4.5 1.6 1.6 1.4 1.6 4.2v1.6zm10.8-8.9h10l-4 20.5h7.7l-.6 3h-19.2l.6-3h7.6l3.5-17.5h-6zm7.9-9.2h3.9l-1 5h-4zm23.1 24.1-.2 1.3v1q0 1.5.9 2.3 1 .8 2.9.8h4.4l-.7 3.2H179q-3.7 0-5.5-1.3-1.7-1.3-1.7-4V159l.4-1.8 4.5-21.2h-6.8l.7-3H181zm27.8-12.2q-1.8 0-3.3 1-1.4.8-2.3 2.7-1.1 1.8-1.6 4.3-.6 2.3-.6 4.7 0 2.8 1.1 4.1 1 1.4 3.1 1.4 1.8 0 3.3-1 1.4-1 2.5-2.8 1-1.8 1.5-4.2.6-2.5.6-4.9 0-2.5-1.1-4-1.1-1.3-3.2-1.3zm5.7.3 2.3-12.2h4l-6.4 32.7h-4l.6-3q-1.3 1.8-3.1 2.7-1.6 1-3.8 1-3.4 0-5.3-2.3-2-2.2-2-6.2 0-3 1-6 .7-3.1 2.3-5.3 1.5-2.5 3.6-3.8 2.2-1.2 4.7-1.2 2 0 3.6 1 1.6.8 2.4 2.6zm30.7 1.8q-1-1-2.2-1.3-1.3-.5-2.8-.5-3.5 0-6 2.3-2.4 2.5-3.2 6.7l-2.3 11.5h-3.9l4.7-23.5h3.8l-.8 4.6q1.4-2.5 3.6-4 2.3-1.2 5-1.2 1.6 0 2.8.4 1.2.4 2 1zm20.8 4.9.2-1v-.7q0-2.5-1.4-4-1.4-1.3-3.8-1.3-2.6 0-4.7 1.9-2.1 1.8-3.1 5zm.5 12.6q-2.2.9-4.3 1.4-2.1.4-4.3.4-4.7 0-7-2.3-2.6-2.4-2.6-6.9 0-3.2 1.3-6.4 1.2-3.2 3.5-5.5 1.7-1.7 3.8-2.7 2.1-1 4.4-1 4 0 6.3 2.4t2.3 6.5v1.8l-.5 2.6h-17l-.1 1.3v1q0 2.9 1.6 4.4 1.5 1.6 4.7 1.6 1.8 0 4-.7 2.2-.5 4.6-1.7zm28.2-13.4L287 166h-4l2.9-14.6v-.3q.4-1.5.4-2.3 0-1.7-1-2.6-1-1-2.8-1-2.7 0-4.5 2-1.9 2-2.6 5.5l-2.6 13.3H269l4.7-23.5h3.8l-.7 3.5q1.6-2 3.4-3 1.9-1.1 4-1.1 2.9 0 4.5 1.6 1.6 1.4 1.6 4.2v1.6z"
     aria-label="children"
     font-family="Menlo, Menlo_MSFontService, sans-serif"
     font-size="55"
     font-style="italic"
     id="path820" /><path
     fill="#ff79c6"
     d="M302.8 142.5h6.6v7.5h-6.6zm0 15.8h6.6v7.7h-6.6z"
     aria-label=":"
     font-family="Menlo, Menlo_MSFontService, sans-serif"
     font-size="55"
     id="path822" /><path
     fill="#f8f8f2"
     d="M357.7 131.2h9v3h-5.1v32.4h5v3h-8.9z"
     aria-label="["
     font-family="Menlo, Menlo_MSFontService, sans-serif"
     font-size="55"
     id="path824" /><path
     fill="#8be9fd"
     d="M138.7 186.3h24v3.6h-9.8v27.8h-4.3v-27.8h-10zm48.5 17.7v1.9h-16.8v.1q-.2 4.8 1.9 7 2 2 5.6 2 1.9 0 4-.6 1.9-.5 4.2-1.7v3.8q-2.2.9-4.3 1.4-2 .4-3.9.4-5.5 0-8.6-3.3-3.1-3.3-3.1-9t3.1-9q3-3.4 8-3.4 4.5 0 7 3 2.7 3 2.9 7.4zm-3.9-1.2q-.2-2.3-1.8-4.1-1.5-1.8-4.4-1.8-2.7 0-4.6 1.8-1.8 1.8-2 4.2zm29.8-8.6-8.5 11.2 9.3 12.3h-4.5l-6.9-9.4-6.9 9.4h-4.4l9.2-12.3-8.4-11.3h4.2l6.3 8.6 6.3-8.6zm15.3-6.7v6.6h8.8v3h-8.8V210q0 2.6 1 3.6t3.4 1h4.4v3.1h-4.7q-4.4 0-6.2-1.7-1.8-1.8-1.8-6v-13h-6.3v-3h6.3v-6.7z"
     aria-label="Text"
     font-family="Menlo, Menlo_MSFontService, sans-serif"
     font-size="55"
     id="path826" /><path
     fill="#f8f8f2"
     d="M259.7 183q-2.8 4.7-4.1 9.5-1.4 4.7-1.4 9.5 0 4.9 1.4 9.7 1.3 4.7 4.1 9.6h-3.3q-3.2-5-4.7-9.8-1.6-4.7-1.6-9.4t1.6-9.5q1.5-4.7 4.7-9.7zm23 14.3h-5.3V193l4.2-8h3.2l-2 8z"
     aria-label="(‘"
     font-family="Menlo, Menlo_MSFontService, sans-serif"
     font-size="55"
     id="path828" /><path
     fill="#8be9fd"
     d="M313.7 216.6q-1.8.8-3.6 1.3-1.8.4-3.7.4-4.8 0-7.5-2.8t-2.7-7.8q0-4.7 1.5-9.2 1.5-4.5 4-7.4 2.1-2.8 4.9-4.1 2.6-1.3 6.2-1.3 1.6 0 3.3.4 1.7.5 3.2 1.4l-.8 4.3q-1.4-1.4-3-2-1.4-.6-3-.6-2 0-3.7.8-1.8 1-3.2 2.6-2.2 2.6-3.6 6.6-1.3 4-1.3 8.2 0 3.6 1.6 5.5 1.7 2 4.7 2 1.8 0 3.7-.7 2-.7 3.8-2zm20.7-19.7q-3.5 0-5.7 3.6-2.4 3.6-2.4 9.1 0 2.7 1.2 4.1 1.2 1.3 3.6 1.3 3.4 0 5.7-3.6 2.4-3.6 2.4-9.1 0-2.7-1.3-4.1-1.2-1.3-3.5-1.3zm.4-3.3q4 0 6.2 2.2 2.1 2.2 2.1 6.6 0 3-.7 5.8-1 2.8-2.5 5.1-1.7 2.5-4 3.8-2.4 1.2-5.5 1.2-4 0-6-2.3-2.2-2.3-2.2-6.6 0-2.8.8-5.6 1-2.9 2.5-5.3 1.7-2.3 4-3.7 2.4-1.2 5.3-1.2zm14 15.2 2.7-14.7h4l-3 14.7-.2 1.5v1.1q0 1.7.9 2.6 1 .9 2.8.9 2.7 0 4.5-1.9 1.8-2 2.5-5.5l2.6-13.3h4l-4.7 23.5H361l.8-3.5q-1.6 2-3.5 3.1-1.8 1-4 1-2.8 0-4.4-1.6-1.6-1.6-1.6-4.2v-1.8l.4-2zm45.4-5.7-2.8 14.6h-4l3-14.6v-.3q.4-1.5.4-2.3 0-1.8-1-2.6-1-1-2.9-1-2.6 0-4.5 2t-2.5 5.5l-2.6 13.3h-4l4.7-23.5h4l-.9 3.5q1.6-2 3.5-3.1 1.9-1 3.9-1 3 0 4.5 1.5 1.6 1.5 1.6 4.3v1.6zm19.5-15.6-1.2 6.6h8.7l-.6 3h-8.8l-2.5 12.8-.2 1.2v1q0 1.4.8 2 .7.5 3 .5h4.3l-.6 3.1h-4.7q-3.5 0-5.2-1.2-1.6-1.2-1.6-3.6v-1.2l.3-1.8 2.5-12.7h-6.3l.7-3h6.2l1.4-6.7z"
     aria-label="Count"
     font-family="Menlo, Menlo_MSFontService, sans-serif"
     font-size="55"
     font-style="italic"
     id="path830" /><path
     fill="#8be9fd"
     d="M433 194.2h6.5v7.5H433zm0 15.8h6.5v7.7H433z"
     aria-label=":"
     font-family="Menlo, Menlo_MSFontService, sans-serif"
     font-size="55"
     id="path832" /><path
     fill="#f8f8f2"
     d="M491 197.3h-5.3V193l4.1-8h3.3l-2.1 8zm18.2-14.4h3.4q3.1 5 4.7 9.7 1.6 4.7 1.6 9.4t-1.6 9.6q-1.6 4.7-4.7 9.7h-3.4q2.9-5 4.2-9.7 1.4-4.7 1.4-9.6 0-4.7-1.4-9.5-1.3-4.7-4.2-9.6zm28 27.2h6.5v5.6l-4.7 9h-4.2l2.4-9z"
     aria-label="‘),"
     font-family="Menlo, Menlo_MSFontService, sans-serif"
     font-size="55"
     id="path834" /><path
     fill="#8be9fd"
     d="M138.7 238h24v3.6h-9.8v27.8h-4.3v-27.8h-10zm48.5 17.7v1.9h-16.8v.1q-.2 4.8 1.9 6.9 2 2.1 5.6 2.1 1.9 0 4-.6 1.9-.6 4.2-1.7v3.8q-2.2.9-4.3 1.3-2 .5-3.9.5-5.5 0-8.6-3.3-3.1-3.3-3.1-9t3.1-9q3-3.4 8-3.4 4.5 0 7 3 2.7 3 2.9 7.4zm-3.9-1.2q-.2-2.3-1.8-4.1-1.5-1.8-4.4-1.8-2.7 0-4.6 1.8-1.8 1.8-2 4.2zm29.8-8.6-8.5 11.2 9.3 12.3h-4.5l-6.9-9.4-6.9 9.4h-4.4l9.2-12.3-8.4-11.3h4.2l6.3 8.5 6.3-8.5zm15.3-6.7v6.6h8.8v3h-8.8v12.8q0 2.5 1 3.6 1 1 3.4 1h4.4v3.1h-4.7q-4.4 0-6.2-1.7-1.8-1.8-1.8-6v-12.8h-6.3v-3h6.3V239z"
     aria-label="Text"
     font-family="Menlo, Menlo_MSFontService, sans-serif"
     font-size="55"
     id="path836" /><path
     fill="#f8f8f2"
     d="M259.7 234.6q-2.8 4.8-4.1 9.6-1.4 4.7-1.4 9.5 0 4.9 1.4 9.7 1.3 4.7 4.1 9.6h-3.3q-3.2-5-4.7-9.8-1.6-4.7-1.6-9.4t1.6-9.5q1.5-4.7 4.7-9.7zm23 14.4h-5.3v-4.3l4.2-8h3.2l-2 8zm25.5 8.2v9.1q2.4 0 3.6-1.3 1.4-1.2 1.4-3.3 0-2-1.3-3-1.2-1.1-3.7-1.5zm-2-4v-8.7q-2.3 0-3.5 1.2-1.3 1.2-1.3 3.2 0 1.8 1.2 2.9 1.2 1 3.5 1.4zm2 22.5h-2v-6.3q-2.3-.1-4.4-.6-2.1-.5-4.1-1.4v-3.7q2 1.3 4.2 2 2 .7 4.2.7v-9.6q-4.2-.7-6.3-2.6-2.1-1.9-2.1-5.1 0-3.3 2.1-5.2 2.3-2 6.3-2.3v-5h2.1v5l3.4.5 3.4.7v3.7l-3.4-1.4q-1.7-.5-3.4-.5v9q4.3.7 6.6 2.7t2.3 5.3q0 3.2-2.5 5.4-2.5 2.1-6.4 2.4zm33.5-20.9v14.6h-4v-14.6q0-3.1-1-4.7-1.1-1.5-3.5-1.5-2.7 0-4.2 2-1.4 1.9-1.4 5.5v13.3h-4v-23.5h4v3.4q1-2 2.7-3 1.8-1 4.2-1 3.6 0 5.4 2.3 1.8 2.4 1.8 7.2zm18-6.6q.8-1.5 1.9-2.2 1-.7 2.6-.7 2.8 0 4 2.2 1.2 2.1 1.2 8.3v13.6h-3.5v-13.5q0-5-.6-6.3-.5-1.1-2-1.1-1.7 0-2.4 1.3-.6 1.3-.6 6.1v13.5h-3.5v-13.5q0-5-.6-6.3-.6-1.1-2.2-1.1-1.5 0-2 1.3-.7 1.3-.7 6.1v13.5h-3.5v-23.5h3.5v2q.8-1.3 1.7-2 1.1-.6 2.4-.6 1.6 0 2.6.7 1.1.8 1.7 2.2zm36 2.5q-1.2-1-2.5-1.4-1.3-.4-2.8-.4-3.6 0-5.5 2.2-2 2.3-2 6.5v11.8H379v-23.5h4v4.5q.9-2.5 2.9-3.8 2-1.3 4.8-1.3 1.4 0 2.6.4 1.3.3 2.4 1zm13.5-14h5.3v4.3l-4.2 8h-3.2l2-8zm23.4 25h6.6v5.6l-4.7 9.1h-4.2l2.4-9z"
     aria-label="(‘$nmr’,"
     font-family="Menlo, Menlo_MSFontService, sans-serif"
     font-size="55"
     id="path838" /><path
     fill="#ffb86c"
     d="m498.7 246.7-.8 3.7q-1.5-1-3.1-1.4-1.7-.5-3.3-.5-3 0-4.5 1-1.6 1.2-1.6 3 0 2.2 4.7 3.3l.4.1 1.6.4q2.3.7 3.6 2 1.2 1.3 1.2 3.2 0 3.8-3 6.2-3 2.3-8 2.3-1.7 0-3.6-.4l-4-1 .9-4q2 1 3.8 1.6 1.9.5 3.6.5 2.8 0 4.6-1.2 1.8-1.3 1.8-3.2 0-2-4.2-3.1l-.5-.2-1.5-.3q-2.7-.8-4-2.2-1.2-1.3-1.2-3.4 0-3.6 2.7-5.7 2.9-2.1 7.6-2.1 1.8 0 3.5.4 1.7.3 3.3 1zm19.4-7.5-1.3 6.6h8.7l-.5 3h-8.8l-2.5 12.8-.2 1.1v1q0 1.4.8 2 .7.5 3 .5h4.2l-.6 3.1h-4.7q-3.4 0-5-1.2-1.7-1.1-1.7-3.6v-1.2l.3-1.7 2.5-12.8H506l.6-3h6.2l1.4-6.7zm26.3 22.6-3.5 6q-3.2 5.9-4.4 7.4-1.2 1.5-2.8 2.3-1.6.8-3.6.8h-3l.5-3.2h2.3q1.7 0 3-1 1.2-1 2.4-3.3l1-1.8-4.7-23.2h4l3.6 18.2 10.1-18.2h4.3zm22-1-.2 1.3v1q0 1.5.8 2.3 1 .8 2.9.8h4.4l-.6 3.2h-4.4q-3.6 0-5.5-1.3-1.7-1.4-1.7-4.1l.2-1.5.2-1.8 4.5-21.2h-6.7l.6-3h10.5zm33-5.3.2-1v-.6q0-2.5-1.3-4-1.4-1.3-3.9-1.3t-4.7 1.8q-2 2-3 5.1zm.5 12.7q-2.2.9-4.3 1.3-2.1.5-4.3.5-4.7 0-7-2.3-2.5-2.4-2.5-7 0-3.1 1.2-6.4 1.3-3 3.5-5.4 1.8-1.8 3.9-2.7 2-1 4.4-1 3.9 0 6.2 2.4 2.4 2.4 2.4 6.4l-.1 1.8-.4 2.7h-17l-.2 1.2v1q0 3 1.6 4.5t4.7 1.5q1.9 0 4-.6 2.3-.6 4.7-1.7z"
     aria-label="style"
     font-family="Menlo, Menlo_MSFontService, sans-serif"
     font-size="55"
     font-style="italic"
     id="path840" /><path
     fill="#ff79c6"
     d="M615.1 245.9h6.6v7.5H615zm0 15.8h6.6v7.7H615z"
     aria-label=":"
     font-family="Menlo, Menlo_MSFontService, sans-serif"
     font-size="55"
     id="path842" /><path
     fill="#f8f8f2"
     d="M678.6 246.7v3.7q-1.7-1-3.3-1.4-1.8-.5-3.5-.5-2.6 0-4 .8-1.2.9-1.2 2.6 0 1.6 1 2.4 1 .8 4.8 1.5l1.5.3q3 .6 4.4 2.2 1.5 1.6 1.5 4.3 0 3.5-2.5 5.5-2.4 2-6.9 2-1.7 0-3.7-.5l-4-1v-4q2 1 4 1.6 2 .5 3.8.5 2.6 0 4-1t1.4-2.9q0-2.7-5.2-3.8h-.1l-1.5-.3q-3.3-.6-4.9-2.2-1.6-1.5-1.6-4.2 0-3.4 2.4-5.2 2.3-1.8 6.5-1.8 2 0 3.7.4 1.7.3 3.4 1zm13.3 19h14.4v3.7h-19v-3.6l6.8-7.3q3-3.1 4.1-4.5 2.1-2.6 2.8-4.1.8-1.6.8-3.3 0-2.6-1.6-4-1.5-1.6-4.2-1.6-2 0-4 .7-2.1.7-4.5 2v-4.2q2.2-1 4.3-1.6 2-.5 4.1-.5 4.6 0 7.4 2.5 2.8 2.4 2.8 6.4 0 2-1 4-.9 2-3 4.5l-3.4 3.8zm25.4-31h3.4q3.1 4.8 4.7 9.6 1.5 4.7 1.5 9.4t-1.5 9.6q-1.6 4.7-4.7 9.7h-3.4q2.8-5 4.2-9.7 1.4-4.7 1.4-9.6 0-4.7-1.4-9.5-1.4-4.7-4.2-9.6z"
     aria-label="s2)"
     font-family="Menlo, Menlo_MSFontService, sans-serif"
     font-size="55"
     id="path844" /><path
     fill="#f8f8f2"
     d="M152.9 286.2v38.4h-9v-3h5v-32.3h-5v-3z"
     aria-label="]"
     font-family="Menlo, Menlo_MSFontService, sans-serif"
     font-size="55"
     id="path846" /><path
     fill="#f8f8f2"
     d="M93 338h3.3q3.2 5 4.7 9.7 1.6 4.7 1.6 9.4t-1.6 9.5q-1.5 4.7-4.7 9.8H93q2.8-5 4.2-9.8 1.3-4.7 1.3-9.5 0-4.7-1.3-9.6-1.4-4.7-4.2-9.5zm28 27.2h6.5v5.5l-4.7 9.1h-4.2l2.3-9z"
     aria-label="),"
     font-family="Menlo, Menlo_MSFontService, sans-serif"
     font-size="55"
     id="path848" /><path
     fill="#f8f8f2"
     d="M41 389.7h3.3q3.2 4.9 4.7 9.7 1.6 4.7 1.6 9.4t-1.6 9.5q-1.5 4.7-4.7 9.7H41q2.7-4.9 4.1-9.7 1.4-4.7 1.4-9.5 0-4.7-1.4-9.6-1.4-4.7-4.1-9.5z"
     aria-label=")"
     font-family="Menlo, Menlo_MSFontService, sans-serif"
     font-size="55"
     id="path850" /></svg>
