<svg xmlns="http://www.w3.org/2000/svg" xmlns:xlink="http://www.w3.org/1999/xlink" fill="none" viewBox="0 0 414 851"><defs><path id="g" fill="#fff" d="M24 402a12 12 0 0 1 12-12h296a12 12 0 0 1 12 12v104a12 12 0 0 1-12 12H24Z"/></defs><path fill="#fff" fill-rule="evenodd" d="M-14.3 804.09h433.96v146.52H-14.3z" paint-order="markers stroke fill"/><g clip-path="url(#a)"><path fill="#fafafa" d="M0 0h414l10.13 803.62H-1.52Z"/><path fill="#1c3760" fill-rule="evenodd" d="M0 0v24h414V0Z" clip-rule="evenodd"/><mask id="b" width="16" height="12" x="301" y="6" maskUnits="userSpaceOnUse"><path fill="#fff" fill-rule="evenodd" d="m301 6 8 12 8-12z" clip-rule="evenodd"/></mask><g fill="#fff" fill-rule="evenodd" clip-rule="evenodd" mask="url(#b)"><path fill-opacity=".3" d="M309 6c-6.6 0-12 5.4-12 12s5.4 12 12 12 12-5.4 12-12-5.4-12-12-12zm0 21c-5 0-9-4-9-9s4-9 9-9 9 4 9 9-4 9-9 9z"/><path d="M309 9c-5 0-9 4-9 9s4 9 9 9 9-4 9-9-4-9-9-9zm0 15c-3.3 0-6-2.7-6-6s2.7-6 6-6 6 2.7 6 6-2.7 6-6 6z"/><path d="M309 12c-3.3 0-6 2.7-6 6s2.7 6 6 6 6-2.7 6-6-2.7-6-6-6zm0 9c-1.7 0-3-1.3-3-3s1.3-3 3-3 3 1.3 3 3-1.3 3-3 3z"/><path d="M309 21a3 3 0 1 0 0-6 3 3 0 0 0 0 6z"/></g><mask id="c" width="12" height="12" x="327" y="6" maskUnits="userSpaceOnUse"><path fill="#fff" fill-rule="evenodd" d="M339 18V6l-12 12z" clip-rule="evenodd"/></mask><g fill="#fff" fill-rule="evenodd" clip-rule="evenodd" mask="url(#c)"><path fill-opacity=".3" d="M336 6v12h3V6Zm-3 0v12h3V6Z"/><path d="M330 6v12h3V6Zm-3 0v12h3V6Z"/></g><mask id="d" width="8" height="13" x="353" y="5" maskUnits="userSpaceOnUse"><path fill="#fff" fill-rule="evenodd" d="M360 6h-1V5h-4v1h-1c-.6 0-1 .4-1 1v10c0 .6.4 1 1 1h6c.6 0 1-.4 1-1V7c0-.6-.4-1-1-1z" clip-rule="evenodd"/></mask><g fill="#fff" fill-rule="evenodd" clip-rule="evenodd" mask="url(#d)"><path d="M353 15v3h8v-3zm0-3v3h8v-3z"/><path fill-opacity=".3" d="M353 9v3h8V9Zm0-3v3h8V6Zm2-1v1h4V5Z"/></g><path fill="#fff" d="M377.63 17V7.78h-.85a1.8 1.8 0 0 1-.95 1.4c-.23.12-.5.22-.79.27-.3.04-.6.06-.9.06v.89h2.38V17Zm3.17-5.95h1.1c0-.28.02-.55.08-.82.07-.28.18-.53.32-.74a1.6 1.6 0 0 1 1.4-.73 1.75 1.75 0 0 1 1.24.45 1.62 1.62 0 0 1 .54 1.21 2.13 2.13 0 0 1-.6 1.52c-.2.21-.44.42-.73.63l-1.03.66c-.32.2-.63.4-.92.61a3.84 3.84 0 0 0-1.38 1.77c-.15.38-.24.84-.28 1.39h6.01v-.97h-4.73c.05-.3.16-.54.33-.76.17-.22.37-.43.6-.62.25-.2.52-.37.8-.54l.86-.52c.29-.18.56-.37.83-.57.27-.2.5-.42.72-.66a3.06 3.06 0 0 0 .69-1.93 2.58 2.58 0 0 0-.84-1.96 3.37 3.37 0 0 0-2.04-.69c-.5 0-.93.09-1.31.25a2.67 2.67 0 0 0-1.52 1.72c-.12.4-.17.83-.14 1.3zm9.17.67v-1.44h-1.44v1.44zm-1.44 3.84V17h1.44v-1.44zm5.37-3.83v.94c.2-.03.43-.04.66-.04.28 0 .54.04.77.12.24.07.45.18.62.34a1.72 1.72 0 0 1 .57 1.31 1.7 1.7 0 0 1-.6 1.31 2.15 2.15 0 0 1-1.4.47c-.63 0-1.11-.19-1.44-.56-.33-.38-.5-.87-.52-1.47h-1.1a2.85 2.85 0 0 0 .81 2.23c.27.25.6.44.98.57a4.29 4.29 0 0 0 2.5.03c.39-.13.72-.3 1-.54.3-.23.52-.52.69-.87.17-.36.26-.76.26-1.22a2.5 2.5 0 0 0-.42-1.45 1.9 1.9 0 0 0-1.25-.79v-.02c.37-.17.67-.41.91-.73s.37-.7.37-1.1c0-.43-.08-.8-.23-1.11a1.98 1.98 0 0 0-.58-.77c-.25-.2-.55-.35-.9-.44a3.74 3.74 0 0 0-2.32.06c-.35.15-.64.35-.88.61a3 3 0 0 0-.54.94c-.12.36-.2.77-.21 1.21h1.1c0-.27.04-.52.1-.77.08-.24.18-.45.32-.63.15-.19.33-.33.55-.43.22-.12.48-.17.78-.17.47 0 .86.12 1.17.37.3.25.47.62.47 1.11a1.43 1.43 0 0 1-.54 1.13c-.15.12-.34.22-.56.29-.2.06-.43.09-.66.09h-.36c-.04 0-.08 0-.12-.02zm6.1.73v-.74a8.46 8.46 0 0 1 .24-1.62c.08-.26.18-.49.32-.68a1.6 1.6 0 0 1 1.34-.66c.31 0 .58.06.8.18a1.89 1.89 0 0 1 .86 1.16c.07.26.13.53.16.8.05.27.07.54.07.82a22.18 22.18 0 0 1-.03 1.91c-.02.43-.09.83-.2 1.21-.12.37-.3.7-.57.95-.26.26-.62.4-1.09.4-.47 0-.83-.14-1.09-.4a2.34 2.34 0 0 1-.57-.95 5.4 5.4 0 0 1-.2-1.2 30.2 30.2 0 0 1-.04-1.18zm-1.17.02.03 1.05a5.3 5.3 0 0 0 .43 2.05 2.44 2.44 0 0 0 1.38 1.37c.34.13.76.2 1.23.2.49 0 .9-.07 1.24-.2a2.44 2.44 0 0 0 1.38-1.37c.13-.3.23-.64.3-.99.06-.34.1-.7.13-1.06a22.61 22.61 0 0 0 0-2.1 7.17 7.17 0 0 0-.13-1.07 5.2 5.2 0 0 0-.3-1 2.41 2.41 0 0 0-1.4-1.38c-.33-.13-.74-.2-1.22-.2-.47 0-.88.07-1.23.21a2.44 2.44 0 0 0-1.38 1.38 5.2 5.2 0 0 0-.3.99c-.07.34-.11.7-.13 1.06-.02.37-.02.72-.02 1.06z"/><g filter="url(#e)"><path fill="#fff" d="M1.1 801.41h413.27L414 852H0Z"/></g><path fill="#757575" d="M161.18 821.86h-3.66V832h-1.49v-10.14h-3.65v-1.23h8.8zm3.66 8.02 1.97-6.33h1.55l-3.4 9.76c-.53 1.4-1.36 2.1-2.5 2.1l-.28-.02-.54-.1v-1.17l.4.03c.48 0 .86-.1 1.13-.3.28-.2.5-.56.68-1.08l.32-.86-3.01-8.36h1.57zm11.96-2.01c0 1.28-.3 2.32-.89 3.1a2.83 2.83 0 0 1-2.39 1.19 3.1 3.1 0 0 1-2.42-.98v4.07h-1.44v-11.7h1.32l.07.93a2.98 2.98 0 0 1 2.45-1.09c1.02 0 1.82.38 2.4 1.15.6.77.9 1.83.9 3.2zm-1.45-.17c0-.95-.2-1.7-.6-2.25a1.96 1.96 0 0 0-1.68-.83c-.88 0-1.53.39-1.97 1.16v4.04c.43.77 1.1 1.16 1.99 1.16.69 0 1.24-.28 1.64-.82.42-.56.62-1.37.62-2.46zm6.8 4.46a3.7 3.7 0 0 1-2.8-1.13 4.2 4.2 0 0 1-1.08-3.02v-.27c0-.84.16-1.58.48-2.24.32-.66.77-1.18 1.34-1.55.58-.37 1.2-.56 1.88-.56 1.1 0 1.95.36 2.56 1.09.61.72.92 1.76.92 3.1v.6h-5.73c.02.84.26 1.52.72 2.03.47.51 1.07.77 1.79.77.5 0 .94-.1 1.3-.32.35-.2.66-.48.92-.82l.89.68a3.55 3.55 0 0 1-3.2 1.64zm-.18-7.58c-.59 0-1.07.21-1.47.64a3 3 0 0 0-.73 1.78H184v-.1a2.74 2.74 0 0 0-.6-1.71 1.8 1.8 0 0 0-1.43-.61zM196.3 832a3.05 3.05 0 0 1-.2-.9 3.22 3.22 0 0 1-2.4 1.06c-.84 0-1.53-.24-2.06-.7a2.3 2.3 0 0 1-.8-1.8c0-.88.34-1.57 1-2.05a4.73 4.73 0 0 1 2.83-.73h1.4v-.67c0-.5-.14-.9-.45-1.2-.3-.3-.74-.45-1.33-.45-.52 0-.95.13-1.3.39-.35.26-.52.57-.52.94h-1.46c0-.42.15-.83.45-1.22.3-.4.7-.7 1.22-.94a4.12 4.12 0 0 1 1.7-.34c.97 0 1.73.25 2.28.74.55.48.84 1.15.86 2v3.9c0 .77.1 1.39.3 1.85v.12Zm-2.4-1.1c.46 0 .89-.12 1.3-.35.4-.24.7-.54.88-.92v-1.73h-1.14c-1.77 0-2.65.52-2.65 1.55 0 .46.15.81.45 1.07.3.25.69.38 1.16.38zm11.22-7.35.03.93a3.12 3.12 0 0 1 2.51-1.09c1.18 0 1.99.45 2.42 1.36.28-.4.64-.73 1.09-.98.45-.25.99-.38 1.6-.38 1.86 0 2.8.98 2.83 2.95V832h-1.45v-5.58c0-.6-.13-1.05-.41-1.35-.28-.3-.74-.45-1.4-.45-.53 0-.97.16-1.33.48-.35.32-.56.75-.61 1.3v5.6h-1.46v-5.54c0-1.23-.6-1.84-1.8-1.84-.95 0-1.6.4-1.95 1.2V832h-1.44v-8.45zm16.18 8.6a3.7 3.7 0 0 1-2.8-1.12 4.2 4.2 0 0 1-1.08-3.02v-.27c0-.84.16-1.58.48-2.24.32-.66.77-1.18 1.34-1.55.58-.37 1.2-.56 1.88-.56 1.1 0 1.95.36 2.56 1.09.6.72.91 1.76.91 3.1v.6h-5.72c.02.84.26 1.52.72 2.03.47.51 1.06.77 1.78.77.51 0 .95-.1 1.3-.32.35-.2.66-.48.93-.82l.88.68a3.55 3.55 0 0 1-3.18 1.64zm-.18-7.57a1.9 1.9 0 0 0-1.47.64c-.4.42-.64 1.01-.74 1.78h4.24v-.1a2.72 2.72 0 0 0-.6-1.71 1.8 1.8 0 0 0-1.43-.61zm10.07 5.18c0-.4-.14-.7-.44-.9-.3-.23-.8-.41-1.54-.57a7.38 7.38 0 0 1-1.74-.56 2.52 2.52 0 0 1-.96-.78 2.2 2.2 0 0 1 .57-2.84 3.45 3.45 0 0 1 2.25-.72c.96 0 1.74.25 2.33.74.6.5.9 1.13.9 1.9h-1.45c0-.4-.17-.74-.51-1.02a1.87 1.87 0 0 0-1.27-.43c-.52 0-.93.11-1.23.34-.3.23-.45.53-.45.9 0 .35.14.61.42.79.27.18.77.35 1.49.5a8 8 0 0 1 1.76.59c.45.22.78.49.99.8.22.32.33.7.33 1.16 0 .75-.3 1.36-.9 1.82-.61.45-1.4.68-2.36.68-.68 0-1.27-.12-1.8-.36a2.97 2.97 0 0 1-1.22-1 2.4 2.4 0 0 1-.44-1.4h1.45c.02.48.21.87.57 1.16.37.28.85.42 1.44.42.55 0 .99-.11 1.31-.33.34-.23.5-.52.5-.9zm8.25 0c0-.4-.14-.7-.44-.9-.3-.23-.8-.41-1.54-.57a7.38 7.38 0 0 1-1.74-.56 2.52 2.52 0 0 1-.96-.78 2.2 2.2 0 0 1 .57-2.84 3.45 3.45 0 0 1 2.25-.72c.96 0 1.74.25 2.33.74.6.5.9 1.13.9 1.9h-1.45c0-.4-.17-.74-.51-1.02a1.87 1.87 0 0 0-1.27-.43c-.52 0-.93.11-1.23.34-.3.23-.45.53-.45.9 0 .35.14.61.42.79.27.18.77.35 1.49.5a8 8 0 0 1 1.76.59c.45.22.78.49.99.8.22.32.33.7.33 1.16 0 .75-.3 1.36-.9 1.82-.61.45-1.4.68-2.36.68-.68 0-1.27-.12-1.8-.36a2.97 2.97 0 0 1-1.22-1 2.4 2.4 0 0 1-.44-1.4h1.45c.02.48.21.87.57 1.16.37.28.85.42 1.44.42.55 0 .99-.11 1.31-.33.34-.23.5-.52.5-.9zM248 832a3.05 3.05 0 0 1-.2-.9 3.22 3.22 0 0 1-2.4 1.06 3 3 0 0 1-2.06-.7 2.3 2.3 0 0 1-.8-1.8c0-.88.33-1.57 1-2.05a4.74 4.74 0 0 1 2.83-.73h1.4v-.67c0-.5-.15-.9-.45-1.2-.3-.3-.75-.45-1.34-.45-.51 0-.94.13-1.3.39-.34.26-.52.57-.52.94h-1.45c0-.42.15-.83.45-1.22.3-.4.7-.7 1.21-.94a4.13 4.13 0 0 1 1.7-.34c.97 0 1.74.25 2.29.74.55.48.84 1.15.86 2v3.9c0 .77.1 1.39.3 1.85v.12Zm-2.4-1.1c.46 0 .88-.12 1.3-.35.4-.24.7-.54.87-.92v-1.73h-1.13c-1.77 0-2.66.52-2.66 1.55 0 .46.15.81.46 1.07.3.25.69.38 1.16.38zm5.54-3.2c0-1.32.3-2.36.92-3.14a2.92 2.92 0 0 1 2.42-1.17 2.9 2.9 0 0 1 2.41 1.1l.07-.94h1.32v8.25c0 1.1-.32 1.95-.98 2.58-.64.63-1.51.95-2.6.95-.61 0-1.21-.13-1.8-.4a3.1 3.1 0 0 1-1.33-1.06l.75-.87a2.83 2.83 0 0 0 2.27 1.15c.7 0 1.25-.2 1.64-.6.4-.4.6-.95.6-1.67v-.72a3 3 0 0 1-2.37 1c-.99 0-1.8-.4-2.4-1.2a5.24 5.24 0 0 1-.92-3.26zm1.45.17c0 .95.2 1.7.59 2.25.39.54.94.81 1.64.81a2.1 2.1 0 0 0 2-1.24v-3.86a2.14 2.14 0 0 0-1.98-1.21c-.7 0-1.26.27-1.65.82-.4.54-.6 1.35-.6 2.43zm11.39 4.29a3.7 3.7 0 0 1-2.8-1.13 4.2 4.2 0 0 1-1.08-3.02v-.27c0-.84.16-1.58.48-2.24.32-.66.77-1.18 1.34-1.55.58-.37 1.2-.56 1.88-.56 1.1 0 1.95.36 2.56 1.09.6.72.91 1.76.91 3.1v.6h-5.72c.02.84.26 1.52.72 2.03.47.51 1.07.77 1.78.77.51 0 .95-.1 1.3-.32.36-.2.67-.48.93-.82l.88.68a3.55 3.55 0 0 1-3.18 1.64zm-.18-7.58a1.9 1.9 0 0 0-1.47.64c-.4.42-.64 1.01-.74 1.78h4.24v-.1a2.73 2.73 0 0 0-.6-1.71 1.8 1.8 0 0 0-1.43-.61zm5.18 6.66c0-.25.08-.46.22-.62.15-.17.38-.25.67-.25.3 0 .53.08.68.25.15.16.23.37.23.62 0 .24-.08.44-.23.6a.89.89 0 0 1-.67.25c-.3 0-.53-.09-.68-.25a.86.86 0 0 1-.22-.6zm4.22 0c0-.25.08-.46.22-.62.15-.17.38-.25.67-.25.3 0 .53.08.68.25.15.16.23.37.23.62 0 .24-.08.44-.23.6-.15.16-.38.25-.68.25-.3 0-.52-.09-.67-.25a.86.86 0 0 1-.22-.6zm4.22 0c0-.25.07-.46.22-.62.15-.17.38-.25.67-.25.3 0 .52.08.67.25.16.16.24.37.24.62 0 .24-.08.44-.24.6-.15.16-.37.25-.67.25-.3 0-.52-.09-.67-.25a.86.86 0 0 1-.22-.6z"/><path fill="#8e8e8e" d="M43 828h-6v6h-2v-6h-6v-2h6v-6h2v6h6zm40.2-7.15h-2.85L78.7 819h-5.4l-1.65 1.85H68.8c-.99 0-1.8.83-1.8 1.85v11.09c0 1.02.81 1.85 1.8 1.85h14.4c.99 0 1.8-.83 1.8-1.85v-11.1c0-1-.81-1.84-1.8-1.84zm0 12.94H68.8v-11.1h3.65l1.64-1.84h3.82l1.65 1.85h3.64ZM76 823.62a4.56 4.56 0 0 0-4.5 4.62 4.56 4.56 0 0 0 4.5 4.62c2.48 0 4.5-2.07 4.5-4.62a4.56 4.56 0 0 0-4.5-4.62zm0 7.4a2.75 2.75 0 0 1-2.7-2.78 2.75 2.75 0 0 1 2.7-2.77c1.49 0 2.7 1.25 2.7 2.77a2.75 2.75 0 0 1-2.7 2.78zM123 820v14h-14v-14zm0-2h-14a2 2 0 0 0-2 2v14c0 1.1.9 2 2 2h14a2 2 0 0 0 2-2v-14a2 2 0 0 0-2-2zm-4.86 8.86-3 3.87-2.14-2.59-3 3.86h12zM368.01 836l20.99-9-20.99-9-.01 7 15 2-15 2z"/><path fill="#fff" d="M234 166a6 6 0 0 1 6-6h144a6 6 0 0 1 6 6v46H240a6 6 0 0 1-6-6z"/><path fill="#007aba" fill-opacity=".1" d="M234 166a6 6 0 0 1 6-6h144a6 6 0 0 1 6 6v46H240a6 6 0 0 1-6-6z"/><path fill="#2e2e2e" d="M243.32 191v-11.38h3.21c1 0 1.87.22 2.63.66a4.41 4.41 0 0 1 1.75 1.87c.42.8.63 1.73.64 2.78v.73c0 1.07-.21 2-.63 2.82-.41.8-1 1.42-1.77 1.86-.77.43-1.66.65-2.68.66zm1.5-10.14v8.91h1.58c1.15 0 2.05-.36 2.7-1.08.64-.71.96-1.74.96-3.07v-.66c0-1.3-.3-2.3-.91-3a3.22 3.22 0 0 0-2.58-1.1zm8.4 5.83c0-.82.15-1.57.47-2.23.33-.66.79-1.17 1.36-1.53a3.71 3.71 0 0 1 2-.54c1.15 0 2.08.4 2.79 1.2a4.6 4.6 0 0 1 1.07 3.18v.1c0 .82-.16 1.56-.48 2.22a3.56 3.56 0 0 1-3.37 2.07c-1.14 0-2.07-.4-2.79-1.2a4.59 4.59 0 0 1-1.06-3.16zm1.44.18c0 .94.22 1.69.65 2.26a2.1 2.1 0 0 0 1.75.85c.74 0 1.32-.29 1.75-.86.44-.58.65-1.39.65-2.42 0-.93-.22-1.68-.66-2.25a2.09 2.09 0 0 0-1.75-.87c-.72 0-1.3.28-1.73.85a3.93 3.93 0 0 0-.66 2.44zm11.45 3.1c.51 0 .97-.15 1.35-.46.39-.31.6-.7.64-1.17h1.37c-.03.48-.2.94-.5 1.38a3.53 3.53 0 0 1-2.86 1.44 3.5 3.5 0 0 1-2.75-1.15 4.62 4.62 0 0 1-1.02-3.16v-.24c0-.82.16-1.55.46-2.2a3.45 3.45 0 0 1 3.3-2.02c.95 0 1.74.28 2.36.85.63.57.97 1.3 1 2.21h-1.36a1.97 1.97 0 0 0-2-1.87c-.73 0-1.3.26-1.7.8-.41.52-.61 1.28-.61 2.28v.28c0 .97.2 1.72.6 2.25.4.52.97.79 1.72.79zm10.2.2c-.56.66-1.39.99-2.47.99-.9 0-1.6-.26-2.07-.78-.47-.53-.7-1.3-.7-2.33v-5.5h1.44V188c0 1.28.52 1.92 1.56 1.92 1.1 0 1.84-.41 2.2-1.23v-6.15h1.45V191h-1.38zm4.97-7.62.04.93a3.12 3.12 0 0 1 2.5-1.09c1.19 0 2 .45 2.42 1.36a3.24 3.24 0 0 1 2.7-1.36c1.85 0 2.8.98 2.83 2.95V191h-1.45v-5.58c0-.6-.14-1.05-.41-1.35-.28-.3-.74-.45-1.4-.45-.53 0-.98.16-1.33.48-.35.32-.56.75-.62 1.3v5.6h-1.45v-5.54c0-1.23-.6-1.84-1.8-1.84-.95 0-1.6.4-1.95 1.2V191h-1.45v-8.45zm16.18 8.6a3.7 3.7 0 0 1-2.8-1.12 4.2 4.2 0 0 1-1.07-3.02v-.27c0-.84.15-1.58.47-2.24.32-.66.77-1.18 1.35-1.55.57-.37 1.2-.56 1.87-.56 1.1 0 1.95.36 2.56 1.09.61.72.92 1.76.92 3.1v.6h-5.73a3 3 0 0 0 .73 2.03c.47.51 1.06.77 1.78.77.5 0 .94-.1 1.3-.32.35-.2.66-.48.93-.82l.88.68a3.55 3.55 0 0 1-3.19 1.64zm-.18-7.57c-.58 0-1.07.21-1.47.64a3 3 0 0 0-.73 1.78h4.23v-.1a2.73 2.73 0 0 0-.6-1.71 1.8 1.8 0 0 0-1.43-.61zm6.52-1.03.05 1.06a3.08 3.08 0 0 1 2.53-1.22c1.79 0 2.69 1 2.7 3.02V191h-1.44v-5.6c0-.6-.15-1.05-.42-1.34-.27-.3-.7-.44-1.28-.44-.46 0-.88.12-1.23.37s-.63.58-.83.99V191h-1.44v-8.45zm9.43-2.05v2.05h1.57v1.11h-1.57v5.25c0 .34.07.59.2.76.15.17.39.25.73.25.16 0 .4-.03.68-.1V191c-.38.1-.75.16-1.1.16-.65 0-1.14-.2-1.47-.59-.33-.39-.49-.94-.49-1.66v-5.25h-1.54v-1.11h1.54v-2.05Zm12.46 10.5a3.01 3.01 0 0 1-.2-.9 3.22 3.22 0 0 1-2.41 1.06c-.84 0-1.52-.24-2.06-.7a2.3 2.3 0 0 1-.8-1.8c0-.88.34-1.57 1-2.05a4.73 4.73 0 0 1 2.83-.73h1.41v-.67c0-.5-.15-.9-.45-1.2-.3-.3-.75-.45-1.34-.45-.51 0-.95.13-1.3.39-.34.26-.52.57-.52.94h-1.45c0-.42.15-.83.44-1.22.3-.4.71-.7 1.22-.94a4.13 4.13 0 0 1 1.7-.34c.97 0 1.73.25 2.29.74.55.48.83 1.15.86 2v3.9c0 .77.1 1.39.3 1.85v.12Zm-2.4-1.1c.45 0 .88-.12 1.29-.35.4-.24.7-.54.88-.92v-1.73h-1.13c-1.77 0-2.66.52-2.66 1.55 0 .46.15.81.45 1.07.3.25.7.38 1.17.38zm7.84-9.4v2.05h1.58v1.11h-1.58v5.25c0 .34.07.59.21.76.14.17.38.25.72.25.17 0 .4-.03.69-.1V191c-.38.1-.75.16-1.1.16-.65 0-1.14-.2-1.47-.59a2.5 2.5 0 0 1-.5-1.66v-5.25h-1.53v-1.11h1.54v-2.05Zm5.24 0v2.05h1.57v1.11h-1.57v5.25c0 .34.07.59.2.76.15.17.39.25.73.25.16 0 .4-.03.68-.1V191c-.38.1-.75.16-1.1.16-.65 0-1.14-.2-1.47-.59a2.55 2.55 0 0 1-.49-1.66v-5.25h-1.54v-1.11h1.54v-2.05Zm8.49 10.5a3.05 3.05 0 0 1-.2-.9 3.22 3.22 0 0 1-2.41 1.06c-.83 0-1.52-.24-2.06-.7a2.3 2.3 0 0 1-.8-1.8c0-.88.34-1.57 1-2.05a4.74 4.74 0 0 1 2.84-.73h1.4v-.67c0-.5-.15-.9-.45-1.2-.3-.3-.75-.45-1.34-.45-.51 0-.94.13-1.3.39-.34.26-.52.57-.52.94h-1.45c0-.42.15-.83.45-1.22.3-.4.7-.7 1.21-.94a4.13 4.13 0 0 1 1.7-.34c.97 0 1.74.25 2.29.74.55.48.84 1.15.86 2v3.9c0 .77.1 1.39.3 1.85v.12Zm-2.4-1.1c.45 0 .88-.12 1.29-.35.4-.24.7-.54.88-.92v-1.73h-1.13c-1.77 0-2.66.52-2.66 1.55 0 .46.16.81.46 1.07.3.25.69.38 1.16.38zm9.27.08c.52 0 .97-.16 1.36-.47.38-.31.6-.7.64-1.17h1.36c-.02.48-.19.94-.5 1.38a3.53 3.53 0 0 1-2.86 1.44 3.5 3.5 0 0 1-2.75-1.15 4.62 4.62 0 0 1-1.01-3.16v-.24c0-.82.15-1.55.45-2.2a3.45 3.45 0 0 1 3.3-2.02c.95 0 1.74.28 2.37.85.63.57.96 1.3 1 2.21h-1.36a1.97 1.97 0 0 0-2-1.87 2 2 0 0 0-1.71.8c-.4.52-.6 1.28-.6 2.28v.28c0 .97.2 1.72.6 2.25.4.52.97.79 1.71.79zm6.43-6.41a3.07 3.07 0 0 1 2.5-1.18c1.8 0 2.7 1 2.7 3.02V191h-1.44v-5.6c0-.6-.14-1.05-.42-1.34-.27-.3-.7-.44-1.27-.44-.47 0-.88.12-1.24.37a2.6 2.6 0 0 0-.83.99V191h-1.44v-12h1.44zm10.88 7.59a3.7 3.7 0 0 1-2.8-1.13 4.2 4.2 0 0 1-1.08-3.02v-.27c0-.84.16-1.58.48-2.24.32-.66.77-1.18 1.34-1.55.58-.37 1.2-.56 1.88-.56 1.1 0 1.95.36 2.56 1.09.61.72.92 1.76.92 3.1v.6h-5.73a3 3 0 0 0 .73 2.03 2.3 2.3 0 0 0 1.78.77c.5 0 .94-.1 1.3-.32.35-.2.66-.48.92-.82l.89.68a3.55 3.55 0 0 1-3.2 1.64zm-.18-7.58c-.58 0-1.07.21-1.47.64a3 3 0 0 0-.73 1.78h4.23v-.1a2.74 2.74 0 0 0-.6-1.71 1.8 1.8 0 0 0-1.43-.61zm4.8 3.12c0-1.3.31-2.33.93-3.12a2.91 2.91 0 0 1 2.41-1.19c.99 0 1.77.34 2.35 1.02V179h1.45v12h-1.33l-.07-.9a2.94 2.94 0 0 1-2.42 1.06 2.9 2.9 0 0 1-2.4-1.2 5.02 5.02 0 0 1-.92-3.15zm1.45.17c0 .96.2 1.7.6 2.25.39.54.94.81 1.63.81a2.1 2.1 0 0 0 2.01-1.23v-3.89c-.43-.8-1.1-1.2-2-1.2-.7 0-1.25.28-1.65.83-.4.54-.6 1.35-.6 2.43z"/><path fill="#616976" d="M308.98 230.81c0 1.43-.27 2.51-.8 3.24-.54.72-1.35 1.09-2.45 1.09-1.07 0-1.88-.36-2.43-1.06a5.22 5.22 0 0 1-.83-3.15v-1.73c0-1.43.26-2.5.8-3.22.53-.71 1.35-1.07 2.45-1.07 1.09 0 1.9.35 2.43 1.05.54.7.82 1.74.83 3.13zm-1.66-1.86a4.2 4.2 0 0 0-.38-2.05c-.26-.44-.66-.66-1.22-.66-.54 0-.94.21-1.2.62a3.88 3.88 0 0 0-.4 1.93v2.26c0 .93.13 1.62.39 2.08.26.45.67.68 1.22.68.54 0 .93-.2 1.19-.63.25-.42.39-1.08.4-1.98zm3.58 1.11.54-5.01h5.34v1.43h-3.96l-.28 2.38c.46-.26.98-.4 1.56-.4.95 0 1.69.3 2.2.91.54.61.8 1.43.8 2.45 0 1.01-.29 1.82-.87 2.42-.59.6-1.39.9-2.4.9-.91 0-1.67-.26-2.27-.78a2.8 2.8 0 0 1-.97-2.05h1.6c.07.49.24.86.52 1.12.29.25.66.38 1.11.38.51 0 .9-.18 1.19-.55.29-.36.43-.86.43-1.49 0-.6-.16-1.08-.47-1.43a1.64 1.64 0 0 0-1.3-.54c-.3 0-.56.05-.77.13-.2.07-.43.23-.68.46zm8.62 3.19c.3 0 .54.09.71.27.17.17.26.39.26.65a.9.9 0 0 1-.26.65.95.95 0 0 1-.71.26.96.96 0 0 1-.7-.26.86.86 0 0 1-.27-.65.9.9 0 0 1 .25-.65c.17-.18.4-.27.72-.27zm0-5.8c.3 0 .54.09.71.26.17.18.26.4.26.66a.9.9 0 0 1-.26.65c-.17.17-.4.25-.71.25a.97.97 0 0 1-.7-.25.87.87 0 0 1-.27-.65.9.9 0 0 1 .25-.66c.17-.18.4-.26.72-.26zm7.1 7.55h-1.65v-8l-2.44.84v-1.4l3.88-1.43h.21zm3.9-4.94.55-5.01h5.34v1.43h-3.96l-.27 2.38c.46-.26.98-.4 1.55-.4.95 0 1.69.3 2.21.91.53.61.8 1.43.8 2.45 0 1.01-.3 1.82-.88 2.42-.58.6-1.38.9-2.4.9-.91 0-1.67-.26-2.27-.78a2.8 2.8 0 0 1-.97-2.05h1.6c.07.49.24.86.53 1.12.28.25.65.38 1.1.38.51 0 .91-.18 1.2-.55.28-.36.42-.86.42-1.49 0-.6-.15-1.08-.47-1.43a1.64 1.64 0 0 0-1.3-.54c-.3 0-.55.05-.76.13a2.1 2.1 0 0 0-.69.46zm13 1.24v3.7h-1.73v-9.95h3.81c1.11 0 2 .29 2.65.86.65.58.98 1.35.98 2.3 0 .98-.32 1.74-.96 2.28-.64.54-1.54.81-2.69.81zm0-1.39h2.08c.62 0 1.09-.14 1.4-.43.33-.29.5-.7.5-1.25 0-.54-.17-.97-.5-1.29a1.9 1.9 0 0 0-1.35-.5h-2.13zm9.47-4.86 2.87 7.63 2.87-7.63h2.23V235h-1.72v-3.28l.17-4.39-2.94 7.67h-1.24l-2.93-7.66.17 4.38V235h-1.72v-9.95z"/><path fill="#007aba" fill-rule="evenodd" d="m378.89 232.58 1.15-1.17.41.42 6.73-6.83 1.15 1.17-7.88 8zm-3.43-.75 6.72-6.83 1.15 1.17-7.88 8-3.8-3.88 1.15-1.16z" clip-rule="evenodd"/><path fill="#5dba00" d="M32.2 267.44h-3.1V276h-1.72v-8.56h-3.07v-1.4h7.9zm4.58 2.68a4.16 4.16 0 0 0-.68-.05c-.76 0-1.27.29-1.54.87V276H32.9v-7.4h1.59l.04.83c.4-.64.95-.96 1.67-.96.23 0 .43.03.58.1zm2.81 5.88h-1.66v-7.4h1.66zm-1.76-9.32c0-.25.08-.47.24-.63.16-.17.4-.26.7-.26.3 0 .53.09.7.26.16.16.24.38.24.63s-.08.46-.25.63c-.16.17-.4.25-.7.25a.94.94 0 0 1-.7-.25.88.88 0 0 1-.23-.63zM52.95 276h-1.73l-4.44-7.06V276h-1.73v-9.95h1.73l4.45 7.09v-7.1h1.72zm1.6-3.75c0-1.15.26-2.07.8-2.75a2.6 2.6 0 0 1 2.15-1.03c.85 0 1.5.3 2 .88l.07-.75h1.5v7.17c0 .98-.3 1.74-.91 2.3-.6.56-1.42.84-2.45.84-.54 0-1.07-.11-1.59-.34a2.8 2.8 0 0 1-1.17-.88l.78-1c.51.6 1.14.91 1.89.91.55 0 .99-.15 1.3-.45.32-.3.48-.73.48-1.31v-.5c-.48.53-1.11.8-1.91.8a2.6 2.6 0 0 1-2.13-1.04 4.48 4.48 0 0 1-.82-2.85zm1.65.14c0 .74.15 1.33.45 1.76.3.42.73.63 1.26.63a1.6 1.6 0 0 0 1.5-.86v-3.25a1.59 1.59 0 0 0-1.48-.84c-.55 0-.98.21-1.28.65-.3.43-.45 1.07-.45 1.91zm11.06 2.89a2.6 2.6 0 0 1-2.08.86c-.8 0-1.41-.24-1.83-.7a3.1 3.1 0 0 1-.61-2.04v-4.8h1.66v4.78c0 .93.39 1.4 1.17 1.4.8 0 1.35-.29 1.63-.86v-5.32h1.66v7.4H67.3zm5.88-1.66 1.5-5.02h1.78l-2.94 8.52c-.45 1.25-1.22 1.87-2.3 1.87-.24 0-.5-.04-.8-.13v-1.28l.32.02c.42 0 .73-.08.94-.23.21-.15.38-.4.5-.77l.24-.63-2.6-7.37h1.8zm7.4 2.52c-1.05 0-1.9-.33-2.56-1a3.63 3.63 0 0 1-.98-2.65v-.2c0-.74.14-1.4.42-1.98a3.18 3.18 0 0 1 2.93-1.85c1 0 1.78.33 2.33.97.55.64.83 1.55.83 2.73v.67h-4.84c.05.6.26 1.1.61 1.45.36.35.81.53 1.36.53.76 0 1.38-.3 1.86-.92l.9.85a3 3 0 0 1-1.2 1.03c-.5.25-1.04.37-1.66.37zm-.2-6.34c-.45 0-.82.16-1.1.48a2.5 2.5 0 0 0-.54 1.33h3.17v-.12a2 2 0 0 0-.45-1.26 1.38 1.38 0 0 0-1.08-.43zm6-1.2.05.86c.55-.66 1.27-1 2.15-1 1.55 0 2.33.89 2.36 2.65V276h-1.66v-4.8c0-.46-.1-.8-.31-1.03-.2-.23-.53-.34-1-.34-.66 0-1.16.3-1.5.9V276h-1.65v-7.4z"/><path fill="#fff" d="M24.5 300A11.5 11.5 0 0 1 36 288.5h260a11.5 11.5 0 0 1 11.5 11.5v28a11.5 11.5 0 0 1-11.5 11.5H24.5Z"/><path fill="#2e2e2e" d="M49.18 308.86h-3.66V319h-1.49v-10.14h-3.65v-1.24h8.8zm2.9 2.71a3.07 3.07 0 0 1 2.5-1.18c1.8 0 2.7 1 2.7 3.02V319h-1.44v-5.6c0-.6-.14-1.05-.42-1.34-.27-.3-.7-.44-1.27-.44-.47 0-.88.12-1.24.37-.35.25-.63.58-.82.99V319h-1.45v-12h1.45zm12.6 7.43a3.04 3.04 0 0 1-.21-.9 3.22 3.22 0 0 1-2.4 1.06 3 3 0 0 1-2.06-.7 2.3 2.3 0 0 1-.8-1.8c0-.88.33-1.57 1-2.05a4.74 4.74 0 0 1 2.83-.74h1.4v-.66c0-.5-.15-.9-.45-1.2-.3-.3-.75-.45-1.33-.45-.52 0-.95.13-1.3.39-.35.26-.52.57-.52.94h-1.46c0-.42.15-.83.45-1.22.3-.4.7-.7 1.22-.94a4.13 4.13 0 0 1 1.7-.34c.97 0 1.73.25 2.28.74.55.48.84 1.15.86 2v3.9c0 .77.1 1.39.3 1.85v.12Zm-2.4-1.1c.45 0 .88-.12 1.28-.35.4-.24.7-.54.89-.92v-1.73H63.3c-1.77 0-2.65.52-2.65 1.55 0 .46.15.81.45 1.07.3.25.69.38 1.16.38zm7.24-7.35.05 1.06a3.08 3.08 0 0 1 2.53-1.22c1.79 0 2.69 1 2.7 3.02V319h-1.44v-5.6c0-.6-.15-1.05-.42-1.34-.27-.3-.7-.44-1.28-.44-.46 0-.88.12-1.23.37s-.63.58-.83.99V319h-1.44v-8.45zm9.82 4.54-.9.94V319h-1.45v-12h1.45v7.26l.77-.93 2.63-2.78h1.76l-3.29 3.53 3.67 4.92h-1.7zm10.68 1.67c0-.4-.15-.7-.45-.9-.3-.23-.8-.41-1.54-.57a7.38 7.38 0 0 1-1.74-.56 2.52 2.52 0 0 1-.95-.78 2.17 2.17 0 0 1 .57-2.84 3.45 3.45 0 0 1 2.25-.72c.95 0 1.73.25 2.32.74.6.5.9 1.13.9 1.9h-1.45c0-.4-.17-.74-.5-1.02a1.87 1.87 0 0 0-1.27-.43c-.53 0-.94.11-1.24.34-.3.23-.44.53-.44.9 0 .35.13.61.41.79.28.18.77.35 1.5.5.72.17 1.3.36 1.75.59.45.22.78.49 1 .8.21.32.32.7.32 1.16 0 .75-.3 1.36-.9 1.82-.61.45-1.4.68-2.36.68-.67 0-1.27-.12-1.8-.36a2.97 2.97 0 0 1-1.22-1 2.4 2.4 0 0 1-.44-1.4h1.45c.02.48.22.87.58 1.16.36.28.84.42 1.43.42.55 0 .99-.11 1.32-.33.33-.23.5-.52.5-.9zm4.94-.97h-1.3l-.1-8.16h1.51zm-1.46 2.48c0-.23.07-.43.21-.58.15-.16.36-.24.64-.24s.5.08.64.24a.8.8 0 0 1 .22.58c0 .24-.07.43-.22.59-.14.15-.36.23-.64.23s-.5-.08-.64-.23a.84.84 0 0 1-.21-.59Zm9.77.73h-1.5v-11.38h1.5zm2.63-8.17-.82-.56c.48-.68.73-1.4.75-2.15V307h1.43v1.02c0 .52-.14 1.04-.4 1.56-.24.51-.57.93-.96 1.25zm5.89 6.2 2.1-6.48h1.47l-3.03 8.45h-1.1l-3.07-8.45h1.48zm8.36 2.13a3.7 3.7 0 0 1-2.8-1.13 4.2 4.2 0 0 1-1.08-3.02v-.27c0-.84.16-1.58.48-2.24.32-.66.77-1.18 1.34-1.55.58-.37 1.2-.56 1.88-.56 1.1 0 1.95.36 2.56 1.09.61.72.91 1.76.91 3.1v.6h-5.72c.02.84.26 1.51.72 2.03.47.51 1.07.77 1.79.77.5 0 .94-.1 1.3-.32.35-.2.66-.48.92-.82l.89.68a3.55 3.55 0 0 1-3.2 1.64zm-.18-7.58c-.59 0-1.07.21-1.47.64a3 3 0 0 0-.73 1.78H122v-.1a2.74 2.74 0 0 0-.6-1.71 1.8 1.8 0 0 0-1.43-.61zm12.51 6.4c.52 0 .97-.16 1.36-.47.38-.31.6-.7.64-1.17h1.36c-.02.48-.19.94-.5 1.38a3.53 3.53 0 0 1-2.86 1.44 3.5 3.5 0 0 1-2.75-1.15 4.62 4.62 0 0 1-1.01-3.16v-.24c0-.82.15-1.56.45-2.2a3.45 3.45 0 0 1 3.3-2.02c.95 0 1.74.28 2.37.85.63.57.96 1.3 1 2.21h-1.36a1.97 1.97 0 0 0-2-1.87 2 2 0 0 0-1.71.8c-.4.52-.6 1.28-.6 2.28v.28c0 .97.2 1.72.6 2.25.4.52.97.79 1.71.79zm4.6-3.28c0-.83.17-1.58.49-2.24.33-.66.78-1.17 1.36-1.53a3.71 3.71 0 0 1 2-.54c1.14 0 2.07.4 2.78 1.2a4.6 4.6 0 0 1 1.07 3.18v.1c0 .82-.16 1.56-.48 2.22a3.56 3.56 0 0 1-3.36 2.07c-1.15 0-2.08-.4-2.8-1.2a4.59 4.59 0 0 1-1.05-3.16zm1.46.17c0 .94.21 1.69.65 2.26a2.1 2.1 0 0 0 1.75.85 2.1 2.1 0 0 0 1.75-.86 4 4 0 0 0 .65-2.42c0-.93-.23-1.68-.67-2.25a2.09 2.09 0 0 0-1.75-.87c-.71 0-1.29.28-1.72.85a3.93 3.93 0 0 0-.66 2.44zm9.42-4.32.05 1.06a3.08 3.08 0 0 1 2.53-1.22c1.79 0 2.69 1 2.7 3.02V319h-1.44v-5.6c0-.6-.15-1.05-.43-1.34-.27-.3-.69-.44-1.27-.44-.47 0-.88.12-1.23.37-.36.25-.63.58-.83.99V319h-1.45v-8.45zm10.25 6.49 2.1-6.5h1.47l-3.03 8.46h-1.1l-3.06-8.45h1.47zm8.36 2.12a3.7 3.7 0 0 1-2.8-1.13 4.2 4.2 0 0 1-1.08-3.02v-.27c0-.84.16-1.58.48-2.24.33-.66.77-1.18 1.35-1.55.57-.37 1.2-.56 1.87-.56 1.1 0 1.95.36 2.56 1.09.61.72.92 1.76.92 3.1v.6h-5.73c.02.84.26 1.51.73 2.03.47.51 1.06.77 1.78.77.5 0 .94-.1 1.3-.32.35-.2.66-.48.93-.82l.88.68a3.55 3.55 0 0 1-3.19 1.64zm-.18-7.58c-.58 0-1.07.21-1.47.64a3 3 0 0 0-.73 1.78h4.23v-.1a2.74 2.74 0 0 0-.6-1.71 1.8 1.8 0 0 0-1.43-.61zm9.24.26a4.28 4.28 0 0 0-.7-.05c-.96 0-1.6.4-1.94 1.21v6h-1.44v-8.45h1.4l.03.97a2.25 2.25 0 0 1 2.01-1.13c.28 0 .5.04.64.11zm3.69-3.34v2.05h1.58v1.11h-1.58v5.25c0 .34.07.59.21.76.14.17.38.25.72.25.17 0 .4-.03.69-.1V319c-.38.1-.75.16-1.11.16-.65 0-1.14-.2-1.46-.59a2.5 2.5 0 0 1-.5-1.66v-5.25h-1.53v-1.11h1.53v-2.05Zm6.78 10.66a3.7 3.7 0 0 1-2.8-1.13 4.2 4.2 0 0 1-1.07-3.02v-.27c0-.84.16-1.58.47-2.24.33-.66.77-1.18 1.35-1.55.57-.37 1.2-.56 1.87-.56 1.1 0 1.96.36 2.56 1.09.61.72.92 1.76.92 3.1v.6h-5.73c.02.84.27 1.52.73 2.03.47.51 1.06.77 1.78.77.51 0 .94-.1 1.3-.32.35-.2.66-.48.93-.82l.88.68a3.55 3.55 0 0 1-3.19 1.64zm-.18-7.58c-.58 0-1.07.21-1.47.64a3 3 0 0 0-.73 1.78h4.23v-.1a2.73 2.73 0 0 0-.6-1.71 1.8 1.8 0 0 0-1.43-.61zm4.8 3.12c0-1.3.31-2.33.93-3.12a2.91 2.91 0 0 1 2.41-1.19c1 0 1.78.34 2.35 1.02V307h1.45v12h-1.33l-.07-.9a2.94 2.94 0 0 1-2.41 1.06 2.9 2.9 0 0 1-2.4-1.2 5.03 5.03 0 0 1-.92-3.15zm1.45.17c0 .96.2 1.7.6 2.25.4.54.94.81 1.64.81a2.1 2.1 0 0 0 2-1.23v-3.89c-.43-.8-1.1-1.2-1.99-1.2-.7 0-1.26.28-1.65.83-.4.54-.6 1.35-.6 2.43zm13.48 4.13h-1.45v-8.45h1.45zm-1.56-10.7c0-.23.07-.43.2-.59.15-.16.37-.24.65-.24s.5.08.64.24c.14.16.22.36.22.6 0 .23-.08.42-.22.58-.15.16-.36.24-.64.24s-.5-.08-.64-.24a.84.84 0 0 1-.21-.58zm5.84.2v2.05h1.58v1.11h-1.58v5.25c0 .34.07.59.21.76.14.17.38.25.72.25.17 0 .4-.03.69-.1V319c-.38.1-.75.16-1.11.16-.65 0-1.14-.2-1.46-.59a2.5 2.5 0 0 1-.5-1.66v-5.25h-1.54v-1.11h1.54v-2.05Zm8.81 10.5h-1.44v-8.45h1.44zm-1.56-10.7c0-.23.07-.43.21-.59.15-.16.36-.24.64-.24s.5.08.64.24c.15.16.22.36.22.6a.8.8 0 0 1-.22.58c-.14.16-.36.24-.64.24s-.5-.08-.64-.24a.84.84 0 0 1-.21-.58zm5.25 2.25.05 1.06a3.08 3.08 0 0 1 2.53-1.22c1.78 0 2.68 1 2.7 3.02V319h-1.44v-5.6c-.01-.6-.15-1.05-.43-1.34-.27-.3-.7-.44-1.27-.44-.47 0-.88.12-1.23.37-.36.25-.63.58-.83.99V319h-1.45v-8.45zm9.42-2.05v2.05h1.58v1.11h-1.58v5.25c0 .34.07.59.21.76.14.17.38.25.72.25.17 0 .4-.03.69-.1V319c-.38.1-.75.16-1.11.16-.65 0-1.13-.2-1.46-.59a2.5 2.5 0 0 1-.5-1.66v-5.25h-1.53v-1.11h1.54v-2.05Zm2.74 6.2c0-.83.16-1.58.48-2.24.33-.66.78-1.17 1.36-1.53a3.71 3.71 0 0 1 2-.54c1.14 0 2.07.4 2.78 1.2a4.6 4.6 0 0 1 1.07 3.18v.1c0 .82-.16 1.56-.48 2.22a3.56 3.56 0 0 1-3.36 2.07c-1.15 0-2.08-.4-2.8-1.2a4.59 4.59 0 0 1-1.05-3.16zm1.45.17c0 .94.21 1.69.65 2.26a2.1 2.1 0 0 0 1.75.85 2.1 2.1 0 0 0 1.75-.86c.43-.58.65-1.39.65-2.43 0-.92-.23-1.67-.67-2.25a2.09 2.09 0 0 0-1.75-.86c-.71 0-1.29.28-1.72.85a3.93 3.93 0 0 0-.66 2.44zm17.24 4.13a3.05 3.05 0 0 1-.2-.9 3.22 3.22 0 0 1-2.4 1.06c-.84 0-1.53-.24-2.06-.7a2.3 2.3 0 0 1-.8-1.8c0-.88.33-1.57 1-2.05a4.74 4.74 0 0 1 2.83-.74h1.4v-.66c0-.5-.15-.9-.45-1.2-.3-.3-.75-.45-1.33-.45-.52 0-.95.13-1.3.39-.35.26-.53.57-.53.94H248c0-.42.15-.83.45-1.22.3-.4.7-.7 1.22-.94a4.13 4.13 0 0 1 1.7-.34c.97 0 1.73.25 2.28.74.55.48.84 1.15.86 2v3.9c0 .77.1 1.39.3 1.85v.12Zm-2.4-1.1c.46 0 .89-.12 1.3-.35.4-.24.7-.54.87-.92v-1.73h-1.13c-1.77 0-2.65.52-2.65 1.55 0 .46.15.81.45 1.07.3.25.69.38 1.16.38zm11.58-3.35V319h-1.5v-11.38h4.2a4.2 4.2 0 0 1 2.92.96c.7.63 1.06 1.47 1.06 2.52a3.2 3.2 0 0 1-1.04 2.56c-.69.59-1.67.89-2.96.89zm0-1.23h2.7c.8 0 1.41-.19 1.84-.56.43-.38.64-.93.64-1.64 0-.68-.21-1.22-.64-1.63a2.53 2.53 0 0 0-1.76-.63h-2.78zm8.6 5.68v-11.37h3.2c1 0 1.87.21 2.63.65a4.42 4.42 0 0 1 1.76 1.87c.42.8.63 1.73.63 2.78v.73c0 1.07-.2 2-.62 2.82-.42.8-1 1.42-1.78 1.86-.76.43-1.66.65-2.68.66zm1.5-10.14v8.91h1.57c1.16 0 2.06-.36 2.7-1.07.64-.72.97-1.75.97-3.07v-.67c0-1.3-.3-2.3-.92-3a3.22 3.22 0 0 0-2.58-1.1zm15.27 5.12h-4.77V319h-1.5v-11.38h7.04v1.24h-5.54v3.89h4.77zm.55 4.26c0-.25.07-.46.21-.62.16-.17.38-.25.68-.25.3 0 .52.08.67.25.15.16.23.37.23.62 0 .24-.08.44-.23.6-.15.17-.38.25-.67.25-.3 0-.52-.08-.68-.25a.86.86 0 0 1-.21-.6z"/><path fill="#d1d5dc" d="M36 288a12 12 0 0 0-12 12v40h272a12 12 0 0 0 12-12v-28a12 12 0 0 0-12-12zm0 1h260a11 11 0 0 1 11 11v28a11 11 0 0 1-11 11H25v-39a11 11 0 0 1 11-11z" color="#000" style="-inkscape-stroke:none"/><path fill="#616976" d="M31.23 357.81c0 1.43-.27 2.51-.8 3.24-.54.72-1.35 1.09-2.44 1.09-1.08 0-1.9-.36-2.44-1.06a5.23 5.23 0 0 1-.83-3.15v-1.73c0-1.43.26-2.5.8-3.22.54-.71 1.35-1.07 2.45-1.07s1.9.35 2.44 1.05c.53.7.8 1.74.82 3.13zm-1.66-1.86a4.2 4.2 0 0 0-.38-2.05c-.26-.44-.66-.66-1.22-.66-.54 0-.94.21-1.2.62a3.87 3.87 0 0 0-.4 1.93v2.26c0 .93.13 1.62.4 2.08.25.45.66.68 1.22.68.53 0 .92-.2 1.18-.63.25-.42.39-1.08.4-1.98zm3.58 1.11.54-5.01h5.34v1.43h-3.96l-.28 2.38c.46-.26.98-.4 1.56-.4.95 0 1.69.3 2.21.91.53.61.8 1.43.8 2.45 0 1.01-.3 1.82-.88 2.42-.58.6-1.38.9-2.4.9-.91 0-1.67-.26-2.27-.78a2.8 2.8 0 0 1-.97-2.05h1.6c.07.49.24.86.52 1.12.29.25.66.38 1.11.38.51 0 .9-.18 1.2-.55.28-.36.42-.86.42-1.49 0-.6-.15-1.08-.47-1.43a1.64 1.64 0 0 0-1.3-.54c-.3 0-.55.05-.76.13a2.1 2.1 0 0 0-.69.46zm8.62 3.19c.3 0 .55.09.71.27.17.17.26.39.26.65a.9.9 0 0 1-.26.65c-.16.17-.4.25-.71.25a.96.96 0 0 1-.7-.25.87.87 0 0 1-.27-.65.9.9 0 0 1 .26-.65c.16-.18.4-.27.7-.27zm0-5.8c.3 0 .55.08.71.26.17.18.26.4.26.66a.9.9 0 0 1-.26.65c-.16.17-.4.25-.71.25a.97.97 0 0 1-.7-.25.87.87 0 0 1-.27-.65.9.9 0 0 1 .26-.66c.16-.18.4-.26.7-.26zm7.1 7.55h-1.65v-8l-2.44.84v-1.4l3.88-1.43h.22zm8.63-10v1.37h-.2a3.3 3.3 0 0 0-2.23.77 3.2 3.2 0 0 0-1 2.11 2.7 2.7 0 0 1 2.05-.84c.88 0 1.57.31 2.08.93.51.62.77 1.42.77 2.4 0 1.01-.3 1.83-.9 2.46-.6.63-1.37.94-2.34.94-1 0-1.8-.37-2.42-1.1a4.34 4.34 0 0 1-.92-2.89v-.57c0-1.74.42-3.1 1.27-4.1.85-.99 2.08-1.48 3.67-1.48zm-1.78 4.75a1.8 1.8 0 0 0-1.67 1.13v.5a3 3 0 0 0 .47 1.77c.3.43.7.65 1.2.65s.88-.19 1.17-.56c.28-.37.43-.85.43-1.45s-.15-1.1-.44-1.47a1.4 1.4 0 0 0-1.16-.57zm10.05 1.55v3.7h-1.73v-9.95h3.81c1.11 0 2 .29 2.65.87.65.57.98 1.34.98 2.3 0 .97-.32 1.73-.96 2.27-.64.54-1.54.81-2.69.81zm0-1.39h2.08c.62 0 1.09-.14 1.41-.43.32-.29.49-.7.49-1.25 0-.54-.17-.97-.5-1.29a1.9 1.9 0 0 0-1.35-.5h-2.13zm9.47-4.86 2.87 7.63 2.87-7.63h2.23V362H81.5v-3.28l.17-4.39-2.94 7.67h-1.24l-2.93-7.66.17 4.38V362H73v-9.95z"/><path fill="#229fbb" d="m27.87 577.7-1.13 1.2v3.1h-1.73v-9.95h1.73v4.67l.96-1.19 2.91-3.48h2.1l-3.7 4.4 3.9 5.55h-2.05zM38.1 582a2.56 2.56 0 0 1-.19-.69c-.53.55-1.17.83-1.94.83a2.6 2.6 0 0 1-1.82-.64c-.47-.42-.7-.95-.7-1.57 0-.79.29-1.4.87-1.81a4.25 4.25 0 0 1 2.52-.64h1.02V577c0-.39-.11-.7-.32-.92-.22-.23-.54-.35-.98-.35-.38 0-.7.1-.93.29a.87.87 0 0 0-.36.72H33.6c0-.4.14-.79.4-1.14.28-.35.64-.63 1.1-.83.47-.2.98-.3 1.55-.3.87 0 1.56.22 2.07.65.52.44.78 1.05.8 1.83v3.34c0 .67.1 1.2.28 1.6v.11Zm-1.82-1.2c.33 0 .63-.08.92-.24.3-.15.51-.37.66-.64v-1.4h-.9c-.61 0-1.08.11-1.39.33-.3.21-.46.52-.46.9 0 .33.1.58.31.77.22.19.5.28.86.28zm8.85-4.68a4.16 4.16 0 0 0-.68-.05c-.76 0-1.27.29-1.54.87V582h-1.66v-7.4h1.59l.04.83c.4-.64.96-.96 1.67-.96.24 0 .43.03.59.1zm4.17 6.02c-1.05 0-1.9-.33-2.56-1a3.63 3.63 0 0 1-.98-2.65v-.2c0-.74.14-1.4.42-1.98a3.18 3.18 0 0 1 2.93-1.85c1 0 1.78.33 2.33.97.55.64.83 1.55.83 2.73v.67h-4.84c.05.6.26 1.1.61 1.45.36.35.81.53 1.36.53.76 0 1.38-.3 1.85-.92l.9.85c-.3.44-.7.79-1.19 1.03-.5.25-1.04.37-1.66.37zm-.2-6.34c-.45 0-.82.16-1.1.48a2.5 2.5 0 0 0-.54 1.33h3.17v-.12a2 2 0 0 0-.45-1.26 1.38 1.38 0 0 0-1.08-.43zm6-1.2.05.86c.55-.66 1.27-1 2.15-1 1.55 0 2.33.89 2.36 2.65V582H58v-4.8c0-.46-.1-.8-.31-1.03-.2-.23-.53-.34-1-.34-.66 0-1.16.3-1.5.9V582h-1.65v-7.4zM65 582v-9.95h2.94c.88 0 1.66.2 2.34.59a4 4 0 0 1 1.59 1.66c.37.72.56 1.55.56 2.48v.5c0 .94-.2 1.77-.57 2.49a4.04 4.04 0 0 1-1.6 1.65 4.8 4.8 0 0 1-2.4.58zm1.73-8.56v7.18h1.13c.9 0 1.6-.28 2.08-.85a3.7 3.7 0 0 0 .75-2.45v-.55a3.8 3.8 0 0 0-.7-2.47c-.47-.57-1.16-.86-2.05-.86zm10.52 8.7a3.44 3.44 0 0 1-2.57-1 3.63 3.63 0 0 1-.98-2.65v-.2c0-.74.15-1.4.43-1.98a3.18 3.18 0 0 1 2.93-1.85c1 0 1.78.33 2.32.97.56.64.83 1.55.83 2.73v.67h-4.83c.05.6.25 1.1.6 1.45.37.35.82.53 1.36.53.76 0 1.38-.3 1.86-.92l.9.85a3 3 0 0 1-1.2 1.03c-.49.25-1.04.37-1.65.37zm-.2-6.34c-.46 0-.83.16-1.11.48a2.5 2.5 0 0 0-.53 1.33h3.16v-.12a2 2 0 0 0-.44-1.26 1.38 1.38 0 0 0-1.08-.43zm6.02-1.2.05.78a2.65 2.65 0 0 1 2.13-.91c.99 0 1.67.37 2.03 1.13a2.62 2.62 0 0 1 2.27-1.13c.82 0 1.42.22 1.82.67.4.46.6 1.12.61 2V582h-1.66v-4.81c0-.47-.1-.82-.3-1.04-.21-.21-.55-.32-1.02-.32-.38 0-.7.1-.93.3-.24.2-.4.47-.5.8V582h-1.66v-4.87c-.02-.87-.46-1.3-1.33-1.3-.67 0-1.14.27-1.41.81V582H81.5v-7.4zm12.18 0 .05.78a2.65 2.65 0 0 1 2.13-.91c1 0 1.67.37 2.03 1.13a2.62 2.62 0 0 1 2.27-1.13c.82 0 1.42.22 1.82.67.4.46.6 1.12.61 2V582h-1.66v-4.81c0-.47-.1-.82-.3-1.04-.2-.21-.55-.32-1.02-.32-.38 0-.69.1-.93.3-.24.2-.4.47-.5.8V582H98.1v-4.87c-.02-.87-.46-1.3-1.33-1.3-.66 0-1.14.27-1.41.81V582H93.7v-7.4zm13.88 7.54c-1.05 0-1.9-.33-2.57-1a3.63 3.63 0 0 1-.97-2.65v-.2c0-.74.14-1.4.42-1.98a3.18 3.18 0 0 1 2.93-1.85c1 0 1.78.33 2.33.97.55.64.83 1.55.83 2.73v.67h-4.84c.05.6.25 1.1.61 1.45.36.35.81.53 1.35.53.77 0 1.38-.3 1.86-.92l.9.85a3 3 0 0 1-1.2 1.03c-.48.25-1.04.37-1.65.37zm-.2-6.34c-.46 0-.82.16-1.1.48a2.5 2.5 0 0 0-.54 1.33h3.16v-.12a2 2 0 0 0-.44-1.26 1.38 1.38 0 0 0-1.08-.43zm8.33.32a4.17 4.17 0 0 0-.67-.05c-.77 0-1.28.29-1.54.87V582h-1.66v-7.4h1.58l.04.83c.4-.64.96-.96 1.67-.96.24 0 .43.03.59.1z"/><path fill="#fff" d="M24.5 606A11.5 11.5 0 0 1 36 594.5h130a11.5 11.5 0 0 1 11.5 11.5v28a11.5 11.5 0 0 1-11.5 11.5H24.5Z"/><path fill="#2e2e2e" d="M47.6 622.03h-4.76L41.77 625h-1.55l4.34-11.38h1.31L50.23 625h-1.54zm-4.31-1.23h3.87l-1.94-5.32zm9.6-4.25.04.93a3.12 3.12 0 0 1 2.5-1.09c1.19 0 2 .45 2.42 1.36a3.24 3.24 0 0 1 2.7-1.36c1.85 0 2.8.98 2.82 2.95V625h-1.44v-5.58c0-.6-.14-1.05-.41-1.35-.28-.3-.74-.45-1.4-.45-.53 0-.98.16-1.33.48-.36.32-.56.75-.62 1.3v5.6h-1.45v-5.54c0-1.23-.6-1.84-1.8-1.84-.95 0-1.6.4-1.95 1.2V625h-1.45v-8.45zM70.8 625a3.04 3.04 0 0 1-.21-.9 3.22 3.22 0 0 1-2.4 1.06 3 3 0 0 1-2.06-.7 2.3 2.3 0 0 1-.8-1.8c0-.88.33-1.57 1-2.05a4.74 4.74 0 0 1 2.83-.73h1.4v-.67c0-.5-.15-.9-.45-1.2-.3-.3-.75-.45-1.33-.45-.52 0-.95.13-1.3.39-.35.26-.52.57-.52.94H65.5c0-.42.15-.83.45-1.22.3-.4.7-.7 1.22-.94a4.13 4.13 0 0 1 1.7-.34c.97 0 1.73.25 2.28.74.55.48.84 1.15.86 2v3.9c0 .77.1 1.39.3 1.85v.12Zm-2.4-1.1c.45 0 .88-.12 1.28-.35.4-.24.7-.54.88-.92v-1.73h-1.13c-1.77 0-2.65.52-2.65 1.55 0 .46.15.81.45 1.07.3.25.69.38 1.16.38zm7.24-.08h4.94V625h-6.71v-1.06l4.66-6.2h-4.59v-1.2h6.4v1.03zm8.14 1.18h-1.44v-8.45h1.44zm-1.56-10.7c0-.23.07-.43.21-.59.15-.16.36-.24.64-.24s.5.08.64.24c.15.16.22.36.22.6a.8.8 0 0 1-.22.58c-.14.16-.36.23-.64.23s-.5-.07-.64-.23a.85.85 0 0 1-.2-.59zm5.25 2.25.05 1.06a3.08 3.08 0 0 1 2.53-1.22c1.79 0 2.69 1 2.7 3.02V625H91.3v-5.6c0-.6-.15-1.05-.43-1.35-.27-.29-.69-.43-1.27-.43-.47 0-.88.12-1.23.37-.36.25-.63.58-.83.99V625h-1.45v-8.45zm7.12 4.15c0-1.32.3-2.36.91-3.14a2.92 2.92 0 0 1 2.42-1.17 2.9 2.9 0 0 1 2.42 1.1l.07-.94h1.32v8.25c0 1.1-.33 1.95-.98 2.58-.64.63-1.51.95-2.6.95-.62 0-1.21-.13-1.8-.4a3.09 3.09 0 0 1-1.33-1.06l.75-.87a2.82 2.82 0 0 0 2.27 1.15c.7 0 1.25-.2 1.64-.6.4-.4.6-.95.6-1.67v-.72c-.58.66-1.37 1-2.37 1s-1.8-.4-2.4-1.2a5.18 5.18 0 0 1-.92-3.26zm1.45.17c0 .95.2 1.7.59 2.25.39.54.93.81 1.64.81.9 0 1.58-.41 2-1.24v-3.86a2.14 2.14 0 0 0-1.99-1.21c-.7 0-1.25.27-1.64.82-.4.54-.6 1.35-.6 2.43zm7.83 6.4-.82-.57c.49-.68.74-1.38.76-2.1v-1.31h1.42v1.13c0 .53-.13 1.05-.4 1.58-.25.53-.57.95-.96 1.27zm9.12-12.77v2.05h1.57v1.11h-1.57v5.25c0 .33.07.59.2.76.15.17.39.25.73.25.16 0 .4-.03.68-.1V625c-.38.1-.75.16-1.1.16-.65 0-1.14-.2-1.47-.59a2.57 2.57 0 0 1-.49-1.66v-5.25H110v-1.11h1.54v-2.05Zm4.71 3.07a3.07 3.07 0 0 1 2.5-1.18c1.8 0 2.7 1 2.7 3.02V625h-1.44v-5.6c0-.6-.14-1.05-.42-1.35-.27-.29-.7-.43-1.27-.43-.47 0-.88.12-1.24.37-.35.25-.63.58-.82.99V625h-1.45v-12h1.45zm12.6 7.43a3.05 3.05 0 0 1-.21-.9 3.22 3.22 0 0 1-2.4 1.06c-.84 0-1.53-.24-2.06-.7a2.3 2.3 0 0 1-.8-1.8c0-.88.33-1.57 1-2.05a4.74 4.74 0 0 1 2.83-.74h1.4v-.66c0-.5-.15-.9-.45-1.2-.3-.3-.75-.46-1.33-.46-.52 0-.95.13-1.3.4-.35.26-.53.57-.53.94H125c0-.42.15-.83.45-1.22.3-.4.7-.7 1.22-.94a4.13 4.13 0 0 1 1.7-.34c.97 0 1.73.24 2.28.73.55.49.84 1.16.86 2.01v3.9c0 .77.1 1.39.3 1.85v.12Zm-2.4-1.1c.45 0 .88-.12 1.28-.35.4-.24.7-.54.89-.92v-1.73h-1.14c-1.77 0-2.65.52-2.65 1.55 0 .46.15.81.45 1.07.3.25.69.38 1.16.38zm7.24-7.35.05 1.06a3.08 3.08 0 0 1 2.53-1.22c1.79 0 2.69 1 2.7 3.02V625h-1.44v-5.6c0-.6-.15-1.05-.42-1.35-.27-.29-.7-.43-1.28-.43-.46 0-.88.12-1.23.37s-.63.58-.83.99V625h-1.44v-8.45zm9.82 4.54-.9.94V625h-1.45v-12h1.45v7.26l.77-.93 2.63-2.78h1.76l-3.29 3.53 3.67 4.92h-1.7zm10.68 1.67c0-.4-.15-.7-.45-.9-.3-.23-.8-.42-1.54-.57a7.39 7.39 0 0 1-1.74-.56 2.53 2.53 0 0 1-.95-.79 2.17 2.17 0 0 1 .57-2.83 3.45 3.45 0 0 1 2.25-.72c.95 0 1.73.25 2.32.74.6.5.9 1.13.9 1.9h-1.45c0-.4-.17-.74-.5-1.02a1.87 1.87 0 0 0-1.27-.43c-.53 0-.94.11-1.24.34-.3.23-.44.53-.44.9 0 .35.13.61.41.79.28.18.77.35 1.5.5.72.17 1.3.36 1.75.59.45.22.78.49 1 .8.21.32.32.7.32 1.16 0 .75-.3 1.36-.9 1.82-.61.45-1.4.68-2.36.68-.68 0-1.27-.12-1.8-.36a2.97 2.97 0 0 1-1.22-1 2.4 2.4 0 0 1-.44-1.4h1.45c.02.48.22.87.57 1.16.37.28.85.42 1.44.42.55 0 .99-.11 1.31-.33.34-.23.5-.52.5-.9zm4.94-.97h-1.3l-.1-8.17h1.51zm-1.46 2.48c0-.23.07-.43.21-.58.15-.16.36-.25.64-.25s.5.09.64.25a.8.8 0 0 1 .22.58c0 .24-.07.43-.22.59-.14.15-.36.23-.64.23s-.5-.08-.64-.23a.84.84 0 0 1-.21-.59z"/><path fill="#d1d5dc" d="M36 594a12 12 0 0 0-12 12v40h142a12 12 0 0 0 12-12v-28a12 12 0 0 0-12-12zm0 1h130a11 11 0 0 1 11 11v28a11 11 0 0 1-11 11H25v-39a11 11 0 0 1 11-11z" color="#000" style="-inkscape-stroke:none"/><path fill="#616976" d="M31.23 663.81c0 1.43-.27 2.51-.8 3.24-.54.72-1.35 1.09-2.44 1.09-1.08 0-1.9-.36-2.44-1.06a5.23 5.23 0 0 1-.83-3.15v-1.73c0-1.43.26-2.5.8-3.22.54-.71 1.35-1.07 2.45-1.07s1.9.35 2.44 1.05c.53.7.8 1.74.82 3.13zm-1.66-1.86a4.2 4.2 0 0 0-.38-2.05c-.26-.44-.66-.66-1.22-.66-.54 0-.94.21-1.2.62a3.87 3.87 0 0 0-.4 1.93v2.26c0 .93.13 1.62.4 2.08.25.45.66.68 1.22.68.53 0 .92-.2 1.18-.63.25-.42.39-1.08.4-1.98zm3.58 1.11.54-5.01h5.34v1.43h-3.96l-.28 2.38c.46-.26.98-.4 1.56-.4.95 0 1.69.3 2.21.91.53.61.8 1.43.8 2.45 0 1.01-.3 1.82-.88 2.42-.58.6-1.38.9-2.4.9-.91 0-1.67-.26-2.27-.78a2.8 2.8 0 0 1-.97-2.05h1.6c.07.49.24.86.52 1.12.29.25.66.38 1.11.38.51 0 .9-.18 1.2-.55.28-.36.42-.86.42-1.49 0-.6-.15-1.08-.47-1.43a1.64 1.64 0 0 0-1.3-.54c-.3 0-.55.05-.76.13a2.1 2.1 0 0 0-.69.46zm8.62 3.19c.3 0 .55.09.71.27.17.17.26.39.26.65a.9.9 0 0 1-.26.65c-.16.17-.4.25-.71.25a.96.96 0 0 1-.7-.25.87.87 0 0 1-.27-.65.9.9 0 0 1 .26-.65c.16-.18.4-.27.7-.27zm0-5.8c.3 0 .55.08.71.26.17.18.26.4.26.66a.9.9 0 0 1-.26.65c-.16.17-.4.25-.71.25a.97.97 0 0 1-.7-.25.87.87 0 0 1-.27-.65.9.9 0 0 1 .26-.66c.16-.17.4-.26.7-.26zm7.1 7.55h-1.65v-8l-2.44.84v-1.4l3.88-1.43h.22zm9.73-7.33c0 .49-.12.93-.37 1.3-.25.39-.6.68-1.03.9.52.25.92.58 1.2 1 .28.41.42.89.42 1.42 0 .87-.3 1.57-.89 2.08a3.5 3.5 0 0 1-2.36.77c-1 0-1.78-.26-2.38-.78-.6-.51-.89-1.2-.89-2.07a2.54 2.54 0 0 1 1.62-2.42 2.36 2.36 0 0 1-1.39-2.2c0-.85.27-1.52.82-2.01.54-.5 1.28-.75 2.21-.75.94 0 1.68.25 2.22.75.55.5.82 1.16.82 2.01zm-1.44 4.53a1.53 1.53 0 0 0-1.6-1.65c-.49 0-.88.16-1.17.46-.28.3-.43.7-.43 1.2 0 .48.14.87.43 1.16.28.3.68.44 1.18.44.5 0 .89-.14 1.17-.42.28-.29.42-.68.42-1.19zm-.21-4.47c0-.43-.13-.78-.38-1.06a1.28 1.28 0 0 0-1-.43c-.43 0-.77.14-1.01.4-.25.27-.37.63-.37 1.1 0 .45.12.81.37 1.08s.58.4 1 .4c.43 0 .77-.13 1.01-.4.25-.27.38-.63.38-1.09zm8.82 3.57v3.7h-1.73v-9.95h3.81c1.11 0 2 .29 2.65.87.65.57.98 1.34.98 2.3 0 .97-.32 1.73-.96 2.27-.64.54-1.54.81-2.69.81zm0-1.39h2.08c.62 0 1.09-.14 1.41-.43.32-.29.49-.7.49-1.25 0-.54-.17-.97-.5-1.29a1.9 1.9 0 0 0-1.35-.5h-2.13zm9.47-4.86 2.87 7.63 2.87-7.63h2.23V668H81.5v-3.28l.17-4.39-2.94 7.67h-1.24l-2.93-7.66.17 4.38V668H73v-9.95z"/><path fill="#5dba00" d="M32.2 701.44h-3.1V710h-1.72v-8.56h-3.07v-1.4h7.9zm4.58 2.68a4.16 4.16 0 0 0-.68-.05c-.76 0-1.27.29-1.54.87V710H32.9v-7.4h1.59l.04.83c.4-.64.95-.96 1.67-.96.23 0 .43.03.58.1zm2.81 5.88h-1.66v-7.4h1.66zm-1.76-9.32c0-.25.08-.46.24-.63.16-.17.4-.26.7-.26.3 0 .53.09.7.26.16.17.24.38.24.63s-.08.46-.25.63c-.16.17-.4.25-.7.25a.94.94 0 0 1-.7-.25.88.88 0 0 1-.23-.63zM52.95 710h-1.73l-4.44-7.06V710h-1.73v-9.95h1.73l4.45 7.09v-7.1h1.72zm1.6-3.75c0-1.15.26-2.07.8-2.75a2.6 2.6 0 0 1 2.15-1.03c.85 0 1.5.3 2 .88l.07-.75h1.5v7.17c0 .97-.3 1.74-.91 2.3-.6.56-1.42.84-2.45.84-.54 0-1.07-.11-1.59-.34a2.8 2.8 0 0 1-1.17-.88l.78-1c.51.6 1.14.91 1.89.91.55 0 .99-.15 1.3-.45.32-.3.48-.74.48-1.31v-.5c-.48.53-1.11.8-1.91.8a2.6 2.6 0 0 1-2.13-1.04 4.48 4.48 0 0 1-.82-2.85zm1.65.14c0 .74.15 1.33.45 1.76.3.42.73.63 1.26.63a1.6 1.6 0 0 0 1.5-.86v-3.25a1.59 1.59 0 0 0-1.48-.84c-.55 0-.98.21-1.28.65-.3.43-.45 1.07-.45 1.91zm11.06 2.88c-.49.58-1.18.87-2.08.87-.8 0-1.41-.24-1.83-.7a3.1 3.1 0 0 1-.61-2.04v-4.8h1.66v4.77c0 .94.39 1.41 1.17 1.41.8 0 1.35-.29 1.63-.87v-5.3h1.66V710H67.3zm5.88-1.65 1.5-5.02h1.78l-2.94 8.52c-.45 1.24-1.22 1.87-2.3 1.87-.24 0-.5-.04-.8-.13v-1.28l.32.02c.42 0 .73-.08.94-.23.21-.15.38-.4.5-.77l.24-.63-2.6-7.37h1.8zm7.4 2.52c-1.05 0-1.9-.33-2.56-1a3.63 3.63 0 0 1-.98-2.65v-.2c0-.74.14-1.4.42-1.98a3.18 3.18 0 0 1 2.93-1.85c1 0 1.78.33 2.33.97.55.64.83 1.55.83 2.73v.67h-4.84c.05.6.26 1.1.61 1.45.36.35.81.53 1.36.53.76 0 1.38-.3 1.86-.92l.9.85a3 3 0 0 1-1.2 1.03c-.5.25-1.04.37-1.66.37zm-.2-6.34c-.45 0-.82.16-1.1.48a2.5 2.5 0 0 0-.54 1.33h3.17v-.12a2 2 0 0 0-.45-1.26 1.38 1.38 0 0 0-1.08-.43zm6-1.2.05.86c.55-.66 1.27-1 2.15-1 1.55 0 2.33.89 2.36 2.65V710h-1.66v-4.8c0-.46-.1-.8-.31-1.03-.2-.23-.53-.34-1-.34-.66 0-1.16.3-1.5.9V710h-1.65v-7.4z"/><path fill="#fff" d="M24.5 734A11.5 11.5 0 0 1 36 722.5h93a11.5 11.5 0 0 1 11.5 11.5v28a11.5 11.5 0 0 1-11.5 11.5H24.5Z"/><path fill="#2e2e2e" d="M50.06 753h-1.5l-5.73-8.77V753h-1.51v-11.38h1.5l5.75 8.81v-8.8h1.5zm2.06-4.3c0-.83.16-1.58.48-2.24.33-.66.78-1.17 1.36-1.53a3.71 3.71 0 0 1 2-.54c1.14 0 2.07.4 2.78 1.2.72.8 1.07 1.85 1.07 3.18v.1c0 .82-.16 1.56-.47 2.22a3.56 3.56 0 0 1-3.37 2.07c-1.15 0-2.08-.4-2.79-1.2a4.59 4.59 0 0 1-1.06-3.16zm1.45.17c0 .94.22 1.69.65 2.26a2.1 2.1 0 0 0 1.75.85c.73 0 1.32-.29 1.75-.86a4 4 0 0 0 .65-2.42c0-.93-.22-1.68-.67-2.25a2.09 2.09 0 0 0-1.75-.87c-.71 0-1.29.28-1.72.85a3.92 3.92 0 0 0-.66 2.44zm13.75-.32V753h-1.5v-11.38h4.2a4.2 4.2 0 0 1 2.92.96c.7.63 1.06 1.47 1.06 2.52a3.2 3.2 0 0 1-1.04 2.56c-.69.59-1.67.89-2.96.89zm0-1.23h2.7c.8 0 1.41-.19 1.84-.56.43-.38.64-.93.64-1.64 0-.68-.21-1.22-.64-1.63a2.53 2.53 0 0 0-1.76-.63h-2.78zm12.45-1.48a4.27 4.27 0 0 0-.7-.05c-.96 0-1.6.4-1.94 1.21v6H75.7v-8.45h1.4l.03.97a2.25 2.25 0 0 1 2.01-1.13c.28 0 .5.04.64.11zm.8 2.86c0-.83.16-1.58.48-2.24.33-.66.79-1.17 1.36-1.53a3.71 3.71 0 0 1 2-.54c1.15 0 2.08.4 2.79 1.2.7.8 1.07 1.85 1.07 3.18v.1c0 .82-.16 1.56-.48 2.22a3.56 3.56 0 0 1-3.37 2.07c-1.14 0-2.07-.4-2.79-1.2a4.59 4.59 0 0 1-1.06-3.16zm1.45.17c0 .94.22 1.69.65 2.26a2.1 2.1 0 0 0 1.75.85c.74 0 1.32-.29 1.75-.86a4 4 0 0 0 .65-2.42c0-.93-.22-1.68-.66-2.25a2.09 2.09 0 0 0-1.75-.87c-.72 0-1.3.28-1.73.85a3.92 3.92 0 0 0-.66 2.44zm15.21 0c0 1.29-.3 2.33-.89 3.11a2.83 2.83 0 0 1-2.39 1.18 2.93 2.93 0 0 1-2.47-1.14l-.07.98h-1.33v-12h1.44v4.48a2.93 2.93 0 0 1 2.42-1.09c1.02 0 1.83.39 2.41 1.16.59.78.88 1.84.88 3.2zm-1.44-.17a3.9 3.9 0 0 0-.57-2.28 1.9 1.9 0 0 0-1.64-.8c-.95 0-1.64.44-2.06 1.33v3.65c.45.89 1.14 1.33 2.07 1.33.7 0 1.24-.27 1.62-.8.39-.54.58-1.35.58-2.43zm4.84 4.3H99.2v-12h1.44zm5.83.16a3.7 3.7 0 0 1-2.8-1.13 4.2 4.2 0 0 1-1.07-3.02v-.27c0-.84.15-1.58.47-2.24.32-.66.77-1.18 1.35-1.55.57-.37 1.2-.56 1.87-.56 1.1 0 1.95.36 2.56 1.09.61.72.92 1.76.92 3.1v.6h-5.73a3 3 0 0 0 .73 2.03c.47.51 1.06.77 1.78.77.5 0 .94-.1 1.3-.32.35-.2.66-.48.93-.82l.88.68a3.55 3.55 0 0 1-3.19 1.64zm-.18-7.58c-.58 0-1.07.21-1.47.64a3 3 0 0 0-.73 1.78h4.23v-.1a2.73 2.73 0 0 0-.6-1.71 1.8 1.8 0 0 0-1.43-.61zm6.52-1.03.04.93a3.12 3.12 0 0 1 2.5-1.09c1.19 0 2 .45 2.42 1.36a3.16 3.16 0 0 1 2.7-1.36c1.85 0 2.79.98 2.82 2.95V753h-1.44v-5.58c0-.6-.14-1.05-.42-1.35-.27-.3-.74-.45-1.39-.45-.54 0-.98.16-1.34.48-.35.32-.56.75-.61 1.3v5.6h-1.46v-5.54c0-1.23-.6-1.84-1.8-1.84-.95 0-1.6.4-1.95 1.2V753h-1.44v-8.45z"/><path fill="#d1d5dc" d="M36 722a12 12 0 0 0-12 12v40h105a12 12 0 0 0 12-12v-28a12 12 0 0 0-12-12zm0 1h93a11 11 0 0 1 11 11v28a11 11 0 0 1-11 11H25v-39a11 11 0 0 1 11-11z" color="#000" style="-inkscape-stroke:none"/><path fill="#616976" d="M31.23 791.81c0 1.43-.27 2.51-.8 3.24-.54.72-1.35 1.09-2.44 1.09-1.08 0-1.9-.36-2.44-1.06a5.23 5.23 0 0 1-.83-3.15v-1.73c0-1.43.26-2.5.8-3.22.54-.71 1.35-1.07 2.45-1.07s1.9.35 2.44 1.05c.53.7.8 1.74.82 3.13zm-1.66-1.86a4.2 4.2 0 0 0-.38-2.05c-.26-.44-.66-.66-1.22-.66-.54 0-.94.21-1.2.62a3.87 3.87 0 0 0-.4 1.93v2.26c0 .93.13 1.62.4 2.08.25.45.66.68 1.22.68.53 0 .92-.2 1.18-.63.25-.42.39-1.08.4-1.98zm3.58 1.11.54-5.01h5.34v1.43h-3.96l-.28 2.38c.46-.26.98-.4 1.56-.4.95 0 1.69.3 2.21.91.53.61.8 1.43.8 2.45 0 1.01-.3 1.82-.88 2.42-.58.6-1.38.9-2.4.9-.91 0-1.67-.26-2.27-.78a2.8 2.8 0 0 1-.97-2.05h1.6c.07.49.24.86.52 1.12.29.25.66.38 1.11.38.51 0 .9-.18 1.2-.55.28-.36.42-.86.42-1.49 0-.6-.15-1.08-.47-1.43a1.64 1.64 0 0 0-1.3-.54c-.3 0-.55.05-.76.13a2.1 2.1 0 0 0-.69.46zm8.62 3.19c.3 0 .55.09.71.27.17.17.26.39.26.65a.9.9 0 0 1-.26.65c-.16.17-.4.25-.71.25a.96.96 0 0 1-.7-.25.87.87 0 0 1-.27-.65.9.9 0 0 1 .26-.65c.16-.18.4-.27.7-.27zm0-5.8c.3 0 .55.08.71.26.17.18.26.4.26.66a.9.9 0 0 1-.26.65c-.16.17-.4.25-.71.25a.97.97 0 0 1-.7-.25.87.87 0 0 1-.27-.65.9.9 0 0 1 .26-.66c.16-.17.4-.26.7-.26zm7.1 7.55h-1.65v-8l-2.44.84v-1.4l3.88-1.43h.22zm8.17-4.16a2.6 2.6 0 0 1-1.94.88 2.6 2.6 0 0 1-2.1-.92 3.62 3.62 0 0 1-.77-2.42c0-.65.13-1.25.4-1.78a2.9 2.9 0 0 1 1.12-1.25 3.2 3.2 0 0 1 1.7-.44c1 0 1.8.37 2.38 1.12.59.75.88 1.75.88 3v.47c0 1.8-.4 3.16-1.21 4.1-.82.95-2.03 1.43-3.63 1.44h-.2v-1.37h.24a3.41 3.41 0 0 0 2.25-.7c.53-.47.82-1.18.88-2.13zm-1.6-.42a1.81 1.81 0 0 0 1.62-1.08v-.65c0-.73-.15-1.32-.45-1.77-.3-.45-.7-.67-1.17-.67-.48 0-.86.2-1.15.6-.28.39-.42.88-.42 1.49 0 .62.14 1.12.43 1.5.28.39.67.58 1.15.58zm10.33.88v3.7h-1.73v-9.95h3.81c1.11 0 2 .29 2.65.87.65.57.98 1.34.98 2.3 0 .97-.32 1.73-.96 2.27-.64.54-1.54.81-2.69.81zm0-1.39h2.08c.62 0 1.09-.14 1.41-.43.32-.29.49-.7.49-1.25 0-.54-.17-.97-.5-1.29a1.9 1.9 0 0 0-1.35-.5h-2.13zm9.47-4.86 2.87 7.63 2.87-7.63h2.23V796H81.5v-3.28l.17-4.39-2.94 7.67h-1.24l-2.93-7.66.17 4.38V796H73v-9.95zM31.23 535.81c0 1.43-.27 2.51-.8 3.24-.54.72-1.35 1.09-2.44 1.09-1.08 0-1.9-.36-2.44-1.06a5.23 5.23 0 0 1-.83-3.15v-1.73c0-1.43.26-2.5.8-3.22.54-.71 1.35-1.07 2.45-1.07s1.9.35 2.44 1.05c.53.7.8 1.74.82 3.13zm-1.66-1.86a4.2 4.2 0 0 0-.38-2.05c-.26-.44-.66-.66-1.22-.66-.54 0-.94.21-1.2.62a3.87 3.87 0 0 0-.4 1.93v2.26c0 .93.13 1.62.4 2.08.25.45.66.68 1.22.68.53 0 .92-.2 1.18-.63.25-.42.39-1.08.4-1.98zm3.58 1.11.54-5.01h5.34v1.43h-3.96l-.28 2.38c.46-.26.98-.4 1.56-.4.95 0 1.69.3 2.21.91.53.61.8 1.43.8 2.45 0 1.01-.3 1.82-.88 2.42-.58.6-1.38.9-2.4.9-.91 0-1.67-.26-2.27-.78a2.8 2.8 0 0 1-.97-2.05h1.6c.07.49.24.86.52 1.12.29.25.66.38 1.11.38.51 0 .9-.18 1.2-.55.28-.36.42-.86.42-1.49 0-.6-.15-1.08-.47-1.43a1.64 1.64 0 0 0-1.3-.54c-.3 0-.55.05-.76.13a2.1 2.1 0 0 0-.69.46zm8.62 3.19c.3 0 .55.09.71.27.17.17.26.39.26.65a.9.9 0 0 1-.26.65c-.16.17-.4.25-.71.25a.96.96 0 0 1-.7-.25.87.87 0 0 1-.27-.65.9.9 0 0 1 .26-.65c.16-.18.4-.27.7-.27zm0-5.8c.3 0 .55.08.71.26.17.18.26.4.26.66a.9.9 0 0 1-.26.65c-.16.17-.4.25-.71.25a.97.97 0 0 1-.7-.25.87.87 0 0 1-.27-.65.9.9 0 0 1 .26-.66c.16-.17.4-.26.7-.26zm7.1 7.55h-1.65v-8l-2.44.84v-1.4l3.88-1.43h.22zm10.09-9.03L54.98 540h-1.74l3.97-8.62h-5.15v-1.33h6.9zm6.81 5.33v3.7h-1.73v-9.95h3.81c1.11 0 2 .29 2.65.87.65.57.98 1.34.98 2.3 0 .97-.32 1.73-.96 2.27-.64.54-1.54.81-2.69.81zm0-1.39h2.08c.62 0 1.09-.14 1.41-.43.32-.29.49-.7.49-1.25 0-.54-.17-.97-.5-1.29a1.9 1.9 0 0 0-1.35-.5h-2.13zm9.47-4.86 2.87 7.63 2.87-7.63h2.23V540H81.5v-3.28l.17-4.39-2.94 7.67h-1.24l-2.93-7.66.17 4.38V540H73v-9.95z"/><g clip-path="url(#f)"><use xlink:href="#g"/><path fill="#757575" d="M132.09 415.56a6.23 6.23 0 0 1-2.46-1.19 2.3 2.3 0 0 1-.77-1.75c0-.78.31-1.43.94-1.94a3.74 3.74 0 0 1 2.44-.77c.69 0 1.3.13 1.83.4a2.94 2.94 0 0 1 1.69 2.61h-1.32c0-.6-.2-1.07-.58-1.41a2.33 2.33 0 0 0-1.62-.52 2.4 2.4 0 0 0-1.51.43c-.36.28-.54.68-.54 1.18 0 .4.17.75.51 1.04.35.27.93.53 1.76.76.83.23 1.47.5 1.94.77a2.5 2.5 0 0 1 1.38 2.3c0 .8-.32 1.45-.94 1.94-.63.48-1.47.73-2.53.73-.68 0-1.32-.13-1.91-.4a3.27 3.27 0 0 1-1.38-1.07 2.64 2.64 0 0 1-.47-1.56h1.32c0 .6.22 1.08.66 1.43.45.35 1.04.52 1.78.52.7 0 1.23-.14 1.6-.42.36-.28.55-.67.55-1.16 0-.48-.17-.86-.51-1.12a5.87 5.87 0 0 0-1.86-.8zm6.44-2.06a2.69 2.69 0 0 1 2.2-1.03c1.55 0 2.34.88 2.36 2.64V420h-1.27v-4.9c0-.53-.12-.92-.37-1.18-.23-.25-.6-.38-1.11-.38-.41 0-.77.1-1.08.33-.31.22-.55.5-.73.86V420h-1.26v-10.5h1.26zm11.02 6.5c-.08-.15-.14-.4-.18-.78-.59.61-1.3.92-2.1.92-.74 0-1.34-.2-1.8-.62a2 2 0 0 1-.7-1.57c0-.77.29-1.37.87-1.8a4.14 4.14 0 0 1 2.48-.63h1.23v-.58c0-.45-.13-.8-.4-1.06-.26-.26-.65-.4-1.17-.4-.45 0-.83.12-1.13.35-.3.23-.46.5-.46.82h-1.27c0-.36.13-.72.39-1.06a2.7 2.7 0 0 1 1.06-.82c.46-.2.95-.3 1.49-.3.85 0 1.52.21 2 .64.48.42.73 1 .75 1.76v3.4c0 .68.09 1.22.26 1.62v.11Zm-2.1-.96a2.19 2.19 0 0 0 1.9-1.11v-1.52h-1c-1.54 0-2.32.45-2.32 1.36 0 .4.13.7.4.93.26.22.6.34 1.02.34zm8.72-5.3a4.1 4.1 0 0 0-.62-.05c-.83 0-1.4.35-1.69 1.06V420h-1.26v-7.4h1.23l.02.86a1.97 1.97 0 0 1 2.32-.9zm4.1 6.4c-1 0-1.82-.33-2.44-.99a3.68 3.68 0 0 1-.95-2.64v-.24c0-.73.14-1.38.42-1.96.28-.58.67-1.03 1.17-1.35.51-.33 1.06-.5 1.64-.5.97 0 1.71.32 2.25.96.53.63.8 1.54.8 2.72v.52h-5.01c.01.73.23 1.32.63 1.77.41.45.93.67 1.56.67a2.24 2.24 0 0 0 1.94-.99l.78.6a3.1 3.1 0 0 1-2.79 1.43zm-.15-6.63c-.51 0-.94.18-1.29.56a2.7 2.7 0 0 0-.64 1.55h3.7v-.1a2.4 2.4 0 0 0-.52-1.48 1.58 1.58 0 0 0-1.25-.53zm4.2 2.73c0-1.14.27-2.05.8-2.73a2.55 2.55 0 0 1 2.12-1.04c.86 0 1.55.3 2.06.88v-3.85h1.26V420h-1.16l-.06-.8c-.5.63-1.21.94-2.12.94-.85 0-1.55-.35-2.1-1.06a4.4 4.4 0 0 1-.8-2.74zm1.26.14c0 .84.18 1.5.52 1.97.35.48.83.71 1.44.71.8 0 1.39-.36 1.76-1.08v-3.4a1.86 1.86 0 0 0-1.75-1.04c-.62 0-1.1.24-1.45.72a3.6 3.6 0 0 0-.52 2.12zm14.99 3.62c-.07-.15-.13-.4-.18-.78-.59.61-1.29.92-2.1.92a2.6 2.6 0 0 1-1.8-.62 2 2 0 0 1-.7-1.57c0-.77.3-1.37.88-1.8a4.15 4.15 0 0 1 2.47-.63h1.23v-.58c0-.45-.13-.8-.4-1.06-.26-.26-.65-.4-1.16-.4-.46 0-.83.12-1.14.35-.3.23-.46.5-.46.82h-1.27c0-.36.13-.72.39-1.06a2.7 2.7 0 0 1 1.07-.82c.45-.2.94-.3 1.48-.3.85 0 1.52.21 2 .64.49.42.74 1 .76 1.76v3.4c0 .68.08 1.22.26 1.62v.11Zm-2.1-.96a2.19 2.19 0 0 0 1.9-1.11v-1.52h-1c-1.54 0-2.32.45-2.32 1.36 0 .4.14.7.4.93.26.22.6.34 1.02.34zm9.04.96v-6.42h-1.16v-.98h1.16v-.62c0-.83.24-1.47.7-1.93a2.8 2.8 0 0 1 2.01-.7c.51 0 1.16.15 1.94.42l-.22 1.07a4.38 4.38 0 0 0-1.62-.34c-.55 0-.94.12-1.18.37-.24.24-.35.6-.35 1.1v.63h1.5v.98h-1.5V420Zm5.27 0h-1.27v-7.4h1.27zm3.44 0h-1.27v-10.5h1.27zm5.1.14c-1 0-1.82-.33-2.45-.99a3.68 3.68 0 0 1-.95-2.64v-.24c0-.73.14-1.38.42-1.96a3.24 3.24 0 0 1 2.82-1.85c.96 0 1.7.32 2.24.96.53.63.8 1.54.8 2.72v.52h-5.01c.02.73.23 1.32.63 1.77.41.45.93.67 1.56.67.45 0 .83-.09 1.14-.27.3-.18.58-.42.81-.72l.77.6a3.1 3.1 0 0 1-2.79 1.43zm-.16-6.63c-.51 0-.94.18-1.29.56a2.7 2.7 0 0 0-.64 1.55h3.7v-.1a2.4 2.4 0 0 0-.51-1.48 1.58 1.58 0 0 0-1.26-.53zm4.47 5.83c0-.22.06-.4.19-.55.13-.15.33-.22.59-.22.26 0 .45.07.59.22.13.15.2.33.2.55 0 .2-.07.38-.2.52-.14.14-.33.21-.6.21-.25 0-.45-.07-.58-.2a.76.76 0 0 1-.2-.53zm0-6.04c0-.22.07-.4.2-.55.13-.14.32-.22.58-.22.26 0 .46.08.6.22.13.15.2.33.2.55 0 .21-.07.39-.2.53-.14.14-.34.2-.6.2-.26 0-.45-.06-.58-.2a.76.76 0 0 1-.2-.53z"/><path fill="#2e2e2e" d="M138.06 441h-1.5v-5.26h-5.74V441h-1.5v-11.38h1.5v4.9h5.74v-4.9h1.5zm5.95.16a3.7 3.7 0 0 1-2.8-1.13 4.2 4.2 0 0 1-1.08-3.02v-.27c0-.84.16-1.58.48-2.24.32-.66.77-1.18 1.34-1.55.58-.37 1.2-.56 1.88-.56 1.1 0 1.95.36 2.56 1.09.61.72.92 1.76.92 3.1v.6h-5.73c.02.84.26 1.51.72 2.03.47.51 1.07.77 1.79.77.5 0 .94-.1 1.3-.32.35-.2.66-.48.92-.82l.88.68a3.55 3.55 0 0 1-3.18 1.64zm-.18-7.58a1.9 1.9 0 0 0-1.47.64c-.4.42-.64 1.01-.74 1.78h4.24v-.1a2.73 2.73 0 0 0-.6-1.71c-.35-.4-.83-.61-1.43-.61zM154.2 441a3.05 3.05 0 0 1-.2-.9 3.22 3.22 0 0 1-2.4 1.06 3 3 0 0 1-2.06-.7 2.3 2.3 0 0 1-.8-1.8c0-.88.34-1.57 1-2.05a4.74 4.74 0 0 1 2.83-.74h1.4v-.66c0-.5-.14-.9-.45-1.2-.3-.3-.74-.45-1.33-.45-.52 0-.95.13-1.3.39-.35.26-.52.57-.52.94h-1.46c0-.42.15-.83.45-1.22.3-.4.7-.7 1.22-.94a4.13 4.13 0 0 1 1.7-.34c.97 0 1.73.25 2.28.74.55.48.84 1.15.86 2v3.9c0 .77.1 1.39.3 1.85v.12Zm-2.4-1.1c.46 0 .89-.12 1.3-.35.4-.24.7-.54.88-.92v-1.73h-1.14c-1.77 0-2.65.52-2.65 1.55 0 .46.15.81.45 1.07.3.25.7.38 1.17.38zm7.46 1.1h-1.45v-12h1.45zm4.28-10.5v2.05h1.58v1.11h-1.58v5.25c0 .34.07.59.21.76.14.17.38.25.72.25.17 0 .4-.03.69-.1V441c-.38.1-.75.16-1.11.16-.65 0-1.14-.2-1.46-.59a2.5 2.5 0 0 1-.5-1.66v-5.25h-1.53v-1.11h1.53v-2.05Zm4.72 3.07a3.07 3.07 0 0 1 2.5-1.18c1.78 0 2.69 1 2.7 3.02V441h-1.44v-5.6c-.01-.6-.15-1.05-.43-1.34-.27-.3-.7-.44-1.27-.44-.47 0-.88.12-1.23.37-.36.25-.63.58-.83.99V441h-1.45v-12h1.45zm15.73 2.83h-2.67v4.6h-1.5v-11.38h3.76c1.28 0 2.26.3 2.95.88.7.58 1.04 1.43 1.04 2.55 0 .7-.2 1.32-.58 1.85a3.4 3.4 0 0 1-1.6 1.18l2.68 4.83v.09h-1.6zm-2.67-1.23h2.3c.75 0 1.34-.2 1.78-.58.44-.38.66-.9.66-1.54 0-.7-.2-1.25-.63-1.62-.42-.38-1.02-.57-1.81-.57h-2.3zm11.64 5.99a3.7 3.7 0 0 1-2.8-1.13 4.2 4.2 0 0 1-1.07-3.02v-.27c0-.84.16-1.58.47-2.24.33-.66.77-1.18 1.35-1.55.57-.37 1.2-.56 1.87-.56 1.1 0 1.95.36 2.56 1.09.61.72.92 1.76.92 3.1v.6h-5.73c.02.84.26 1.51.73 2.03.47.51 1.06.77 1.78.77.5 0 .94-.1 1.3-.32.35-.2.66-.48.93-.82l.88.68a3.55 3.55 0 0 1-3.19 1.64zm-.18-7.58c-.58 0-1.07.21-1.47.64a3 3 0 0 0-.73 1.78h4.23v-.1a2.73 2.73 0 0 0-.6-1.71 1.8 1.8 0 0 0-1.43-.61zm10.08 5.18c0-.4-.15-.7-.45-.9-.29-.23-.8-.42-1.53-.57a7.38 7.38 0 0 1-1.75-.56 2.52 2.52 0 0 1-.95-.79c-.2-.3-.3-.66-.3-1.07 0-.7.29-1.28.87-1.76a3.45 3.45 0 0 1 2.25-.72c.96 0 1.73.25 2.33.74.6.5.9 1.13.9 1.9h-1.46c0-.4-.17-.74-.5-1.02a1.87 1.87 0 0 0-1.27-.43c-.53 0-.94.11-1.23.34-.3.23-.45.53-.45.9 0 .35.14.61.41.79.28.18.78.35 1.5.5.72.17 1.3.36 1.75.59.45.22.78.49 1 .8.22.32.33.7.33 1.16 0 .75-.3 1.36-.91 1.82-.6.45-1.39.68-2.35.68-.68 0-1.28-.12-1.8-.36a2.97 2.97 0 0 1-1.23-1c-.29-.43-.43-.9-.43-1.4h1.44c.03.48.22.87.58 1.16.36.28.84.42 1.44.42.54 0 .98-.11 1.3-.33.34-.23.5-.52.5-.9zm10.47-1.9c0 1.3-.3 2.33-.89 3.12a2.83 2.83 0 0 1-2.39 1.18 3.1 3.1 0 0 1-2.42-.98v4.07h-1.44v-11.7h1.32l.07.93a2.96 2.96 0 0 1 2.45-1.09c1.02 0 1.82.38 2.4 1.15.6.76.9 1.83.9 3.2zm-1.45-.16c0-.95-.2-1.7-.6-2.26a1.98 1.98 0 0 0-1.68-.82c-.87 0-1.53.39-1.97 1.16v4.04c.44.77 1.1 1.16 1.99 1.16.69 0 1.24-.28 1.65-.82.4-.56.61-1.37.61-2.46zm2.9 0c0-.83.17-1.58.5-2.24.32-.66.78-1.17 1.35-1.53a3.71 3.71 0 0 1 2-.54c1.15 0 2.08.4 2.78 1.2.72.8 1.07 1.85 1.07 3.18v.1c0 .82-.15 1.56-.47 2.22a3.56 3.56 0 0 1-3.37 2.07c-1.14 0-2.07-.4-2.79-1.2a4.58 4.58 0 0 1-1.06-3.16zm1.46.17c0 .94.22 1.69.65 2.26a2.1 2.1 0 0 0 1.75.85c.74 0 1.32-.29 1.75-.86.43-.58.65-1.39.65-2.43 0-.92-.22-1.67-.66-2.25a2.08 2.08 0 0 0-1.75-.86c-.72 0-1.3.28-1.73.85a3.93 3.93 0 0 0-.66 2.44zm9.42-4.32.05 1.06a3.08 3.08 0 0 1 2.53-1.22c1.79 0 2.69 1 2.7 3.02V441h-1.44v-5.6c0-.6-.15-1.05-.42-1.34-.27-.3-.7-.44-1.28-.44-.46 0-.88.12-1.23.37s-.63.58-.83.99V441h-1.44v-8.45zm12.39 6.2c0-.38-.15-.68-.45-.9-.29-.22-.8-.4-1.54-.56a7.4 7.4 0 0 1-1.74-.56 2.53 2.53 0 0 1-.95-.78 2.17 2.17 0 0 1 .57-2.84 3.45 3.45 0 0 1 2.25-.72c.96 0 1.73.25 2.33.74.6.5.9 1.13.9 1.9h-1.46c0-.4-.17-.74-.5-1.02a1.87 1.87 0 0 0-1.27-.43c-.53 0-.94.11-1.24.34-.3.23-.44.53-.44.9 0 .35.14.61.41.79.28.18.78.35 1.5.5.72.17 1.3.36 1.75.59.45.22.78.49 1 .8.21.32.32.7.32 1.16 0 .75-.3 1.36-.9 1.82-.6.45-1.4.68-2.36.68-.67 0-1.27-.12-1.8-.36a2.97 2.97 0 0 1-1.22-1 2.4 2.4 0 0 1-.44-1.4h1.45c.03.48.22.87.58 1.16.36.28.84.42 1.43.42.55 0 .99-.11 1.32-.33.33-.23.5-.52.5-.9zm6.83 2.4a3.7 3.7 0 0 1-2.8-1.12 4.2 4.2 0 0 1-1.07-3.02v-.27c0-.84.16-1.58.47-2.24.33-.66.78-1.18 1.35-1.55.58-.37 1.2-.56 1.87-.56 1.1 0 1.96.36 2.57 1.09.6.72.91 1.76.91 3.1v.6h-5.73c.02.84.27 1.51.73 2.03.47.51 1.06.77 1.78.77.51 0 .94-.1 1.3-.32.35-.2.66-.48.93-.82l.88.68a3.55 3.55 0 0 1-3.19 1.64zm-.18-7.57c-.58 0-1.07.21-1.47.64a3 3 0 0 0-.73 1.78h4.23v-.1a2.73 2.73 0 0 0-.59-1.71c-.35-.4-.83-.61-1.44-.61zm11.09-3.08v2.05h1.58v1.11h-1.58v5.25c0 .34.07.59.21.76.14.17.38.25.72.25.16 0 .4-.03.69-.1V441c-.38.1-.75.16-1.11.16-.65 0-1.14-.2-1.46-.59a2.5 2.5 0 0 1-.5-1.66v-5.25h-1.53v-1.11h1.53v-2.05Zm2.73 6.2c0-.83.17-1.58.49-2.24.33-.66.78-1.17 1.36-1.53a3.72 3.72 0 0 1 1.99-.54c1.15 0 2.08.4 2.79 1.2a4.6 4.6 0 0 1 1.07 3.18v.1c0 .82-.16 1.56-.48 2.22a3.55 3.55 0 0 1-3.36 2.07c-1.15 0-2.08-.4-2.8-1.2a4.59 4.59 0 0 1-1.06-3.16zm1.46.17c0 .94.21 1.69.65 2.26a2.1 2.1 0 0 0 1.75.85 2.1 2.1 0 0 0 1.75-.86 4 4 0 0 0 .64-2.42c0-.93-.22-1.68-.66-2.25a2.08 2.08 0 0 0-1.75-.87c-.71 0-1.29.28-1.73.85a3.92 3.92 0 0 0-.65 2.44zm-122.3 20.52a4.2 4.2 0 0 1-1.33 2.79c-.74.65-1.73.98-2.97.98a4.02 4.02 0 0 1-3.24-1.45 5.82 5.82 0 0 1-1.21-3.87v-1.09c0-1.06.19-1.99.56-2.79a4.23 4.23 0 0 1 4.02-2.5c1.2 0 2.18.35 2.9 1.02.73.68 1.16 1.6 1.28 2.8h-1.51c-.13-.9-.41-1.56-.85-1.97-.43-.4-1.04-.6-1.82-.6a2.7 2.7 0 0 0-2.26 1.06c-.54.7-.81 1.71-.81 3.02v1.1a5 5 0 0 0 .77 2.95 2.5 2.5 0 0 0 2.17 1.09c.83 0 1.47-.19 1.9-.56.46-.38.75-1.04.9-1.98zm10.81-1.71c0 1.11-.18 2.09-.56 2.92a4.18 4.18 0 0 1-4 2.56c-.9 0-1.69-.22-2.38-.66a4.41 4.41 0 0 1-1.62-1.88 6.8 6.8 0 0 1-.59-2.84v-.82c0-1.1.2-2.06.57-2.9.38-.84.92-1.48 1.61-1.92.7-.45 1.5-.67 2.4-.67a4.21 4.21 0 0 1 4.02 2.58c.37.83.55 1.8.55 2.91zm-1.49-.74a5.1 5.1 0 0 0-.81-3.1 2.68 2.68 0 0 0-2.28-1.08c-.94 0-1.7.36-2.24 1.08a5 5 0 0 0-.83 3v.84c0 1.3.27 2.34.82 3.09a2.68 2.68 0 0 0 2.27 1.11c.97 0 1.72-.35 2.25-1.05.53-.71.8-1.72.82-3.04zm7.34 4.07 3.25-9.39h1.64L155 461h-1.33l-4.21-11.38h1.63zm8.03 1.99h-1.5v-11.38h1.5zm2.75 0v-11.38h3.2c1 0 1.87.22 2.63.66a4.42 4.42 0 0 1 1.76 1.87c.42.8.63 1.73.63 2.78v.73c0 1.07-.2 2-.62 2.82-.41.8-1 1.42-1.77 1.86-.77.43-1.66.65-2.68.66zm1.5-10.14v8.91h1.58c1.15 0 2.05-.36 2.7-1.08.64-.71.96-1.74.96-3.07v-.66c0-1.3-.3-2.3-.92-3a3.22 3.22 0 0 0-2.57-1.1zm8 9.38c0-.25.08-.46.22-.62.16-.17.38-.25.68-.25.3 0 .52.08.67.25.15.16.23.37.23.62 0 .24-.08.44-.23.6a.89.89 0 0 1-.67.25.91.91 0 0 1-.68-.25.86.86 0 0 1-.21-.6zm11.33-3.37c0 1.28-.3 2.32-.88 3.1a2.83 2.83 0 0 1-2.39 1.19 3.1 3.1 0 0 1-2.42-.98v4.07h-1.45v-11.7h1.32l.07.93c.6-.73 1.4-1.09 2.46-1.09 1.01 0 1.81.38 2.4 1.15.6.76.9 1.83.9 3.2zm-1.44-.17c0-.95-.2-1.7-.61-2.26-.4-.55-.96-.82-1.67-.82-.88 0-1.53.39-1.97 1.16v4.04c.43.77 1.1 1.16 1.98 1.16.7 0 1.24-.28 1.65-.82.41-.56.62-1.37.62-2.46zm2.94 0c0-1.3.3-2.34.92-3.12a2.91 2.91 0 0 1 2.41-1.19c1 0 1.78.34 2.35 1.02V449h1.45v12h-1.33l-.07-.9a2.94 2.94 0 0 1-2.41 1.06 2.9 2.9 0 0 1-2.4-1.2 5.03 5.03 0 0 1-.92-3.15zm1.44.17c0 .96.2 1.7.6 2.25.39.54.94.81 1.64.81a2.1 2.1 0 0 0 2-1.24v-3.88c-.43-.8-1.1-1.2-1.99-1.2-.7 0-1.26.28-1.66.83-.4.54-.59 1.35-.59 2.43zm8.65 4.13v-7.34h-1.34v-1.11h1.34v-.87c0-.9.24-1.6.73-2.1.48-.5 1.17-.74 2.05-.74.33 0 .66.04 1 .13l-.09 1.17c-.24-.05-.5-.07-.78-.07-.47 0-.83.14-1.08.41-.26.27-.39.67-.39 1.18v.89h1.8v1.11h-1.8V461Z"/><path fill="#8e8e8e" fill-rule="evenodd" d="M146.33 495.33v3.34c0 .92-.74 1.66-1.66 1.66h-13.34c-.92 0-1.66-.74-1.66-1.66v-3.34h1.66v3.34h13.34v-3.34zm-7.5-2.84 2.75-2.75 1.18 1.18-4.76 4.76-4.76-4.76 1.18-1.18 2.75 2.75v-8.82h1.66z" clip-rule="evenodd"/><g filter="url(#h)"><path fill="#fff" d="M36 398h72a4 4 0 0 1 4 4v72a4 4 0 0 1-4 4H36a4 4 0 0 1-4-4v-72a4 4 0 0 1 4-4z"/></g><path fill="#c80000" d="M60.93 463.03a1 1 0 0 1 .31-.77c.22-.2.48-.29.8-.29.32 0 .6.1.8.3.21.19.32.45.32.76a1 1 0 0 1-.31.76c-.21.19-.48.28-.8.28-.33 0-.6-.1-.8-.28a1 1 0 0 1-.32-.76zm10.63-2.66c0 1.14-.26 2.05-.78 2.74a2.48 2.48 0 0 1-2.1 1.03 2.3 2.3 0 0 1-1.8-.78v3.48H64.9V456.6h1.83l.07.73a2.3 2.3 0 0 1 1.87-.86c.91 0 1.62.33 2.13 1 .5.68.76 1.61.76 2.8zm-1.98-.14c0-.7-.12-1.22-.37-1.6a1.2 1.2 0 0 0-1.06-.56c-.62 0-1.04.24-1.28.71v3.03c.25.49.68.73 1.3.73.94 0 1.41-.77 1.41-2.31zm2.9.02c0-1.16.26-2.07.77-2.76a2.53 2.53 0 0 1 2.13-1.02c.72 0 1.31.27 1.78.8v-3.77h1.98V464h-1.78l-.1-.79a2.3 2.3 0 0 1-1.9.93c-.87 0-1.57-.34-2.1-1.03a4.63 4.63 0 0 1-.78-2.86zm1.98.14c0 .7.12 1.22.36 1.6.24.36.59.55 1.05.55.61 0 1.04-.26 1.3-.78v-2.91c-.25-.52-.68-.78-1.29-.78-.95 0-1.42.78-1.42 2.32zm6.76 3.61v-5.95h-1.1v-1.45h1.1v-.63c0-.83.23-1.47.7-1.92a2.8 2.8 0 0 1 2.01-.7c.27 0 .6.05 1 .14l-.02 1.53a2.52 2.52 0 0 0-.6-.06c-.74 0-1.11.35-1.11 1.05v.6h1.47v1.44H83.2V464Z"/><g clip-path="url(#i)"><path fill="#c80000" d="m83.12 420.12-5.25-5.24a3 3 0 0 0-2.11-.89H63c-1.66.01-3 1.35-3 3.01v26a3 3 0 0 0 3 3h18a3 3 0 0 0 3-3v-20.76c0-.79-.32-1.56-.88-2.12zM80.76 422H76v-4.76zM63 443v-26h10v6.5c0 .83.67 1.5 1.5 1.5H81v18zm15.64-8.98c-.76-.75-2.94-.54-4.03-.4a5.42 5.42 0 0 1-2.3-2.9c.25-1 .63-2.54.34-3.5-.26-1.64-2.36-1.48-2.66-.37-.28 1-.03 2.4.44 4.2a49.45 49.45 0 0 1-2.22 4.64c-1.25.65-2.93 1.64-3.18 2.9-.21.98 1.62 3.44 4.75-1.96 1.4-.46 2.93-1.03 4.28-1.26a8.31 8.31 0 0 0 3.48 1.07c1.6 0 1.75-1.77 1.1-2.42zm-12.38 4.86c.32-.85 1.53-1.84 1.9-2.19-1.2 1.9-1.9 2.24-1.9 2.2zm5.1-11.91c.46 0 .42 2 .1 2.55-.27-.87-.26-2.55-.1-2.55zm-1.53 8.54c.6-1.06 1.13-2.32 1.55-3.42.51.94 1.18 1.7 1.88 2.22-1.3.27-2.44.82-3.43 1.2zm8.23-.32s-.32.38-2.33-.48c2.19-.17 2.55.33 2.33.48z"/></g></g><path fill="#d1d5dc" d="M36 390a12 12 0 0 0-12 12v116h308a12 12 0 0 0 12-12V402a12 12 0 0 0-12-12zm0 1h296a11 11 0 0 1 11 11v104a11 11 0 0 1-11 11H25V402a11 11 0 0 1 11-11z" color="#000" style="-inkscape-stroke:none"/><path fill="#d1d5dc" d="M24 123v1h366v-1z" color="#000" opacity=".5" style="-inkscape-stroke:none"/><path fill="#fafafa" d="M155.5 111h103v26h-103Z"/><path fill="#616976" d="M170.2 126.68h-3.85l-.81 2.32h-1.8l3.76-9.95h1.55l3.77 9.95h-1.8zm-3.37-1.4h2.89l-1.45-4.12zm13.11.1c0 1.14-.26 2.06-.78 2.74a2.5 2.5 0 0 1-2.09 1.02c-.8 0-1.46-.27-1.95-.8v3.5h-1.66V121.6H175l.07.76c.49-.6 1.15-.9 2-.9.9 0 1.6.34 2.11 1.02.52.67.77 1.6.77 2.8zm-1.65-.15c0-.73-.15-1.32-.45-1.75a1.4 1.4 0 0 0-1.25-.65c-.68 0-1.17.28-1.47.84v3.28c.3.57.8.86 1.48.86.53 0 .94-.21 1.24-.64.3-.42.45-1.07.45-1.94zm6.94-2.1a4.17 4.17 0 0 0-.68-.06c-.76 0-1.27.29-1.54.87V129h-1.66v-7.4h1.59l.04.83c.4-.64.96-.96 1.67-.96.23 0 .43.03.58.1zm2.81 5.87h-1.66v-7.4h1.66zm-1.76-9.32c0-.25.08-.47.24-.63.16-.17.4-.26.7-.26.3 0 .53.09.7.26.16.16.24.38.24.63s-.08.46-.25.63c-.16.17-.4.25-.7.25-.3 0-.53-.08-.69-.25a.88.88 0 0 1-.24-.63zm5.35 9.32h-1.67v-10.5h1.67zm11.88 0h-6.69v-1.14l3.32-3.62c.47-.53.81-.97 1.01-1.33.21-.36.31-.72.31-1.08 0-.47-.13-.86-.4-1.15-.27-.3-.62-.44-1.07-.44-.54 0-.96.17-1.26.5-.3.32-.44.77-.44 1.34h-1.66c0-.6.14-1.15.41-1.63.28-.49.67-.87 1.18-1.14a3.8 3.8 0 0 1 1.78-.4c.97 0 1.73.24 2.28.73.56.48.84 1.15.84 2.01 0 .5-.14 1.02-.42 1.57a8.8 8.8 0 0 1-1.37 1.85l-2.44 2.6h4.62zm7.96 0h-6.7v-1.14l3.32-3.62c.48-.53.82-.97 1.02-1.33.2-.36.31-.72.31-1.08 0-.47-.14-.86-.4-1.15-.27-.3-.63-.44-1.08-.44-.53 0-.95.17-1.25.5-.3.32-.44.77-.44 1.34h-1.66c0-.6.13-1.15.4-1.63a2.9 2.9 0 0 1 1.19-1.14 3.8 3.8 0 0 1 1.78-.4c.96 0 1.72.24 2.28.73.56.48.84 1.15.84 2.01 0 .5-.14 1.02-.42 1.57a8.8 8.8 0 0 1-1.38 1.85l-2.43 2.6h4.62zm1.6 2.24-.89-.53c.27-.42.45-.78.54-1.09.1-.3.15-.61.16-.93v-1.3h1.5l-.01 1.2c0 .48-.13.97-.37 1.45-.24.49-.55.89-.92 1.2zM226 129h-6.7v-1.14l3.32-3.62c.48-.53.82-.97 1.02-1.33.2-.36.3-.72.3-1.08 0-.47-.13-.86-.4-1.15-.26-.3-.62-.44-1.07-.44-.54 0-.95.17-1.25.5-.3.32-.44.77-.44 1.34h-1.66a2.97 2.97 0 0 1 1.59-2.77 3.8 3.8 0 0 1 1.78-.4c.96 0 1.72.24 2.28.73.56.48.84 1.15.84 2.01 0 .5-.14 1.02-.42 1.57a8.8 8.8 0 0 1-1.38 1.85l-2.43 2.6H226zm7.75-4.19c0 1.43-.27 2.51-.8 3.24-.54.72-1.35 1.09-2.44 1.09-1.08 0-1.9-.36-2.44-1.06a5.22 5.22 0 0 1-.83-3.15v-1.73c0-1.43.26-2.5.8-3.22.54-.71 1.35-1.07 2.45-1.07s1.9.35 2.44 1.05c.53.7.8 1.74.82 3.13zm-1.66-1.86a4.2 4.2 0 0 0-.38-2.05c-.26-.44-.66-.66-1.22-.66-.54 0-.94.21-1.2.63a3.88 3.88 0 0 0-.4 1.92v2.26c0 .93.13 1.62.4 2.08.25.45.66.68 1.22.68.53 0 .92-.2 1.18-.63a4.1 4.1 0 0 0 .4-1.98zm9.82 6.05h-6.69v-1.14l3.32-3.62c.48-.53.82-.97 1.02-1.33.2-.36.3-.72.3-1.08 0-.47-.13-.86-.4-1.15-.26-.3-.62-.44-1.07-.44-.54 0-.96.17-1.25.5-.3.32-.45.77-.45 1.34h-1.66c0-.6.14-1.15.41-1.63.28-.49.67-.87 1.18-1.14a3.8 3.8 0 0 1 1.78-.4c.97 0 1.73.24 2.28.73.56.48.84 1.15.84 2.01 0 .5-.14 1.02-.42 1.57a8.8 8.8 0 0 1-1.37 1.85l-2.44 2.6h4.62zm5.77 0H246v-8l-2.44.84v-1.4l3.89-1.43h.2z"/><g filter="url(#j)"><path fill="#1c3760" fill-rule="evenodd" d="m422.99 21.93-444.43-2.77L0 80h414z" clip-rule="evenodd"/></g><path fill="#fff" d="M382 50h-3v-3h-2v3h-3v2h3v3h2v-3h3zm10 1a2.99 2.99 0 0 0 2.99-3 2.99 2.99 0 0 0-3.9-2.86 4.93 4.93 0 0 1 0 5.72c.28.09.59.14.91.14zm-5 0a2.99 2.99 0 0 0 2.99-3 3 3 0 1 0-2.99 3zm6.62 2.16A3.7 3.7 0 0 1 395 56v2h3v-2c0-1.54-2.37-2.49-4.38-2.84zM387 53c-2 0-6 1-6 3v2h12v-2c0-2-4-3-6-3zm-37.5 1h-.79l-.28-.27a6.5 6.5 0 1 0-.7.7l.27.28v.79l5 4.99 1.49-1.49zm-6 0a4.5 4.5 0 1 1-.01-8.99 4.5 4.5 0 0 1 .01 8.99zm-45.22-11a2 2 0 0 0-2 2v14a2 2 0 0 0 2 2h13.96a2 2 0 0 0 2-2v-7h-2v7h-13.96V45h6.98v-2zm12.75 1a.69.69 0 0 0-.48.2l-1.22 1.21 2.5 2.5 1.21-1.21a.68.68 0 0 0 0-.95l-1.54-1.55a.67.67 0 0 0-.47-.2zm-2.4 2.12-7.36 7.38V56h2.5l7.35-7.38zM36 51H23.83l5.59-5.59L28 44l-8 8 8 8 1.41-1.41L23.83 53H36Zm62.97 2.47-1.45 1.54V59H95.3V46.2h2.22v6l1.23-1.51 3.75-4.49h2.69l-4.76 5.67 5.03 7.13h-2.64zM112.13 59a3.1 3.1 0 0 1-.24-.89 3.33 3.33 0 0 1-2.5 1.07 3.4 3.4 0 0 1-2.34-.82c-.6-.55-.9-1.22-.9-2.02a2.7 2.7 0 0 1 1.12-2.33 5.47 5.47 0 0 1 3.24-.82h1.3v-.62c0-.5-.13-.89-.4-1.18-.28-.3-.7-.45-1.26-.45-.5 0-.89.12-1.2.37-.31.24-.47.55-.47.92h-2.13c0-.52.17-1 .52-1.46.34-.45.81-.81 1.4-1.07.6-.26 1.27-.39 2-.39 1.11 0 2 .29 2.66.85.66.55 1 1.34 1.02 2.35v4.3c0 .85.12 1.53.36 2.04V59Zm-2.34-1.54c.42 0 .81-.1 1.18-.3.38-.21.66-.49.85-.83v-1.8h-1.16a3.1 3.1 0 0 0-1.78.42c-.4.27-.6.66-.6 1.17 0 .4.14.74.4.98.28.24.65.36 1.1.36zm11.38-6.02a5.28 5.28 0 0 0-.87-.07c-.98 0-1.64.38-1.98 1.13V59h-2.14v-9.51h2.04l.06 1.06a2.4 2.4 0 0 1 2.14-1.24 2 2 0 0 1 .76.13zm.63 2.72c0-.93.18-1.77.55-2.52a4 4 0 0 1 1.56-1.72 4.4 4.4 0 0 1 2.3-.6c1.29 0 2.33.4 3.12 1.23.8.83 1.24 1.93 1.3 3.3l.01.5a5.6 5.6 0 0 1-.54 2.5 3.96 3.96 0 0 1-1.55 1.72c-.67.4-1.44.6-2.32.6a4.14 4.14 0 0 1-3.23-1.33c-.8-.9-1.2-2.09-1.2-3.58zm2.14.18c0 .98.2 1.75.6 2.3.4.56.97.83 1.69.83s1.28-.28 1.68-.84c.4-.57.6-1.39.6-2.47 0-.96-.2-1.73-.62-2.29a1.97 1.97 0 0 0-1.68-.84c-.7 0-1.25.28-1.66.83a4.13 4.13 0 0 0-.61 2.48zM134.72 59h-2.14V45.5h2.14zm6.52.18a4.44 4.44 0 0 1-3.3-1.28c-.83-.85-1.25-2-1.25-3.4v-.27c0-.95.18-1.8.54-2.54a4.08 4.08 0 0 1 3.76-2.37c1.3 0 2.3.4 3 1.23.71.83 1.07 2 1.07 3.51v.86h-6.22c.07.79.33 1.4.78 1.87.47.45 1.05.68 1.74.68.98 0 1.78-.4 2.4-1.19l1.15 1.1a3.87 3.87 0 0 1-1.53 1.33c-.64.31-1.35.47-2.14.47zm-.25-8.15c-.59 0-1.06.2-1.43.61-.36.41-.58.98-.68 1.72h4.07v-.16a2.58 2.58 0 0 0-.58-1.62c-.33-.37-.8-.55-1.38-.55zm6.03 10.85-1.15-.68a6 6 0 0 0 .7-1.4c.13-.4.2-.8.2-1.2v-1.67h1.92v1.54a4.36 4.36 0 0 1-.48 1.87c-.3.62-.7 1.14-1.19 1.54zM164.08 48h-3.99v11h-2.2V48h-3.96v-1.8h10.15zm5.88 3.44a5.28 5.28 0 0 0-.87-.07c-.98 0-1.63.38-1.97 1.13V59h-2.14v-9.51h2.04l.05 1.06a2.4 2.4 0 0 1 2.15-1.24 2 2 0 0 1 .75.13zM173.6 59h-2.14v-9.51h2.14zm-2.27-11.98c0-.33.1-.6.3-.82.22-.21.51-.32.9-.32s.69.1.9.32c.2.22.31.5.31.82 0 .32-.1.6-.31.8-.21.22-.51.33-.9.33s-.68-.11-.9-.32c-.2-.22-.3-.49-.3-.81z"/><path fill="#d1d5dc" d="M83 53a16 16 0 0 1-16 16 16 16 0 0 1-16-16 16 16 0 0 1 16-16 16 16 0 0 1 16 16Z"/><path fill="#fff" fill-rule="evenodd" d="M70.1 49.9a3.1 3.1 0 1 1-6.2 0 3.1 3.1 0 0 1 6.2 0zm-9.3 9.3c0-3.42 1.55-4.5 6.19-4.5 4.64 0 6.19 1.08 6.19 4.5zm8.85-6.02a2.25 2.25 0 1 0 1.55-3.53v.27c0 1.31-.6 2.5-1.55 3.26zm-5.32 0a2.25 2.25 0 1 1-1.55-3.53v.27c0 1.31.6 2.5 1.55 3.26zM58 58.62v.57h1.69c0-1.1.12-2.59 1.06-3.74-2.03.28-2.75 1.18-2.75 3.17Zm16.31.57c0-1.1-.12-2.59-1.06-3.74 2.03.28 2.75 1.18 2.75 3.17v.57z" clip-rule="evenodd"/></g><defs><clipPath id="a"><path fill="#fff" d="M0 0h414v872H0z"/></clipPath><clipPath id="f"><use xlink:href="#g"/></clipPath><clipPath id="i"><path fill="#fff" d="M60 414h24v32H60z"/></clipPath><filter id="e" width="418" height="52" x="-2" y="821" color-interpolation-filters="sRGB" filterUnits="userSpaceOnUse"><feFlood flood-opacity="0" result="BackgroundImageFix"/><feColorMatrix in="SourceAlpha" result="hardAlpha" values="0 0 0 0 0 0 0 0 0 0 0 0 0 0 0 0 0 0 127 0"/><feOffset dy="-1"/><feGaussianBlur stdDeviation="1"/><feColorMatrix values="0 0 0 0 0 0 0 0 0 0 0 0 0 0 0 0 0 0 0.1 0"/><feBlend in2="BackgroundImageFix" result="effect1_dropShadow_4253_16005"/><feBlend in="SourceGraphic" in2="effect1_dropShadow_4253_16005" result="shape"/></filter><filter id="h" width="112" height="112" x="16" y="390" color-interpolation-filters="sRGB" filterUnits="userSpaceOnUse"><feFlood flood-opacity="0" result="BackgroundImageFix"/><feColorMatrix in="SourceAlpha" result="hardAlpha" values="0 0 0 0 0 0 0 0 0 0 0 0 0 0 0 0 0 0 127 0"/><feOffset dy="8"/><feGaussianBlur stdDeviation="8"/><feColorMatrix values="0 0 0 0 0.286275 0 0 0 0 0.313726 0 0 0 0 0.368627 0 0 0 0.08 0"/><feBlend in2="BackgroundImageFix" result="effect1_dropShadow_4253_16005"/><feBlend in="SourceGraphic" in2="effect1_dropShadow_4253_16005" result="shape"/></filter><filter id="j" width="422" height="64" x="-4" y="20" color-interpolation-filters="sRGB" filterUnits="userSpaceOnUse"><feFlood flood-opacity="0" result="BackgroundImageFix"/><feColorMatrix in="SourceAlpha" result="hardAlpha" values="0 0 0 0 0 0 0 0 0 0 0 0 0 0 0 0 0 0 127 0"/><feOffset/><feGaussianBlur stdDeviation="2"/><feColorMatrix values="0 0 0 0 0.286275 0 0 0 0 0.313726 0 0 0 0 0.368627 0 0 0 0.1 0"/><feBlend in2="BackgroundImageFix" result="effect1_dropShadow_4253_16005"/><feBlend in="SourceGraphic" in2="effect1_dropShadow_4253_16005" result="shape"/></filter></defs></svg>