<svg xmlns="http://www.w3.org/2000/svg" xmlns:xlink="http://www.w3.org/1999/xlink" fill="none" viewBox="0 0 414 851"><defs><path id="g" fill="#fff" d="M24 402a12 12 0 0 1 12-12h296a12 12 0 0 1 12 12v104a12 12 0 0 1-12 12H24Z"/></defs><path fill="#fff" fill-rule="evenodd" d="M-.4 804H413v46H-.4Z" paint-order="markers stroke fill"/><g clip-path="url(#a)"><path fill="#fafafa" d="M0 0h414l10.1 803.6H-1.5Z"/><path fill="#1c3760" fill-rule="evenodd" d="M0 0v24h414V0Z" clip-rule="evenodd"/><mask id="b" width="16" height="12" x="301" y="6" maskUnits="userSpaceOnUse"><path fill="#fff" fill-rule="evenodd" d="m301 6 8 12 8-12z" clip-rule="evenodd"/></mask><g fill="#fff" fill-rule="evenodd" clip-rule="evenodd" mask="url(#b)"><path fill-opacity=".3" d="M309 6c-6.6 0-12 5.4-12 12s5.4 12 12 12 12-5.4 12-12-5.4-12-12-12zm0 21c-5 0-9-4-9-9s4-9 9-9 9 4 9 9-4 9-9 9z"/><path d="M309 9c-5 0-9 4-9 9s4 9 9 9 9-4 9-9-4-9-9-9zm0 15c-3.3 0-6-2.7-6-6s2.7-6 6-6 6 2.7 6 6-2.7 6-6 6z"/><path d="M309 12c-3.3 0-6 2.7-6 6s2.7 6 6 6 6-2.7 6-6-2.7-6-6-6zm0 9c-1.7 0-3-1.3-3-3s1.3-3 3-3 3 1.3 3 3-1.3 3-3 3z"/><path d="M309 21a3 3 0 1 0 0-6 3 3 0 0 0 0 6z"/></g><mask id="c" width="12" height="12" x="327" y="6" maskUnits="userSpaceOnUse"><path fill="#fff" fill-rule="evenodd" d="M339 18V6l-12 12z" clip-rule="evenodd"/></mask><g fill="#fff" fill-rule="evenodd" clip-rule="evenodd" mask="url(#c)"><path fill-opacity=".3" d="M336 6v12h3V6Zm-3 0v12h3V6Z"/><path d="M330 6v12h3V6Zm-3 0v12h3V6Z"/></g><mask id="d" width="8" height="13" x="353" y="5" maskUnits="userSpaceOnUse"><path fill="#fff" fill-rule="evenodd" d="M360 6h-1V5h-4v1h-1c-.6 0-1 .4-1 1v10c0 .6.4 1 1 1h6c.6 0 1-.4 1-1V7c0-.6-.4-1-1-1z" clip-rule="evenodd"/></mask><g fill="#fff" fill-rule="evenodd" clip-rule="evenodd" mask="url(#d)"><path d="M353 15v3h8v-3zm0-3v3h8v-3z"/><path fill-opacity=".3" d="M353 9v3h8V9Zm0-3v3h8V6Zm2-1v1h4V5Z"/></g><path fill="#fff" d="M377.6 17V7.8h-.8a1.8 1.8 0 0 1-1 1.4l-.8.3h-.9v.9h2.4V17Zm3.2-6h1.1v-.8l.4-.7a1.6 1.6 0 0 1 1.4-.7 1.8 1.8 0 0 1 1.2.4 1.6 1.6 0 0 1 .6 1.2 2.1 2.1 0 0 1-.6 1.5l-.7.7-1 .6-1 .6a3.8 3.8 0 0 0-1.4 1.8l-.3 1.4h6v-1h-4.7c0-.3.2-.5.3-.7l.6-.7.9-.5.8-.5a12.2 12.2 0 0 0 1.6-1.2 3 3 0 0 0 .7-2 2.6 2.6 0 0 0-.9-2 3.4 3.4 0 0 0-2-.6c-.5 0-1 0-1.3.2a2.7 2.7 0 0 0-1.6 1.7l-.1 1.4zm9.2.7v-1.4h-1.5v1.4zm-1.5 3.9V17h1.5v-1.4zm5.4-3.9v1h1.4l.7.4a1.7 1.7 0 0 1 .5 1.3 1.7 1.7 0 0 1-.6 1.3 2.1 2.1 0 0 1-1.4.5c-.6 0-1-.2-1.4-.6-.3-.4-.5-.9-.5-1.5h-1.1a2.9 2.9 0 0 0 .8 2.3l1 .6a4.3 4.3 0 0 0 2.5 0 3 3 0 0 0 1-.6c.3-.2.5-.5.6-.8l.3-1.2a2.5 2.5 0 0 0-.4-1.5 1.9 1.9 0 0 0-1.3-.8l1-.7c.2-.3.3-.7.3-1.1 0-.5 0-.8-.2-1.1a2 2 0 0 0-.6-.8 2 2 0 0 0-.9-.5 3.7 3.7 0 0 0-2.3.1l-.9.6a3 3 0 0 0-.5 1c-.2.3-.2.7-.2 1.2h1c0-.3 0-.6.2-.8 0-.2.1-.5.3-.6l.5-.5.8-.1c.5 0 .9 0 1.2.3.3.3.4.7.4 1.1a1.4 1.4 0 0 1-.5 1.2l-.6.3h-1zm6.1.8v-.8a8.5 8.5 0 0 1 .2-1.6l.4-.7a1.6 1.6 0 0 1 1.3-.6l.8.1a1.9 1.9 0 0 1 .9 1.2l.1.8v.8a22.2 22.2 0 0 1 0 2l-.1 1.1c-.2.4-.3.7-.6 1-.3.3-.6.4-1.1.4-.5 0-.8-.1-1-.4a2.3 2.3 0 0 1-.7-1 5.4 5.4 0 0 1-.2-1.2 30.2 30.2 0 0 1 0-1.1zm-1.2 0v1a5.3 5.3 0 0 0 .5 2 2.4 2.4 0 0 0 1.4 1.5l1.2.2 1.2-.2a2.4 2.4 0 0 0 1.4-1.4c.2-.3.3-.7.3-1l.2-1a22.6 22.6 0 0 0 0-2.2 7.2 7.2 0 0 0-.2-1 5.2 5.2 0 0 0-.3-1 2.4 2.4 0 0 0-1.4-1.4l-1.2-.2c-.5 0-.9 0-1.2.2a2.4 2.4 0 0 0-1.4 1.4 5.2 5.2 0 0 0-.3 1l-.1 1v1z"/><g filter="url(#e)"><path fill="#fff" d="M1.1 801.4h413.3L414 852H0Z"/></g><path fill="#757575" d="M161.2 821.9h-3.7V832H156v-10.1h-3.6v-1.3h8.8zm3.6 8 2-6.3h1.6l-3.4 9.7c-.6 1.4-1.4 2.1-2.5 2.1h-.3l-.6-.1V834h.4c.5 0 .9 0 1.2-.3.3-.1.5-.5.7-1l.3-.9-3-8.4h1.5zm12-2a5 5 0 0 1-.9 3 2.8 2.8 0 0 1-2.4 1.3 3.1 3.1 0 0 1-2.4-1v4h-1.4v-11.6h1.3v.9a3 3 0 0 1 2.5-1.1c1 0 1.8.4 2.4 1.1.6.8.9 1.9.9 3.2zm-1.4-.2a4 4 0 0 0-.6-2.3 2 2 0 0 0-1.7-.8c-1 0-1.6.4-2 1.2v4c.4.8 1.1 1.2 2 1.2a2 2 0 0 0 1.6-.8c.5-.6.7-1.4.7-2.5zm6.8 4.5a3.7 3.7 0 0 1-2.8-1.2 4.2 4.2 0 0 1-1.1-3v-.3c0-.8.1-1.5.4-2.2.4-.7.8-1.2 1.4-1.5.6-.4 1.2-.6 1.9-.6 1 0 2 .4 2.5 1a5 5 0 0 1 1 3.2v.6h-5.8c0 .8.3 1.5.7 2 .5.5 1.1.8 1.8.8.5 0 1-.1 1.3-.3.4-.2.7-.5 1-.9l.8.7a3.5 3.5 0 0 1-3.2 1.7zm-.2-7.6a2 2 0 0 0-1.5.6 3 3 0 0 0-.7 1.8h4.2v-.1a2.7 2.7 0 0 0-.6-1.7 1.8 1.8 0 0 0-1.4-.6zm14.3 7.4a3 3 0 0 1-.2-.9 3.2 3.2 0 0 1-2.4 1 3 3 0 0 1-2-.6 2.3 2.3 0 0 1-.9-1.8c0-1 .4-1.6 1-2a4.7 4.7 0 0 1 2.9-.8h1.4v-.7c0-.5-.2-.9-.5-1.2-.3-.3-.7-.4-1.3-.4-.5 0-1 0-1.3.3-.4.3-.5.6-.5 1H191c0-.4.2-.8.5-1.2a3 3 0 0 1 1.2-1 4.1 4.1 0 0 1 1.7-.3c1 0 1.7.2 2.3.7.5.5.8 1.2.8 2v4c0 .7.1 1.3.3 1.8v.1Zm-2.4-1.1c.5 0 .9-.1 1.3-.3.4-.3.7-.6.9-1V828h-1.2c-1.7 0-2.6.5-2.6 1.6 0 .4.1.8.4 1 .3.3.7.4 1.2.4zm11.2-7.3v.9a3.1 3.1 0 0 1 2.6-1.1c1.1 0 2 .4 2.4 1.3l1-1c.5-.2 1-.3 1.7-.3 1.8 0 2.8 1 2.8 3v5.6h-1.4v-5.6c0-.6-.2-1-.5-1.3-.2-.3-.7-.5-1.4-.5a2 2 0 0 0-1.3.5 2 2 0 0 0-.6 1.3v5.6h-1.5v-5.5c0-1.3-.6-1.9-1.8-1.9-1 0-1.6.4-2 1.2v6.2h-1.4v-8.4zm16.2 8.5a3.7 3.7 0 0 1-2.8-1 4.2 4.2 0 0 1-1-3v-.4c0-.8 0-1.5.4-2.2.3-.7.8-1.2 1.3-1.6.6-.3 1.2-.5 2-.5 1 0 1.9.4 2.5 1 .6.8.9 1.8.9 3.2v.6h-5.7c0 .8.2 1.5.7 2 .5.5 1 .8 1.8.8.5 0 1-.1 1.3-.3l.9-.9.9.7a3.5 3.5 0 0 1-3.2 1.7zm-.2-7.5a1.9 1.9 0 0 0-1.4.6 3 3 0 0 0-.8 1.8h4.2v-.1a2.7 2.7 0 0 0-.5-1.7 1.8 1.8 0 0 0-1.5-.6zm10 5.2c0-.4 0-.7-.3-1a4 4 0 0 0-1.6-.5 7.4 7.4 0 0 1-1.7-.6 2.5 2.5 0 0 1-1-.8 2.2 2.2 0 0 1 .6-2.8 3.5 3.5 0 0 1 2.2-.7c1 0 1.8.2 2.4.7.6.5.9 1.2.9 2H231c0-.5-.2-.8-.5-1a1.9 1.9 0 0 0-1.3-.5 2 2 0 0 0-1.2.3 1 1 0 0 0-.4 1c0 .3 0 .5.4.7.2.2.7.4 1.5.5a8 8 0 0 1 1.7.6c.5.2.8.5 1 .8.2.3.3.7.3 1.2 0 .7-.3 1.3-.9 1.8a4.3 4.3 0 0 1-4.2.3 3 3 0 0 1-1.1-1 2.4 2.4 0 0 1-.5-1.4h1.5c0 .5.2.9.5 1.2.4.2.9.4 1.5.4.5 0 1-.1 1.3-.4.3-.2.5-.5.5-.9zm8.3 0c0-.4-.1-.7-.4-1a4 4 0 0 0-1.5-.5 7.4 7.4 0 0 1-1.8-.6 2.5 2.5 0 0 1-1-.8 2.2 2.2 0 0 1 .6-2.8 3.5 3.5 0 0 1 2.3-.7c1 0 1.7.2 2.3.7.6.5 1 1.2 1 2h-1.5c0-.5-.2-.8-.5-1a1.9 1.9 0 0 0-1.3-.5 2 2 0 0 0-1.2.3 1 1 0 0 0-.5 1c0 .3.1.5.4.7.3.2.8.4 1.5.5a8 8 0 0 1 1.8.6c.4.2.8.5 1 .8.2.3.3.7.3 1.2 0 .7-.3 1.3-1 1.8-.5.4-1.3.7-2.3.7-.6 0-1.2-.2-1.8-.4a3 3 0 0 1-1.2-1 2.4 2.4 0 0 1-.4-1.4h1.4c0 .5.2.9.6 1.2.4.2.8.4 1.4.4.6 0 1-.1 1.3-.4.4-.2.5-.5.5-.9zm8.6 2.2a3 3 0 0 1-.2-.9 3.2 3.2 0 0 1-2.4 1 3 3 0 0 1-2-.6 2.3 2.3 0 0 1-.9-1.8c0-1 .4-1.6 1-2a4.7 4.7 0 0 1 2.9-.8h1.4v-.7c0-.5-.2-.9-.5-1.2-.3-.3-.7-.4-1.3-.4-.5 0-1 0-1.3.3-.4.3-.5.6-.5 1h-1.5c0-.4.2-.8.5-1.2a4 4 0 0 1 1.2-1 4.1 4.1 0 0 1 1.7-.3c1 0 1.7.2 2.3.7.5.5.8 1.2.8 2v4c0 .7.1 1.3.3 1.8v.1Zm-2.4-1.1c.5 0 .9-.1 1.3-.3.4-.3.7-.6.9-1V828h-1.2c-1.7 0-2.6.5-2.6 1.6 0 .4.1.8.4 1 .3.3.7.4 1.2.4zm5.5-3.2c0-1.3.3-2.4 1-3.1a3 3 0 0 1 2.4-1.2 2.9 2.9 0 0 1 2.4 1v-.8h1.4v8.2c0 1.1-.3 2-1 2.6-.6.6-1.5 1-2.6 1a4 4 0 0 1-1.8-.5 3.1 3.1 0 0 1-1.3-1l.7-.9a2.8 2.8 0 0 0 2.3 1.2c.7 0 1.2-.2 1.6-.6.4-.4.6-1 .6-1.7v-.7a3 3 0 0 1-2.3 1c-1 0-1.8-.4-2.4-1.2a5.2 5.2 0 0 1-1-3.3zm1.5.2c0 1 .2 1.7.6 2.2.4.6 1 .8 1.6.8a2.1 2.1 0 0 0 2-1.2v-3.9a2.1 2.1 0 0 0-2-1.2 2 2 0 0 0-1.6.8 4 4 0 0 0-.6 2.5zm11.4 4.3a3.7 3.7 0 0 1-2.8-1.2 4.2 4.2 0 0 1-1.1-3v-.3c0-.8.2-1.5.5-2.2a3.4 3.4 0 0 1 3.2-2.1c1.1 0 2 .4 2.6 1 .6.8.9 1.8.9 3.2v.6h-5.8c0 .8.3 1.5.8 2 .4.5 1 .8 1.7.8.6 0 1-.1 1.3-.3a3 3 0 0 0 1-.9l.9.7a3.5 3.5 0 0 1-3.2 1.7zm-.2-7.6a1.9 1.9 0 0 0-1.5.6 3 3 0 0 0-.7 1.8h4.2v-.1a2.7 2.7 0 0 0-.6-1.7 1.8 1.8 0 0 0-1.4-.6zm5.2 6.6c0-.2 0-.4.2-.6.1-.2.4-.2.7-.2.3 0 .5 0 .7.2l.2.6-.2.6a.9.9 0 0 1-.7.3 1 1 0 0 1-.7-.3.9.9 0 0 1-.2-.6zm4.2 0c0-.2 0-.4.2-.6.2-.2.4-.2.7-.2.3 0 .5 0 .7.2l.2.6c0 .3 0 .5-.2.6a1 1 0 0 1-.7.3 1 1 0 0 1-.7-.3.9.9 0 0 1-.2-.6zm4.2 0c0-.2 0-.4.2-.6.2-.2.4-.2.7-.2.3 0 .5 0 .7.2l.2.6c0 .3 0 .5-.2.6a1 1 0 0 1-.7.3 1 1 0 0 1-.7-.3.9.9 0 0 1-.2-.6z"/><path fill="#8e8e8e" d="M43 828h-6v6h-2v-6h-6v-2h6v-6h2v6h6zm40.2-7.2h-2.9l-1.6-1.8h-5.4l-1.6 1.9h-2.9c-1 0-1.8.8-1.8 1.8v11c0 1.1.8 2 1.8 2h14.4c1 0 1.8-.9 1.8-2v-11c0-1-.8-1.8-1.8-1.8zm0 13H68.8v-11.1h3.6l1.7-1.8h3.8l1.7 1.8h3.6ZM76 823.6a4.6 4.6 0 0 0-4.5 4.6A4.6 4.6 0 0 0 76 833c2.5 0 4.5-2.1 4.5-4.7a4.6 4.6 0 0 0-4.5-4.6zm0 7.4a2.8 2.8 0 0 1-2.7-2.8 2.8 2.8 0 0 1 2.7-2.7c1.5 0 2.7 1.2 2.7 2.7A2.8 2.8 0 0 1 76 831zm47-11v14h-14v-14zm0-2h-14a2 2 0 0 0-2 2v14c0 1.1.9 2 2 2h14a2 2 0 0 0 2-2v-14a2 2 0 0 0-2-2zm-4.9 8.9-3 3.8-2.1-2.6-3 3.9h12zm250 9.1 20.9-9-21-9v7l15 2-15 2z"/><path fill="#fff" d="M234 166a6 6 0 0 1 6-6h144a6 6 0 0 1 6 6v46H240a6 6 0 0 1-6-6z"/><path fill="#007aba" fill-opacity=".1" d="M234 166a6 6 0 0 1 6-6h144a6 6 0 0 1 6 6v46H240a6 6 0 0 1-6-6z"/><path fill="#2e2e2e" d="M243.3 191v-11.4h3.2c1 0 1.9.2 2.7.7a4.4 4.4 0 0 1 1.7 1.8c.4.9.6 1.8.6 2.8v.8c0 1-.2 2-.6 2.8a4 4 0 0 1-1.8 1.8c-.7.5-1.6.7-2.6.7zm1.5-10.1v8.9h1.6c1.1 0 2-.4 2.7-1.1.6-.7 1-1.7 1-3v-.7c0-1.3-.3-2.3-1-3a3.2 3.2 0 0 0-2.5-1.1zm8.4 5.8c0-.8.2-1.6.5-2.2.3-.7.8-1.2 1.4-1.6a3.7 3.7 0 0 1 2-.5c1.1 0 2 .4 2.7 1.2a4.6 4.6 0 0 1 1.1 3.2 5 5 0 0 1-.5 2.3 3.6 3.6 0 0 1-3.3 2c-1.2 0-2.1-.3-2.8-1.1a4.6 4.6 0 0 1-1-3.2zm1.5.2c0 1 .2 1.7.6 2.2a2.1 2.1 0 0 0 1.8.9 2 2 0 0 0 1.7-.9 4 4 0 0 0 .7-2.4c0-1-.3-1.7-.7-2.2a2 2 0 0 0-1.8-1 2 2 0 0 0-1.7 1 4 4 0 0 0-.6 2.4zm11.4 3c.5 0 1 0 1.4-.4.4-.3.6-.7.6-1.2h1.4c0 .5-.2 1-.5 1.4a3.5 3.5 0 0 1-2.9 1.5 3.5 3.5 0 0 1-2.7-1.2 4.6 4.6 0 0 1-1-3.1v-.3c0-.8.1-1.5.4-2.2a3.5 3.5 0 0 1 3.3-2c1 0 1.7.3 2.4.8a3 3 0 0 1 1 2.3H268a2 2 0 0 0-2-2 2 2 0 0 0-1.7.9c-.4.5-.6 1.3-.6 2.3v.2c0 1 .2 1.8.6 2.3.4.5 1 .8 1.7.8zm10.2.3c-.6.6-1.4 1-2.5 1-.9 0-1.6-.3-2-.8-.5-.5-.7-1.3-.7-2.3v-5.5h1.4v5.4c0 1.3.5 2 1.6 2 1 0 1.8-.5 2.2-1.3v-6.2h1.4v8.5h-1.4zm5-7.6v.9a3.1 3.1 0 0 1 2.5-1.1c1.2 0 2 .4 2.4 1.4a3.2 3.2 0 0 1 2.7-1.4c1.9 0 2.8 1 2.9 3v5.6h-1.5v-5.6c0-.6-.1-1-.4-1.3-.3-.3-.7-.5-1.4-.5a2 2 0 0 0-1.3.5 2 2 0 0 0-.6 1.3v5.6H285v-5.5c0-1.3-.6-1.9-1.8-1.9-1 0-1.6.4-2 1.2v6.2H280v-8.4zm16.2 8.6a3.7 3.7 0 0 1-2.8-1.2 4.2 4.2 0 0 1-1.1-3v-.3c0-.8.1-1.5.5-2.2a3.4 3.4 0 0 1 3.2-2.1c1 0 2 .3 2.5 1 .7.8 1 1.8 1 3.2v.6H295a3 3 0 0 0 .8 2c.4.5 1 .8 1.7.8.5 0 1-.1 1.3-.3.4-.2.7-.5 1-.9l.9.7a3.5 3.5 0 0 1-3.2 1.7zm-.2-7.6a2 2 0 0 0-1.5.6 3 3 0 0 0-.7 1.8h4.2v-.1a2.7 2.7 0 0 0-.6-1.7 1.8 1.8 0 0 0-1.4-.6zm6.5-1v1a3 3 0 0 1 2.6-1.2c1.8 0 2.7 1 2.7 3v5.6h-1.5v-5.6c0-.6-.1-1-.4-1.3-.3-.3-.7-.5-1.3-.5-.4 0-.8.1-1.2.4s-.6.6-.8 1v6h-1.5v-8.4zm9.4-2.1v2h1.6v1.2h-1.6v5.2l.2.8.8.2h.6v1.1l-1 .2c-.7 0-1.2-.2-1.5-.6-.4-.4-.5-1-.5-1.7v-5.2h-1.6v-1.1h1.6v-2.1Zm12.5 10.5a3 3 0 0 1-.2-.9 3.2 3.2 0 0 1-2.4 1 3 3 0 0 1-2-.6 2.3 2.3 0 0 1-.9-1.8c0-1 .4-1.6 1-2a4.7 4.7 0 0 1 2.8-.8h1.5v-.7c0-.5-.2-.9-.5-1.2-.3-.3-.7-.4-1.3-.4-.5 0-1 0-1.3.4-.4.2-.5.5-.5.9h-1.5c0-.4.2-.8.4-1.2.3-.4.8-.7 1.3-1a4.1 4.1 0 0 1 1.7-.3c1 0 1.7.2 2.3.7.5.5.8 1.2.8 2v4c0 .7.1 1.3.3 1.8v.1Zm-2.4-1.1a3 3 0 0 0 1.3-.3c.4-.3.7-.6.9-1V187h-1.2c-1.7 0-2.6.5-2.6 1.6 0 .4.1.8.4 1 .3.3.7.4 1.2.4zm7.8-9.4v2h1.6v1.2h-1.6v5.2l.2.8.8.2h.6v1.1l-1 .2c-.7 0-1.2-.2-1.5-.6a2.5 2.5 0 0 1-.5-1.7v-5.2H328v-1.1h1.6v-2.1Zm5.3 0v2h1.5v1.2h-1.5v5.2c0 .4 0 .6.2.8l.7.2h.7v1.1l-1.1.2c-.7 0-1.2-.2-1.5-.6a2.5 2.5 0 0 1-.5-1.7v-5.2h-1.5v-1.1h1.5v-2.1Zm8.5 10.5a3 3 0 0 1-.2-.9 3.2 3.2 0 0 1-2.4 1 3 3 0 0 1-2.1-.6 2.3 2.3 0 0 1-.8-1.8c0-1 .3-1.6 1-2a4.7 4.7 0 0 1 2.8-.8h1.4v-.7c0-.5-.1-.9-.4-1.2-.3-.3-.8-.4-1.4-.4-.5 0-.9 0-1.3.4a1 1 0 0 0-.5.9h-1.4c0-.4.1-.8.4-1.2a4 4 0 0 1 1.2-1 4.1 4.1 0 0 1 1.7-.3c1 0 1.8.2 2.3.7.6.5.9 1.2.9 2v4c0 .7 0 1.3.3 1.8v.1Zm-2.4-1.1 1.3-.3c.4-.3.7-.6.8-1V187h-1.1c-1.8 0-2.7.5-2.7 1.6 0 .4.2.8.5 1 .3.3.7.4 1.2.4zm9.2 0c.6 0 1 0 1.4-.4.4-.3.6-.7.6-1.2h1.4c0 .5-.2 1-.5 1.4a3.5 3.5 0 0 1-2.9 1.5 3.5 3.5 0 0 1-2.7-1.2 4.6 4.6 0 0 1-1-3.1v-.3c0-.8.1-1.5.4-2.2a3.5 3.5 0 0 1 3.3-2c1 0 1.8.3 2.4.8a3 3 0 0 1 1 2.3h-1.4a2 2 0 0 0-2-2 2 2 0 0 0-1.7.9c-.4.5-.6 1.3-.6 2.3v.2c0 1 .2 1.8.6 2.3.4.5 1 .8 1.7.8zm6.5-6.3a3 3 0 0 1 2.5-1.2c1.8 0 2.7 1 2.7 3v5.6h-1.5v-5.6c0-.6-.1-1-.4-1.3-.3-.3-.7-.5-1.3-.5a2 2 0 0 0-1.2.4 2.6 2.6 0 0 0-.8 1v6h-1.5v-12h1.5zm10.8 7.6a3.7 3.7 0 0 1-2.8-1.2 4.2 4.2 0 0 1-1-3v-.3c0-.8.1-1.5.4-2.2.4-.7.8-1.2 1.4-1.6.6-.3 1.2-.5 1.9-.5 1 0 2 .3 2.5 1a5 5 0 0 1 1 3.2v.6h-5.8a3 3 0 0 0 .7 2 2.3 2.3 0 0 0 1.8.8c.5 0 1-.1 1.3-.3.4-.2.7-.5 1-.9l.8.7a3.5 3.5 0 0 1-3.2 1.7zm-.1-7.6a2 2 0 0 0-1.5.6 3 3 0 0 0-.7 1.8h4.2v-.1a2.7 2.7 0 0 0-.6-1.7 1.8 1.8 0 0 0-1.4-.6zm4.8 3.1a5 5 0 0 1 .9-3.1 3 3 0 0 1 2.4-1.2c1 0 1.8.3 2.4 1V179h1.4v12h-1.3l-.1-.9a3 3 0 0 1-2.4 1 2.9 2.9 0 0 1-2.4-1.1 5 5 0 0 1-1-3.2zm1.4.2c0 1 .2 1.7.6 2.2.4.6 1 .8 1.6.8a2.1 2.1 0 0 0 2-1.2v-3.9a2.1 2.1 0 0 0-2-1.2 2 2 0 0 0-1.6.8 4 4 0 0 0-.6 2.5z"/><path fill="#616976" d="M309 230.8c0 1.4-.3 2.5-.8 3.2-.6.8-1.4 1.1-2.5 1.1a3 3 0 0 1-2.4-1 5.2 5.2 0 0 1-.8-3.2v-1.7c0-1.4.2-2.5.8-3.2.5-.7 1.3-1 2.4-1 1.1 0 2 .3 2.5 1s.8 1.7.8 3zm-1.7-1.9a4.2 4.2 0 0 0-.4-2c-.2-.4-.6-.7-1.2-.7-.5 0-1 .2-1.2.7a3.9 3.9 0 0 0-.4 1.9v2.2c0 1 .1 1.7.4 2.1.3.5.7.7 1.2.7.6 0 1-.2 1.2-.6.3-.4.4-1.1.4-2zm3.6 1.2.5-5h5.4v1.4h-4l-.3 2.4a3 3 0 0 1 1.6-.4c1 0 1.7.3 2.2.9.5.6.8 1.4.8 2.4a3.2 3.2 0 0 1-3.3 3.4c-.9 0-1.6-.3-2.2-.8a2.8 2.8 0 0 1-1-2h1.6c0 .4.2.8.5 1 .3.3.7.4 1.1.4.5 0 1-.2 1.2-.5.3-.4.4-.9.4-1.5s-.1-1.1-.4-1.5a1.6 1.6 0 0 0-1.3-.5l-.8.1-.7.5zm8.6 3.2c.3 0 .6 0 .7.2.2.2.3.4.3.7a.9.9 0 0 1-.3.6 1 1 0 0 1-.7.3 1 1 0 0 1-.7-.3.9.9 0 0 1-.3-.6.9.9 0 0 1 .3-.7c.2-.2.4-.2.7-.2zm0-5.9c.3 0 .6.1.7.3.2.2.3.4.3.7a.9.9 0 0 1-.3.6c-.1.2-.4.3-.7.3a1 1 0 0 1-.7-.3.9.9 0 0 1-.3-.6.9.9 0 0 1 .3-.7c.2-.2.4-.3.7-.3zm7.1 7.6H325v-8l-2.5.8v-1.4l4-1.4h.1zm4-5 .5-5h5.3v1.5h-4l-.2 2.4c.4-.3 1-.4 1.5-.4 1 0 1.7.3 2.2.9.6.6.8 1.4.8 2.4s-.3 1.8-.8 2.4c-.6.6-1.4 1-2.4 1s-1.7-.3-2.3-.8a2.8 2.8 0 0 1-1-2h1.6c0 .4.3.8.6 1 .2.3.6.4 1 .4.6 0 1-.2 1.3-.5.2-.4.4-.9.4-1.5s-.2-1.1-.5-1.5a1.6 1.6 0 0 0-1.3-.5l-.8.1a2.1 2.1 0 0 0-.6.5zm13 1.3v3.7h-1.8v-10h3.8c1.1 0 2 .3 2.6 1a3 3 0 0 1 1 2.2c0 1-.3 1.8-1 2.3a4 4 0 0 1-2.6.8zm0-1.4h2c.6 0 1-.1 1.4-.4.3-.3.5-.7.5-1.3 0-.5-.2-1-.5-1.3a1.9 1.9 0 0 0-1.4-.5h-2zm9.4-4.8 2.9 7.6 2.8-7.6h2.3v9.9h-1.8v-3.3l.2-4.4-3 7.7h-1.2l-2.9-7.7.2 4.4v3.3h-1.7v-10z"/><path fill="#007aba" fill-rule="evenodd" d="m378.9 232.6 1.1-1.2.4.4 6.8-6.8 1.1 1.2-7.9 8zm-3.4-.8 6.7-6.8 1.1 1.2-7.9 8-3.7-4 1.1-1z" clip-rule="evenodd"/><path fill="#5dba00" d="M32.2 267.4h-3.1v8.6h-1.7v-8.6h-3V266h7.8zm4.6 2.7a4.2 4.2 0 0 0-.7 0c-.8 0-1.3.3-1.5.8v5.1h-1.7v-7.4h1.6v.8c.4-.6 1-1 1.7-1l.6.2zm2.8 5.9h-1.7v-7.4h1.7zm-1.8-9.3c0-.3.1-.5.3-.6.1-.2.4-.3.7-.3.3 0 .5 0 .7.3l.2.6c0 .3 0 .4-.2.6a1 1 0 0 1-.7.3 1 1 0 0 1-.7-.3.9.9 0 0 1-.3-.6zM53 276h-1.8l-4.4-7v7H45v-10h1.7l4.4 7.1v-7H53zm1.6-3.8c0-1.1.2-2 .8-2.7a2.6 2.6 0 0 1 2.1-1c.8 0 1.5.3 2 .9v-.8h1.6v7.2a3 3 0 0 1-1 2.3c-.5.5-1.4.8-2.4.8l-1.6-.3a2.8 2.8 0 0 1-1.2-1l.8-1c.5.7 1.2 1 2 1 .5 0 1-.1 1.2-.4.3-.3.5-.8.5-1.4v-.5c-.5.6-1.1.8-2 .8a2.6 2.6 0 0 1-2-1 4.5 4.5 0 0 1-.9-2.8zm1.6.2c0 .7.1 1.3.5 1.8.3.4.7.6 1.2.6a1.6 1.6 0 0 0 1.5-.9v-3.2a1.6 1.6 0 0 0-1.5-.9c-.5 0-1 .2-1.2.7a3 3 0 0 0-.5 1.9zm11 2.9a2.6 2.6 0 0 1-2 .8c-.8 0-1.4-.2-1.8-.7a3.1 3.1 0 0 1-.7-2v-4.8h1.7v4.8c0 1 .4 1.4 1.2 1.4.8 0 1.3-.3 1.6-.9v-5.3h1.7v7.4h-1.6zm6-1.7 1.4-5h1.8l-3 8.5c-.4 1.3-1.1 1.9-2.2 1.9l-.8-.1v-1.3h.3c.4 0 .7 0 1-.2l.4-.8.3-.6-2.6-7.4h1.8zm7.3 2.5c-1 0-1.9-.3-2.5-1a3.6 3.6 0 0 1-1-2.6v-.2c0-.8.1-1.4.4-2a3.2 3.2 0 0 1 3-1.8c1 0 1.7.3 2.3 1 .5.6.8 1.5.8 2.7v.6h-4.8c0 .6.2 1.1.6 1.5.3.3.8.5 1.3.5.8 0 1.4-.3 1.9-1l.9 1a3 3 0 0 1-1.2 1c-.5.2-1 .3-1.7.3zm-.2-6.3c-.4 0-.8.2-1 .5a2.5 2.5 0 0 0-.6 1.3h3.2v-.1a2 2 0 0 0-.5-1.3 1.4 1.4 0 0 0-1-.4zm6-1.2v.9c.6-.7 1.4-1 2.2-1 1.6 0 2.4.8 2.4 2.6v4.9h-1.7v-4.8c0-.5 0-.8-.3-1-.2-.3-.5-.4-1-.4-.6 0-1.1.3-1.5 1v5.2h-1.6v-7.4z"/><path fill="#fff" d="M24.5 300A11.5 11.5 0 0 1 36 288.5h260a11.5 11.5 0 0 1 11.5 11.5v28a11.5 11.5 0 0 1-11.5 11.5H24.5Z"/><path fill="#2e2e2e" d="M49.2 308.9h-3.7V319H44v-10.1h-3.6v-1.3h8.8zm2.9 2.7a3 3 0 0 1 2.5-1.2c1.8 0 2.7 1 2.7 3v5.6h-1.5v-5.6c0-.6-.1-1-.4-1.3-.2-.3-.7-.5-1.2-.5s-1 .1-1.3.4c-.3.2-.6.6-.8 1v6h-1.5v-12h1.5zm12.6 7.4a3 3 0 0 1-.2-.9 3.2 3.2 0 0 1-2.4 1 3 3 0 0 1-2-.6 2.3 2.3 0 0 1-.9-1.8c0-1 .3-1.6 1-2a4.7 4.7 0 0 1 2.8-.8h1.4v-.7c0-.5-.1-.9-.4-1.2-.3-.3-.8-.4-1.3-.4-.6 0-1 0-1.3.3-.4.3-.6.6-.6 1h-1.4c0-.4.1-.8.4-1.2a3 3 0 0 1 1.3-1 4.1 4.1 0 0 1 1.6-.3c1 0 1.8.2 2.3.7.6.5.9 1.2.9 2v4c0 .7 0 1.3.3 1.8v.1Zm-2.4-1.1a3 3 0 0 0 1.3-.3c.4-.3.7-.6.8-1V315h-1.1c-1.8 0-2.6.5-2.6 1.5 0 .5.1.9.4 1.1.3.3.7.4 1.2.4zm7.2-7.3v1a3 3 0 0 1 2.6-1.2c1.8 0 2.7 1 2.7 3v5.6h-1.4v-5.6c0-.6-.2-1-.5-1.3-.2-.3-.7-.5-1.2-.5s-1 .1-1.3.4l-.8 1v6h-1.4v-8.4zm9.8 4.5-.9 1v2.9H77v-12h1.4v7.3l.8-1 2.6-2.8h1.8l-3.3 3.6L84 319h-1.7zm10.7 1.7a1 1 0 0 0-.4-1 4 4 0 0 0-1.6-.5 7.4 7.4 0 0 1-1.7-.6 2.5 2.5 0 0 1-1-.7 2.2 2.2 0 0 1 .6-2.9 3.5 3.5 0 0 1 2.3-.7c1 0 1.7.2 2.3.7.6.5.9 1.2.9 2h-1.5c0-.5-.1-.8-.5-1a1.9 1.9 0 0 0-1.2-.5 2 2 0 0 0-1.3.3 1 1 0 0 0-.4 1c0 .3.1.5.4.7.3.2.8.4 1.5.5l1.7.6c.5.2.8.5 1 .8.3.3.4.7.4 1.2 0 .7-.3 1.3-1 1.8a4 4 0 0 1-2.3.7c-.7 0-1.3-.2-1.8-.4a3 3 0 0 1-1.2-1 2.4 2.4 0 0 1-.5-1.4h1.5c0 .5.2.9.6 1.2.3.2.8.4 1.4.4.6 0 1-.1 1.3-.3.3-.3.5-.6.5-1zm5-1h-1.3l-.1-8.2H95zm-1.5 2.5c0-.3 0-.5.2-.6.2-.2.4-.2.7-.2s.5 0 .6.2a.8.8 0 0 1 .2.6c0 .2 0 .4-.2.6l-.6.2c-.2 0-.5 0-.7-.2a.8.8 0 0 1-.2-.6Zm9.8.7h-1.5v-11.4h1.5zm2.6-8.2-.8-.5c.5-.7.7-1.4.7-2.2V307h1.5v1c0 .5-.2 1-.4 1.6-.3.5-.6 1-1 1.2zm5.9 6.2 2-6.5h1.6l-3 8.5h-1.2l-3-8.5h1.4zm8.4 2.2a3.7 3.7 0 0 1-2.8-1.2 4.2 4.2 0 0 1-1.1-3v-.3c0-.8.1-1.5.5-2.2a3.4 3.4 0 0 1 3.2-2.1c1 0 2 .4 2.5 1a5 5 0 0 1 1 3.2v.6h-5.8c0 .8.3 1.5.7 2 .5.5 1.1.8 1.8.8.5 0 1-.1 1.3-.3.4-.2.7-.5 1-.9l.8.7a3.5 3.5 0 0 1-3.2 1.7zm-.2-7.6a2 2 0 0 0-1.5.6 3 3 0 0 0-.7 1.8h4.2v-.1a2.7 2.7 0 0 0-.6-1.7 1.8 1.8 0 0 0-1.4-.6zm12.5 6.4c.5 0 1-.2 1.3-.5.4-.3.6-.7.7-1.2h1.3c0 .5-.2 1-.5 1.4a3.5 3.5 0 0 1-2.8 1.5 3.5 3.5 0 0 1-2.8-1.2 4.6 4.6 0 0 1-1-3.2v-.2c0-.8.2-1.6.5-2.2a3.5 3.5 0 0 1 3.3-2c1 0 1.7.3 2.3.8a3 3 0 0 1 1 2.2h-1.3a2 2 0 0 0-2-1.8 2 2 0 0 0-1.7.8c-.4.5-.6 1.3-.6 2.3v.2c0 1 .2 1.8.6 2.3.4.5 1 .8 1.7.8zm4.6-3.3c0-.8.1-1.6.5-2.2.3-.7.7-1.2 1.3-1.6a3.7 3.7 0 0 1 2-.5c1.2 0 2.1.4 2.8 1.2a4.6 4.6 0 0 1 1 3.2 5 5 0 0 1-.4 2.3 3.6 3.6 0 0 1-3.4 2c-1.1 0-2-.3-2.8-1.1a4.6 4.6 0 0 1-1-3.2zm1.4.2c0 1 .2 1.7.7 2.2a2.1 2.1 0 0 0 1.7.9 2.1 2.1 0 0 0 1.8-.9 4 4 0 0 0 .6-2.4 4 4 0 0 0-.6-2.3 2 2 0 0 0-1.8-.8 2 2 0 0 0-1.7.8 4 4 0 0 0-.7 2.5zm9.5-4.3v1a3 3 0 0 1 2.5-1.2c1.8 0 2.7 1 2.7 3v5.6h-1.4v-5.6c0-.6-.2-1-.4-1.3-.3-.3-.7-.5-1.3-.5a2 2 0 0 0-1.2.4c-.4.2-.7.6-.9 1v6h-1.4v-8.4zm10.2 6.4 2.1-6.5h1.5l-3 8.5h-1.2l-3-8.4h1.5zm8.4 2.2a3.7 3.7 0 0 1-2.8-1.2 4.2 4.2 0 0 1-1.1-3v-.3c0-.8.1-1.5.5-2.2.3-.7.7-1.2 1.3-1.5.6-.4 1.2-.6 1.9-.6 1 0 2 .4 2.5 1 .7.8 1 1.8 1 3.2v.6H164c0 .8.3 1.5.8 2 .4.5 1 .8 1.7.8.5 0 1-.1 1.3-.3.4-.2.7-.5 1-.9l.9.7a3.5 3.5 0 0 1-3.2 1.7zm-.2-7.6a2 2 0 0 0-1.5.6 3 3 0 0 0-.7 1.8h4.2v-.1a2.7 2.7 0 0 0-.6-1.7 1.8 1.8 0 0 0-1.4-.6zm9.2.2a4.3 4.3 0 0 0-.7 0c-1 0-1.6.4-2 1.2v6h-1.3v-8.4h1.4v1a2.3 2.3 0 0 1 2-1.2l.6.1zm3.7-3.3v2h1.6v1.2h-1.6v5.2c0 .4 0 .6.2.8l.8.2h.6v1.1l-1 .2c-.7 0-1.2-.2-1.5-.6a2.5 2.5 0 0 1-.5-1.7v-5.2h-1.6v-1.1h1.6v-2.1Zm6.8 10.7a3.7 3.7 0 0 1-2.8-1.2 4.2 4.2 0 0 1-1-3v-.3c0-.8 0-1.5.4-2.2a3 3 0 0 1 1.4-1.5c.5-.4 1.1-.6 1.8-.6 1.1 0 2 .4 2.6 1 .6.8.9 1.8.9 3.2v.6h-5.7c0 .8.2 1.5.7 2 .5.5 1 .8 1.8.8.5 0 1-.1 1.3-.3l1-.9.8.7a3.5 3.5 0 0 1-3.2 1.7zm-.2-7.6a2 2 0 0 0-1.5.6 3 3 0 0 0-.7 1.8h4.3v-.1a2.7 2.7 0 0 0-.7-1.7 1.8 1.8 0 0 0-1.4-.6zm4.8 3.1c0-1.3.3-2.3 1-3.1a3 3 0 0 1 2.4-1.2c1 0 1.7.3 2.3 1V307h1.5v12h-1.4v-.9a3 3 0 0 1-2.5 1 2.9 2.9 0 0 1-2.4-1.1 5 5 0 0 1-.9-3.2zm1.5.2c0 1 .2 1.7.6 2.2.4.6 1 .8 1.6.8a2.1 2.1 0 0 0 2-1.2v-3.9a2.1 2.1 0 0 0-2-1.2 2 2 0 0 0-1.6.8 4 4 0 0 0-.6 2.5zm13.4 4.1h-1.4v-8.4h1.4zm-1.5-10.7c0-.2 0-.4.2-.6l.6-.2c.2 0 .5 0 .7.2l.2.6c0 .2 0 .4-.2.6-.2.2-.4.2-.7.2s-.5 0-.6-.2a.8.8 0 0 1-.2-.6zm5.8.2v2h1.6v1.2H210v5.2l.2.8.8.2h.6v1.1l-1 .2c-.7 0-1.2-.2-1.5-.6a2.5 2.5 0 0 1-.5-1.7v-5.2H207v-1.1h1.6v-2.1Zm8.8 10.5h-1.4v-8.4h1.4zm-1.5-10.7c0-.2 0-.4.2-.6l.6-.2c.3 0 .5 0 .7.2l.2.6a.8.8 0 0 1-.2.6c-.2.2-.4.2-.7.2s-.5 0-.6-.2a.8.8 0 0 1-.2-.6zm5.2 2.3v1a3 3 0 0 1 2.6-1.2c1.8 0 2.7 1 2.7 3v5.6h-1.4v-5.6c0-.6-.2-1-.5-1.3-.2-.3-.7-.5-1.2-.5a2 2 0 0 0-1.3.4c-.3.2-.6.6-.8 1v6h-1.4v-8.4zm9.4-2.1v2h1.6v1.2h-1.6v5.2c0 .4.1.6.3.8.1.1.3.2.7.2h.7v1.1l-1.1.2c-.7 0-1.2-.2-1.5-.6a2.5 2.5 0 0 1-.5-1.7v-5.2h-1.5v-1.1h1.5v-2.1Zm2.8 6.2c0-.8.1-1.6.5-2.2.3-.7.7-1.2 1.3-1.6a3.7 3.7 0 0 1 2-.5c1.2 0 2.1.4 2.8 1.2a4.6 4.6 0 0 1 1 3.2 5 5 0 0 1-.4 2.3 3.6 3.6 0 0 1-3.4 2c-1.1 0-2-.3-2.8-1.1a4.6 4.6 0 0 1-1-3.2zm1.4.2c0 1 .2 1.7.7 2.2a2.1 2.1 0 0 0 1.7.9 2.1 2.1 0 0 0 1.8-.9 4 4 0 0 0 .6-2.4 4 4 0 0 0-.6-2.3 2 2 0 0 0-1.8-.8 2 2 0 0 0-1.7.8 4 4 0 0 0-.7 2.5zm17.3 4.1a3 3 0 0 1-.2-.9 3.2 3.2 0 0 1-2.4 1 3 3 0 0 1-2-.6 2.3 2.3 0 0 1-.9-1.8c0-1 .3-1.6 1-2a4.7 4.7 0 0 1 2.8-.8h1.4v-.7c0-.5-.1-.9-.4-1.2-.3-.3-.8-.4-1.3-.4-.6 0-1 0-1.3.4-.4.2-.6.5-.6.9H248c0-.4.1-.8.5-1.2a3 3 0 0 1 1.2-1 4.1 4.1 0 0 1 1.7-.3c1 0 1.7.2 2.2.7a3 3 0 0 1 1 2v4c0 .7 0 1.3.2 1.8v.1Zm-2.4-1.1a3 3 0 0 0 1.3-.3c.4-.3.7-.6.8-1V315h-1c-1.9 0-2.7.5-2.7 1.6 0 .4.1.8.4 1 .3.3.7.4 1.2.4zm11.6-3.3v4.4H261v-11.4h4.2a4.2 4.2 0 0 1 2.9 1c.7.6 1 1.4 1 2.5a3.2 3.2 0 0 1-1 2.6c-.7.5-1.7.8-3 .8zm0-1.3h2.7a3 3 0 0 0 1.8-.5c.4-.4.6-1 .6-1.7s-.2-1.2-.6-1.6a2.5 2.5 0 0 0-1.8-.6h-2.7zm8.6 5.7v-11.4h3.2c1 0 1.8.2 2.6.7a4.4 4.4 0 0 1 1.8 1.9c.4.8.6 1.7.6 2.7v.8c0 1-.2 2-.6 2.8-.5.8-1 1.4-1.8 1.8a5 5 0 0 1-2.7.7zm1.5-10.1v8.9h1.5c1.2 0 2-.4 2.7-1.1.7-.7 1-1.7 1-3v-.7c0-1.3-.3-2.3-1-3a3.2 3.2 0 0 0-2.5-1.1zm15.2 5h-4.7v5.1h-1.5v-11.4h7v1.3h-5.5v3.9h4.7zm.6 4.3c0-.2 0-.4.2-.6l.7-.2c.3 0 .5 0 .6.2l.3.6c0 .3-.1.5-.3.6-.1.2-.3.3-.6.3s-.6 0-.7-.3a.9.9 0 0 1-.2-.6z"/><path fill="#d1d5dc" d="M36 288a12 12 0 0 0-12 12v40h272a12 12 0 0 0 12-12v-28a12 12 0 0 0-12-12zm0 1h260a11 11 0 0 1 11 11v28a11 11 0 0 1-11 11H25v-39a11 11 0 0 1 11-11z" color="#000" style="-inkscape-stroke:none"/><path fill="#616976" d="M31.2 357.8c0 1.4-.2 2.5-.8 3.2-.5.8-1.3 1.1-2.4 1.1-1 0-2-.3-2.5-1a5.2 5.2 0 0 1-.8-3.2v-1.7c0-1.4.3-2.5.8-3.2.6-.7 1.4-1 2.5-1s1.9.3 2.4 1 .8 1.7.8 3zm-1.6-1.9a4.2 4.2 0 0 0-.4-2c-.3-.4-.7-.7-1.2-.7-.6 0-1 .2-1.2.7a3.9 3.9 0 0 0-.4 1.9v2.2c0 1 .1 1.7.4 2.1.2.5.6.7 1.2.7.5 0 1-.2 1.2-.6.2-.4.4-1.1.4-2zm3.5 1.2.6-5H39v1.4h-4l-.2 2.4a3 3 0 0 1 1.6-.4 3 3 0 0 1 2.2.9c.5.6.8 1.4.8 2.4s-.3 1.8-1 2.4a3 3 0 0 1-2.3 1c-1 0-1.7-.3-2.3-.8a2.8 2.8 0 0 1-1-2h1.6c.1.4.3.8.6 1 .3.3.6.4 1 .4.6 0 1-.2 1.3-.5.3-.4.4-.9.4-1.5s-.2-1.1-.5-1.5a1.6 1.6 0 0 0-1.3-.5l-.7.1a2.1 2.1 0 0 0-.7.5zm8.7 3.1c.3 0 .5.1.7.3l.2.7a.9.9 0 0 1-.2.6 1 1 0 0 1-.7.3 1 1 0 0 1-.7-.3.9.9 0 0 1-.3-.6.9.9 0 0 1 .3-.7c.1-.2.4-.3.7-.3zm0-5.7c.3 0 .5 0 .7.2l.2.7a.9.9 0 0 1-.2.6 1 1 0 0 1-.7.3 1 1 0 0 1-.7-.3.9.9 0 0 1-.3-.6.9.9 0 0 1 .3-.7c.1-.2.4-.3.7-.3zm7 7.5h-1.6v-8l-2.4.8v-1.4l3.9-1.4h.2zm8.7-10v1.4h-.2a3.3 3.3 0 0 0-2.2.7 3.2 3.2 0 0 0-1 2.1 2.7 2.7 0 0 1 2-.8c.9 0 1.6.3 2.1 1 .5.6.8 1.4.8 2.3 0 1-.3 1.9-1 2.5a3 3 0 0 1-2.3 1 3 3 0 0 1-2.4-1.2 4.3 4.3 0 0 1-1-2.9v-.5c0-1.8.5-3.1 1.4-4.1.8-1 2-1.5 3.6-1.5zm-1.8 4.8a1.8 1.8 0 0 0-1.7 1v.6a3 3 0 0 0 .5 1.8c.3.4.7.6 1.2.6s.9-.2 1.2-.6c.3-.3.4-.8.4-1.4s-.1-1.1-.4-1.5a1.4 1.4 0 0 0-1.2-.6zm10 1.5v3.7H64v-10h3.8c1.2 0 2 .3 2.7 1a3 3 0 0 1 1 2.2c0 1-.3 1.8-1 2.3a4 4 0 0 1-2.7.8zm0-1.4h2.1c.7 0 1.1-.1 1.5-.4.3-.3.4-.7.4-1.3 0-.5-.1-1-.5-1.3a1.9 1.9 0 0 0-1.3-.5h-2.1zm9.5-4.8 3 7.6L81 352h2.2v9.9h-1.7v-3.3l.2-4.4-3 7.7h-1.2l-3-7.7.2 4.4v3.3H73v-10z"/><path fill="#229fbb" d="m27.9 577.7-1.2 1.2v3.1H25v-10h1.7v4.7l1-1.2 3-3.5h2l-3.7 4.4 4 5.6h-2.1zM38 582a2.6 2.6 0 0 1-.2-.7c-.5.6-1.2.8-2 .8a2.6 2.6 0 0 1-1.7-.6 2 2 0 0 1-.7-1.6c0-.8.2-1.4.8-1.8a4.3 4.3 0 0 1 2.5-.6h1v-.5c0-.4 0-.7-.3-1-.2-.1-.5-.3-1-.3l-.9.3a.9.9 0 0 0-.3.7h-1.7c0-.4.1-.8.4-1.1.3-.3.6-.6 1.1-.8.5-.2 1-.3 1.6-.3.8 0 1.5.2 2 .6.5.5.8 1 .8 1.8v3.4c0 .7.1 1.2.3 1.6v.1Zm-1.8-1.2c.3 0 .6 0 .9-.2l.7-.7v-1.4h-1c-.5 0-1 .1-1.3.3a1 1 0 0 0-.5 1c0 .3.1.5.3.7.2.2.5.3.9.3zm8.8-4.7a4.2 4.2 0 0 0-.6 0c-.8 0-1.3.3-1.6.8v5.1h-1.6v-7.4h1.5v.8c.5-.6 1-1 1.8-1l.5.2zm4.2 6c-1 0-1.9-.3-2.6-1a3.6 3.6 0 0 1-1-2.6v-.2c0-.7.2-1.4.5-2a3.2 3.2 0 0 1 3-1.8c1 0 1.7.3 2.2 1 .6.6.9 1.5.9 2.7v.6h-4.9c0 .6.3 1.1.6 1.5.4.3.9.5 1.4.5.8 0 1.4-.3 1.9-1l.9 1a3 3 0 0 1-1.2 1c-.5.2-1 .3-1.7.3zm-.2-6.3c-.5 0-.8.2-1.1.5a2.5 2.5 0 0 0-.5 1.3h3.1v-.1a2 2 0 0 0-.4-1.3 1.4 1.4 0 0 0-1.1-.4zm6-1.2v.9c.6-.7 1.3-1 2.2-1 1.6 0 2.3.8 2.4 2.6v4.9H58v-4.8c0-.5-.1-.8-.3-1-.2-.3-.5-.4-1-.4-.7 0-1.2.3-1.5 1v5.2h-1.7v-7.4zm10 7.4v-10h3c.8 0 1.6.2 2.3.6a4 4 0 0 1 1.6 1.7c.3.7.5 1.6.5 2.5v.5c0 1-.2 1.8-.5 2.5a4 4 0 0 1-1.6 1.6 4.8 4.8 0 0 1-2.4.6zm1.7-8.6v7.2H68c.9 0 1.6-.3 2-.8a3.7 3.7 0 0 0 .8-2.5v-.5a3.8 3.8 0 0 0-.7-2.5c-.5-.6-1.2-.9-2-.9zm10.6 8.7a3.4 3.4 0 0 1-2.6-1 3.6 3.6 0 0 1-1-2.6v-.2c0-.7.1-1.4.4-2a3.2 3.2 0 0 1 3-1.8c1 0 1.7.3 2.3 1 .5.6.8 1.5.8 2.7v.6h-4.8c0 .6.2 1.1.6 1.5a2.2 2.2 0 0 0 3.2-.5l.9 1a3 3 0 0 1-1.2 1c-.5.2-1 .3-1.6.3zm-.2-6.3c-.5 0-.9.2-1.2.5a2.5 2.5 0 0 0-.5 1.3h3.2v-.1a2 2 0 0 0-.5-1.3 1.4 1.4 0 0 0-1-.4zm6-1.2v.8a2.6 2.6 0 0 1 2.1-1c1 0 1.7.4 2 1.2a2.6 2.6 0 0 1 2.3-1.1c.9 0 1.5.2 1.9.6.4.5.6 1.2.6 2v4.9h-1.7v-4.8c0-.5 0-.8-.3-1-.2-.3-.5-.4-1-.4-.4 0-.7.1-1 .3l-.4.8v5.1h-1.7v-4.9c0-.8-.5-1.3-1.3-1.3-.7 0-1.2.3-1.4.8v5.4h-1.7v-7.4zm12.1 0 .1.8a2.6 2.6 0 0 1 2.1-1c1 0 1.7.4 2 1.2a2.6 2.6 0 0 1 2.3-1.1c.8 0 1.4.2 1.8.6.4.5.6 1.2.7 2v4.9h-1.7v-4.8c0-.5-.1-.8-.3-1-.2-.3-.6-.4-1-.4s-.7.1-1 .3l-.5.8v5.1h-1.6v-4.9c0-.8-.5-1.3-1.3-1.3-.7 0-1.2.3-1.4.8v5.4h-1.7v-7.4zm14 7.5c-1.1 0-2-.3-2.6-1a3.6 3.6 0 0 1-1-2.6v-.2c0-.7.1-1.4.4-2a3.2 3.2 0 0 1 3-1.8c1 0 1.7.3 2.3 1 .5.6.8 1.5.8 2.7v.6h-4.8c0 .6.2 1.1.6 1.5.3.3.8.5 1.3.5.8 0 1.4-.3 1.9-1l.9 1a3 3 0 0 1-1.2 1c-.5.2-1 .3-1.7.3zm-.3-6.3c-.4 0-.8.2-1 .5a2.5 2.5 0 0 0-.6 1.3h3.1v-.1a2 2 0 0 0-.4-1.3 1.4 1.4 0 0 0-1-.4zm8.4.3a4.2 4.2 0 0 0-.7 0c-.8 0-1.3.3-1.6.8v5.1h-1.6v-7.4h1.6v.8c.4-.6 1-1 1.7-1l.6.2z"/><path fill="#fff" d="M24.5 606A11.5 11.5 0 0 1 36 594.5h130a11.5 11.5 0 0 1 11.5 11.5v28a11.5 11.5 0 0 1-11.5 11.5H24.5Z"/><path fill="#2e2e2e" d="M47.6 622h-4.8l-1 3h-1.6l4.4-11.4h1.3l4.3 11.4h-1.5zm-4.3-1.2h3.9l-2-5.3zm9.6-4.3v1a3.1 3.1 0 0 1 2.5-1.1c1.2 0 2 .4 2.5 1.3a3.2 3.2 0 0 1 2.7-1.3c1.8 0 2.8 1 2.8 3v5.6h-1.5v-5.6c0-.6-.1-1-.4-1.3-.3-.3-.7-.5-1.4-.5a2 2 0 0 0-1.3.5 2 2 0 0 0-.6 1.3v5.6h-1.5v-5.5c0-1.3-.6-1.9-1.8-1.9-1 0-1.6.4-2 1.2v6.2h-1.4v-8.4zm17.9 8.5a3 3 0 0 1-.2-.9 3.2 3.2 0 0 1-2.4 1 3 3 0 0 1-2-.6 2.3 2.3 0 0 1-.9-1.8c0-1 .4-1.6 1-2a4.7 4.7 0 0 1 2.9-.8h1.4v-.7c0-.5-.2-.9-.5-1.2-.3-.3-.7-.4-1.3-.4-.5 0-1 0-1.3.3-.4.3-.5.6-.5 1h-1.5c0-.4.1-.8.5-1.2a3 3 0 0 1 1.2-1 4.1 4.1 0 0 1 1.7-.3c1 0 1.7.2 2.2.7a3 3 0 0 1 1 2v4c0 .7 0 1.3.2 1.8v.1Zm-2.4-1.1a3 3 0 0 0 1.3-.3c.4-.3.7-.6.9-1V621h-1.2c-1.7 0-2.6.5-2.6 1.6 0 .4.1.8.4 1 .3.3.7.4 1.2.4zm7.2 0h5v1.1h-6.7v-1l4.6-6.3H74v-1.2h6.4v1zm8.2 1.1h-1.5v-8.5h1.5zm-1.6-10.7c0-.2 0-.4.2-.6.2-.2.4-.2.7-.2s.5 0 .6.2c.2.2.2.4.2.6a.8.8 0 0 1-.2.6l-.6.2c-.2 0-.5 0-.7-.2a.8.8 0 0 1-.2-.6zm5.3 2.2v1.1a3 3 0 0 1 2.5-1.2c1.8 0 2.7 1 2.7 3v5.6h-1.4v-5.6c0-.6-.1-1-.4-1.4-.3-.2-.7-.4-1.3-.4a2 2 0 0 0-1.2.4c-.4.2-.7.6-.9 1v6h-1.4v-8.4zm7 4.2a5 5 0 0 1 1-3.1 3 3 0 0 1 2.4-1.2 2.9 2.9 0 0 1 2.4 1l.1-.9h1.3v8.3c0 1.1-.3 2-1 2.6-.6.6-1.5 1-2.6 1a4 4 0 0 1-1.8-.5 3 3 0 0 1-1.3-1l.8-.9a2.8 2.8 0 0 0 2.2 1.1c.7 0 1.3-.2 1.7-.6.4-.4.6-.9.6-1.6v-.7c-.6.6-1.4 1-2.4 1s-1.8-.4-2.4-1.2a5.2 5.2 0 0 1-1-3.3zm1.5.2c0 1 .2 1.7.6 2.2.4.6 1 .8 1.7.8.9 0 1.5-.4 2-1.2v-3.9a2.1 2.1 0 0 0-2-1.2c-.7 0-1.3.3-1.7.8a4 4 0 0 0-.6 2.5zm7.9 6.4-.9-.6c.5-.7.8-1.4.8-2.1v-1.3h1.4v1.1c0 .5-.1 1-.4 1.6-.2.5-.5 1-1 1.3zm9-12.8v2h1.7v1.2H113v5.2c0 .3 0 .6.2.8l.7.2h.7v1.1l-1.1.2a2 2 0 0 1-1.5-.6 2.6 2.6 0 0 1-.5-1.7v-5.2H110v-1.2h1.5v-2Zm4.8 3a3 3 0 0 1 2.5-1.1c1.8 0 2.7 1 2.7 3v5.6h-1.4v-5.6c0-.6-.2-1-.5-1.4-.2-.2-.7-.4-1.2-.4s-1 .1-1.3.4c-.3.2-.6.6-.8 1v6h-1.4v-12h1.4zm12.6 7.5a3 3 0 0 1-.2-.9 3.2 3.2 0 0 1-2.4 1 3 3 0 0 1-2-.6 2.3 2.3 0 0 1-.9-1.8c0-1 .4-1.6 1-2a4.7 4.7 0 0 1 2.9-.8h1.4v-.7c0-.5-.2-.9-.5-1.2-.3-.3-.7-.5-1.3-.5a2 2 0 0 0-1.3.4c-.4.3-.6.6-.6 1H125c0-.4.1-.8.5-1.2a3 3 0 0 1 1.2-1 4.1 4.1 0 0 1 1.7-.3c1 0 1.7.2 2.2.7a3 3 0 0 1 1 2v4c0 .7 0 1.3.2 1.8v.1Zm-2.4-1.1c.4 0 .9-.1 1.3-.4.4-.2.7-.5.9-.9V621h-1.2c-1.7 0-2.6.5-2.6 1.5 0 .5.1.9.4 1.1.3.3.7.4 1.2.4zm7.2-7.4v1.1a3 3 0 0 1 2.6-1.2c1.8 0 2.7 1 2.7 3v5.6H139v-5.6c0-.6-.2-1-.4-1.4-.3-.2-.7-.4-1.3-.4-.5 0-.9.1-1.3.4s-.6.6-.8 1v6h-1.4v-8.4zm9.9 4.6-1 1v2.9h-1.4v-12h1.5v7.3l.7-1 2.7-2.7h1.7L146 620l3.7 4.9H148zm10.6 1.7a1 1 0 0 0-.4-1c-.3-.2-.8-.4-1.5-.5a7.4 7.4 0 0 1-1.8-.6 2.5 2.5 0 0 1-1-.8 2.2 2.2 0 0 1 .6-2.8 3.5 3.5 0 0 1 2.3-.7c1 0 1.7.2 2.3.7.6.5.9 1.2.9 2h-1.4c0-.5-.2-.8-.5-1a1.9 1.9 0 0 0-1.3-.5 2 2 0 0 0-1.3.3 1 1 0 0 0-.4 1c0 .3.1.5.4.7.3.2.8.4 1.5.5l1.8.6 1 .8c.2.3.3.7.3 1.2 0 .7-.3 1.3-1 1.8-.5.4-1.3.7-2.3.7-.7 0-1.3-.2-1.8-.4a3 3 0 0 1-1.2-1 2.4 2.4 0 0 1-.4-1.4h1.4c0 .5.2.9.6 1.2.3.2.8.4 1.4.4.6 0 1-.1 1.3-.4.4-.2.5-.5.5-.9zm5-1h-1.3l-.1-8.2h1.5zm-1.5 2.5c0-.3 0-.5.2-.6.2-.2.4-.3.7-.3s.5.1.6.3a.8.8 0 0 1 .2.6c0 .2 0 .4-.2.6l-.6.2c-.2 0-.5 0-.7-.2a.8.8 0 0 1-.2-.6z"/><path fill="#d1d5dc" d="M36 594a12 12 0 0 0-12 12v40h142a12 12 0 0 0 12-12v-28a12 12 0 0 0-12-12zm0 1h130a11 11 0 0 1 11 11v28a11 11 0 0 1-11 11H25v-39a11 11 0 0 1 11-11z" color="#000" style="-inkscape-stroke:none"/><path fill="#616976" d="M31.2 663.8c0 1.4-.2 2.5-.8 3.2-.5.8-1.3 1.1-2.4 1.1-1 0-2-.3-2.5-1a5.2 5.2 0 0 1-.8-3.2v-1.7c0-1.4.3-2.5.8-3.2.6-.7 1.4-1 2.5-1s1.9.3 2.4 1 .8 1.7.8 3zm-1.6-1.9a4.2 4.2 0 0 0-.4-2c-.3-.4-.7-.7-1.2-.7-.6 0-1 .2-1.2.7a3.9 3.9 0 0 0-.4 1.9v2.3c0 .9.1 1.6.4 2 .2.5.6.7 1.2.7.5 0 1-.2 1.2-.6.2-.4.4-1.1.4-2zm3.5 1.2.6-5H39v1.4h-4l-.2 2.4a3 3 0 0 1 1.6-.4 3 3 0 0 1 2.2.9c.5.6.8 1.4.8 2.4s-.3 1.8-1 2.4a3 3 0 0 1-2.3 1c-1 0-1.7-.3-2.3-.8a2.8 2.8 0 0 1-1-2h1.6c.1.4.3.8.6 1 .3.3.6.4 1 .4.6 0 1-.2 1.3-.5.3-.4.4-.9.4-1.5s-.2-1.1-.5-1.5a1.6 1.6 0 0 0-1.3-.5l-.7.1a2.1 2.1 0 0 0-.7.5zm8.7 3.1c.3 0 .5.1.7.3l.2.7a.9.9 0 0 1-.2.6 1 1 0 0 1-.7.3 1 1 0 0 1-.7-.3.9.9 0 0 1-.3-.6.9.9 0 0 1 .3-.7c.1-.2.4-.3.7-.3zm0-5.8c.3 0 .5.1.7.3l.2.7a.9.9 0 0 1-.2.6 1 1 0 0 1-.7.3 1 1 0 0 1-.7-.3.9.9 0 0 1-.3-.6.9.9 0 0 1 .3-.7c.1-.2.4-.3.7-.3zm7 7.6h-1.6v-8l-2.4.8v-1.4l3.9-1.4h.2zm9.8-7.3c0 .5-.1.9-.4 1.3-.2.4-.6.6-1 .9.5.2 1 .5 1.2 1 .3.4.4.9.4 1.4 0 .9-.3 1.6-.9 2a3.5 3.5 0 0 1-2.3.8c-1 0-1.8-.2-2.4-.7-.6-.6-.9-1.2-.9-2.1a2.5 2.5 0 0 1 1.6-2.4 2.4 2.4 0 0 1-1.4-2.2c0-.9.3-1.6.8-2 .6-.5 1.3-.8 2.3-.8.9 0 1.6.3 2.2.8.5.5.8 1.1.8 2zm-1.4 4.5a1.5 1.5 0 0 0-1.6-1.7c-.5 0-1 .2-1.2.5-.3.3-.4.7-.4 1.2s.1.9.4 1.2c.3.3.7.4 1.2.4s.9-.1 1.1-.4c.3-.3.5-.7.5-1.2zm-.3-4.5c0-.4 0-.8-.3-1a1.3 1.3 0 0 0-1-.5c-.5 0-.8.2-1 .4-.3.3-.4.7-.4 1.1 0 .5.1.8.4 1.1s.5.4 1 .4c.4 0 .7-.1 1-.4.2-.2.3-.6.3-1zm8.9 3.6v3.7H64v-10h3.8c1.2 0 2 .3 2.7 1a3 3 0 0 1 1 2.2c0 1-.3 1.7-1 2.3a4 4 0 0 1-2.7.8zm0-1.4h2c.7 0 1.1-.1 1.5-.4.3-.3.4-.7.4-1.3 0-.5-.1-1-.5-1.3a1.9 1.9 0 0 0-1.3-.5h-2.1zm9.4-4.9 3 7.7L81 658h2.2v10h-1.7v-3.3l.2-4.4-3 7.7h-1.2l-3-7.7.2 4.4v3.3H73v-10z"/><path fill="#5dba00" d="M32.2 701.4h-3.1v8.6h-1.7v-8.6h-3V700h7.8zm4.6 2.7a4.2 4.2 0 0 0-.7 0c-.8 0-1.3.3-1.5.8v5.1h-1.7v-7.4h1.6v.8c.4-.6 1-1 1.7-1l.6.2zm2.8 5.9h-1.7v-7.4h1.7zm-1.8-9.3c0-.3.1-.5.3-.7l.7-.2c.3 0 .5 0 .7.3l.2.6c0 .3 0 .4-.2.6a1 1 0 0 1-.7.3 1 1 0 0 1-.7-.3.9.9 0 0 1-.3-.6zM53 710h-1.8l-4.4-7v7H45v-10h1.7l4.4 7.1v-7H53zm1.6-3.8c0-1.1.2-2 .8-2.7a2.6 2.6 0 0 1 2.1-1c.8 0 1.5.3 2 .9v-.8h1.6v7.2a3 3 0 0 1-1 2.3c-.5.5-1.4.8-2.4.8l-1.6-.3a2.8 2.8 0 0 1-1.2-1l.8-1c.5.7 1.2 1 2 1 .5 0 1-.2 1.2-.5.3-.3.5-.7.5-1.3v-.5c-.5.6-1.1.8-2 .8a2.6 2.6 0 0 1-2-1 4.5 4.5 0 0 1-.9-2.9zm1.6.2c0 .7.1 1.3.5 1.8.3.4.7.6 1.2.6a1.6 1.6 0 0 0 1.5-.9v-3.2a1.6 1.6 0 0 0-1.5-.9c-.5 0-1 .2-1.2.7a3 3 0 0 0-.5 1.9zm11 2.9c-.4.6-1.1.8-2 .8-.8 0-1.4-.2-1.8-.7a3.1 3.1 0 0 1-.7-2v-4.8h1.7v4.8c0 1 .4 1.4 1.2 1.4.8 0 1.3-.3 1.6-.9v-5.3h1.7v7.4h-1.6zm6-1.7 1.4-5h1.8l-3 8.5c-.4 1.3-1.1 1.9-2.2 1.9l-.8-.1v-1.3h.3c.4 0 .7 0 1-.2l.4-.8.3-.6-2.6-7.4h1.8zm7.3 2.5c-1 0-1.9-.3-2.5-1a3.6 3.6 0 0 1-1-2.6v-.2c0-.7.1-1.4.4-2a3.2 3.2 0 0 1 3-1.8c1 0 1.7.3 2.3 1 .5.6.8 1.5.8 2.7v.6h-4.8c0 .6.2 1.1.6 1.5.3.3.8.5 1.3.5.8 0 1.4-.3 1.9-1l.9 1a3 3 0 0 1-1.2 1c-.5.2-1 .3-1.7.3zm-.2-6.3c-.4 0-.8.2-1 .5a2.5 2.5 0 0 0-.6 1.3h3.2v-.1a2 2 0 0 0-.5-1.3 1.4 1.4 0 0 0-1-.4zm6-1.2v.9c.6-.7 1.4-1 2.2-1 1.6 0 2.4.8 2.4 2.6v4.9h-1.7v-4.8c0-.5 0-.8-.3-1-.2-.3-.5-.4-1-.4-.6 0-1.1.3-1.5 1v5.2h-1.6v-7.4z"/><path fill="#fff" d="M24.5 734A11.5 11.5 0 0 1 36 722.5h93a11.5 11.5 0 0 1 11.5 11.5v28a11.5 11.5 0 0 1-11.5 11.5H24.5Z"/><path fill="#2e2e2e" d="M50 753h-1.4l-5.8-8.8v8.8h-1.5v-11.4h1.5l5.8 8.8v-8.8H50zm2.1-4.3c0-.8.2-1.6.5-2.2.3-.7.8-1.2 1.4-1.6a3.7 3.7 0 0 1 2-.5c1.1 0 2 .4 2.7 1.2.8.8 1.1 1.8 1.1 3.2 0 .9-.1 1.6-.5 2.3a3.6 3.6 0 0 1-3.3 2c-1.2 0-2.1-.3-2.8-1.1a4.6 4.6 0 0 1-1-3.2zm1.5.2c0 1 .2 1.7.6 2.2a2.1 2.1 0 0 0 1.8.9 2 2 0 0 0 1.7-.9 4 4 0 0 0 .7-2.4c0-1-.2-1.7-.7-2.3a2 2 0 0 0-1.8-.8 2 2 0 0 0-1.7.8 4 4 0 0 0-.6 2.5zm13.7-.3v4.4h-1.5v-11.4H70a4.2 4.2 0 0 1 3 1c.6.6 1 1.5 1 2.5a3.2 3.2 0 0 1-1 2.6c-.7.5-1.7.8-3 .8zm0-1.3H70c.8 0 1.4-.2 1.9-.5.4-.4.6-1 .6-1.7s-.2-1.2-.6-1.6a2.5 2.5 0 0 0-1.8-.6h-2.8zm12.5-1.5a4.3 4.3 0 0 0-.7 0c-1 0-1.6.4-2 1.2v6h-1.4v-8.4h1.4v1a2.3 2.3 0 0 1 2-1.2l.7.1zm.8 2.9c0-.8.1-1.6.5-2.2.3-.7.7-1.2 1.3-1.6a3.7 3.7 0 0 1 2-.5c1.2 0 2 .4 2.8 1.2.7.8 1 1.8 1 3.2a5 5 0 0 1-.4 2.3 3.6 3.6 0 0 1-3.4 2c-1.1 0-2-.3-2.8-1.1a4.6 4.6 0 0 1-1-3.2zm1.4.2c0 1 .2 1.7.7 2.2a2.1 2.1 0 0 0 1.7.9 2 2 0 0 0 1.8-.9 4 4 0 0 0 .6-2.4 4 4 0 0 0-.6-2.3 2 2 0 0 0-1.8-.8 2 2 0 0 0-1.7.8 4 4 0 0 0-.7 2.5zm15.2 0a5 5 0 0 1-.9 3 2.8 2.8 0 0 1-2.3 1.3 3 3 0 0 1-2.5-1.2v1H90v-12h1.4v4.5a3 3 0 0 1 2.4-1.1c1 0 1.9.4 2.5 1.1.5.8.8 1.9.8 3.2zm-1.4-.2a3.9 3.9 0 0 0-.6-2.3 1.9 1.9 0 0 0-1.6-.8c-1 0-1.7.5-2 1.3v3.7c.4.9 1 1.3 2 1.3.7 0 1.2-.2 1.6-.8.4-.5.6-1.3.6-2.4zm4.8 4.3h-1.4v-12h1.4zm5.9.2a3.7 3.7 0 0 1-2.8-1.2 4.2 4.2 0 0 1-1.1-3v-.3c0-.8.1-1.5.5-2.2a3.4 3.4 0 0 1 3.2-2.1c1 0 2 .4 2.5 1 .7.8 1 1.8 1 3.2v.6H104a3 3 0 0 0 .8 2c.4.5 1 .8 1.7.8.5 0 1-.1 1.3-.3.4-.2.7-.5 1-.9l.9.7a3.5 3.5 0 0 1-3.2 1.7zm-.2-7.6a2 2 0 0 0-1.5.6 3 3 0 0 0-.7 1.8h4.2v-.1a2.7 2.7 0 0 0-.6-1.7 1.8 1.8 0 0 0-1.4-.6zm6.5-1v.9a3.1 3.1 0 0 1 2.5-1.1c1.2 0 2 .4 2.5 1.3a3.2 3.2 0 0 1 2.7-1.3c1.8 0 2.8 1 2.8 3v5.6h-1.5v-5.6c0-.6-.1-1-.4-1.3-.2-.3-.7-.5-1.4-.5a2 2 0 0 0-1.3.5 2 2 0 0 0-.6 1.3v5.6h-1.5v-5.5c0-1.3-.6-1.9-1.8-1.9-1 0-1.6.4-2 1.2v6.2h-1.4v-8.4z"/><path fill="#d1d5dc" d="M36 722a12 12 0 0 0-12 12v40h105a12 12 0 0 0 12-12v-28a12 12 0 0 0-12-12zm0 1h93a11 11 0 0 1 11 11v28a11 11 0 0 1-11 11H25v-39a11 11 0 0 1 11-11z" color="#000" style="-inkscape-stroke:none"/><path fill="#616976" d="M31.2 791.8c0 1.4-.2 2.5-.8 3.2-.5.8-1.3 1.1-2.4 1.1-1 0-2-.3-2.5-1a5.2 5.2 0 0 1-.8-3.2v-1.7c0-1.4.3-2.5.8-3.2.6-.7 1.4-1 2.5-1s1.9.3 2.4 1 .8 1.7.8 3zm-1.6-1.9a4.2 4.2 0 0 0-.4-2c-.3-.4-.7-.7-1.2-.7-.6 0-1 .2-1.2.7a3.9 3.9 0 0 0-.4 1.9v2.3c0 .9.1 1.6.4 2 .2.5.6.7 1.2.7.5 0 1-.2 1.2-.6.2-.4.4-1.1.4-2zm3.5 1.2.6-5H39v1.4h-4l-.2 2.4a3 3 0 0 1 1.6-.4 3 3 0 0 1 2.2.9c.5.6.8 1.4.8 2.4s-.3 1.8-1 2.4a3 3 0 0 1-2.3 1c-1 0-1.7-.3-2.3-.8a2.8 2.8 0 0 1-1-2h1.6c.1.4.3.8.6 1 .3.3.6.4 1 .4.6 0 1-.2 1.3-.5.3-.4.4-.9.4-1.5s-.2-1.1-.5-1.5a1.6 1.6 0 0 0-1.3-.5l-.7.1a2.1 2.1 0 0 0-.7.5zm8.7 3.1c.3 0 .5.1.7.3l.2.7a.9.9 0 0 1-.2.6 1 1 0 0 1-.7.3 1 1 0 0 1-.7-.3.9.9 0 0 1-.3-.6.9.9 0 0 1 .3-.7c.1-.2.4-.3.7-.3zm0-5.8c.3 0 .5.1.7.3l.2.7a.9.9 0 0 1-.2.6 1 1 0 0 1-.7.3 1 1 0 0 1-.7-.3.9.9 0 0 1-.3-.6.9.9 0 0 1 .3-.7c.1-.2.4-.3.7-.3zm7 7.6h-1.6v-8l-2.4.8v-1.4l3.9-1.4h.2zm8.2-4.2a2.6 2.6 0 0 1-1.9 1 2.6 2.6 0 0 1-2.1-1 3.6 3.6 0 0 1-.8-2.4c0-.7.2-1.3.4-1.8a2.9 2.9 0 0 1 1.1-1.2 3.2 3.2 0 0 1 1.7-.5c1 0 1.8.4 2.4 1.1a5 5 0 0 1 1 3v.5a6 6 0 0 1-1.3 4.1c-.8 1-2 1.4-3.6 1.4h-.2v-1.3h.2a3.4 3.4 0 0 0 2.3-.7 3 3 0 0 0 .8-2.2zm-1.6-.4a1.8 1.8 0 0 0 1.7-1v-.7c0-.7-.2-1.3-.5-1.8-.3-.4-.7-.6-1.2-.6-.4 0-.8.2-1.1.6-.3.3-.4.8-.4 1.4 0 .7.1 1.2.4 1.5.3.4.7.6 1.1.6zm10.4.9v3.7H64v-10h3.8c1.2 0 2 .3 2.7 1a3 3 0 0 1 1 2.2c0 1-.3 1.7-1 2.3a4 4 0 0 1-2.7.8zm0-1.4h2c.7 0 1.1-.1 1.5-.4.3-.3.4-.7.4-1.3 0-.5-.1-1-.5-1.3a1.9 1.9 0 0 0-1.3-.5h-2.1zm9.4-4.8 3 7.6L81 786h2.2v9.9h-1.7v-3.3l.2-4.4-3 7.7h-1.2l-3-7.7.2 4.4v3.3H73v-10zm-44-250.3c0 1.4-.2 2.5-.8 3.2-.5.8-1.3 1.1-2.4 1.1-1 0-2-.3-2.4-1a5.2 5.2 0 0 1-.9-3.2v-1.7c0-1.4.3-2.5.8-3.2.6-.7 1.4-1 2.5-1s1.9.3 2.4 1 .8 1.7.8 3zm-1.6-1.9a4.2 4.2 0 0 0-.4-2c-.3-.4-.7-.7-1.2-.7-.6 0-1 .2-1.2.7a3.9 3.9 0 0 0-.4 1.9v2.3c0 .9.1 1.6.4 2 .2.5.6.7 1.2.7.5 0 1-.2 1.2-.6.2-.4.4-1.1.4-2zm3.6 1.2.5-5H39v1.4h-4l-.2 2.4a3 3 0 0 1 1.6-.4 3 3 0 0 1 2.2.9c.5.6.8 1.4.8 2.4s-.3 1.8-1 2.4a3 3 0 0 1-2.3 1c-1 0-1.7-.3-2.3-.8a2.8 2.8 0 0 1-1-2h1.6c.1.4.3.8.6 1 .3.3.6.4 1 .4.6 0 1-.2 1.3-.5.3-.4.4-.9.4-1.5s-.2-1.1-.5-1.5a1.6 1.6 0 0 0-1.3-.5l-.7.1a2.1 2.1 0 0 0-.7.5zm8.6 3.1c.3 0 .5.1.7.3.2.2.2.4.2.7a.9.9 0 0 1-.2.6 1 1 0 0 1-.7.3 1 1 0 0 1-.7-.3.9.9 0 0 1-.3-.6.9.9 0 0 1 .3-.7c.1-.2.4-.3.7-.3zm0-5.8c.3 0 .5.1.7.3.2.2.2.4.2.7a.9.9 0 0 1-.2.6 1 1 0 0 1-.7.3 1 1 0 0 1-.7-.3.9.9 0 0 1-.3-.6.9.9 0 0 1 .3-.7c.1-.2.4-.3.7-.3zm7 7.6h-1.6v-8l-2.4.8v-1.4l3.9-1.4h.2zm10.2-9-4 9h-1.8l4-8.6h-5.1V530H59zm6.8 5.3v3.7H64v-10h4c1 0 2 .3 2.6 1a3 3 0 0 1 1 2.2c0 1-.3 1.7-1 2.3a4 4 0 0 1-2.7.8zm0-1.4h2c.7 0 1.1-.1 1.5-.4.3-.3.5-.7.5-1.3 0-.5-.2-1-.5-1.3a1.9 1.9 0 0 0-1.4-.5h-2.1zm9.4-4.8 3 7.6L81 530h2.2v9.9h-1.7v-3.3l.2-4.4-3 7.7h-1.2l-3-7.7.2 4.4v3.3H73v-10z"/><g clip-path="url(#f)"><use xlink:href="#g"/><path fill="#757575" d="M132 415.6a6.2 6.2 0 0 1-2.4-1.2 2.3 2.3 0 0 1-.7-1.8c0-.8.3-1.4.9-2a3.7 3.7 0 0 1 2.4-.7 4 4 0 0 1 1.9.4 3 3 0 0 1 1.7 2.6h-1.4c0-.6-.2-1-.5-1.4a2.3 2.3 0 0 0-1.7-.5 2.4 2.4 0 0 0-1.5.4c-.3.3-.5.7-.5 1.2 0 .4.2.8.5 1 .3.3 1 .6 1.8.8.8.2 1.4.5 1.9.8a2.5 2.5 0 0 1 1.4 2.3c0 .8-.3 1.4-1 2a4 4 0 0 1-2.5.6c-.7 0-1.3 0-1.9-.4a3.3 3.3 0 0 1-1.4-1 2.6 2.6 0 0 1-.5-1.6h1.4c0 .6.2 1 .6 1.4.5.4 1 .6 1.8.6.7 0 1.2-.2 1.6-.5.4-.2.6-.6.6-1.1 0-.5-.2-.9-.6-1.1a5.9 5.9 0 0 0-1.8-.8zm6.5-2.1a2.7 2.7 0 0 1 2.2-1c1.6 0 2.4.9 2.4 2.6v4.9h-1.3v-4.9c0-.5-.1-1-.4-1.2-.2-.2-.6-.4-1-.4-.5 0-.8.1-1.1.4-.4.2-.6.5-.8.8v5.3h-1.2v-10.5h1.2zm11 6.5-.1-.8c-.6.6-1.3 1-2.1 1s-1.4-.3-1.8-.7a2 2 0 0 1-.7-1.5c0-.8.3-1.4.8-1.8a4.1 4.1 0 0 1 2.5-.7h1.3v-.6c0-.4-.2-.8-.5-1-.2-.3-.6-.4-1.1-.4-.5 0-.9.1-1.2.3-.2.3-.4.5-.4.9h-1.3c0-.4.1-.8.4-1.1a2.7 2.7 0 0 1 1-.8c.5-.2 1-.3 1.6-.3.8 0 1.5.2 2 .6.4.4.7 1 .7 1.8v3.4c0 .7.1 1.2.3 1.6v.1Zm-2-1a2.2 2.2 0 0 0 1.9-1v-1.6h-1c-1.6 0-2.4.5-2.4 1.4 0 .4.2.7.4.9.3.2.6.3 1 .3zm8.7-5.3a4.1 4.1 0 0 0-.6 0c-.9 0-1.4.3-1.7 1v5.3h-1.3v-7.4h1.2v.9a2 2 0 0 1 2.4-1zm4 6.4c-1 0-1.7-.3-2.4-1a3.7 3.7 0 0 1-1-2.6v-.2c0-.8.2-1.4.5-2 .3-.6.7-1 1.2-1.3a3 3 0 0 1 1.6-.5c1 0 1.7.3 2.3 1 .5.5.8 1.5.8 2.6v.6h-5c0 .7.2 1.3.6 1.7.4.5 1 .7 1.5.7a2.2 2.2 0 0 0 2-1l.8.6a3.1 3.1 0 0 1-2.8 1.4zm0-6.6c-.6 0-1 .2-1.4.6a2.7 2.7 0 0 0-.6 1.5h3.7a2.4 2.4 0 0 0-.5-1.6 1.6 1.6 0 0 0-1.3-.5zm4.1 2.7c0-1.1.3-2 .8-2.7a2.5 2.5 0 0 1 2.1-1c.9 0 1.6.3 2.1.8v-3.8h1.3V420h-1.2v-.8a3 3 0 0 1-2.2 1c-.8 0-1.5-.4-2-1.1a4.4 4.4 0 0 1-.9-2.8zm1.3.2c0 .8.2 1.5.5 2 .3.4.8.7 1.4.7a2 2 0 0 0 1.8-1.1v-3.4a1.9 1.9 0 0 0-1.8-1c-.6 0-1 .2-1.4.7a3.6 3.6 0 0 0-.5 2zm15 3.6-.2-.8a3 3 0 0 1-2.1 1 2.6 2.6 0 0 1-1.8-.7 2 2 0 0 1-.7-1.5c0-.8.3-1.4.9-1.8a4.2 4.2 0 0 1 2.4-.7h1.3v-.6c0-.4-.2-.8-.4-1-.3-.3-.7-.4-1.2-.4s-.8.1-1.1.3c-.3.3-.5.5-.5.9H176c0-.4.2-.8.4-1.1a2.7 2.7 0 0 1 1.1-.8c.4-.2 1-.3 1.5-.3.8 0 1.5.2 2 .6.5.4.7 1 .7 1.8v3.4c0 .7.1 1.2.3 1.6v.1Zm-2.1-1a2.2 2.2 0 0 0 1.9-1v-1.6h-1c-1.6 0-2.4.5-2.4 1.4 0 .4.2.7.5.9.2.2.6.3 1 .3zm9 1v-6.4h-1.2v-1h1.2v-.6c0-.9.2-1.5.7-2a2.8 2.8 0 0 1 2-.7c.5 0 1.2.2 2 .5l-.3 1a4.4 4.4 0 0 0-1.6-.3c-.5 0-1 .1-1.2.4-.2.2-.3.6-.3 1v.7h1.5v1h-1.5v6.4Zm5.3 0h-1.3v-7.4h1.3zm3.4 0H195v-10.5h1.2zm5.1.1a3 3 0 0 1-2.4-1 3.7 3.7 0 0 1-1-2.6v-.2c0-.8.2-1.4.4-2a3.2 3.2 0 0 1 2.9-1.8c1 0 1.7.3 2.2 1 .5.5.8 1.5.8 2.6v.6h-5c0 .7.2 1.3.6 1.7.4.5 1 .7 1.6.7.4 0 .8 0 1.1-.3l.8-.7.8.6a3.1 3.1 0 0 1-2.8 1.4zm-.1-6.6c-.5 0-1 .2-1.3.6a2.7 2.7 0 0 0-.7 1.5h3.7a2.4 2.4 0 0 0-.5-1.6 1.6 1.6 0 0 0-1.2-.5zm4.4 5.8c0-.2 0-.4.2-.5.1-.2.3-.2.6-.2s.5 0 .6.2l.2.5c0 .2 0 .4-.2.6l-.6.2-.6-.2a.8.8 0 0 1-.2-.6zm0-6 .2-.6.6-.2.6.2.2.6c0 .2 0 .4-.2.5-.1.2-.3.2-.6.2s-.4 0-.6-.2a.8.8 0 0 1-.2-.5z"/><path fill="#2e2e2e" d="M138 441h-1.4v-5.3h-5.8v5.3h-1.5v-11.4h1.5v5h5.8v-5h1.5zm6 .2a3.7 3.7 0 0 1-2.8-1.2 4.2 4.2 0 0 1-1-3v-.3c0-.8 0-1.5.4-2.2.3-.7.8-1.2 1.3-1.5.6-.4 1.2-.6 2-.6 1 0 1.9.4 2.5 1a5 5 0 0 1 1 3.2v.6h-5.8c0 .8.2 1.5.7 2 .5.5 1 .8 1.8.8.5 0 1-.1 1.3-.3l1-.9.8.7a3.5 3.5 0 0 1-3.2 1.7zm-.2-7.6a1.9 1.9 0 0 0-1.4.6 3 3 0 0 0-.8 1.8h4.3v-.1a2.7 2.7 0 0 0-.6-1.7 2 2 0 0 0-1.5-.6zm10.4 7.4a3 3 0 0 1-.2-.9 3.2 3.2 0 0 1-2.4 1 3 3 0 0 1-2-.6 2.3 2.3 0 0 1-.9-1.8c0-1 .4-1.6 1-2a4.7 4.7 0 0 1 2.9-.8h1.4v-.7c0-.5-.2-.9-.5-1.2-.3-.3-.7-.4-1.3-.4-.5 0-1 0-1.3.3-.4.3-.5.6-.5 1h-1.5c0-.4.2-.8.5-1.2a3 3 0 0 1 1.2-1 4.1 4.1 0 0 1 1.7-.3c1 0 1.7.2 2.3.7.5.5.8 1.2.8 2v4c0 .7.1 1.3.3 1.8v.1Zm-2.4-1.1c.5 0 .9-.1 1.3-.3.4-.3.7-.6.9-1V437h-1.2c-1.7 0-2.6.5-2.6 1.5 0 .5.1.9.4 1.1.3.3.7.4 1.2.4zm7.5 1.1h-1.5v-12h1.5zm4.2-10.5v2h1.6v1.2h-1.6v5.2l.2.8.8.2h.7v1.1l-1.1.2c-.7 0-1.2-.2-1.5-.6a2.5 2.5 0 0 1-.5-1.7v-5.2h-1.5v-1.1h1.5v-2.1Zm4.8 3a3 3 0 0 1 2.5-1.1c1.7 0 2.6 1 2.7 3v5.6H172v-5.6c0-.6-.1-1-.4-1.3-.3-.3-.7-.5-1.3-.5a2 2 0 0 0-1.2.4c-.4.2-.6.6-.8 1v6h-1.5v-12h1.5zm15.7 2.9h-2.7v4.6h-1.5v-11.4h3.8c1.3 0 2.2.3 3 .9.6.6 1 1.4 1 2.5 0 .8-.2 1.4-.6 1.9a3.4 3.4 0 0 1-1.6 1.2l2.7 4.8v.1h-1.6zm-2.7-1.2h2.3c.8 0 1.4-.2 1.8-.6.4-.4.7-1 .7-1.6 0-.7-.2-1.2-.7-1.6-.4-.4-1-.5-1.8-.5h-2.3zm11.7 6a3.7 3.7 0 0 1-2.8-1.2 4.2 4.2 0 0 1-1.1-3v-.3c0-.8.1-1.5.5-2.2a3.4 3.4 0 0 1 3.2-2.1c1 0 2 .4 2.5 1a5 5 0 0 1 1 3.2v.6h-5.8c0 .8.3 1.5.8 2 .4.5 1 .8 1.7.8.5 0 1-.1 1.3-.3.4-.2.7-.5 1-.9l.8.7a3.5 3.5 0 0 1-3.1 1.7zm-.2-7.6a2 2 0 0 0-1.5.6 3 3 0 0 0-.7 1.8h4.2v-.1a2.7 2.7 0 0 0-.6-1.7 1.8 1.8 0 0 0-1.4-.6zm10 5.2a1 1 0 0 0-.4-1c-.3-.2-.8-.4-1.5-.5a7.4 7.4 0 0 1-1.8-.6 2.5 2.5 0 0 1-1-.8l-.2-1c0-.7.3-1.3.8-1.8a3.5 3.5 0 0 1 2.3-.7c1 0 1.7.2 2.3.7.6.5 1 1.2 1 2h-1.5c0-.5-.2-.8-.5-1a1.9 1.9 0 0 0-1.3-.5 2 2 0 0 0-1.2.3 1 1 0 0 0-.5 1c0 .3.2.5.4.7.3.2.8.4 1.5.5l1.8.6c.4.2.8.5 1 .8.2.3.3.7.3 1.2 0 .7-.3 1.3-.9 1.8a4.2 4.2 0 0 1-4.1.3 3 3 0 0 1-1.3-1c-.3-.4-.4-.9-.4-1.4h1.4c0 .5.3.9.6 1.2.4.2.9.4 1.5.4.5 0 1-.1 1.3-.3.3-.3.5-.6.5-1zm10.5-2a5 5 0 0 1-.9 3.2 2.8 2.8 0 0 1-2.4 1.2 3.1 3.1 0 0 1-2.4-1v4h-1.4v-11.6h1.3v.9a3 3 0 0 1 2.5-1.1c1 0 1.9.4 2.4 1.1.6.8 1 1.9 1 3.2zm-1.4-.1a4 4 0 0 0-.6-2.3 2 2 0 0 0-1.7-.8c-.9 0-1.5.4-2 1.2v4c.5.8 1.1 1.2 2 1.2a2 2 0 0 0 1.7-.8c.4-.6.6-1.4.6-2.5zm2.9 0c0-.8.1-1.6.5-2.2.3-.7.8-1.2 1.3-1.6a3.7 3.7 0 0 1 2-.5c1.2 0 2.1.4 2.8 1.2.7.8 1 1.8 1 3.2a5 5 0 0 1-.4 2.3 3.6 3.6 0 0 1-3.4 2c-1.1 0-2-.3-2.8-1.1a4.6 4.6 0 0 1-1-3.2zm1.4.2c0 1 .3 1.7.7 2.2a2.1 2.1 0 0 0 1.7.9 2 2 0 0 0 1.8-.9 4 4 0 0 0 .6-2.4 4 4 0 0 0-.6-2.3 2 2 0 0 0-1.8-.8 2 2 0 0 0-1.7.8 4 4 0 0 0-.7 2.5zm9.5-4.3v1a3 3 0 0 1 2.5-1.2c1.8 0 2.7 1 2.7 3v5.6h-1.4v-5.6c0-.6-.1-1-.4-1.3-.3-.3-.7-.5-1.3-.5-.5 0-.9.1-1.2.4s-.7.6-.9 1v6h-1.4v-8.4zm12.4 6.1a1 1 0 0 0-.5-.8c-.3-.3-.8-.4-1.5-.6a7.4 7.4 0 0 1-1.8-.6 2.5 2.5 0 0 1-1-.7 2.2 2.2 0 0 1 .6-2.9 3.5 3.5 0 0 1 2.3-.7c1 0 1.7.2 2.3.7.6.5 1 1.2 1 2H238c0-.5-.2-.8-.5-1a1.9 1.9 0 0 0-1.3-.5 2 2 0 0 0-1.2.3 1 1 0 0 0-.5 1c0 .3.2.5.4.7.3.2.8.4 1.5.5l1.8.6c.4.2.8.5 1 .8.2.3.3.7.3 1.2 0 .7-.3 1.3-1 1.8-.5.4-1.3.7-2.3.7-.6 0-1.2-.2-1.8-.4a3 3 0 0 1-1.2-1 2.4 2.4 0 0 1-.4-1.4h1.4c0 .5.2.9.6 1.2.4.2.8.4 1.4.4.6 0 1-.1 1.4-.3.3-.3.4-.6.4-1zm6.8 2.5a3.7 3.7 0 0 1-2.8-1.2 4.2 4.2 0 0 1-1-3v-.3c0-.8 0-1.5.4-2.2.3-.7.8-1.2 1.3-1.6.6-.3 1.2-.5 1.9-.5 1.1 0 2 .4 2.6 1 .6.8.9 1.8.9 3.2v.6h-5.7c0 .8.2 1.5.7 2 .5.5 1 .8 1.8.8.5 0 .9-.1 1.3-.3l.9-.9.9.7a3.5 3.5 0 0 1-3.2 1.7zm-.2-7.6a2 2 0 0 0-1.5.6 3 3 0 0 0-.7 1.8h4.2v-.1a2.7 2.7 0 0 0-.6-1.7c-.3-.4-.8-.6-1.4-.6zm11-3.1v2h1.7v1.2h-1.6v5.2c0 .4 0 .6.2.8l.7.2h.7v1.1l-1.1.2c-.7 0-1.1-.2-1.5-.6a2.5 2.5 0 0 1-.5-1.7v-5.2h-1.5v-1.1h1.5v-2.1Zm2.8 6.2c0-.8.2-1.6.5-2.2.3-.7.8-1.2 1.4-1.6a3.7 3.7 0 0 1 2-.5c1.1 0 2 .4 2.8 1.2a4.6 4.6 0 0 1 1 3.2 5 5 0 0 1-.5 2.3 3.5 3.5 0 0 1-3.3 2c-1.2 0-2.1-.3-2.8-1.1a4.6 4.6 0 0 1-1-3.2zm1.5.2c0 1 .2 1.7.6 2.2a2.1 2.1 0 0 0 1.8.9 2.1 2.1 0 0 0 1.7-.9 4 4 0 0 0 .7-2.4 4 4 0 0 0-.7-2.3 2 2 0 0 0-1.7-.8 2 2 0 0 0-1.8.8 4 4 0 0 0-.6 2.5zm-122.3 20.5a4.2 4.2 0 0 1-1.3 2.8 5 5 0 0 1-3 1 4 4 0 0 1-3.3-1.5 5.8 5.8 0 0 1-1.2-3.9v-1c0-1.1.2-2 .6-2.8a4.2 4.2 0 0 1 4-2.5c1.2 0 2.2.3 3 1 .6.7 1 1.6 1.2 2.8h-1.5c-.1-1-.4-1.6-.9-2-.4-.4-1-.6-1.8-.6a2.7 2.7 0 0 0-2.2 1c-.6.8-.9 1.8-.9 3v1.2a5 5 0 0 0 .8 3 2.5 2.5 0 0 0 2.2 1c.8 0 1.5-.2 1.9-.5.4-.4.7-1 .9-2zm10.8-1.7a7 7 0 0 1-.6 2.9 4.2 4.2 0 0 1-4 2.6c-.9 0-1.7-.3-2.3-.7a4.4 4.4 0 0 1-1.7-1.9 6.8 6.8 0 0 1-.6-2.8v-.8c0-1.1.2-2.1.6-3a6 6 0 0 1 1.6-1.9c.7-.4 1.5-.6 2.4-.6a4.2 4.2 0 0 1 4 2.6c.4.8.6 1.7.6 2.9zm-1.5-.8a5.1 5.1 0 0 0-.8-3 2.7 2.7 0 0 0-2.3-1.1c-1 0-1.7.3-2.2 1a5 5 0 0 0-.9 3v.9c0 1.3.3 2.3.9 3a2.7 2.7 0 0 0 2.2 1.2 3 3 0 0 0 2.3-1c.5-.8.8-1.8.8-3.1zm7.3 4.1 3.3-9.4h1.6L155 461h-1.3l-4.2-11.4h1.6zm8 2H161v-11.4h1.5zm2.8 0v-11.4h3.2c1 0 1.9.2 2.6.7a4.4 4.4 0 0 1 1.8 1.9c.4.8.6 1.7.6 2.7v.8c0 1-.2 2-.6 2.8a4 4 0 0 1-1.8 1.8c-.7.5-1.6.7-2.6.7zm1.5-10.1v8.9h1.6c1.2 0 2-.4 2.7-1.1.6-.7 1-1.7 1-3v-.7c0-1.3-.3-2.3-1-3a3.2 3.2 0 0 0-2.5-1.1zm8 9.3.2-.6c.2-.2.4-.2.7-.2.3 0 .5 0 .7.2l.2.6c0 .3 0 .5-.2.6a.9.9 0 0 1-.7.3 1 1 0 0 1-.7-.3.9.9 0 0 1-.2-.6zM186 457a5 5 0 0 1-1 3 2.8 2.8 0 0 1-2.3 1.3 3.1 3.1 0 0 1-2.4-1v4h-1.5v-11.6h1.3l.1.9a3 3 0 0 1 2.5-1.1c1 0 1.8.4 2.4 1.1.6.8.9 1.9.9 3.2zm-1.5-.2a4 4 0 0 0-.6-2.3 2 2 0 0 0-1.7-.8c-.8 0-1.5.4-2 1.2v4c.5.8 1.2 1.2 2 1.2a2 2 0 0 0 1.7-.8c.4-.6.6-1.4.6-2.5zm3 0a5 5 0 0 1 .9-3.1 3 3 0 0 1 2.4-1.2c1 0 1.8.3 2.3 1V449h1.5v12h-1.4v-.9a3 3 0 0 1-2.4 1 2.9 2.9 0 0 1-2.4-1.1 5 5 0 0 1-1-3.2zm1.4.2c0 1 .2 1.7.6 2.2.4.6 1 .8 1.6.8a2.1 2.1 0 0 0 2-1.2v-3.9a2.1 2.1 0 0 0-2-1.2 2 2 0 0 0-1.6.8c-.4.6-.6 1.4-.6 2.5zm8.6 4.1v-7.3h-1.3v-1.1h1.3v-1c0-.8.3-1.5.8-2 .4-.5 1.1-.8 2-.8.4 0 .7 0 1 .2v1.1h-.8c-.5 0-.9.1-1.1.4-.3.3-.4.7-.4 1.2v.9h1.8v1H199v7.4Z"/><path fill="#8e8e8e" fill-rule="evenodd" d="M146.3 495.3v3.4c0 .9-.7 1.6-1.6 1.6h-13.4c-.9 0-1.6-.7-1.6-1.6v-3.4h1.6v3.4h13.4v-3.4zm-7.5-2.8 2.8-2.8 1.2 1.2-4.8 4.8-4.8-4.8 1.2-1.2 2.8 2.8v-8.8h1.6z" clip-rule="evenodd"/><g filter="url(#h)"><path fill="#fff" d="M36 398h72a4 4 0 0 1 4 4v72a4 4 0 0 1-4 4H36a4 4 0 0 1-4-4v-72a4 4 0 0 1 4-4z"/></g><path fill="#c80000" d="M61 463a1 1 0 0 1 .2-.7c.3-.2.5-.3.8-.3.4 0 .6 0 .8.3.2.2.4.4.4.7a1 1 0 0 1-.4.8c-.2.2-.4.3-.8.3-.3 0-.6-.1-.8-.3a1 1 0 0 1-.3-.8zm10.6-2.6c0 1.1-.3 2-.8 2.7a2.5 2.5 0 0 1-2.1 1 2.3 2.3 0 0 1-1.8-.7v3.4h-2v-10.2h1.8l.1.7a2.3 2.3 0 0 1 1.9-.8c.9 0 1.6.3 2.1 1s.8 1.6.8 2.8zm-2-.2c0-.7-.1-1.2-.4-1.6a1.2 1.2 0 0 0-1-.5c-.7 0-1 .2-1.3.7v3c.2.5.6.7 1.3.7 1 0 1.4-.7 1.4-2.3zm2.9 0c0-1.1.2-2 .8-2.7a2.5 2.5 0 0 1 2-1c.8 0 1.4.2 1.9.8v-3.8h2V464h-1.8l-.1-.8a2.3 2.3 0 0 1-2 1c-.8 0-1.5-.4-2-1a4.6 4.6 0 0 1-.8-3zm2 .2c0 .7 0 1.2.3 1.6.3.3.6.5 1 .5.7 0 1.1-.2 1.4-.7v-3c-.3-.5-.7-.7-1.3-.7-1 0-1.4.7-1.4 2.3zm6.7 3.6v-6h-1v-1.4h1v-.6c0-.9.3-1.5.7-2a2.8 2.8 0 0 1 2-.7l1 .2v1.5a2.5 2.5 0 0 0-.6 0c-.7 0-1.1.3-1.1 1v.6h1.5v1.4h-1.5v6Z"/><g clip-path="url(#i)"><path fill="#c80000" d="M83.1 420.1 78 415a3 3 0 0 0-2.1-1H63a3 3 0 0 0-3 3.1v26a3 3 0 0 0 3 3h18a3 3 0 0 0 3-3v-20.8a3 3 0 0 0-.9-2zm-2.3 1.9H76v-4.8zM63 443v-26h10v6.5c0 .8.7 1.5 1.5 1.5H81v18zm15.6-9c-.7-.7-2.9-.5-4-.4a5.4 5.4 0 0 1-2.3-2.9c.3-1 .6-2.5.4-3.5-.3-1.6-2.4-1.5-2.7-.3-.3 1 0 2.4.4 4.2a49.5 49.5 0 0 1-2.2 4.6c-1.2.6-3 1.6-3.2 2.9-.2 1 1.7 3.4 4.8-2 1.4-.4 3-1 4.3-1.2a8.3 8.3 0 0 0 3.4 1c1.6 0 1.8-1.7 1.1-2.4zm-12.3 5c.3-.9 1.5-1.9 1.9-2.2-1.2 1.9-2 2.2-2 2.2zm5-12c.5 0 .5 2 .2 2.6-.3-.9-.3-2.5-.1-2.5zm-1.5 8.6a26 26 0 0 0 1.6-3.4 6 6 0 0 0 1.9 2.2c-1.3.3-2.5.8-3.5 1.2zm8.3-.3s-.4.4-2.4-.5c2.2-.2 2.6.3 2.4.5z"/></g></g><path fill="#d1d5dc" d="M36 390a12 12 0 0 0-12 12v116h308a12 12 0 0 0 12-12V402a12 12 0 0 0-12-12zm0 1h296a11 11 0 0 1 11 11v104a11 11 0 0 1-11 11H25V402a11 11 0 0 1 11-11z" color="#000" style="-inkscape-stroke:none"/><path fill="#d1d5dc" d="M24 123v1h366v-1z" color="#000" opacity=".5" style="-inkscape-stroke:none"/><path fill="#fafafa" d="M155.5 111h103v26h-103Z"/><path fill="#616976" d="M170.2 126.7h-3.9l-.8 2.3h-1.8l3.8-10h1.5l3.8 10H171zm-3.4-1.4h3l-1.5-4.1zm13.1 0c0 1.2-.2 2.1-.7 2.8a2.5 2.5 0 0 1-2.1 1c-.8 0-1.5-.2-2-.8v3.5h-1.6v-10.2h1.5v.8c.6-.6 1.2-1 2-1 1 0 1.7.4 2.2 1 .5.7.8 1.7.8 2.9zm-1.6 0a3 3 0 0 0-.5-1.8 1.4 1.4 0 0 0-1.2-.7c-.7 0-1.2.3-1.5.9v3.2c.3.6.8 1 1.5 1 .5 0 1-.3 1.2-.7.3-.5.5-1.1.5-2zm7-2.2a4.2 4.2 0 0 0-.8 0c-.7 0-1.2.3-1.5.8v5.1h-1.7v-7.4h1.6v.8c.5-.6 1-1 1.7-1l.6.2zm2.7 5.9h-1.6v-7.4h1.6zm-1.7-9.3c0-.3 0-.5.2-.6.2-.2.4-.3.7-.3.3 0 .6 0 .7.3.2.1.3.3.3.6s-.1.4-.3.6a1 1 0 0 1-.7.3 1 1 0 0 1-.7-.3.9.9 0 0 1-.2-.6zm5.3 9.3H190v-10.5h1.6zm12 0h-6.8v-1.1l3.3-3.7 1-1.3a1.6 1.6 0 0 0 0-2.2c-.3-.3-.7-.5-1.1-.5-.6 0-1 .2-1.3.5-.3.4-.4.8-.4 1.4h-1.7c0-.6.2-1.2.4-1.6.3-.5.7-1 1.2-1.2a3.8 3.8 0 0 1 1.8-.4c1 0 1.7.2 2.3.7.5.5.8 1.2.8 2 0 .6-.1 1-.4 1.6a8.8 8.8 0 0 1-1.4 1.9l-2.4 2.6h4.6zm7.9 0h-6.7v-1.1l3.3-3.7 1-1.3.3-1c0-.5-.1-1-.4-1.2-.2-.3-.6-.5-1-.5-.6 0-1 .2-1.3.5-.3.4-.4.8-.4 1.4h-1.7c0-.6.1-1.2.4-1.6a2.9 2.9 0 0 1 1.2-1.2 3.8 3.8 0 0 1 1.8-.4c1 0 1.7.2 2.2.7.6.5.9 1.2.9 2 0 .6-.2 1-.4 1.6a8.8 8.8 0 0 1-1.4 1.9l-2.4 2.6h4.6zm1.6 2.2-1-.5c.4-.4.5-.8.6-1l.2-1v-1.3h1.5v1.2c0 .5-.2 1-.4 1.4-.2.5-.6 1-1 1.2zM226 129h-6.7v-1.1l3.3-3.7 1-1.3.3-1c0-.5 0-1-.4-1.2-.2-.3-.6-.5-1-.5-.6 0-1 .2-1.3.5-.3.4-.4.8-.4 1.4H219a3 3 0 0 1 1.6-2.8 3.8 3.8 0 0 1 1.8-.4c1 0 1.7.2 2.3.7.5.5.8 1.2.8 2 0 .6-.1 1-.4 1.6a8.8 8.8 0 0 1-1.4 1.9l-2.4 2.6h4.6zm7.8-4.2c0 1.4-.3 2.5-.9 3.3-.5.7-1.3 1-2.4 1-1 0-1.9-.3-2.4-1a5.2 5.2 0 0 1-.9-3.2v-1.7c0-1.4.3-2.5.8-3.2.6-.7 1.4-1 2.5-1s1.9.3 2.4 1c.6.7.8 1.7.8 3zM232 123a4.2 4.2 0 0 0-.4-2.1c-.2-.4-.6-.7-1.2-.7-.5 0-1 .3-1.2.7a3.9 3.9 0 0 0-.4 1.9v2.3c0 .9.1 1.6.4 2 .2.5.7.7 1.2.7s1-.2 1.2-.6a4.1 4.1 0 0 0 .4-2zm9.8 6h-6.7v-1.1l3.3-3.7c.5-.5.9-1 1-1.3a1.6 1.6 0 0 0-.1-2.2c-.2-.3-.6-.5-1-.5-.5 0-1 .2-1.3.5-.3.4-.4.8-.4 1.4H235c0-.6.2-1.2.4-1.6.3-.5.7-1 1.2-1.2a3.8 3.8 0 0 1 1.8-.4c1 0 1.7.2 2.3.7.5.5.8 1.2.8 2 0 .6-.1 1-.4 1.6a8.8 8.8 0 0 1-1.4 1.9l-2.4 2.6h4.6zm5.8 0H246v-8l-2.4.8v-1.4l3.9-1.4h.1z"/><g filter="url(#j)"><path fill="#1c3760" fill-rule="evenodd" d="m423 22-444.4-2.8L0 80h414z" clip-rule="evenodd"/></g><path fill="#fff" d="M382 50h-3v-3h-2v3h-3v2h3v3h2v-3h3zm10 1a3 3 0 0 0 3-3 3 3 0 0 0-4-2.9 5 5 0 0 1 0 5.8l1 .1zm-5 0a3 3 0 0 0 3-3 3 3 0 1 0-3 3zm6.6 2.2A3.7 3.7 0 0 1 395 56v2h3v-2c0-1.5-2.4-2.5-4.4-2.8zM387 53c-2 0-6 1-6 3v2h12v-2c0-2-4-3-6-3zm-37.5 1h-.8l-.3-.3a6.5 6.5 0 1 0-.7.7l.3.3v.8l5 5 1.5-1.5zm-6 0a4.5 4.5 0 1 1 0-9 4.5 4.5 0 0 1 0 9zm-45.2-11a2 2 0 0 0-2 2v14a2 2 0 0 0 2 2h14a2 2 0 0 0 2-2v-7h-2v7h-14V45h7v-2zm12.7 1a.7.7 0 0 0-.5.2l-1.2 1.2 2.5 2.5 1.2-1.2a.7.7 0 0 0 0-1l-1.5-1.5a.7.7 0 0 0-.5-.2zm-2.4 2.1-7.3 7.4V56h2.5l7.3-7.4zM36 51H23.8l5.6-5.6L28 44l-8 8 8 8 1.4-1.4-5.6-5.6H36Zm63 2.5L97.5 55v4h-2.2V46.2h2.2v6l1.2-1.5 3.8-4.5h2.7l-4.8 5.7 5 7.1h-2.6zm13 5.5a3.1 3.1 0 0 1-.2-.9 3.3 3.3 0 0 1-2.5 1 3.4 3.4 0 0 1-2.4-.7c-.6-.6-.9-1.3-.9-2a2.7 2.7 0 0 1 1.2-2.4 5.5 5.5 0 0 1 3.2-.8h1.3v-.6c0-.5-.1-1-.4-1.2-.3-.3-.7-.5-1.3-.5-.5 0-.8.2-1.2.4-.3.2-.4.6-.4 1h-2.2c0-.6.2-1 .6-1.5.3-.5.8-.8 1.4-1.1a5 5 0 0 1 2-.4 4 4 0 0 1 2.6.9 3 3 0 0 1 1 2.3v4.3c0 .9.2 1.5.4 2v.2Zm-2.3-1.5 1.2-.3c.3-.2.6-.5.8-.9v-1.8h-1.1a3.1 3.1 0 0 0-1.8.5c-.4.2-.6.6-.6 1.1 0 .4.1.8.4 1 .3.2.6.4 1 .4zm11.4-6a5.3 5.3 0 0 0-.9-.1c-1 0-1.6.3-2 1.1V59h-2.1v-9.5h2v1a2.4 2.4 0 0 1 2.2-1.2 2 2 0 0 1 .8.1zm.6 2.7c0-1 .2-1.8.5-2.6A4 4 0 0 1 124 50a4.4 4.4 0 0 1 2.3-.6c1.3 0 2.3.4 3.1 1.2.8.9 1.3 2 1.3 3.3v.5a5.6 5.6 0 0 1-.5 2.5 4 4 0 0 1-1.6 1.8c-.6.4-1.4.6-2.3.6a4.1 4.1 0 0 1-3.2-1.4 5 5 0 0 1-1.2-3.5zm2.1.1c0 1 .2 1.8.6 2.3.4.6 1 .9 1.7.9s1.3-.3 1.7-.9c.4-.5.6-1.4.6-2.4s-.2-1.8-.6-2.3a2 2 0 0 0-1.7-.9 2 2 0 0 0-1.7.9 4.1 4.1 0 0 0-.6 2.4zm10.8 4.7h-2.1V45.5h2.1zm6.5.2a4.4 4.4 0 0 1-3.3-1.3c-.8-.8-1.2-2-1.2-3.4v-.3c0-1 .2-1.8.5-2.5a4 4 0 0 1 3.8-2.4c1.3 0 2.3.4 3 1.3.7.8 1 2 1 3.5v.8h-6.2c.1.8.4 1.4.8 1.9.5.4 1 .7 1.8.7a3 3 0 0 0 2.4-1.2l1.1 1a3.9 3.9 0 0 1-1.5 1.4c-.7.3-1.4.5-2.2.5zM141 51c-.6 0-1 .2-1.4.6-.4.4-.6 1-.7 1.8h4v-.2a2.6 2.6 0 0 0-.5-1.6c-.4-.4-.8-.6-1.4-.6zm6 10.9-1.1-.7a6 6 0 0 0 .7-1.4l.2-1.2v-1.7h1.9v1.6a4.4 4.4 0 0 1-.5 1.8 4 4 0 0 1-1.2 1.6zM164 48h-4v11h-2V48h-4v-1.8h10.2zm6 3.4a5.3 5.3 0 0 0-1 0c-.9 0-1.5.3-1.9 1.1V59H165v-9.5h2v1a2.4 2.4 0 0 1 2.2-1.2 2 2 0 0 1 .8.1zm3.6 7.6h-2.1v-9.5h2.1zm-2.3-12c0-.3.1-.6.3-.8.3-.2.5-.3 1-.3s.6 0 .8.3c.2.2.3.5.3.8 0 .3 0 .6-.3.8-.2.2-.5.3-.9.3s-.6 0-.9-.3c-.2-.2-.3-.5-.3-.8z"/><path fill="#d1d5dc" d="M83 53a16 16 0 0 1-16 16 16 16 0 0 1-16-16 16 16 0 0 1 16-16 16 16 0 0 1 16 16Z"/><path fill="#fff" fill-rule="evenodd" d="M70.1 49.9a3.1 3.1 0 1 1-6.2 0 3.1 3.1 0 0 1 6.2 0zm-9.3 9.3c0-3.4 1.6-4.5 6.2-4.5s6.2 1 6.2 4.5zm8.8-6a2.3 2.3 0 1 0 1.6-3.5v.2c0 1.3-.6 2.5-1.6 3.3zm-5.3 0a2.3 2.3 0 1 1-1.5-3.5v.2c0 1.3.6 2.5 1.5 3.3zM58 58.6v.6h1.7c0-1.1.1-2.6 1-3.8-2 .3-2.7 1.2-2.7 3.2Zm16.3.6c0-1.1-.1-2.6-1-3.8 2 .3 2.7 1.2 2.7 3.2v.6z" clip-rule="evenodd"/></g><defs><clipPath id="a"><path fill="#fff" d="M0 0h414v872H0z"/></clipPath><clipPath id="f"><use xlink:href="#g"/></clipPath><clipPath id="i"><path fill="#fff" d="M60 414h24v32H60z"/></clipPath><filter id="e" width="418" height="52" x="-2" y="821" color-interpolation-filters="sRGB" filterUnits="userSpaceOnUse"><feFlood flood-opacity="0" result="BackgroundImageFix"/><feColorMatrix in="SourceAlpha" result="hardAlpha" values="0 0 0 0 0 0 0 0 0 0 0 0 0 0 0 0 0 0 127 0"/><feOffset dy="-1"/><feGaussianBlur stdDeviation="1"/><feColorMatrix values="0 0 0 0 0 0 0 0 0 0 0 0 0 0 0 0 0 0 0.1 0"/><feBlend in2="BackgroundImageFix" result="effect1_dropShadow_4253_16005"/><feBlend in="SourceGraphic" in2="effect1_dropShadow_4253_16005" result="shape"/></filter><filter id="h" width="112" height="112" x="16" y="390" color-interpolation-filters="sRGB" filterUnits="userSpaceOnUse"><feFlood flood-opacity="0" result="BackgroundImageFix"/><feColorMatrix in="SourceAlpha" result="hardAlpha" values="0 0 0 0 0 0 0 0 0 0 0 0 0 0 0 0 0 0 127 0"/><feOffset dy="8"/><feGaussianBlur stdDeviation="8"/><feColorMatrix values="0 0 0 0 0.286275 0 0 0 0 0.313726 0 0 0 0 0.368627 0 0 0 0.08 0"/><feBlend in2="BackgroundImageFix" result="effect1_dropShadow_4253_16005"/><feBlend in="SourceGraphic" in2="effect1_dropShadow_4253_16005" result="shape"/></filter><filter id="j" width="422" height="64" x="-4" y="20" color-interpolation-filters="sRGB" filterUnits="userSpaceOnUse"><feFlood flood-opacity="0" result="BackgroundImageFix"/><feColorMatrix in="SourceAlpha" result="hardAlpha" values="0 0 0 0 0 0 0 0 0 0 0 0 0 0 0 0 0 0 127 0"/><feOffset/><feGaussianBlur stdDeviation="2"/><feColorMatrix values="0 0 0 0 0.286275 0 0 0 0 0.313726 0 0 0 0 0.368627 0 0 0 0.1 0"/><feBlend in2="BackgroundImageFix" result="effect1_dropShadow_4253_16005"/><feBlend in="SourceGraphic" in2="effect1_dropShadow_4253_16005" result="shape"/></filter></defs></svg>