<?xml version="1.0" encoding="UTF-8" standalone="no"?>
<svg xml:space="preserve" overflow="hidden" viewBox="0 0 1000 450" version="1.1" id="svg513"
  sodipodi:docname="Semantics.svg" inkscape:version="1.2.1 (9c6d41e, 2022-07-14)"
  xmlns:inkscape="http://www.inkscape.org/namespaces/inkscape"
  xmlns:sodipodi="http://sodipodi.sourceforge.net/DTD/sodipodi-0.dtd" xmlns="http://www.w3.org/2000/svg"
  xmlns:svg="http://www.w3.org/2000/svg">
  <defs id="defs517" />
  <sodipodi:namedview id="namedview515" pagecolor="#ffffff" bordercolor="#000000" borderopacity="0.25"
    inkscape:showpageshadow="2" inkscape:pageopacity="0.0" inkscape:pagecheckerboard="0" inkscape:deskcolor="#d1d1d1"
    showgrid="false" inkscape:zoom="0.52444444" inkscape:cx="453.81356" inkscape:cy="225" inkscape:window-width="1309"
    inkscape:window-height="456" inkscape:window-x="0" inkscape:window-y="44" inkscape:window-maximized="0"
    inkscape:current-layer="svg513" />
  <path fill="#8be9fd"
    d="M60.5 35v4.3q-2-1.2-4-1.8-1.8-.6-3.8-.6-3 0-4.8 1.4-1.7 1.3-1.7 3.7 0 2 1.1 3.1 1.2 1 4.3 1.8l2.2.5q4.4 1 6.5 3.2 2 2.2 2 6 0 4.3-2.8 6.7-2.8 2.3-8 2.3-2.3 0-4.5-.5t-4.5-1.4v-4.4q2.4 1.5 4.6 2.2 2.2.7 4.3.7 3.3 0 5-1.4 1.8-1.5 1.8-4 0-2.3-1.2-3.6-1.2-1.2-4.3-1.8l-2.2-.6Q46 49.8 44 48q-2-2-2-5.3 0-4.1 2.8-6.6 2.9-2.5 7.6-2.5 1.8 0 3.8.4 2 .4 4.2 1.2zm28.2 16.5v1.8H71.9v.2q-.2 4.7 1.8 6.8 2 2 5.7 2 1.9 0 3.9-.5 2-.6 4.3-1.8v3.8q-2.2.9-4.3 1.3-2 .5-4 .5-5.4 0-8.5-3.3-3.1-3.2-3.1-9 0-5.5 3-8.8 3-3.3 8.1-3.3 4.5 0 7 3 2.7 3 2.9 7.3zm-4-1.2q-.2-2.4-1.7-4.1-1.5-1.8-4.4-1.8-2.8 0-4.6 1.9-1.8 1.8-2 4zm20.5-6.2q.7-1.5 1.8-2.2 1.2-.7 2.7-.7 2.8 0 4 2.2 1.2 2.1 1.2 8.1V65h-3.6V51.7q0-5-.5-6.1-.6-1.2-2-1.2-1.7 0-2.3 1.3-.7 1.2-.7 6V65h-3.5V51.7q0-5-.6-6.1-.6-1.2-2.1-1.2-1.6 0-2.2 1.3-.6 1.2-.6 6V65h-3.5V41.8h3.5v2q.7-1.3 1.8-2 1-.6 2.3-.6 1.6 0 2.7.7 1 .8 1.6 2.2zm26.5 9.2h-1.3q-3.4 0-5.1 1.2-1.7 1.1-1.7 3.5 0 2 1.3 3.2 1.3 1.2 3.5 1.2 3.2 0 5-2.2 1.9-2.2 2-6v-.9zm7.5-1.6V65h-3.9v-3.5q-1.2 2.1-3.1 3.1-1.9 1-4.6 1-3.6 0-5.7-2-2.2-2-2.2-5.4 0-3.9 2.7-5.9 2.6-2 7.7-2h5.2v-.6q0-2.8-1.4-4-1.4-1.3-4.5-1.3-2 0-4 .6t-4 1.6v-3.8q2.2-.8 4.2-1.2 2-.4 3.8-.4 2.9 0 5 .9 2 .8 3.3 2.5.8 1 1.2 2.6.3 1.5.3 4.5zm25.8-1.1V65h-4V50.6q0-3.1-1-4.6-1.2-1.5-3.6-1.5-2.7 0-4.1 2-1.5 1.8-1.5 5.4v13H147v-23h4v3.4q1-2 2.7-3 1.8-1 4.2-1 3.6 0 5.3 2.3 1.8 2.4 1.8 7zm16.7-15.4v6.6h8.7v3h-8.7v12.5q0 2.6 1 3.6t3.4 1h4.3v3h-4.7q-4.3 0-6.1-1.6-1.8-1.8-1.8-6V44.7h-6.3v-3h6.3v-6.5zm19.6 6.6h10V62h7.6v3h-19.2v-3h7.6V44.8h-6zm6-9h4v4.8h-4zm35.6 31q-1.6.9-3.2 1.3-1.7.5-3.4.5-5.5 0-8.6-3.3-3-3.2-3-9 0-5.6 3-8.9 3.1-3.2 8.6-3.2 1.7 0 3.3.4 1.6.5 3.3 1.4v4q-1.6-1.4-3.1-2-1.5-.6-3.5-.6-3.6 0-5.6 2.4-2 2.3-2 6.6t2 6.6q2 2.3 5.6 2.3 2 0 3.6-.6t3-1.9zM267 42.6v3.7q-1.7-1-3.4-1.4-1.7-.5-3.4-.5-2.7 0-4 .8-1.2.9-1.2 2.6 0 1.5 1 2.3.9.8 4.7 1.5l1.6.3q2.9.5 4.3 2.2 1.5 1.6 1.5 4.2 0 3.4-2.4 5.4-2.5 1.9-7 1.9-1.7 0-3.6-.4-2-.3-4.1-1v-4q2.1 1 4.1 1.6 2 .6 3.7.6 2.6 0 4-1t1.4-3q0-2.6-5.1-3.6h-.2l-1.4-.3q-3.4-.7-5-2.2-1.5-1.5-1.5-4.1 0-3.4 2.3-5.2 2.3-1.8 6.6-1.8 1.9 0 3.6.4 1.8.3 3.4 1z"
    aria-label="Semantics" font-family="Menlo,Menlo_MSFontService,sans-serif" font-size="55" id="path469" />
  <path fill="#f8f8f2"
    d="M291.2 30.7q-2.8 4.7-4.2 9.4-1.4 4.7-1.4 9.5 0 4.7 1.4 9.4t4.2 9.5h-3.4q-3.2-5-4.7-9.6-1.6-4.7-1.6-9.3 0-4.6 1.6-9.3 1.5-4.7 4.7-9.6z"
    aria-label="(" font-family="Menlo,Menlo_MSFontService,sans-serif" font-size="55" id="path471" />
  <path fill="#ffb86c"
    d="M111 114.9q-1.6.8-3.3 1.2-1.8.4-3.7.4-4.7 0-7-2.3-2.5-2.3-2.5-6.9 0-3 1.1-6t3-5q2-2.1 4.3-3.1 2.4-1 5.2-1 1.9 0 3.6.4 1.7.4 3.4 1.3l-.8 3.8q-1.4-1.2-2.8-1.8-1.5-.5-3.3-.5-2.3 0-4 1-1.9.8-3.1 2.7-1.2 1.7-1.9 3.9-.6 2.1-.6 4.3 0 3 1.4 4.5t4.3 1.5q2 0 3.9-.7 1.8-.6 3.6-1.9zm28.7-13.4L137 116h-4l2.8-14.4.1-.3q.3-1.4.3-2.3 0-1.6-1-2.5-1-1-2.8-1-2.6 0-4.5 2t-2.6 5.4l-2.5 13.1h-4l6.5-32.2h3.8l-2.4 12.5q1.6-2 3.4-3 1.8-1 3.9-1 3 0 4.5 1.5 1.7 1.5 1.7 4.1l-.2 1.7q0 1-.3 2zm10.9-8.8h9.9l-4 20.3h7.6l-.6 3h-19.2l.6-3h7.7l3.4-17.3h-6zm7.8-9h3.8l-1 4.8h-3.8zm23.2 23.8-.3 1.2v1q0 1.5.9 2.2 1 .8 2.8.8h4.5l-.7 3.2h-4.3q-3.7 0-5.5-1.3-1.7-1.3-1.7-4v-1.4l.4-1.8 4.4-21h-6.6l.6-3h10.5zm27.7-12.1q-1.9 0-3.3.9t-2.4 2.7q-1 1.9-1.6 4.2-.5 2.4-.5 4.8 0 2.6 1 4 1.1 1.3 3.2 1.3 1.8 0 3.3-1 1.4-.9 2.4-2.7 1-1.8 1.6-4.2.6-2.4.6-4.8t-1.1-3.8q-1.2-1.4-3.2-1.4zm5.6.3 2.4-12h3.9l-6.4 32.2H211l.6-2.9q-1.3 1.7-3 2.6-1.8 1-4 1-3.3 0-5.3-2.3-1.8-2.1-1.8-6 0-3 .8-6t2.3-5.2q1.6-2.5 3.7-3.7 2.1-1.3 4.7-1.3 2 0 3.6 1 1.5.8 2.4 2.6z"
    aria-label="child" font-family="Menlo,Menlo_MSFontService,sans-serif" font-size="55" font-style="italic"
    id="path473" />
  <path fill="#ff79c6" d="M230.2 92.7h6.6v7.5h-6.6zm0 15.7h6.6v7.5h-6.6z" aria-label=":"
    font-family="Menlo,Menlo_MSFontService,sans-serif" font-size="55" id="path475" />
  <path fill="#8be9fd"
    d="M296.4 113.4q-1.7 1.5-3.8 2.3-2.2.8-4.6.8-6 0-9.3-4.2-3.3-4.2-3.3-11.8 0-7.6 3.3-11.8 3.4-4.3 9.4-4.3 2 0 3.8.6 1.8.5 3.4 1.6V91q-1.7-1.6-3.4-2.3-1.8-.8-3.8-.8-4.2 0-6.2 3.2-2.1 3.1-2.1 9.5t2 9.5q2 3.1 6.2 3.1 1.4 0 2.4-.3 1.1-.3 2-1v-8.3h-4.6V100h8.6zm26.3-11v1.9h-16.8v.1q-.2 4.7 1.8 6.8 2 2 5.7 2 1.9 0 3.9-.5 2-.6 4.3-1.8v3.8q-2.2 1-4.3 1.4-2 .4-4 .4-5.4 0-8.5-3.2-3-3.3-3-9 0-5.5 3-8.8 3-3.4 8-3.4 4.5 0 7 3 2.7 3 2.9 7.3zm-4-1.1q-.2-2.4-1.7-4.2-1.5-1.7-4.4-1.7-2.8 0-4.6 1.8-1.8 1.8-2 4.1zm26.8-7.8v3.7q-1.7-1-3.4-1.4-1.6-.5-3.4-.5-2.6 0-4 .9-1.2.8-1.2 2.5 0 1.6 1 2.4 1 .7 4.8 1.5l1.5.2q3 .6 4.4 2.2 1.5 1.6 1.5 4.2 0 3.4-2.5 5.4-2.5 2-6.9 2-1.7 0-3.6-.5-2-.3-4.2-1v-4q2.2 1.1 4.2 1.7 2 .5 3.7.5 2.6 0 4-1t1.4-2.9q0-2.6-5.2-3.6h-.1l-1.5-.4q-3.3-.6-4.9-2.1-1.5-1.6-1.5-4.2 0-3.3 2.3-5.1 2.3-1.9 6.5-1.9 2 0 3.7.4 1.7.3 3.4 1zm18.3-7.4v6.6h8.8v3h-8.8v12.6q0 2.5 1 3.6 1 1 3.5 1h4.3v3H368q-4.3 0-6.1-1.7-1.8-1.7-1.8-6V95.8h-6.3v-3h6.3v-6.6zm17.2 21V92.7h3.8v14.4q0 3.2 1.1 4.6 1.2 1.5 3.5 1.5 2.8 0 4.2-1.9 1.5-1.9 1.5-5.4V92.7h3.8V116h-3.8v-3.5q-1 2-2.9 3-1.7 1.1-4.1 1.1-3.6 0-5.4-2.3-1.7-2.3-1.7-7zm46-9.6q-1.2-1-2.5-1.4-1.3-.4-2.8-.4-3.6 0-5.5 2.2-2 2.2-2 6.5v11.5h-3.8V92.7h3.9v4.5q1-2.4 3-3.7 2-1.4 4.7-1.4 1.4 0 2.7.4 1.2.3 2.3 1.1zm25.2 4.9v1.9h-16.7v.1q-.2 4.7 1.8 6.8 2 2 5.7 2 1.8 0 3.8-.5 2-.6 4.3-1.8v3.8q-2.2 1-4.2 1.4-2 .4-4 .4-5.5 0-8.6-3.2-3-3.3-3-9 0-5.5 3-8.8 3-3.4 8-3.4 4.6 0 7.1 3 2.6 3 2.8 7.3zm-3.9-1.1q-.2-2.4-1.7-4.2-1.6-1.7-4.4-1.7-2.8 0-4.6 1.8-1.8 1.8-2 4.1zm15.4 11.2q5.4 0 7.5-2.6 2.2-2.6 2.2-9.4 0-6.9-2.2-9.5-2-2.6-7.5-2.6h-2v24zm.1-27.5q7.2 0 10.6 3.7 3.4 3.8 3.4 11.8 0 7.9-3.4 11.7-3.4 3.7-10.6 3.7h-6.3V85zm40.2 17.4v1.9h-16.7v.1q-.2 4.7 1.8 6.8 2 2 5.7 2 1.8 0 3.9-.5 2-.6 4.3-1.8v3.8q-2.2 1-4.3 1.4-2 .4-4 .4-5.4 0-8.5-3.2-3.1-3.3-3.1-9 0-5.5 3-8.8 3-3.4 8-3.4 4.6 0 7.2 3 2.6 3 2.7 7.3zm-3.8-1.1q-.3-2.4-1.8-4.2-1.5-1.7-4.4-1.7-2.8 0-4.6 1.8-1.8 1.8-2 4.1zm19.1-15.2v6.6h8.8v3h-8.8v12.6q0 2.5 1 3.6 1 1 3.4 1h4.4v3h-4.7q-4.4 0-6.2-1.7-1.8-1.7-1.8-6V95.8h-6.2v-3h6.2v-6.6zm36.5 16.3v1.9h-16.7v.1q-.2 4.7 1.8 6.8 2 2 5.7 2 1.9 0 3.9-.5 2-.6 4.3-1.8v3.8q-2.2 1-4.3 1.4-2 .4-4 .4-5.4 0-8.5-3.2-3.1-3.3-3.1-9 0-5.5 3-8.8 3-3.4 8-3.4 4.6 0 7.2 3 2.6 3 2.7 7.3zm-3.8-1.1q-.3-2.4-1.8-4.2-1.5-1.7-4.4-1.7-2.8 0-4.6 1.8-1.8 1.8-2 4.1zm28.5 13.4q-1.5 1-3.2 1.4-1.6.4-3.4.4-5.4 0-8.5-3.2-3-3.2-3-9 0-5.7 3-9 3-3.2 8.5-3.2 1.7 0 3.4.5 1.6.4 3.2 1.3v4q-1.5-1.3-3-2-1.6-.5-3.6-.5-3.6 0-5.5 2.3-2 2.3-2 6.6t2 6.7q2 2.3 5.5 2.3 2 0 3.7-.6 1.6-.6 3-2zM597 86.1v6.6h8.8v3H597v12.6q0 2.5 1 3.6 1 1 3.5 1h4.3v3h-4.7q-4.4 0-6.1-1.7-1.8-1.7-1.8-6V95.8h-6.3v-3h6.3v-6.6zm26 9.3q-3 0-4.5 2.2-1.5 2.3-1.5 6.7t1.5 6.7q1.5 2.3 4.5 2.3t4.5-2.3q1.5-2.3 1.5-6.7t-1.5-6.7q-1.5-2.2-4.5-2.2zm0-3.3q4.9 0 7.5 3.2 2.6 3.1 2.6 9 0 6-2.6 9.1-2.6 3.1-7.5 3.1-5 0-7.5-3-2.6-3.2-2.6-9.2 0-5.9 2.6-9 2.6-3.2 7.5-3.2zm37.2 5.4q-1.2-1-2.5-1.4-1.3-.4-2.8-.4-3.6 0-5.5 2.2-2 2.2-2 6.5v11.5h-3.8V92.7h3.8v4.5q1-2.4 3-3.7 2-1.4 4.8-1.4 1.4 0 2.7.4 1.2.3 2.3 1.1z"
    aria-label="GestureDetector" font-family="Menlo,Menlo_MSFontService,sans-serif" font-size="55" id="path477" />
  <path fill="#f8f8f2"
    d="M681.2 81.6q-2.8 4.8-4.2 9.5-1.3 4.7-1.3 9.4 0 4.8 1.3 9.5 1.4 4.7 4.2 9.4h-3.4q-3.1-4.9-4.7-9.6-1.5-4.6-1.5-9.3 0-4.6 1.5-9.3 1.6-4.7 4.7-9.6z"
    aria-label="(" font-family="Menlo,Menlo_MSFontService,sans-serif" font-size="55" id="path479" />
  <path fill="#ffb86c"
    d="M163 165.8q-1.6.8-3.3 1.2-1.8.5-3.7.5-4.7 0-7-2.4-2.5-2.3-2.5-6.9 0-3 1.1-6t3-5q2-2 4.3-3.1 2.4-1 5.2-1 1.9 0 3.6.4 1.7.5 3.4 1.4l-.8 3.7q-1.4-1.2-2.8-1.7-1.5-.6-3.3-.6-2.3 0-4 1-1.9.9-3.1 2.7-1.2 1.7-1.9 4-.6 2-.6 4.2 0 3 1.4 4.5t4.3 1.5q2 0 3.9-.6 1.8-.7 3.6-2zm28.7-13.3-2.8 14.4H185l2.8-14.4.1-.3q.3-1.5.3-2.3 0-1.7-1-2.6-1-.9-2.8-.9-2.6 0-4.5 2-1.9 1.9-2.6 5.3l-2.5 13.2h-4l6.5-32.3h3.8l-2.4 12.5q1.6-2 3.4-3 1.8-1 3.9-1 3 0 4.5 1.5 1.7 1.5 1.7 4.2l-.2 1.6q0 1-.3 2zm10.9-8.9h9.9l-4 20.3h7.6l-.6 3h-19.2l.6-3h7.7l3.4-17.3h-6zm7.8-9h3.8l-1 4.8h-3.8zm23.2 23.8-.3 1.3v1q0 1.4.9 2.2 1 .7 2.8.7h4.5l-.7 3.3h-4.3q-3.7 0-5.4-1.3-1.8-1.4-1.8-4V160l.4-1.8 4.4-21h-6.6l.6-3h10.5zm27.7-12.1q-1.9 0-3.3 1-1.4.8-2.4 2.6-1 1.9-1.6 4.3-.5 2.3-.5 4.7 0 2.7 1 4 1.1 1.3 3.2 1.3 1.8 0 3.3-.9 1.4-1 2.4-2.8 1-1.8 1.6-4.1.6-2.4.6-4.8 0-2.5-1.1-3.9-1.2-1.4-3.2-1.4zm5.6.3 2.4-12h3.9l-6.4 32.3H263l.5-3q-1.3 1.8-3 2.7-1.8.9-4 .9-3.3 0-5.3-2.2-1.8-2.2-1.8-6 0-3 .8-6t2.3-5.3q1.6-2.4 3.7-3.7 2.1-1.2 4.7-1.2 2 0 3.6.9 1.5.9 2.4 2.6z"
    aria-label="child" font-family="Menlo,Menlo_MSFontService,sans-serif" font-size="55" font-style="italic"
    id="path481" />
  <path fill="#ff79c6" d="M282.2 143.7h6.6v7.5h-6.6zm0 15.6h6.6v7.6h-6.6z" aria-label=":"
    font-family="Menlo,Menlo_MSFontService,sans-serif" font-size="55" id="path483" />
  <path fill="#8be9fd"
    d="m336 139.4-2.3 11.6h4.9q3.5 0 5.5-2 2.1-2 2.1-5.3 0-2.2-1.3-3.3-1.3-1-4-1zm-3.6-3.5h9.3q4.3 0 6.6 2 2.2 1.8 2.2 5.4 0 5.2-3.3 8.2-3.4 3-9.3 3H333l-2.4 12.4h-4.3Zm43.6 12.5q-1-.9-2.2-1.3-1.2-.5-2.8-.5-3.5 0-6 2.4-2.4 2.4-3.2 6.5l-2.2 11.4h-4l4.6-23.3h4l-1 4.6q1.5-2.5 3.7-3.8 2.3-1.3 5.1-1.3 1.5 0 2.7.4 1.2.4 2 1zm15.7-2.1q-3.5 0-5.8 3.6-2.3 3.5-2.3 9 0 2.7 1.2 4 1.2 1.3 3.5 1.3 3.5 0 5.8-3.5 2.3-3.6 2.3-9 0-2.7-1.2-4-1.2-1.4-3.5-1.4zm.3-3.2q4.1 0 6.3 2.2 2.1 2.2 2.1 6.5 0 2.9-.8 5.7-.9 2.8-2.4 5-1.7 2.5-4 3.7-2.4 1.3-5.5 1.3-4 0-6-2.3-2.2-2.3-2.2-6.5 0-2.8.9-5.6.8-2.8 2.4-5.1 1.7-2.4 4-3.7 2.3-1.2 5.2-1.2zm37.1-8.5-.6 3.2H424q-2 0-3 .9-1 .8-1.4 2.9l-.5 2h8.1l-.5 3h-8.1l-4 20.3h-4l4-20.3h-6.2l.6-3h6.2l.4-1.6q.8-4 2.8-5.7 2-1.7 6-1.7zm7.3 9h9.9l-4 20.3h7.7l-.7 3h-19.2l.6-3h7.7l3.4-17.3h-6zm7.8-9h3.8l-.9 4.8h-3.9zm23.2 23.8-.3 1.3v1q0 1.4 1 2.2.9.7 2.8.7h4.4l-.7 3.3h-4.3q-3.6 0-5.4-1.3-1.8-1.4-1.8-4l.1-1.5.3-1.8 4.4-21h-6.6l.6-3h10.5zm33-5.2.2-1v-.6q0-2.5-1.4-3.9-1.3-1.4-3.8-1.4-2.6 0-4.7 1.9t-3 5zm.5 12.5q-2.2.9-4.3 1.3-2.1.5-4.3.5-4.7 0-7.1-2.3-2.5-2.4-2.5-6.8 0-3.2 1.3-6.3 1.3-3.1 3.5-5.4 1.7-1.8 3.8-2.7 2.2-1 4.4-1 4 0 6.3 2.4t2.3 6.4v1.7l-.4 2.7h-17l-.2 1.2v1q0 2.8 1.6 4.3t4.7 1.5q1.8 0 4-.5 2.2-.6 4.6-1.8zm13-29.7h17.4l-.7 3.4H524l-4.7 24h6.6l-.7 3.5h-17.4l.7-3.6h6.6l4.7-23.9h-6.6zm34.3 10q.8-1.4 2.1-2.1 1.4-.8 3-.8 1.8 0 2.9 1.1 1 1.1 1 3l-.1 2.6-.7 3.6-2.6 13.5h-3.6l2.7-13.3.5-3.1.2-1.8q0-1.3-.4-1.8-.5-.6-1.6-.6-1.6 0-2.5 1.3-.8 1.4-1.7 6l-2.7 13.3h-3.5l2.6-13.3.6-3.2.2-1.7q0-1.2-.5-1.8-.5-.6-1.5-.6-1.6 0-2.5 1.2-.8 1.2-1.7 6l-2.7 13.4h-3.5l4.6-23.3h3.5l-.4 2q1-1.2 2-1.8 1.3-.7 2.6-.7 1.6 0 2.5.8 1 .7 1.2 2.1zm24.8 9.2q-2.6 0-3.8.2-1.2.1-2 .5-1.5.5-2.4 1.8-.8 1.3-.8 2.8 0 1.7 1 2.8 1.1 1 3 1 3 0 5.3-2.2t3.1-6l.2-1zm7.7-1.6-2.6 13.3h-3.8l.6-3.5q-1.5 2-3.5 3-2.1 1-4.4 1-3.2 0-5.2-1.7-1.9-1.7-1.9-4.6 0-4 3.3-6.4 3.2-2.5 8.8-2.5h5.1l.3-1.3v-.9q0-1.8-1.3-2.7-1.3-1-3.7-1-1.8 0-4 .6-2 .5-4.4 1.5l.8-3.7q2.2-.8 4.3-1.2 2-.4 3.9-.4 3.9 0 6 1.7 2.2 1.7 2.2 4.7v1.7l-.5 2.4zm14.3 10.3q1.7 0 3.1-1 1.4-1 2.4-2.6 1-2 1.6-4.2.6-2.4.6-4.6 0-2.4-1.2-3.8t-3.3-1.4q-3.2 0-5.4 3.5t-2.2 8.8q0 2.5 1.2 3.9t3.3 1.4zm9.1 1.5q-1.1 5.6-4 8-2.7 2.6-7.9 2.6-1.7 0-3.4-.3t-3.2-.9l.7-3.7q1.6.9 3.2 1.4 1.7.4 3.3.4 3.2 0 4.9-1.6 1.7-1.7 2.5-5.5l.5-2.5q-1.2 1.8-3 2.8-1.9 1-4.2 1-3.2 0-5.1-2.3-2-2.2-2-6 0-3 .9-5.8.8-2.8 2.4-5 1.5-2.3 3.7-3.6 2.2-1.3 4.5-1.3 2.1 0 3.7 1t2.3 2.8l.6-3.2h3.9zm25.9-12.2.1-1v-.6q0-2.5-1.3-3.9-1.4-1.4-3.8-1.4-2.6 0-4.7 1.9-2.2 1.9-3.1 5zm.4 12.5q-2.2.9-4.3 1.3-2 .5-4.3.5-4.6 0-7-2.3-2.5-2.4-2.5-6.8 0-3.2 1.2-6.3 1.3-3.1 3.5-5.4 1.8-1.8 3.9-2.7 2.1-1 4.4-1 3.9 0 6.2 2.4 2.4 2.4 2.4 6.4l-.1 1.7-.4 2.7h-17l-.1 1.2v1q0 2.8 1.5 4.3 1.7 1.5 4.7 1.5 1.9 0 4-.5 2.3-.6 4.7-1.8z"
    aria-label="ProfileImage" font-family="Menlo,Menlo_MSFontService,sans-serif" font-size="55" font-style="italic"
    id="path485" />
  <path fill="#f8f8f2"
    d="M655.2 132.6q-2.8 4.7-4.2 9.4-1.4 4.7-1.4 9.5 0 4.7 1.4 9.4t4.2 9.5h-3.4q-3.1-5-4.7-9.6-1.5-4.7-1.5-9.3 0-4.7 1.5-9.3 1.6-4.7 4.7-9.6zm15.3 0h3.3q3.2 4.9 4.7 9.6 1.6 4.6 1.6 9.3 0 4.6-1.6 9.3-1.5 4.7-4.7 9.6h-3.3q2.7-4.8 4.1-9.5 1.4-4.7 1.4-9.4 0-4.8-1.4-9.5t-4.1-9.4zm27.8 26.8h6.6v5.5l-4.7 9H696l2.3-9Z"
    aria-label="()," font-family="Menlo,Menlo_MSFontService,sans-serif" font-size="55" id="path487" />
  <path fill="#f8f8f2"
    d="M98.5 183.5h3.4q3.2 5 4.7 9.6 1.6 4.7 1.6 9.3 0 4.7-1.6 9.4-1.5 4.6-4.7 9.5h-3.4q2.8-4.8 4.2-9.5 1.4-4.7 1.4-9.4t-1.4-9.4q-1.4-4.7-4.2-9.5zm27.9 26.8h6.6v5.5l-4.7 9h-4.2l2.3-9Z"
    aria-label=")," font-family="Menlo,Menlo_MSFontService,sans-serif" font-size="55" id="path489" />
  <path fill="#ffb86c"
    d="m103.8 260.3-.2 1.3v1q0 1.4.9 2.2.9.7 2.8.7h4.4l-.6 3.3h-4.4q-3.6 0-5.4-1.4-1.7-1.3-1.7-4V262l.4-1.8 4.4-21h-6.7l.7-3h10.5Zm27.9-3.3q-2.5 0-3.8.2-1.2.2-2 .6-1.5.5-2.4 1.8-.8 1.3-.8 2.8 0 1.7 1 2.7 1.1 1 3 1 3 0 5.3-2.1 2.3-2.2 3.1-6l.2-1zm7.8-1.5-2.7 13.3H133l.6-3.5q-1.5 2-3.5 3t-4.4 1q-3.2 0-5.2-1.7-1.9-1.7-1.9-4.6 0-4 3.3-6.5 3.2-2.4 8.8-2.4h5.1l.3-1.3v-.9q0-1.8-1.2-2.7-1.4-1-3.8-1-1.8 0-4 .5-2 .6-4.3 1.6l.7-3.7q2.3-.8 4.3-1.2 2-.4 4-.4 3.8 0 6 1.7t2.2 4.7l-.2 1.7q0 1.1-.3 2.4zm14.9 10.6q1.7 0 3.2-1 1.4-.8 2.3-2.6 1-2 1.7-4.4.6-2.4.6-4.6 0-2.7-1.1-4-1-1.3-3.2-1.3-1.7 0-3.2 1-1.4.9-2.5 2.7-1 1.8-1.6 4.2-.6 2.4-.6 4.7 0 2.6 1.1 4 1.2 1.3 3.3 1.3zm-2.2-17.6q1.3-1.7 3-2.6 1.7-1 3.8-1 3.5 0 5.4 2.2 2 2.2 2 6 0 3-1 6-.8 3-2.3 5.2-1.6 2.4-4 3.7-2.2 1.4-4.8 1.4-2 0-3.5-1-1.4-.8-2-2.6l-.6 3h-4l6.4-32.3h4zm36.5 6.5.1-.8v-.7q0-2.5-1.3-3.9-1.4-1.4-3.8-1.4-2.6 0-4.7 1.9-2.2 1.8-3 5zm.4 12.6q-2.2.9-4.3 1.3-2 .5-4.2.5-4.7 0-7.2-2.3-2.4-2.4-2.4-6.8 0-3.2 1.3-6.3 1.2-3.2 3.5-5.4 1.7-1.8 3.8-2.7 2.1-1 4.4-1 4 0 6.3 2.4t2.3 6.3l-.1 1.8-.4 2.7h-17l-.1 1.2v1q0 2.8 1.5 4.3 1.7 1.5 4.8 1.5 1.8 0 4-.6t4.6-1.7zm18.4-7.3-.3 1.3v1q0 1.4.9 2.2 1 .7 2.8.7h4.5l-.7 3.3h-4.3q-3.7 0-5.4-1.4-1.8-1.3-1.8-4l.1-1.4.3-1.8 4.4-21h-6.6l.6-3h10.5z"
    aria-label="label" font-family="Menlo,Menlo_MSFontService,sans-serif" font-size="55" font-style="italic"
    id="path491" />
  <path fill="#ff79c6" d="M230.2 245.6h6.6v7.4h-6.6zm0 15.6h6.6v7.6h-6.6z" aria-label=":"
    font-family="Menlo,Menlo_MSFontService,sans-serif" font-size="55" id="path493" />
  <path fill="#f8f8f2"
    d="M288.2 248.7H283v-4.3l4.2-7.9h3.2l-2 8Zm25.5 8v9q2.3 0 3.6-1.2 1.3-1.2 1.3-3.3 0-2-1.2-3t-3.7-1.5zm-2.1-4v-8.5q-2.2.1-3.5 1.3-1.2 1.1-1.2 3t1.2 2.9q1.1 1 3.5 1.4zm2 22.3h-2v-6.2q-2.2-.2-4.3-.6-2.1-.5-4.2-1.4v-3.7q2.1 1.3 4.2 2 2.2.7 4.3.7v-9.5q-4.2-.6-6.4-2.5-2-1.9-2-5 0-3.3 2.1-5.2 2.3-2 6.3-2.2v-4.9h2v4.9q1.7 0 3.5.4l3.4.8v3.6q-1.8-.9-3.5-1.3-1.7-.5-3.3-.6v8.9q4.3.6 6.6 2.7 2.2 2 2.2 5.2t-2.4 5.3q-2.5 2.1-6.4 2.3zm15.5-15v-14.4h3.9V260q0 3 1.1 4.6 1.1 1.4 3.5 1.4 2.7 0 4.2-1.9 1.4-1.9 1.4-5.4v-13.1h4v23.2h-4v-3.5q-1 2-2.8 3-1.7 1-4.1 1-3.6 0-5.4-2.3-1.8-2.3-1.8-7zm42.3-13.7v3.8q-1.7-1-3.3-1.5-1.7-.4-3.5-.4-2.6 0-3.9.8-1.3.8-1.3 2.6 0 1.5 1 2.3 1 .8 4.8 1.5l1.5.3q3 .5 4.4 2.1 1.5 1.6 1.5 4.2 0 3.5-2.5 5.4-2.5 2-6.9 2-1.7 0-3.6-.4-2-.4-4.2-1.1v-4q2.2 1.2 4.2 1.7 2 .6 3.7.6 2.6 0 4-1t1.4-3q0-2.6-5.2-3.6h-.1l-1.5-.3q-3.3-.7-4.9-2.2-1.5-1.5-1.5-4.2 0-3.3 2.3-5.1 2.3-1.8 6.5-1.8 2 0 3.7.3l3.4 1zm29 8.9v1.9h-16.8v.1q-.1 4.8 1.9 6.8 2 2.1 5.6 2.1 1.9 0 4-.6 2-.5 4.2-1.7v3.8q-2.2.9-4.2 1.3-2 .5-4 .5-5.5 0-8.6-3.3-3-3.2-3-9 0-5.5 3-8.8 3-3.3 8-3.3 4.5 0 7.1 3 2.6 3 2.8 7.2zm-3.9-1q-.2-2.5-1.8-4.2-1.5-1.8-4.3-1.8t-4.6 1.8q-1.8 1.9-2 4.1zm30.5-3.9q-1.2-1-2.5-1.4-1.3-.4-2.8-.4-3.6 0-5.5 2.2-2 2.3-2 6.5v11.6h-3.8v-23.3h3.9v4.6q1-2.5 3-3.8 2-1.3 4.7-1.3 1.4 0 2.7.3 1.2.4 2.3 1.1zm13.5-13.8h5.3v4.3l-4.2 8h-3.2l2-8zm34.5 9.8v3.8q-1.6-1-3.3-1.5-1.7-.4-3.4-.4-2.7 0-4 .8-1.2.8-1.2 2.6 0 1.5 1 2.3.9.8 4.7 1.5l1.6.3q2.9.5 4.3 2.1 1.5 1.6 1.5 4.2 0 3.5-2.5 5.4-2.4 2-6.8 2-1.8 0-3.7-.4-2-.4-4.1-1.1v-4q2.1 1.2 4.1 1.7 2 .6 3.7.6 2.6 0 4-1t1.4-3q0-2.6-5.1-3.6h-.2l-1.4-.3q-3.4-.7-5-2.2-1.5-1.5-1.5-4.2 0-3.3 2.3-5.1 2.3-1.8 6.6-1.8 1.9 0 3.6.3 1.8.4 3.4 1zm39.3 19.5v11.8h-3.9v-32h3.9v2.9q1-1.7 2.5-2.6 1.7-1 3.8-1 4.2 0 6.7 3.3 2.4 3.3 2.4 9t-2.4 9q-2.5 3.2-6.7 3.2-2.2 0-3.8-1-1.6-.9-2.5-2.6zm11.3-8.6q0-4.5-1.4-6.7-1.4-2.3-4.2-2.3-2.8 0-4.3 2.3-1.4 2.2-1.4 6.7 0 4.4 1.4 6.6 1.5 2.3 4.3 2.3t4.2-2.2q1.4-2.3 1.4-6.7zm31-6.9q-1.3-1-2.5-1.4-1.3-.4-2.9-.4-3.6 0-5.5 2.2-1.9 2.3-1.9 6.5v11.6H540v-23.3h4v4.6q.9-2.5 2.9-3.8 2-1.3 4.7-1.3 1.5 0 2.7.3 1.3.4 2.4 1.1zm14.6-2.1q-3 0-4.5 2.3-1.5 2.2-1.5 6.7 0 4.4 1.5 6.7 1.5 2.2 4.5 2.2t4.4-2.2q1.6-2.3 1.6-6.7 0-4.5-1.6-6.7-1.5-2.3-4.4-2.3zm0-3.2q4.9 0 7.4 3.1 2.7 3.1 2.7 9 0 6-2.6 9.1-2.6 3.2-7.5 3.2-5 0-7.5-3.2-2.6-3-2.6-9t2.6-9q2.6-3.2 7.5-3.2zm35.3-8.5v3.2H602q-2.1 0-3 .8-.7.8-.7 3v2h8v3h-8v20.3h-3.9v-20.3h-6.3v-3h6.3V244q0-3.8 1.8-5.6 1.8-1.8 5.5-1.8zm10.2 9.1h9.9v20.2h7.7v3H615v-3h7.7v-17.2h-6zm6-9h3.9v4.8h-3.9zm28.3 23.8q0 2.5 1 3.8 1 1.3 2.8 1.3h4.6v3.3h-5q-3.4 0-5.3-2.2t-1.9-6.2v-21H641v-3h10zm34.4-5.2v1.9h-16.7v.1q-.2 4.8 1.8 6.8 2 2.1 5.7 2.1 1.8 0 3.8-.6 2-.5 4.3-1.7v3.8q-2.2.9-4.2 1.3-2 .5-4 .5-5.5 0-8.6-3.3-3-3.2-3-9 0-5.5 3-8.8 3-3.3 8-3.3 4.5 0 7.1 3 2.6 3 2.8 7.2zm-3.9-1q-.2-2.5-1.8-4.2-1.5-1.8-4.3-1.8t-4.6 1.8q-1.8 1.9-2 4.1zm40.1 11.6v11.8h-4v-32h4v2.9q1-1.7 2.5-2.6 1.6-1 3.7-1 4.3 0 6.7 3.3 2.5 3.3 2.5 9t-2.5 9q-2.4 3.2-6.7 3.2-2.1 0-3.7-1-1.6-.9-2.5-2.6zm11.3-8.6q0-4.5-1.4-6.7-1.4-2.3-4.2-2.3-2.8 0-4.3 2.3-1.4 2.2-1.4 6.7 0 4.4 1.4 6.6 1.5 2.3 4.3 2.3t4.2-2.2q1.4-2.3 1.4-6.7zm13.3-11.6h10v20.2h7.6v3h-19.2v-3h7.7v-17.2h-6zm6-9h4v4.8h-4zm35.6 31q-1.6.9-3.2 1.3-1.7.5-3.4.5-5.4 0-8.5-3.3-3.1-3.2-3.1-9 0-5.7 3-8.9 3.2-3.2 8.6-3.2 1.7 0 3.3.4 1.7.4 3.3 1.4v4q-1.5-1.4-3-2-1.6-.6-3.6-.6-3.6 0-5.6 2.3-2 2.4-2 6.7 0 4.3 2 6.6t5.6 2.3q2 0 3.6-.6t3-1.9zm16.5-28.6v6.5h8.8v3h-8.8v12.6q0 2.6 1 3.6t3.4 1h4.4v3h-4.7q-4.4 0-6.2-1.7-1.8-1.7-1.8-5.9v-12.6h-6.2v-3h6.2V239zm17.1 21v-14.4h3.9V260q0 3 1.1 4.6 1.1 1.4 3.5 1.4 2.7 0 4.2-1.9 1.4-1.9 1.4-5.4v-13.1h4v23.2h-4v-3.5q-1 2-2.8 3-1.8 1-4.1 1-3.6 0-5.4-2.3-1.8-2.3-1.8-7zm46.1-9.7q-1.2-1-2.5-1.4-1.3-.4-2.8-.4-3.6 0-5.6 2.2-1.9 2.3-1.9 6.5v11.6h-3.9v-23.3h4v4.6q.9-2.5 2.9-3.8 2-1.3 4.8-1.3 1.4 0 2.6.3 1.3.4 2.4 1.1zm25.2 4.9v1.9h-16.8v.1q-.1 4.8 1.9 6.8 2 2.1 5.6 2.1 1.9 0 3.9-.6 2-.5 4.3-1.7v3.8q-2.2.9-4.3 1.3-2 .5-4 .5-5.4 0-8.5-3.3-3-3.2-3-9 0-5.5 3-8.8 3-3.3 8-3.3 4.5 0 7.1 3 2.6 3 2.8 7.2zm-3.9-1q-.2-2.5-1.8-4.2-1.5-1.8-4.3-1.8T878 250q-1.9 1.9-2 4.1zm18-17.7h5.3v4.3l-4.1 8h-3.2l2-8zm23.5 24.8h6.5v5.5l-4.7 8.9H928l2.4-9z"
    aria-label="‘$user’s profile picture’," font-family="Menlo,Menlo_MSFontService,sans-serif" font-size="55"
    id="path495" />
  <path fill="#ffb86c"
    d="M102.5 317q1.8 0 3.2-.9 1.5-.9 2.4-2.7 1-2 1.6-4.3.7-2.4.7-4.7 0-2.6-1.1-4-1-1.3-3.2-1.3-1.7 0-3.2 1-1.4 1-2.5 2.7-1 1.8-1.6 4.3-.6 2.4-.6 4.7 0 2.5 1.1 3.9t3.2 1.4zm-2.2-17.6q1.3-1.7 3-2.6 1.8-.9 4-.9 3.4 0 5.3 2.2 1.9 2.1 1.9 6 0 3-.9 6-.8 3-2.3 5.2-1.6 2.4-4 3.7-2.2 1.3-4.8 1.3-2.1 0-3.5-.9t-2.1-2.6l-.6 2.9h-3.8l6.3-32.3h4zm19.8 11.5 2.8-14.4h4l-3 14.4-.2 1.4v1.2q0 1.7 1 2.6 1 .8 2.7.8 2.7 0 4.5-1.9 1.9-1.9 2.6-5.4l2.5-13.1h4l-4.6 23.2h-4l.8-3.5q-1.6 2-3.4 3-1.9 1-4.1 1-2.8 0-4.4-1.5-1.6-1.5-1.6-4.1l.1-1.8.3-2zm39.1-21-1.3 6.6h8.8l-.6 3h-8.8l-2.5 12.5-.2 1.2v1q0 1.3.7 2 .9.4 3 .4h4.4l-.7 3h-4.6q-3.5 0-5.2-1-1.6-1.2-1.6-3.7v-1.2l.3-1.7 2.5-12.6h-6.3l.6-3h6.3l1.3-6.5zm25.8 0-1.2 6.6h8.8l-.6 3h-8.8l-2.5 12.5-.2 1.2v1q0 1.3.8 2 .8.4 3 .4h4.3l-.6 3h-4.7q-3.5 0-5.2-1-1.6-1.2-1.6-3.7v-1.2l.3-1.7 2.5-12.6H173l.6-3h6.3l1.3-6.5zm24.5 9.3q-3.5 0-5.8 3.5t-2.3 9q0 2.7 1.2 4 1.2 1.4 3.5 1.4 3.5 0 5.8-3.6 2.3-3.5 2.3-9 0-2.7-1.2-4-1.2-1.3-3.5-1.3zm.3-3.3q4.2 0 6.3 2.2 2.2 2.3 2.2 6.5 0 2.9-.9 5.7-.9 2.8-2.4 5.1-1.7 2.4-4 3.7-2.4 1.2-5.5 1.2-4 0-6-2.3-2.2-2.2-2.2-6.5 0-2.8.9-5.5.8-2.8 2.4-5.2 1.7-2.4 4-3.6 2.4-1.3 5.2-1.3zm33.6 9.4-2.9 14.4h-3.9l2.9-14.4v-.3q.4-1.5.4-2.3 0-1.7-1-2.6-1-.9-2.8-.9-2.7 0-4.6 2-1.8 1.9-2.5 5.4l-2.6 13h-3.9l4.6-23.1h3.9l-.7 3.5q1.6-2 3.4-3 1.9-1 4-1 2.9 0 4.5 1.4 1.6 1.5 1.6 4.2l-.1 1.7-.3 2z"
    aria-label="button" font-family="Menlo,Menlo_MSFontService,sans-serif" font-size="55" font-style="italic"
    id="path497" />
  <path fill="#ff79c6" d="M256.2 296.5h6.6v7.5h-6.6zm0 15.6h6.6v7.6h-6.6z" aria-label=":"
    font-family="Menlo,Menlo_MSFontService,sans-serif" font-size="55" id="path499" />
  <path fill="#bd93f9"
    d="M312.1 289.9v6.6h8.8v3h-8.8V312q0 2.6 1 3.6t3.5 1h4.3v3h-4.7q-4.4 0-6.2-1.6-1.7-1.7-1.7-6v-12.6H302v-3h6.3V290zm37.3 11.4q-1.2-1-2.5-1.4-1.3-.5-2.8-.5-3.7 0-5.6 2.3-1.9 2.2-1.9 6.4v11.6h-3.9v-23.2h4v4.5q.9-2.4 2.9-3.8 2-1.3 4.8-1.3 1.4 0 2.6.4 1.3.3 2.4 1zm5.7 9.7v-14.5h3.9V311q0 3.1 1.1 4.6 1.1 1.5 3.5 1.5 2.7 0 4.2-2 1.4-1.8 1.4-5.4v-13h4v23h-4v-3.4q-1 2-2.8 3-1.7 1.1-4.1 1.1-3.6 0-5.4-2.3-1.8-2.4-1.8-7zm45.4-4.8v1.8h-16.8v.2q-.1 4.7 1.9 6.8 2 2 5.6 2 1.9 0 3.9-.5 2-.6 4.3-1.8v3.8q-2.2.9-4.3 1.3-2 .5-4 .5-5.4 0-8.5-3.2-3-3.3-3-9 0-5.5 3-8.9 3-3.3 8-3.3 4.5 0 7.1 3 2.6 3 2.8 7.3zm-3.9-1.1q-.2-2.4-1.8-4.2-1.5-1.7-4.3-1.7t-4.6 1.8q-1.9 1.8-2 4z"
    aria-label="true" font-family="Menlo,Menlo_MSFontService,sans-serif" font-size="55" id="path501" />
  <path fill="#f8f8f2" d="M412.5 312.2h6.6v5.5l-4.7 9h-4.2l2.3-9Z" aria-label=","
    font-family="Menlo,Menlo_MSFontService,sans-serif" font-size="55" id="path503" />
  <path fill="#ffb86c"
    d="m113.8 356.3-2.8 14.3h-4l2.8-14.4.1-.3q.3-1.4.3-2.2 0-1.7-1-2.6-1-1-2.8-1-2.6 0-4.5 2t-2.6 5.4l-2.6 13.1H93l6.3-32.2h4l-2.5 12.5q1.6-2 3.4-3 1.8-1 3.9-1 3 0 4.5 1.5 1.6 1.5 1.6 4.2v1.6l-.4 2zm10.8-8.9h10l-4 20.3h7.6l-.6 3h-19.2l.6-3h7.7l3.4-17.3h-6zm7.8-9h4l-1 4.8h-3.9zm33.2 17.9-2.8 14.3h-3.9l2.9-14.4v-.3q.3-1.4.3-2.2 0-1.7-1-2.6-1-1-2.7-1-2.7 0-4.6 2-1.9 2-2.6 5.4l-2.5 13.1h-3.9l4.6-23.2h3.9l-.7 3.5q1.6-2 3.4-3 1.8-1 4-1 2.8 0 4.4 1.5 1.7 1.5 1.7 4.2l-.2 1.6q0 1-.3 2zm19.4-15.5-1.2 6.6h8.8l-.6 3h-8.8l-2.5 12.6-.2 1.1v1q0 1.4.8 2 .8.5 3 .5h4.3l-.6 3h-4.7q-3.5 0-5.2-1.1-1.6-1.2-1.6-3.6v-1.2l.3-1.7 2.5-12.6H173l.6-3h6.3l1.3-6.6z"
    aria-label="hint" font-family="Menlo,Menlo_MSFontService,sans-serif" font-size="55" font-style="italic"
    id="path505" />
  <path fill="#ff79c6" d="M204.2 347.4h6.6v7.5h-6.6zm0 15.7h6.6v7.5h-6.6z" aria-label=":"
    font-family="Menlo,Menlo_MSFontService,sans-serif" font-size="55" id="path507" />
  <path fill="#f8f8f2"
    d="M262.2 350.6H257v-4.3l4-8h3.3l-2 8Zm23.8-.5q-2.9 0-4.4 2.3-1.5 2.2-1.5 6.7 0 4.4 1.5 6.6 1.5 2.3 4.5 2.3t4.5-2.3q1.5-2.2 1.5-6.6 0-4.5-1.5-6.7-1.6-2.3-4.5-2.3zm0-3.2q5 0 7.6 3 2.6 3.2 2.6 9.2 0 5.9-2.6 9-2.6 3.1-7.5 3.1-5 0-7.5-3-2.6-3.2-2.6-9.1 0-6 2.6-9.1 2.6-3.1 7.5-3.1zm21 20.8v11.8h-4v-32h4v2.9q.9-1.7 2.5-2.6 1.6-1 3.7-1 4.3 0 6.7 3.3 2.4 3.3 2.4 9t-2.4 9q-2.5 3.1-6.7 3.1-2.1 0-3.8-.9-1.6-.9-2.5-2.6Zm11.3-8.6q0-4.5-1.5-6.7-1.4-2.3-4.2-2.3-2.8 0-4.2 2.3-1.5 2.2-1.5 6.7 0 4.3 1.5 6.6 1.4 2.3 4.2 2.3 2.8 0 4.2-2.3 1.5-2.2 1.5-6.6zm30.2-2v1.9h-16.8v.1q-.1 4.8 1.9 6.8 2 2.1 5.6 2.1 1.9 0 4-.6 2-.6 4.2-1.7v3.8q-2.2.8-4.3 1.3-2 .4-3.9.4-5.5 0-8.6-3.2-3-3.2-3-9 0-5.5 3-8.8 3-3.3 8-3.3 4.5 0 7.1 3 2.6 3 2.8 7.2zm-3.9-1.1q-.2-2.4-1.8-4.1-1.5-1.8-4.3-1.8t-4.6 1.8q-1.8 1.8-2 4.1zm28.4.3v14.3h-4v-14.3q0-3.2-1-4.6-1.2-1.5-3.5-1.5-2.8 0-4.2 1.9-1.5 1.9-1.5 5.4v13.1H355v-23.2h3.8v3.5q1-2 2.8-3 1.8-1 4.2-1 3.6 0 5.4 2.3 1.7 2.3 1.7 7zm37.6 11.4v11.8h-4v-32h4v2.9q1-1.7 2.5-2.6 1.6-1 3.7-1 4.3 0 6.7 3.3 2.5 3.3 2.5 9t-2.5 9q-2.4 3.1-6.7 3.1-2.1 0-3.7-.9t-2.5-2.6zm11.3-8.6q0-4.5-1.4-6.7-1.4-2.3-4.2-2.3-2.8 0-4.3 2.3-1.4 2.2-1.4 6.7 0 4.3 1.4 6.6 1.5 2.3 4.3 2.3t4.2-2.3q1.4-2.2 1.4-6.6zm31-6.9q-1.3-1-2.6-1.4-1.2-.4-2.8-.4-3.6 0-5.5 2.2-2 2.3-2 6.5v11.5h-3.8v-23.2h3.9v4.6q1-2.5 3-3.8 2-1.3 4.7-1.3 1.4 0 2.7.3 1.2.4 2.4 1.1zm14.5-2.1q-2.9 0-4.4 2.3-1.5 2.2-1.5 6.7 0 4.4 1.5 6.6 1.5 2.3 4.4 2.3 3 0 4.5-2.3 1.5-2.2 1.5-6.6 0-4.5-1.5-6.7-1.5-2.3-4.5-2.3zm0-3.2q5 0 7.5 3 2.6 3.2 2.6 9.2 0 5.9-2.6 9-2.5 3.1-7.5 3.1-4.9 0-7.4-3-2.6-3.2-2.6-9.1 0-6 2.6-9.1 2.5-3.1 7.4-3.1zm35.3-8.5v3.2h-4.3q-2.1 0-3 .8-.7.8-.7 3v2h8v3h-8v20.2h-4v-20.2h-6.2v-3h6.3v-1.6q0-3.8 1.8-5.6 1.7-1.8 5.5-1.8zm10.3 9.1h9.9v20.2h7.6v3h-19.2v-3h7.7v-17.2h-6zm6-9h3.9v4.8h-4zm28.3 23.7q0 2.6 1 4 1 1.2 2.8 1.2h4.5v3.2h-4.9q-3.4 0-5.3-2.1-2-2.2-2-6.3v-21h-6.1v-3h10zm34.4-5.1v1.9h-16.8v.1q-.1 4.8 1.9 6.8 2 2.1 5.6 2.1 1.9 0 3.9-.6t4.3-1.7v3.8q-2.2.8-4.3 1.3-2 .4-4 .4-5.4 0-8.5-3.2-3-3.2-3-9 0-5.5 3-8.8 3-3.3 8-3.3 4.5 0 7.1 3 2.6 3 2.8 7.2zm-3.9-1.1q-.2-2.4-1.8-4.1-1.5-1.8-4.3-1.8t-4.6 1.8q-1.9 1.8-2 4.1zm40 11.7v11.8H614v-32h3.8v2.9q1-1.7 2.6-2.6 1.6-1 3.7-1 4.3 0 6.7 3.3 2.4 3.3 2.4 9t-2.4 9q-2.4 3.1-6.7 3.1-2.1 0-3.7-.9t-2.6-2.6zm11.4-8.6q0-4.5-1.4-6.7-1.4-2.3-4.2-2.3-2.9 0-4.3 2.3-1.5 2.2-1.5 6.7 0 4.3 1.5 6.6 1.4 2.3 4.3 2.3 2.8 0 4.2-2.3 1.4-2.2 1.4-6.6zm21.4-.1h-1.3q-3.3 0-5 1.1-1.8 1.2-1.8 3.5 0 2.1 1.3 3.3 1.3 1.1 3.6 1.1 3.2 0 5-2.1 1.8-2.2 1.8-6v-1zm7.5-1.6v13.2h-3.9v-3.4q-1.2 2-3.1 3-1.9 1-4.6 1-3.5 0-5.7-2-2.1-2-2.1-5.3 0-3.9 2.6-6 2.6-2 7.7-2h5.2v-.5q0-2.8-1.4-4-1.4-1.3-4.5-1.3-2 0-4 .6-2 .5-4 1.6v-3.8q2.2-.8 4.2-1.2 2-.4 3.8-.4 3 0 5 .8 2 .9 3.4 2.6.8 1 1 2.5.4 1.5.4 4.6zm21.7 1.4q0-4.2-1.4-6.5-1.4-2.2-4.1-2.2-2.9 0-4.4 2.2-1.5 2.3-1.5 6.5 0 4.3 1.5 6.6 1.5 2.2 4.4 2.2 2.7 0 4-2.2 1.5-2.3 1.5-6.6zm3.9 10.3q0 5.3-2.5 8t-7.4 2.7q-1.6 0-3.3-.3-1.8-.3-3.5-.9v-3.8q2 1 3.7 1.5 1.7.4 3.1.4 3.2 0 4.6-1.7 1.4-1.6 1.4-5.3V367q-1 2-2.5 3-1.6.9-3.9.9-4.1 0-6.6-3.3-2.4-3.2-2.4-8.7 0-5.4 2.4-8.7 2.5-3.2 6.6-3.2 2.3 0 3.8.9 1.6.8 2.6 2.7v-3h3.9zm27.5-12v1.9h-16.7v.1q-.2 4.8 1.8 6.8 2 2.1 5.7 2.1 1.8 0 3.8-.6 2-.6 4.4-1.7v3.8q-2.3.8-4.3 1.3-2 .4-4 .4-5.4 0-8.5-3.2-3.1-3.2-3.1-9 0-5.5 3-8.8 3-3.3 8-3.3 4.6 0 7.2 3 2.6 3 2.7 7.2zm-3.8-1.1q-.3-2.4-1.8-4.1-1.5-1.8-4.4-1.8-2.8 0-4.6 1.8-1.8 1.8-2 4.1zm21.2-5.4h-5.3v-4.3l4.1-8h3.3l-2 8z"
    aria-label="‘open profile page‘" font-family="Menlo,Menlo_MSFontService,sans-serif" font-size="55" id="path509" />
  <path fill="#f8f8f2"
    d="M46.5 387.3H50q3.2 4.9 4.7 9.6 1.6 4.7 1.6 9.3 0 4.6-1.6 9.3-1.5 4.7-4.7 9.6h-3.4q2.8-4.8 4.2-9.5 1.4-4.7 1.4-9.4t-1.4-9.5q-1.4-4.7-4.2-9.4z"
    aria-label=")" font-family="Menlo,Menlo_MSFontService,sans-serif" font-size="55" id="path511" />
</svg>