<svg xmlns="http://www.w3.org/2000/svg" viewBox="0 0 121 40">
  <defs>
    <clipPath id="a" clipPathUnits="userSpaceOnUse">
      <path d="M0 792h1224V0H0Z"/>
    </clipPath>
  </defs>
  <path d="M25.94 20.55 23.2 17.8v7.79h2.75Z"/>
  <g clip-path="url(#a)" transform="matrix(.22217 0 0 -.22217 -75.5 107.79)">
    <path d="M407.08 429.98h30.17l-12.34 12.33-.05.06H409a20.4 20.4 0 0 1-1.92 40.7v-40.75l-33.9 33.79a60.64 60.64 0 0 1-10.56-6.97l32.08-31.95v-70.17l24.77-24.77v17.51l-12.39 12.39Z"/>
    <path d="m419.47 429.9-.06-59.82h12.38l.06 47.38zm42.5-24.84-12.39 12.38h-17.73l12.37-12.38Zm-79.66-26.39v53.29l-28.45 28.45a61.71 61.71 0 0 1-6.98-10.55l23.04-23.04V409.3l-27.95 27.97a61.65 61.65 0 0 1-2.1-15.42s41.05-41.74 42.44-43.18m-42.23 25.46v-17.51l79.4-79.39v17.51zm141.32-18.48h-12.39v-15.66h-12.38a20.4 20.4 0 1 1 40.8 0zm100.88-15.92-9.3-17.67h-57.87l37.63 72.3h-33.32l9.3 17.67h57.88l-37.64-72.3Zm33.61 36.28h29.68v-17.67h-29.68v-18.61h29.68v-17.67h-51.53v89.97h51.53v-17.67h-29.68Zm62.24-38.31h7.96c9.17 0 13.09 3.1 13.09 10.4 0 4.3-1.62 7.41-4.86 9.17-2.43 1.34-4.59 1.61-11.2 1.61h-4.99Zm0 37.1h5.4c9.98 0 14.16 3.1 14.16 10.52 0 7.29-4.18 10.39-14.43 10.39h-5.13Zm8.9 37.23c11.47 0 18.08-1.22 22.94-4.32 6.2-3.77 9.98-11.46 9.98-20.1 0-6.33-2.03-11.6-6.07-15.64-2.57-2.7-4.59-3.92-9.44-5.26 5.53-1.22 7.95-2.43 10.79-5.13 4.04-3.77 6.07-9.04 6.07-15.65 0-8.36-3.38-15.78-9.18-19.69-4.45-2.97-9.84-4.18-19.01-4.18h-36.83v89.97zm71.62-42.89c8.9 0 14.3 4.58 14.3 12.4 0 7.42-5.27 12.55-12.95 12.55h-8.37v-24.95Zm-7.02-47.08h-21.85v89.97h29.14c11.87 0 20.5-2.16 26.43-6.74 6.2-4.86 9.72-12.95 9.72-22.8 0-13.76-5.8-22.8-17.4-27.38l19.82-33.05h-26.16l-19.7 34.8zm80.01 35.39 9.04 28.8 9.02-28.8Zm29.15-35.4h23.71l-29.54 89.98h-27.79l-29.67-89.97h23.04l5.55 17.7h29.16z"/>
  </g>
</svg>
